<svg width="57" height="44" viewBox="0 0 57 44" fill="none" xmlns="http://www.w3.org/2000/svg">
<path d="M34.5714 6.28571C34.5714 7.95279 33.9092 9.55158 32.7304 10.7304C31.5516 11.9092 29.9528 12.5714 28.2857 12.5714C26.6186 12.5714 25.0198 11.9092 23.841 10.7304C22.6622 9.55158 22 7.95279 22 6.28571C22 4.61864 22.6622 3.01984 23.841 1.84104C25.0198 0.662243 26.6186 0 28.2857 0C29.9528 0 31.5516 0.662243 32.7304 1.84104C33.9092 3.01984 34.5714 4.61864 34.5714 6.28571Z" fill="#1034A6"/>
<path d="M0 22.0002C0 21.1666 0.331121 20.3672 0.920521 19.7778C1.50992 19.1884 2.30932 18.8573 3.14286 18.8573H53.4286C54.2621 18.8573 55.0615 19.1884 55.6509 19.7778C56.2403 20.3672 56.5714 21.1666 56.5714 22.0002C56.5714 22.8337 56.2403 23.6331 55.6509 24.2225C55.0615 24.8119 54.2621 25.143 53.4286 25.143H3.14286C2.30932 25.143 1.50992 24.8119 0.920521 24.2225C0.331121 23.6331 0 22.8337 0 22.0002Z" fill="#1034A6"/>
<path d="M28.2857 43.9999C29.9528 43.9999 31.5516 43.3377 32.7304 42.1589C33.9092 40.9801 34.5714 39.3813 34.5714 37.7142C34.5714 36.0471 33.9092 34.4483 32.7304 33.2695C31.5516 32.0907 29.9528 31.4285 28.2857 31.4285C26.6186 31.4285 25.0198 32.0907 23.841 33.2695C22.6622 34.4483 22 36.0471 22 37.7142C22 39.3813 22.6622 40.9801 23.841 42.1589C25.0198 43.3377 26.6186 43.9999 28.2857 43.9999Z" fill="#1034A6"/>
</svg>
