<svg width="22" height="22" viewBox="0 0 24 24" fill="none" xmlns="http://www.w3.org/2000/svg">
<path fill-rule="evenodd" clip-rule="evenodd" d="M12 24C5.37258 24 0 18.6274 0 12C0 5.37258 5.37258 0 12 0C18.6274 0 24 5.37258 24 12C24 18.6274 18.6274 24 12 24ZM12.0005 21.8187C17.4229 21.8187 21.8187 17.4229 21.8187 12.0005C21.8187 6.57804 17.4229 2.18229 12.0005 2.18229C6.57804 2.18229 2.18229 6.57804 2.18229 12.0005C2.18229 17.4229 6.57804 21.8187 12.0005 21.8187ZM8.40736 17.1346L11.9996 13.5424L15.5919 17.1346L17.1346 15.5919L13.5424 11.9996L17.1346 8.40736L15.5919 6.86458L11.9996 10.4568L8.40736 6.86458L6.86458 8.40736L10.4568 11.9996L6.86458 15.5919L8.40736 17.1346Z" fill="#F15846"/>
</svg>
