<svg width="18" height="18" viewBox="0 0 18 18" fill="none" xmlns="http://www.w3.org/2000/svg">
<path fill-rule="evenodd" clip-rule="evenodd" d="M9 18C4.02944 18 0 13.9706 0 9C0 4.02944 4.02944 0 9 0C13.9706 0 18 4.02944 18 9C18 13.9706 13.9706 18 9 18ZM8.99999 16.3636C13.0668 16.3636 16.3636 13.0668 16.3636 8.99999C16.3636 4.93317 13.0668 1.63636 8.99999 1.63636C4.93317 1.63636 1.63636 4.93317 1.63636 8.99999C1.63636 13.0668 4.93317 16.3636 8.99999 16.3636ZM6.30583 12.8513L9.00001 10.1571L11.6942 12.8513L12.8513 11.6942L10.1571 9.00001L12.8513 6.30583L11.6942 5.14874L9.00001 7.84293L6.30583 5.14874L5.14874 6.30583L7.84293 9.00001L5.14874 11.6942L6.30583 12.8513Z" fill="#070707"/>
</svg>
