<svg width="56" height="56" viewBox="0 0 56 56" fill="none" xmlns="http://www.w3.org/2000/svg">
<rect width="56" height="56" rx="28" fill="#F15846" fill-opacity="0.15"/>
<path d="M38.8 38.5658L41.9245 41.7507L39.8415 43.8488L36.6868 40.6941L33.4868 43.8941L31.3585 41.7507L34.5434 38.5658L31.3585 35.3356L33.4415 33.2375L36.6415 36.4375L39.8415 33.2375L42 35.396L38.8 38.5658ZM27.5849 11.396L41.1698 17.4337V26.4903C41.1698 27.8488 41.0189 29.1771 40.7321 30.4903C39.4686 29.8357 38.0645 29.4989 36.6415 29.5092C34.2395 29.5092 31.936 30.4634 30.2375 32.1618C28.5391 33.8603 27.5849 36.1638 27.5849 38.5658C27.5849 40.6186 28.2642 42.5205 29.4264 44.03L27.5849 44.6035C19.7962 42.7017 14 34.8677 14 26.4903V17.4337L27.5849 11.396Z" fill="#F15846"/>
</svg>
