<svg width="226" height="198" viewBox="0 0 226 198" fill="none" xmlns="http://www.w3.org/2000/svg">
<path d="M222.204 71.0955V194.607H56.1235C53.3418 194.607 51.0918 192.353 51.0918 189.575V54.08C51.0918 51.2983 53.3418 49.0483 56.1235 49.0483H117.145C118.477 49.0483 119.756 49.5757 120.7 50.5205L134.772 64.5916C135.716 65.5365 136.995 66.0638 138.331 66.0638H217.173C219.95 66.0638 222.204 68.3182 222.204 71.0955Z" fill="#7B858F"/>
<path d="M142.036 90.5969C148.811 90.5969 154.303 85.105 154.303 78.3304C154.303 71.5558 148.811 66.064 142.036 66.064C135.262 66.064 129.77 71.5558 129.77 78.3304C129.77 85.105 135.262 90.5969 142.036 90.5969Z" fill="#5E646D"/>
<path d="M97.0098 107.284C99.2246 109.495 97.6602 113.283 94.5269 113.283H55.7939C54.2075 113.283 52.6387 113.203 51.0918 113.054V54.08C51.0918 51.2983 53.3418 49.0483 56.1235 49.0483H99.853C101.892 54.3261 103.013 60.0653 103.013 66.0638C103.013 79.1022 97.7261 90.9058 89.1832 99.4531L97.0098 107.284Z" fill="#5E646D"/>
<path d="M222.204 71.0957V194.607H205.497V71.0957C205.497 68.3183 203.247 66.064 200.465 66.064H217.173C219.95 66.064 222.204 68.3183 222.204 71.0957Z" fill="#5E646D"/>
<path d="M170.887 131.511L222.204 194.608H53.4819C51.9675 194.608 50.534 193.926 49.5787 192.752L4.93551 137.86C2.2619 134.573 4.60109 129.654 8.83869 129.654H166.984C168.498 129.654 169.931 130.336 170.887 131.511Z" fill="#64B9FC"/>
<path d="M222.204 194.607H200.566L149.251 131.511C148.293 130.338 146.861 129.652 145.349 129.652H166.983C168.499 129.652 169.932 130.338 170.885 131.511L222.204 194.607Z" fill="#507FDF"/>
<path d="M183.994 179.808H139.602C138.23 179.808 136.936 179.167 136.105 178.075L124.728 163.126C123.627 161.68 124.659 159.598 126.477 159.598H170.869C172.241 159.598 173.534 160.24 174.366 161.332L185.743 176.28C186.844 177.727 185.812 179.808 183.994 179.808Z" fill="white"/>
<path d="M183.994 179.808H169.712C171.531 179.808 172.564 177.729 171.461 176.279L160.084 161.333C159.253 160.239 157.961 159.597 156.59 159.597H170.868C172.243 159.597 173.535 160.239 174.366 161.333L185.743 176.279C186.842 177.729 185.814 179.808 183.994 179.808Z" fill="#F3F6F9"/>
<path d="M103.012 50.6089C103.012 24.5307 81.8717 3.39014 55.7939 3.39014C29.7399 3.39014 8.57471 24.5553 8.57471 50.6093C8.57515 76.6876 29.7153 97.8277 55.7935 97.8277H94.5265C97.658 97.8277 99.2264 94.0414 97.012 91.827L89.1824 83.9974C97.727 75.4527 103.012 63.6482 103.012 50.6089Z" fill="#507FDF"/>
<path d="M97.0095 91.8288C99.2243 94.0436 97.6599 97.8272 94.5266 97.8272H78.601C81.7299 97.8272 83.2987 94.0436 81.0839 91.8288L76.2289 86.9711C74.6139 85.3552 74.5115 82.7761 75.9837 81.0293C82.9107 72.8134 87.0868 62.1967 87.0868 50.6085C87.0868 27.2474 70.1196 7.84569 47.8352 4.06204C49.9916 3.69202 52.1972 3.47186 54.441 3.40858C80.8484 2.66459 102.566 23.3903 103.006 49.8043C103.228 63.1609 97.9012 75.2796 89.1829 83.9978L97.0095 91.8288Z" fill="#1C96F9"/>
<path d="M65.1161 50.6094L73.8999 41.8256C76.4742 39.2513 76.4742 35.0778 73.8999 32.5035C71.326 29.9292 67.1521 29.9292 64.5778 32.5035L55.794 41.2873L47.0102 32.5035C44.4363 29.9292 40.2624 29.9292 37.6881 32.5035C35.1137 35.0774 35.1137 39.2513 37.6881 41.8256L46.4719 50.6094L37.6881 59.3932C35.1137 61.9675 35.1137 66.141 37.6881 68.7153C38.9752 70.0025 40.6623 70.6463 42.3489 70.6463C44.0355 70.6463 45.723 70.0029 47.0097 68.7153L55.7935 59.9315L64.5773 68.7153C65.8645 70.0025 67.5511 70.6463 69.2382 70.6463C70.9248 70.6463 72.6123 70.0025 73.899 68.7153C76.4733 66.1414 76.4733 61.9675 73.899 59.3932L65.1161 50.6094Z" fill="white"/>
<path d="M142.036 80.2136C148.811 80.2136 154.303 74.7217 154.303 67.9471C154.303 61.1725 148.811 55.6807 142.036 55.6807C135.262 55.6807 129.77 61.1725 129.77 67.9471C129.77 74.7217 135.262 80.2136 142.036 80.2136Z" fill="#4ECDC4"/>
<path d="M154.302 67.9459C154.302 74.7227 148.809 80.2163 142.037 80.2163C139.767 80.2163 137.637 79.5997 135.815 78.5178C140.63 77.4077 144.218 73.0971 144.218 67.9459C144.218 62.7999 140.636 58.4835 135.821 57.3739C137.643 56.2977 139.767 55.6812 142.037 55.6812C148.808 55.6807 154.302 61.1743 154.302 67.9459Z" fill="#35BA83"/>
<path d="M184.994 53.2396C190.34 53.2396 194.674 48.9058 194.674 43.5597C194.674 38.2137 190.34 33.8799 184.994 33.8799C179.648 33.8799 175.314 38.2137 175.314 43.5597C175.314 48.9058 179.648 53.2396 184.994 53.2396Z" fill="#4ECDC4"/>
<path d="M194.673 43.5588C194.673 48.907 190.338 53.2418 184.994 53.2418C183.203 53.2418 181.522 52.7553 180.084 51.9014C183.884 51.0256 186.715 47.6238 186.715 43.5588C186.715 39.4979 183.889 36.0917 180.089 35.2158C181.526 34.3664 183.203 33.8799 184.994 33.8799C190.338 33.8799 194.673 38.2151 194.673 43.5588Z" fill="#35BA83"/>
<path d="M225.5 71.0973C225.5 66.5059 221.764 62.7702 217.172 62.7702H196.423C194.603 62.7702 193.127 64.2459 193.127 66.0661C193.127 67.8863 194.603 69.3619 196.423 69.3619H217.172C218.129 69.3619 218.908 70.1402 218.908 71.0973V185.332L173.444 129.432C171.856 127.479 169.501 126.359 166.984 126.359H128.577C126.757 126.359 125.281 127.835 125.281 129.655C125.281 131.475 126.757 132.951 128.577 132.951H166.983C167.508 132.951 167.998 133.184 168.329 133.591L215.275 191.313H53.4821C52.9574 191.313 52.4665 191.08 52.1356 190.672L7.49201 135.781C6.86799 135.013 7.1299 134.238 7.2714 133.941C7.41291 133.643 7.84928 132.951 8.83848 132.951H112.306C114.126 132.951 115.602 131.475 115.602 129.655C115.602 127.835 114.126 126.359 112.306 126.359H54.386V101.103C54.8536 101.116 55.3225 101.124 55.7931 101.124H94.5262C97.2907 101.124 99.7609 99.4738 100.819 96.9198C101.876 94.3652 101.297 91.4521 99.3421 89.497L93.7686 83.9235C101.499 75.1367 105.882 64.0877 106.276 52.3438H117.143C117.606 52.3438 118.042 52.5244 118.37 52.8518L127.618 62.0996C126.882 63.9062 126.473 65.8793 126.473 67.9469C126.473 76.528 133.454 83.5091 142.035 83.5091C150.139 83.5091 156.813 77.2817 157.53 69.3619H180.152C181.972 69.3619 183.448 67.8863 183.448 66.0661C183.448 64.2459 181.972 62.7702 180.152 62.7702H156.709C154.571 56.7273 148.802 52.3851 142.036 52.3851C137.936 52.3851 134.204 53.9812 131.421 56.5819L123.031 48.191C121.458 46.6182 119.367 45.7521 117.143 45.7521H106.068C105.26 37.2835 102.35 29.1963 97.5149 22.1269C96.487 20.6244 94.4361 20.2395 92.9336 21.2669C91.4311 22.2943 91.0462 24.3457 92.0736 25.8481C97.0732 33.1584 99.7161 41.721 99.7161 50.6093C99.7161 62.3413 95.1471 73.3715 86.8512 81.6674C85.564 82.9545 85.564 85.0415 86.8512 86.3282L94.6808 94.1578C94.7362 94.2132 94.7846 94.2615 94.7283 94.3969C94.6725 94.5322 94.6044 94.5322 94.5262 94.5322H55.7931C31.5742 94.5322 11.8707 74.8287 11.8702 50.6098C11.8702 38.8892 16.4418 27.8626 24.7439 19.5605C33.046 11.2584 44.0726 6.68641 55.7931 6.68641C65.0985 6.68641 73.9907 9.56173 81.5084 15.0003C82.9836 16.0678 85.0442 15.7369 86.1107 14.2621C87.1777 12.7873 86.8472 10.7267 85.3725 9.65972C76.7237 3.40197 66.495 0.0942383 55.7931 0.0942383C42.3117 0.0942383 29.6297 5.3518 20.0827 14.8988C10.5361 24.4463 5.2785 37.1288 5.2785 50.6098C5.2785 75.7418 23.7283 96.6429 47.7943 100.489V126.359H8.83848C5.59403 126.359 2.71256 128.179 1.31863 131.109C-0.0748631 134.039 0.330748 137.423 2.37814 139.94L47.0217 194.832C48.6099 196.785 50.9649 197.905 53.4821 197.905H222.204C223.975 197.927 225.528 196.382 225.499 194.607V71.0973H225.5ZM142.036 58.9769C146.982 58.9769 151.006 63.0009 151.006 67.9473C151.006 72.8938 146.982 76.9178 142.036 76.9178C137.089 76.9178 133.065 72.8938 133.065 67.9473C133.065 63.0009 137.089 58.9769 142.036 58.9769Z" fill="#070707"/>
</svg>
