<svg width="57" height="56" viewBox="0 0 57 56" fill="none" xmlns="http://www.w3.org/2000/svg">
<rect x="0.5" width="56" height="56" rx="28" fill="#E3D888" fill-opacity="0.15"/>
<path d="M36.61 27.2628C38.0777 27.259 39.5261 27.5971 40.8404 28.2504C40.9633 27.4355 41.0273 26.6129 41.032 25.7888V16.9448L27.766 11.0488L14.5 16.9448V25.7888C14.5 33.9695 20.1602 41.6196 27.766 43.4768C28.2819 43.3441 28.7978 43.182 29.24 43.0051C27.7935 41.2798 27.0096 39.0952 27.029 36.8438C27.029 34.3028 28.0384 31.8658 29.8352 30.069C31.632 28.2722 34.0689 27.2628 36.61 27.2628ZM36.61 30.9478V28.7368L33.2935 32.0533L36.61 35.3698V33.1588C37.239 33.1576 37.8579 33.3174 38.4076 33.623C38.9574 33.9286 39.4198 34.3699 39.7508 34.9048C40.0818 35.4397 40.2704 36.0504 40.2985 36.6788C40.3267 37.3072 40.1935 37.9323 39.9117 38.4947L41.5184 40.1013C42.107 39.2134 42.444 38.1825 42.4936 37.1183C42.5432 36.0541 42.3035 34.9964 41.8001 34.0575C41.2966 33.1186 40.5482 32.3337 39.6343 31.7861C38.7205 31.2386 37.6753 30.9489 36.61 30.9478ZM36.61 40.5288C35.981 40.53 35.3621 40.3702 34.8123 40.0646C34.2625 39.759 33.8001 39.3177 33.4691 38.7828C33.1381 38.2479 32.9496 37.6372 32.9214 37.0088C32.8933 36.3804 33.0264 35.7553 33.3082 35.1929L31.7016 33.5863C31.113 34.4742 30.7759 35.5051 30.7263 36.5693C30.6767 37.6335 30.9164 38.6912 31.4199 39.6301C31.9233 40.569 32.6718 41.3539 33.5856 41.9015C34.4995 42.449 35.5446 42.7387 36.61 42.7398V44.9508L39.9265 41.6343L36.61 38.3178V40.5288Z" fill="#E3D888"/>
</svg>
