<svg width="24" height="25" viewBox="0 0 24 25" fill="none" xmlns="http://www.w3.org/2000/svg">
<path fill-rule="evenodd" clip-rule="evenodd" d="M4 7.5H6V2.5H18V7.5H20C21.1046 7.5 22 8.39543 22 9.5V17.5C22 18.6046 21.1046 19.5 20 19.5H18V22.5H6V19.5H4C2.89543 19.5 2 18.6046 2 17.5V9.5C2 8.39543 2.89543 7.5 4 7.5ZM16 7.5H8V4.5H16V7.5ZM20 9.5V17.5H18V15.5H6V17.5H4V9.5H20ZM16 17.5H8V20.5H16V17.5ZM19 11.5C19 10.9477 18.5523 10.5 18 10.5C17.4477 10.5 17 10.9477 17 11.5C17 12.0523 17.4477 12.5 18 12.5C18.5523 12.5 19 12.0523 19 11.5Z" fill="#1034A6"/>
</svg>
