<svg width="41" height="36" viewBox="0 0 41 36" fill="none" xmlns="http://www.w3.org/2000/svg">
<path d="M31.2363 16.8536C32.5389 14.6337 33.1015 12.057 32.8425 9.4962C32.4597 5.68061 30.3295 2.30775 26.8475 0L24.4842 3.56321C26.8775 5.15019 28.334 7.41088 28.5863 9.92395C28.7027 11.0919 28.5573 12.2712 28.1607 13.3759C27.7641 14.4806 27.1263 15.4831 26.2936 16.3104L23.7441 18.8598L27.2047 19.8757C36.256 22.5278 36.3608 31.6305 36.3608 31.7224H40.6384C40.6384 27.8961 38.5937 20.419 31.2363 16.8536Z" fill="#1034A6"/>
<path d="M16.0409 18.8897C20.759 18.8897 24.596 15.0528 24.596 10.3346C24.596 5.61646 20.759 1.77948 16.0409 1.77948C11.3227 1.77948 7.48574 5.61646 7.48574 10.3346C7.48574 15.0528 11.3227 18.8897 16.0409 18.8897ZM16.0409 6.05705C18.4 6.05705 20.3184 7.97553 20.3184 10.3346C20.3184 12.6937 18.4 14.6122 16.0409 14.6122C13.6818 14.6122 11.7633 12.6937 11.7633 10.3346C11.7633 7.97553 13.6818 6.05705 16.0409 6.05705ZM19.249 21.0285H12.8327C5.75547 21.0285 0 26.784 0 33.8612V36H4.27757V33.8612C4.27757 29.1431 8.11454 25.3061 12.8327 25.3061H19.249C23.9672 25.3061 27.8042 29.1431 27.8042 33.8612V36H32.0817V33.8612C32.0817 26.784 26.3263 21.0285 19.249 21.0285Z" fill="#1034A6"/>
</svg>
