<svg width="65" height="65" viewBox="0 0 65 65" fill="none" xmlns="http://www.w3.org/2000/svg">
<circle opacity="0.05" cx="32.5" cy="32.5" r="32.5" fill="#507FDF"/>
<path fill-rule="evenodd" clip-rule="evenodd" d="M24.8 44.7651L32.1042 40.2H41.6C42.9255 40.2 44 39.1255 44 37.8V23.4C44 22.0745 42.9255 21 41.6 21H22.4C21.0745 21 20 22.0745 20 23.4V37.8C20 39.1255 21.0745 40.2 22.4 40.2H24.8V44.7651ZM31.4157 37.8L27.1999 40.4349V37.8H22.3999V23.4H41.5999V37.8H31.4157Z" fill="#111519"/>
<path fill-rule="evenodd" clip-rule="evenodd" d="M26 34.1998V31.7998H34.4V34.1998H26Z" fill="#4ECDC4"/>
<path fill-rule="evenodd" clip-rule="evenodd" d="M26 29.4V27H36.8V29.4H26Z" fill="#FF4F79"/>
</svg>
