<svg width="65" height="65" viewBox="0 0 65 65" fill="none" xmlns="http://www.w3.org/2000/svg">
<circle opacity="0.1" cx="32.5" cy="32.5" r="32.5" fill="#507FDF"/>
<path fill-rule="evenodd" clip-rule="evenodd" d="M18 37.5408C18 41.8243 22.8302 46.1178 32.4905 50.4213C42.1509 46.1278 46.9811 41.8343 46.9811 37.5408C46.9811 36.927 46.9838 35.6152 46.9872 33.9923V33.9911V33.9902V33.99V33.9895C46.9972 29.2276 47.0128 21.79 46.9811 21.4402C46.9811 20.2044 46.5068 19.9171 45.194 19.1222C44.7966 18.8815 44.3223 18.5943 43.761 18.2201C41.3459 16.6101 37.3131 15 32.4905 15C26.9571 15 21.4806 18.0465 21.2201 18.2201C20.6588 18.5943 20.1845 18.8815 19.7871 19.1222L19.7871 19.1222C18.4743 19.9171 18 20.2044 18 21.4402V37.5408ZM43.7638 35.5358C43.7618 36.5487 43.7609 37.17 43.7609 37.5409C43.7609 39.9789 40.1739 43.2948 32.4919 46.8824C24.809 43.2868 21.22 39.9696 21.22 37.5409V22.0252L21.4257 21.8976L21.4257 21.8976L21.4258 21.8975C21.9465 21.5745 22.625 21.1536 23.0062 20.8994C24.4862 19.9128 29.0096 18.2201 32.4904 18.2201C36.1295 18.2201 39.5978 19.3148 41.9747 20.8994C42.3559 21.1536 43.0344 21.5745 43.5551 21.8975L43.7763 22.0348C43.7798 22.9888 43.7813 26.0734 43.7754 29.6673C43.774 30.5005 43.7724 31.3736 43.7703 32.391L43.7638 35.5358ZM27.6602 27.8805H37.3205C39.0989 27.8805 40.5406 29.3222 40.5406 31.1006V37.5409C40.5406 39.3193 39.0989 40.761 37.3205 40.761H27.6602C25.8817 40.761 24.44 39.3193 24.44 37.5409V31.1006C24.44 29.3222 25.8817 27.8805 27.6602 27.8805ZM27.6605 37.5409V31.1006H37.3209V37.5409H27.6605Z" fill="#2F80ED"/>
<path fill-rule="evenodd" clip-rule="evenodd" d="M31.3333 28H29V25.6C29 23.6118 30.567 22 32.5 22C34.433 22 36 23.6118 36 25.6V28H33.6667V25.6C33.6667 24.9373 33.1443 24.4 32.5 24.4C31.8557 24.4 31.3333 24.9373 31.3333 25.6V28Z" fill="#F2994A"/>
<path fill-rule="evenodd" clip-rule="evenodd" d="M32.4909 35.9308C31.6017 35.9308 30.8809 35.21 30.8809 34.3208C30.8809 33.4315 31.6017 32.7107 32.4909 32.7107C33.3801 32.7107 34.101 33.4315 34.101 34.3208C34.101 35.21 33.3801 35.9308 32.4909 35.9308Z" fill="#F2994A"/>
</svg>
