<svg width="65" height="65" viewBox="0 0 65 65" fill="none" xmlns="http://www.w3.org/2000/svg">
<circle opacity="0.1" cx="32.5" cy="32.5" r="32.5" fill="#507FDF"/>
<path d="M40.25 19H23.75C22.2334 19 21 20.211 21 21.7V44.65C21 45.008 21.1449 45.3514 21.4027 45.6046C21.6606 45.8578 22.0103 46 22.375 46H41.625C41.9897 46 42.3394 45.8578 42.5973 45.6046C42.8551 45.3514 43 45.008 43 44.65V21.7C43 20.211 41.7666 19 40.25 19ZM40.25 43.3H23.75V21.7H40.25V43.3Z" fill="#1034A6"/>
<path d="M26.5 24.3999H30.625V27.0999H26.5V24.3999ZM33.375 24.3999H37.5V27.0999H33.375V24.3999ZM26.5 29.7999H30.625V32.4999H26.5V29.7999ZM33.375 29.8418H37.5V32.4999H33.375V29.8418ZM26.5 35.1999H30.625V37.8999H26.5V35.1999ZM33.375 35.1999H37.5V37.8999H33.375V35.1999Z" fill="#FF4F79"/>
</svg>
