<svg width="65" height="65" viewBox="0 0 65 65" fill="none" xmlns="http://www.w3.org/2000/svg">
<circle opacity="0.1" cx="32.5" cy="32.5" r="32.5" fill="#507FDF"/>
<path d="M26.3993 35.4312C26.5016 35.5324 26.67 35.5324 26.7724 35.4312L30.1337 32.1091L32.9766 34.9222C33.079 35.0233 33.2474 35.0233 33.3498 34.9222L40.8219 27.5306C40.9243 27.4294 40.9243 27.263 40.8219 27.1618L39.6068 25.9609C39.5045 25.8597 39.3361 25.8597 39.2337 25.9609L33.1649 31.9655L30.3219 29.1525C30.2196 29.0513 30.0512 29.0513 29.9488 29.1525L25.1842 33.8616C25.0818 33.9627 25.0818 34.1292 25.1842 34.2303L26.3993 35.4312Z" fill="#FF4F79"/>
<path d="M45.9434 21.3496H34.1887V19.2611C34.1887 19.1175 34.0698 19 33.9245 19H32.0755C31.9302 19 31.8113 19.1175 31.8113 19.2611V21.3496H20.0566C19.4722 21.3496 19 21.8163 19 22.3939V39.3636C19 39.9412 19.4722 40.4078 20.0566 40.4078H31.8245V41.4521L26.383 44.9799C26.2608 45.0582 26.2278 45.2181 26.3071 45.3388L27.3075 46.8792V46.8824C27.3868 47.0032 27.5519 47.0358 27.6741 46.9575L33 43.5048L38.3259 46.9575C38.4481 47.0358 38.6132 47.0032 38.6925 46.8824V46.8792L39.6929 45.3388C39.7722 45.2181 39.7358 45.0582 39.617 44.9799L34.1887 41.4619V40.4078H45.9434C46.5278 40.4078 47 39.9412 47 39.3636V22.3939C47 21.8163 46.5278 21.3496 45.9434 21.3496ZM44.6226 38.0582H21.3774V23.6993H44.6226V38.0582Z" fill="#1034A6"/>
<path fill-rule="evenodd" clip-rule="evenodd" d="M39.1378 33.5C39.271 34.0176 39.7408 34.4 40.3 34.4C40.9627 34.4 41.5 33.8627 41.5 33.2C41.5 32.5373 40.9627 32 40.3 32C39.7408 32 39.271 32.3824 39.1378 32.9H37V33.5H39.1378ZM42.1 32.9V33.5H43V32.9H42.1ZM37.6378 36.5C37.771 37.0176 38.2409 37.4 38.8 37.4C39.4628 37.4 40 36.8627 40 36.2C40 35.5373 39.4628 35 38.8 35C38.2409 35 37.771 35.3824 37.6378 35.9H37V36.5H37.6378ZM40.6 36.5V35.9H43V36.5H40.6ZM38.8 36.8C39.1314 36.8 39.4 36.5314 39.4 36.2C39.4 35.8686 39.1314 35.6 38.8 35.6C38.4686 35.6 38.2 35.8686 38.2 36.2C38.2 36.5314 38.4686 36.8 38.8 36.8Z" fill="#4ECDC4"/>
</svg>
