<svg width="65" height="65" viewBox="0 0 65 65" fill="none" xmlns="http://www.w3.org/2000/svg">
<circle opacity="0.05" cx="32.5" cy="32.5" r="32.5" fill="#1034A6"/>
<path fill-rule="evenodd" clip-rule="evenodd" d="M41.91 25.6365V28.1819H24.0918V25.6365H41.91Z" fill="#9B51E0"/>
<path fill-rule="evenodd" clip-rule="evenodd" d="M40.6365 18H25.3638C23.958 18 22.8184 19.1396 22.8184 20.5455V43.4545C22.8184 44.8604 23.958 46 25.3638 46H40.6365C42.0424 46 43.182 44.8604 43.182 43.4545V20.5455C43.182 19.1396 42.0424 18 40.6365 18ZM25.3638 43.4545V20.5455H40.6365V43.4545H25.3638Z" fill="#4F4F4F"/>
<path fill-rule="evenodd" clip-rule="evenodd" d="M30.4537 40.909H27.9082V38.3635H30.4537V40.909Z" fill="#333333"/>
<path fill-rule="evenodd" clip-rule="evenodd" d="M34.272 40.909H31.7266V38.3635H34.272V40.909Z" fill="#333333"/>
<path fill-rule="evenodd" clip-rule="evenodd" d="M38.0904 40.909H35.5449V35.8181H38.0904V40.909Z" fill="#9B51E0"/>
<path fill-rule="evenodd" clip-rule="evenodd" d="M30.4537 37.0909H27.9082V34.5454H30.4537V37.0909Z" fill="#333333"/>
<path fill-rule="evenodd" clip-rule="evenodd" d="M34.272 37.0909H31.7266V34.5454H34.272V37.0909Z" fill="#333333"/>
<path fill-rule="evenodd" clip-rule="evenodd" d="M30.4537 33.2727H27.9082V30.7273H30.4537V33.2727Z" fill="#4F4F4F"/>
<path fill-rule="evenodd" clip-rule="evenodd" d="M34.272 33.2727H31.7266V30.7273H34.272V33.2727Z" fill="#4F4F4F"/>
<path fill-rule="evenodd" clip-rule="evenodd" d="M38.0904 33.2727H35.5449V30.7273H38.0904V33.2727Z" fill="#4F4F4F"/>
</svg>
