<svg width="65" height="65" viewBox="0 0 65 65" fill="none" xmlns="http://www.w3.org/2000/svg">
<circle opacity="0.1" cx="32.5" cy="32.5" r="32.5" fill="#507FDF"/>
<path fill-rule="evenodd" clip-rule="evenodd" d="M33 17.3333C31.4522 17.3333 29.9976 17.8172 28.9946 18.6666H27.6667C26.1939 18.6666 25 19.8605 25 21.3333H23.6667C22.1939 21.3333 21 22.5272 21 23.9999V43.9999C21 45.4727 22.1939 46.6666 23.6667 46.6666H42.3333C43.8061 46.6666 45 45.4727 45 43.9999V23.9999C45 22.5272 43.8061 21.3333 42.3333 21.3333H41C41 19.8605 39.8061 18.6666 38.3333 18.6666H37.0054C36.0024 17.8172 34.5478 17.3333 33 17.3333ZM40.6432 23.9999C40.1822 24.797 39.3204 25.3333 38.3333 25.3333H27.6667C26.6796 25.3333 25.8178 24.797 25.3568 23.9999H23.6667V43.9999H42.3333V23.9999H40.6432Z" fill="#828282"/>
<path fill-rule="evenodd" clip-rule="evenodd" d="M27.666 37.3334V34.6667H35.666V37.3334H27.666Z" fill="#4ECDC4"/>
<path fill-rule="evenodd" clip-rule="evenodd" d="M27.666 31.9999V29.3333H38.3327V31.9999H27.666Z" fill="#FF4F79"/>
<path fill-rule="evenodd" clip-rule="evenodd" d="M30.5415 20.8738L30.1428 21.3333H29.5345H27.666V22.6667H38.3327V21.3333H35.8559L35.4572 20.8738C35.0191 20.369 34.0801 20 32.9993 20C31.9186 20 30.9796 20.369 30.5415 20.8738Z" fill="#F3F6F9"/>
</svg>
