<svg width="65" height="65" viewBox="0 0 65 65" fill="none" xmlns="http://www.w3.org/2000/svg">
<circle opacity="0.05" cx="32.5" cy="32.5" r="32.5" fill="#1034A6"/>
<path d="M45.1789 26.7144L46.715 29.6072L50.0004 30.0064L47.5896 32.179L48.0718 35.393L45.1789 33.5849L42.286 35.393L42.7682 32.179L40.3574 30.0064L43.7325 29.6072L45.1789 26.7144Z" fill="#F2C94C"/>
<path d="M42.2859 45.9999H40.3573V41.1785C40.3558 39.9002 39.8473 38.6748 38.9434 37.7709C38.0396 36.867 36.8141 36.3586 35.5358 36.357H29.7501C28.4718 36.3586 27.2463 36.867 26.3425 37.7709C25.4386 38.6748 24.9301 39.9002 24.9286 41.1785V45.9999H23V41.1785C23.002 39.3889 23.7139 37.6732 24.9793 36.4078C26.2447 35.1423 27.9605 34.4305 29.7501 34.4285H35.5358C37.3254 34.4305 39.0411 35.1423 40.3066 36.4078C41.572 37.6732 42.2838 39.3889 42.2859 41.1785V45.9999Z" fill="#4F4F4F"/>
<path d="M32.6426 20.9286C33.5962 20.9286 34.5284 21.2114 35.3213 21.7411C36.1142 22.2709 36.7322 23.0239 37.0971 23.9049C37.462 24.7859 37.5575 25.7554 37.3715 26.6906C37.1854 27.6259 36.7262 28.485 36.0519 29.1593C35.3776 29.8336 34.5185 30.2928 33.5833 30.4788C32.648 30.6649 31.6786 30.5694 30.7975 30.2045C29.9165 29.8395 29.1635 29.2216 28.6337 28.4287C28.1039 27.6358 27.8212 26.7036 27.8212 25.75C27.8212 24.4713 28.3291 23.2449 29.2333 22.3408C30.1375 21.4366 31.3639 20.9286 32.6426 20.9286ZM32.6426 19C31.3076 19 30.0025 19.3959 28.8925 20.1376C27.7825 20.8793 26.9173 21.9335 26.4064 23.1669C25.8955 24.4003 25.7618 25.7575 26.0223 27.0669C26.2827 28.3763 26.9256 29.579 27.8696 30.523C28.8136 31.467 30.0164 32.1099 31.3258 32.3704C32.6352 32.6308 33.9924 32.4971 35.2258 31.9862C36.4592 31.4754 37.5134 30.6102 38.2551 29.5001C38.9968 28.3901 39.3927 27.0851 39.3927 25.75C39.3927 23.9598 38.6815 22.2429 37.4156 20.977C36.1498 19.7112 34.4329 19 32.6426 19Z" fill="#4F4F4F"/>
</svg>
