<svg width="65" height="65" viewBox="0 0 65 65" fill="none" xmlns="http://www.w3.org/2000/svg">
<circle opacity="0.1" cx="32.5" cy="32.5" r="32.5" fill="#507FDF"/>
<path fill-rule="evenodd" clip-rule="evenodd" d="M42.8512 22H21.1488C19.962 22 19 23.0719 19 24.3942V38.7594C19 40.0816 19.962 41.1536 21.1488 41.1536L32 41.1536V38.7593H21.3636V30.3797H42.6364V32.7739H45V24.3942C45 23.0719 44.038 22 42.8512 22ZM42.6364 27.9855V24.3942H21.3636V27.9855H42.6364Z" fill="#2F80ED"/>
<path fill-rule="evenodd" clip-rule="evenodd" d="M41.7222 38.8889C40.5832 38.8889 39.6261 38.1099 39.3548 37.0556H35V35.8333H39.3548C39.6261 34.779 40.5832 34 41.7222 34C43.0722 34 44.1667 35.0944 44.1667 36.4444C44.1667 37.7945 43.0722 38.8889 41.7222 38.8889ZM45.3889 37.0556V35.8333H47.2222V37.0556H45.3889ZM38.6667 45C37.5277 45 36.5706 44.221 36.2992 43.1667H35V41.9444H36.2992C36.5706 40.8901 37.5277 40.1111 38.6667 40.1111C40.0167 40.1111 41.1111 41.2055 41.1111 42.5556C41.1111 43.9056 40.0167 45 38.6667 45ZM42.3333 41.9444V43.1667H47.2222V41.9444H42.3333ZM39.8889 42.5556C39.8889 43.2306 39.3417 43.7778 38.6667 43.7778C37.9917 43.7778 37.4445 43.2306 37.4445 42.5556C37.4445 41.8805 37.9917 41.3333 38.6667 41.3333C39.3417 41.3333 39.8889 41.8805 39.8889 42.5556ZM42.9444 36.4444C42.9444 37.1195 42.3972 37.6667 41.7222 37.6667C41.0472 37.6667 40.5 37.1195 40.5 36.4444C40.5 35.7694 41.0472 35.2222 41.7222 35.2222C42.3972 35.2222 42.9444 35.7694 42.9444 36.4444Z" fill="#4ECDC4"/>
</svg>
