<svg width="65" height="65" viewBox="0 0 65 65" fill="none" xmlns="http://www.w3.org/2000/svg">
<circle opacity="0.1" cx="32.5" cy="32.5" r="32.5" fill="#507FDF"/>
<path fill-rule="evenodd" clip-rule="evenodd" d="M21.8501 36.9113C21.4944 39.1815 21.8198 40.9117 22.9541 42.0459C24.0883 43.1802 25.8185 43.5056 28.0887 43.1499C29.4424 45.0067 30.8959 46 32.5 46C34.1041 46 35.5576 45.0067 36.9113 43.1499C39.1815 43.5056 40.9117 43.1802 42.0459 42.0459C43.1802 40.9117 43.5056 39.1815 43.1499 36.9113C45.0067 35.5576 46 34.1041 46 32.5C46 30.8959 45.0067 29.4424 43.1499 28.0887C43.5056 25.8185 43.1802 24.0883 42.0459 22.9541C40.9117 21.8198 39.1815 21.4944 36.9113 21.8501C35.5576 19.9933 34.1041 19 32.5 19C30.8959 19 29.4424 19.9933 28.0887 21.8501C25.8185 21.4944 24.0883 21.8198 22.9541 22.9541C21.8198 24.0883 21.4944 25.8185 21.8501 28.0887C19.9933 29.4424 19 30.8959 19 32.5C19 34.1041 19.9933 35.5576 21.8501 36.9113ZM29.6791 41.1307C29.4023 40.703 28.89 40.4908 28.3918 40.5975C26.4465 41.0141 25.2385 40.8591 24.6897 40.3103C24.1409 39.7615 23.9859 38.5535 24.4025 36.6082C24.5092 36.11 24.297 35.5977 23.8693 35.3209C22.1992 34.2399 21.4545 33.2761 21.4545 32.5C21.4545 31.7239 22.1992 30.76 23.8693 29.6791C24.297 29.4023 24.5092 28.89 24.4025 28.3918C23.9859 26.4465 24.1409 25.2385 24.6897 24.6897C25.2385 24.1409 26.4465 23.9859 28.3918 24.4025C28.89 24.5092 29.4023 24.297 29.6791 23.8693C30.76 22.1992 31.7239 21.4545 32.5 21.4545C33.2761 21.4545 34.2399 22.1992 35.3209 23.8693C35.5977 24.297 36.11 24.5092 36.6082 24.4025C38.5535 23.9859 39.7615 24.1409 40.3103 24.6897C40.8591 25.2385 41.0141 26.4465 40.5975 28.3918C40.4908 28.89 40.703 29.4023 41.1307 29.6791C42.8008 30.76 43.5455 31.7239 43.5455 32.5C43.5455 33.2761 42.8008 34.2399 41.1307 35.3209C40.703 35.5977 40.4908 36.11 40.5975 36.6082C41.0141 38.5535 40.8591 39.7615 40.3103 40.3103C39.7615 40.8591 38.5535 41.0141 36.6082 40.5975C36.11 40.4908 35.5977 40.703 35.3209 41.1307C34.2399 42.8008 33.2761 43.5455 32.5 43.5455C31.7239 43.5455 30.76 42.8008 29.6791 41.1307Z" fill="#507FDF"/>
<path fill-rule="evenodd" clip-rule="evenodd" d="M31.2723 33.219L36.5408 27.9504L38.2765 29.6861L31.2723 36.6902L26.7227 32.1406L28.4583 30.405L31.2723 33.219Z" fill="#F2994A"/>
</svg>
