<svg width="65" height="65" viewBox="0 0 65 65" fill="none" xmlns="http://www.w3.org/2000/svg">
<circle opacity="0.1" cx="32.5" cy="32.5" r="32.5" fill="#507FDF"/>
<path fill-rule="evenodd" clip-rule="evenodd" d="M33.3404 45.2798L32.5 46L31.6596 45.2798C24.5922 39.2233 21 33.935 21 29.2865C21 22.7035 26.2351 18 32.5 18C38.7649 18 44 22.7035 44 29.2865C44 33.935 40.4078 39.2233 33.3404 45.2798ZM23.5563 29.2864C23.5563 32.8595 26.5037 37.3545 32.5008 42.6589C38.4979 37.3545 41.4452 32.8595 41.4452 29.2864C41.4452 24.1406 37.4022 20.5081 32.5008 20.5081C27.5994 20.5081 23.5563 24.1406 23.5563 29.2864ZM38.8889 29.2866C38.8889 25.8236 36.0285 23.0163 32.5 23.0163C28.9715 23.0163 26.1111 25.8236 26.1111 29.2866C26.1111 32.7495 28.9715 35.5568 32.5 35.5568C36.0285 35.5568 38.8889 32.7495 38.8889 29.2866Z" fill="#4F4F4F"/>
<path fill-rule="evenodd" clip-rule="evenodd" d="M32.4993 25.5242C30.3823 25.5242 28.666 27.2085 28.666 29.2863C28.666 31.3641 30.3823 33.0485 32.4993 33.0485C34.6164 33.0485 36.3327 31.3641 36.3327 29.2863C36.3327 27.2085 34.6164 25.5242 32.4993 25.5242Z" fill="#4ECDC4"/>
</svg>
