<svg width="33" height="31" viewBox="0 0 33 31" fill="none" xmlns="http://www.w3.org/2000/svg">
<path d="M21.1696 21.0141V19.9245C21.1696 19.3465 20.94 18.7922 20.5313 18.3835C20.1226 17.9748 19.5683 17.7452 18.9904 17.7452H14.6319C14.0539 17.7452 13.4996 17.9748 13.0909 18.3835C12.6822 18.7922 12.4526 19.3465 12.4526 19.9245V21.0141" stroke="#FF4F79" stroke-width="2" stroke-linecap="round" stroke-linejoin="round"/>
<path d="M16.8111 15.566C18.0146 15.566 18.9903 14.5904 18.9903 13.3868C18.9903 12.1832 18.0146 11.2076 16.8111 11.2076C15.6075 11.2076 14.6318 12.1832 14.6318 13.3868C14.6318 14.5904 15.6075 15.566 16.8111 15.566Z" stroke="#FF4F79" stroke-width="2" stroke-linecap="round" stroke-linejoin="round"/>
<path fill-rule="evenodd" clip-rule="evenodd" d="M5.90823 29.5987C5.74736 30.5144 6.65072 31.2301 7.44683 30.8217L16.501 26.1688L25.5532 30.8217C26.3493 31.2301 27.2526 30.5144 27.0918 29.6007L25.3799 19.8453L32.646 12.9237C33.3245 12.2761 32.9718 11.0922 32.0623 10.9643L21.9604 9.52886L17.4559 0.604597C17.3701 0.423697 17.2348 0.270856 17.0655 0.163834C16.8963 0.0568114 16.7002 0 16.5 0C16.2998 0 16.1037 0.0568114 15.9345 0.163834C15.7652 0.270856 15.6299 0.423697 15.544 0.604597L11.0396 9.53093L0.937705 10.9664C0.0281597 11.0943 -0.324521 12.2781 0.354028 12.9257L7.62008 19.8474L5.90823 29.6028V29.5987ZM16.0246 23.8918L8.42237 27.7981L9.85372 19.637C9.88725 19.4491 9.87413 19.2559 9.81552 19.0743C9.7569 18.8927 9.65458 18.7282 9.51754 18.5954L3.52403 12.8824L11.8811 11.6944C12.0542 11.6683 12.2183 11.6006 12.3595 11.4972C12.5006 11.3937 12.6146 11.2576 12.6917 11.1005L16.501 3.55598L20.3083 11.1005C20.3854 11.2576 20.4994 11.3937 20.6405 11.4972C20.7817 11.6006 20.9458 11.6683 21.1189 11.6944L29.476 12.8804L23.4825 18.5934C23.345 18.7263 23.2423 18.8911 23.1837 19.0731C23.1251 19.2551 23.1122 19.4488 23.1463 19.637L24.5776 27.7981L16.9754 23.8918C16.8284 23.816 16.6654 23.7765 16.5 23.7765C16.3346 23.7765 16.1716 23.816 16.0246 23.8918Z" fill="#FF4F79"/>
</svg>
