<svg width="40" height="40" viewBox="0 0 40 40" fill="none" xmlns="http://www.w3.org/2000/svg">
<path d="M19.9974 0.00060739C30.9343 -0.0852129 40.0009 8.9345 40 19.9744C40 30.9723 31.1033 39.9791 20.0352 40.0006C8.94649 40.0229 -0.0162784 30.992 2.21993e-05 19.9521C0.0163228 8.86413 9.10949 -0.0766309 19.9974 0.00060739ZM11.8866 23.1721C13.9842 23.1721 15.9823 23.1721 17.9779 23.1721C18.1495 23.1721 18.2284 23.1077 18.2825 22.943C18.4918 22.307 18.7217 21.6788 18.937 21.0446C19.1335 20.4688 19.5376 20.1186 20.0266 20.1074C20.5311 20.0963 20.9806 20.4627 21.184 21.03C21.3993 21.6308 21.6507 22.2238 21.8446 22.8322C21.9304 23.1086 22.0659 23.1755 22.3327 23.1755C24.1472 23.1669 25.9618 23.1755 27.7763 23.1755C27.8698 23.1755 27.977 23.2073 28.0508 23.112C28.0911 22.9884 28.0311 22.8889 27.9839 22.785C27.5009 21.7106 27.0084 20.6395 26.5426 19.5573C26.4319 19.2999 26.2852 19.2355 26.0278 19.2355C22.0994 19.2432 18.1701 19.2501 14.2416 19.2355C13.7895 19.2355 13.5252 19.3385 13.4026 19.7951C13.3271 20.0791 13.1606 20.3374 13.0379 20.6086C12.6665 21.4282 12.2967 22.2564 11.8866 23.1721ZM14.0503 18.3541H25.9952C25.4333 17.0952 24.8799 15.8791 24.348 14.657C24.2382 14.4064 24.046 14.4407 23.8495 14.4407C21.3615 14.4407 18.8736 14.4527 16.3856 14.4313C15.9566 14.4313 15.7293 14.5317 15.5585 14.9462C15.0995 16.0696 14.5762 17.1767 14.0503 18.3533V18.3541ZM9.77267 27.9162C9.87237 27.9368 9.97322 27.9515 10.0747 27.96C12.1337 27.96 14.1927 27.9549 16.2517 27.9694C16.5477 27.9694 16.6138 27.7978 16.6807 27.597C16.9321 26.8692 17.1955 26.1441 17.4245 25.4094C17.5644 24.97 17.7943 24.5512 17.8475 24.0835C17.7968 24.0619 17.7439 24.046 17.6896 24.0363C15.7027 24.0363 13.7157 24.0363 11.7287 24.0303C11.5383 24.0303 11.4594 24.1093 11.3856 24.2766C11.1282 24.8773 10.8442 25.4644 10.5783 26.0608C10.3123 26.6573 10.0524 27.2726 9.77267 27.9162ZM30.2265 27.9162C30.2351 27.8965 30.2488 27.8802 30.2445 27.8716C29.7126 26.6624 29.1738 25.4558 28.6505 24.2423C28.5493 24.008 28.3742 24.0372 28.1932 24.0372C26.4654 24.0372 24.7375 24.0372 23.0096 24.0372C22.7986 24.0372 22.5807 23.9985 22.3585 24.0801C22.3679 24.1499 22.3823 24.219 22.4014 24.2869C22.82 25.4214 23.2421 26.5543 23.6582 27.6888C23.7492 27.9368 23.9302 27.972 24.1644 27.9712C26.0639 27.9643 27.9633 27.9669 29.8627 27.9634C29.9854 27.9609 30.1193 27.9986 30.2265 27.912V27.9162ZM23.7535 13.5585C23.7694 13.5054 23.774 13.4495 23.7669 13.3945C23.7599 13.3395 23.7412 13.2866 23.7123 13.2392C23.2233 12.1553 22.7231 11.0749 22.2538 9.98323C22.1431 9.72577 22.0007 9.63995 21.739 9.64767C20.9832 9.65797 20.2265 9.64767 19.4698 9.64767C18.9851 9.64767 18.4249 9.51207 18.0362 9.7086C17.6218 9.91886 17.5524 10.5428 17.3499 10.9908C16.963 11.8266 16.6001 12.6728 16.2088 13.5551L23.7535 13.5585ZM16.244 28.8405C16.1639 28.8207 16.0825 28.8069 16.0004 28.7993C13.875 28.7993 11.7493 28.7993 9.62339 28.7993C9.50929 28.7993 9.40033 28.7942 9.32912 28.9203C9.08376 29.3597 9.02456 29.812 9.24333 30.272C9.44666 30.7011 9.76838 30.9817 10.2728 30.9826C11.7599 30.9826 13.2438 30.9826 14.7246 30.9826C14.9049 30.9883 15.0834 30.9455 15.2415 30.8587C15.3997 30.7719 15.5316 30.6443 15.6237 30.4891C15.9154 29.9879 16.0433 29.4155 16.244 28.8405ZM24.1318 28.904C24.2939 29.3288 24.4578 29.7622 24.6285 30.1982C24.8413 30.7389 25.2454 30.9903 25.8236 30.9878C27.0796 30.9817 28.3365 30.9877 29.5934 30.9809C30.3732 30.9809 30.8494 30.5518 30.948 29.7794C31.0278 29.1572 30.7104 28.7899 30.0952 28.7899C28.2816 28.7899 26.4682 28.7913 24.6551 28.7942C24.4904 28.7976 24.3111 28.7444 24.1318 28.904ZM21.7056 8.77059L21.3624 7.9982C21.2517 7.75104 21.1531 7.49787 21.0287 7.25757C20.646 6.52295 19.6903 6.39165 19.1807 7.03787C18.7843 7.53821 18.6248 8.16384 18.3579 8.77488L21.7056 8.77059Z" fill="#F57A4D"/>
</svg>
