<svg width="40" height="40" viewBox="0 0 40 40" fill="none" xmlns="http://www.w3.org/2000/svg">
<path d="M20.0094 40C8.95335 40.0034 0 31.037 0 19.9721C0.00429129 8.93216 8.95678 0 20.0129 0C31.069 0 40.0103 8.9519 40 19.997C39.9897 31.0421 31.0449 39.9966 20.0094 40ZM25.6267 11.6808C25.5184 11.1082 25.3593 10.5463 25.1513 10.0019C23.8896 6.76175 20.345 5.02627 17.1858 6.15008C14.7741 7.00796 13.3888 8.7949 12.8086 11.2424C12.7546 11.4706 12.6996 11.5796 12.437 11.5916C8.88555 11.7631 6.28503 13.502 4.64747 16.5835C2.85028 19.9601 2.89834 23.4199 4.80024 26.7442C6.57855 29.8488 9.31639 31.4736 12.9434 31.477C17.6924 31.481 22.4415 31.481 27.1905 31.477C29.0231 31.486 30.8098 30.9038 32.2851 29.8171C36.343 26.866 37.6578 21.228 35.2736 16.7345C33.5004 13.3931 30.7248 11.5693 26.8626 11.5941C26.467 11.5933 26.0696 11.6473 25.6267 11.6808Z" fill="#08633B"/>
<path d="M32.4428 21.6077C32.3569 23.7738 31.5244 25.614 29.6294 26.7824C27.7344 27.9508 25.4239 27.6506 23.7589 26.0163C22.487 24.7698 21.9351 23.2093 21.9231 21.4464C21.9276 19.5497 21.4056 17.6889 20.4151 16.071C19.5526 14.6615 18.4248 13.5111 16.9684 12.7099C16.7109 12.5666 16.6414 12.419 16.7109 12.1334C16.9615 11.0602 17.4971 10.216 18.6042 9.9029C19.8667 9.54259 21.1455 10.3945 21.5498 11.8108C21.7576 12.5157 21.7274 13.2694 21.4639 13.9555C21.0957 14.9335 21.306 15.8196 22.0321 16.3936C22.7582 16.9675 23.6405 16.9683 24.5013 16.4099C26.8238 14.9051 29.7324 15.5185 31.2918 17.8262C32.0566 18.9637 32.4144 20.2171 32.4428 21.6077Z" fill="#08633B"/>
<path d="M19.6309 27.4665C17.2089 27.4665 14.7921 27.5394 12.3812 27.4442C10.4072 27.3661 9.02888 26.2217 8.11912 24.5129C6.91756 22.2549 7.23683 19.3519 8.8804 17.3925C11.1479 14.6962 15.0427 15.048 16.9583 18.1303C17.554 19.0632 17.8757 20.1446 17.887 21.2512C17.899 23.4002 18.4019 25.4059 19.5777 27.222C19.6064 27.2706 19.6305 27.3217 19.6498 27.3747C19.655 27.3884 19.6447 27.4047 19.6309 27.4665Z" fill="#08633B"/>
</svg>
