<svg width="40" height="40" viewBox="0 0 40 40" fill="none" xmlns="http://www.w3.org/2000/svg">
<g clip-path="url(#clip0)">
<path d="M20.0125 3.62908e-06C22.6395 -0.00157967 25.241 0.514927 27.668 1.51995C30.0951 2.52497 32.3 3.99878 34.1566 5.85697C36.0132 7.71517 37.485 9.92126 38.4877 12.3489C39.4904 14.7766 40.0043 17.3782 40 20.0047C39.9949 31.0505 31.0284 40.0086 19.9876 39.9974C8.90732 39.9906 -0.0188506 31.011 2.98965e-05 19.8949C0.0189104 8.90834 8.98628 -0.00600276 20.0125 3.62908e-06ZM19.8709 21.9362L21.4105 23.3202L15.9626 28.7998C16.0965 28.8075 16.2055 28.8187 16.3145 28.8187C17.3151 28.8187 18.3167 28.8118 19.3182 28.8255C19.4378 28.8315 19.5571 28.8108 19.6677 28.7649C19.7783 28.7191 19.8773 28.6492 19.9576 28.5604C20.9934 27.5136 22.0456 26.4822 23.0814 25.4362C23.2831 25.2311 23.4144 25.1968 23.6307 25.4285C24.1284 25.9605 24.6665 26.4582 25.1694 26.9824C26.2156 28.085 27.4625 28.726 29.0073 28.8032C31.69 28.9362 34.1119 27.106 34.7092 24.3902C35.2696 21.8453 33.9248 19.1844 31.3777 18.1307C29.1566 17.2109 26.7348 17.7875 25.0536 19.5602C24.5069 20.136 23.925 20.6757 23.3912 21.206L22.1091 19.9189C22.7038 19.3063 23.3243 18.6747 23.937 18.0363C25.2733 16.642 25.8199 14.9842 25.4543 13.0854C24.9961 10.6982 23.0471 8.96068 20.5986 8.67495C18.3355 8.41067 16.0287 9.70462 15.0529 11.7785C14.5552 12.8322 14.4017 14.0157 14.6141 15.1615C14.8265 16.3072 15.3941 17.3571 16.2364 18.1625C16.8414 18.746 17.419 19.3577 18.0189 19.9644C17.9657 20.0236 17.921 20.0777 17.8713 20.1274C16.1211 21.8624 14.3698 23.5965 12.6173 25.3298C11.8089 26.1252 10.6392 26.3063 9.60504 25.8223C9.10602 25.5894 8.69026 25.2094 8.41364 24.7333C8.13701 24.2571 8.01278 23.7078 8.05763 23.159C8.10248 22.6102 8.31427 22.0883 8.66454 21.6634C9.0148 21.2385 9.48676 20.9309 10.017 20.7821C11.0305 20.5101 11.9325 20.7615 12.6774 21.43L14.6599 19.4779C13.654 18.5134 12.4697 17.966 11.0709 17.887C8.05684 17.7189 5.40671 19.9927 5.26425 23.0817C5.1278 26.0849 7.1523 28.442 10.1346 28.8247C11.6596 29.0212 13.0954 28.6754 14.2411 27.6131C15.6245 26.3312 16.941 24.9772 18.2746 23.6403C18.847 23.0611 19.3868 22.4528 19.8709 21.9362Z" fill="#F15A29"/>
<path d="M29.1948 25.95C27.7127 25.9603 26.4957 24.7779 26.4846 23.3175C26.476 22.5954 26.7518 21.8989 27.2524 21.3784C27.7531 20.8579 28.4384 20.5552 29.1604 20.5357C30.6048 20.5057 31.9067 21.761 31.9136 23.1957C31.9247 24.7505 30.749 25.9397 29.1948 25.95Z" fill="#F15A29"/>
<path d="M22.7232 14.1056C22.761 15.518 21.5818 16.7999 20.2079 16.8394C18.6537 16.884 17.3904 15.7514 17.3526 14.2781C17.3123 12.7104 18.4357 11.5117 19.9942 11.4594C21.4677 11.4122 22.6829 12.5877 22.7232 14.1056Z" fill="#F15A29"/>
</g>
<defs>
<clipPath id="clip0">
<rect width="40" height="40" fill="white"/>
</clipPath>
</defs>
</svg>
