<svg width="40" height="40" viewBox="0 0 40 40" fill="none" xmlns="http://www.w3.org/2000/svg">
<g clip-path="url(#clip0)">
<path d="M20.0452 -9.79214e-05C30.9333 -0.0584545 40.0276 8.92502 40.0002 20.0265C39.977 31.0224 31.05 39.9913 20.0049 39.9999C8.89972 40.0076 -0.0427399 30.9426 0.000153665 19.9012C0.0430473 8.8598 9.12534 -0.10308 20.0452 -9.79214e-05ZM33.1054 20.6186C33.1054 13.3507 27.2668 7.49614 20.0246 7.49786C12.7275 7.49786 6.89916 13.3189 6.89916 20.6144C6.88715 27.8832 12.7456 33.7266 20.04 33.718C21.7579 33.7166 23.4586 33.3767 25.0451 32.7175C26.6316 32.0584 28.0726 31.093 29.286 29.8765C30.4993 28.66 31.4612 27.2162 32.1165 25.6277C32.7719 24.0392 33.1079 22.3371 33.1054 20.6186Z" fill="#4EA4F4"/>
<path d="M19.964 29.8849C18.7441 29.8857 17.5362 29.6448 16.4099 29.176C15.2837 28.7072 14.2614 28.0199 13.4022 27.1536C12.543 26.2874 11.8638 25.2595 11.404 24.1292C10.9441 22.9989 10.7127 21.7887 10.723 20.5685C10.7367 15.4056 14.8777 11.3215 20.0789 11.3301C25.1069 11.3378 29.3268 15.5052 29.2779 20.6895C29.2324 25.7888 25.0434 29.951 19.964 29.8849ZM24.3649 20.6165C24.3589 18.1647 22.4295 16.2398 19.9897 16.2458C17.5259 16.2535 15.6575 18.1844 15.6257 20.6749C15.5966 23.0006 17.7198 25.0465 20.0644 24.989C22.4364 24.9289 24.3709 23.0066 24.3632 20.6139L24.3649 20.6165Z" fill="#4EA4F4"/>
</g>
<defs>
<clipPath id="clip0">
<rect width="40" height="40" fill="white"/>
</clipPath>
</defs>
</svg>
