<svg width="54" height="54" viewBox="0 0 54 54" fill="none" xmlns="http://www.w3.org/2000/svg">
<circle cx="26.6847" cy="26.6847" r="26.6847" fill="#1034A6"/>
<g clip-path="url(#clip0)">
<path d="M20.0323 25.8394C19.8818 26.6792 19.8881 27.5252 20.0323 28.3461V37.9282C19.9884 37.9031 19.9445 37.8718 19.9069 37.8405C15.0352 34.5817 12.9536 28.3712 14.9098 22.8125L20.1389 25.3318C20.095 25.501 20.0574 25.6702 20.0323 25.8394Z" fill="white"/>
<path d="M38.7484 32.7205C35.8642 38.6929 28.9548 41.4503 22.8354 39.307C22.7915 39.2945 22.7476 39.2757 22.71 39.2632V32.7832C22.7539 32.8145 22.7915 32.8459 22.8354 32.8772C23.1865 33.1404 23.5689 33.366 23.9765 33.5666C27.5441 35.29 31.8452 33.7859 33.5694 30.2201C34.3657 28.5781 34.4472 26.7858 33.9833 25.1564L39.1559 22.4805C40.3911 25.6954 40.3598 29.3803 38.7484 32.7205Z" fill="white"/>
<path d="M30.2269 20.6312C31.2176 21.1075 32.0264 21.7968 32.6722 22.599L37.8386 19.923C36.5971 18.0618 34.8792 16.4951 32.7223 15.4548C26.7408 12.572 19.6057 14.7278 16.1572 20.2238L21.3863 22.7494C23.4115 20.0922 27.0982 19.1271 30.2269 20.6312Z" fill="white"/>
<path d="M30.9854 28.9711C32.0208 26.8265 31.1208 24.2491 28.9752 23.2142C26.8296 22.1793 24.2509 23.0789 23.2156 25.2234C22.1802 27.368 23.0802 29.9454 25.2257 30.9803C27.3713 32.0152 29.95 31.1156 30.9854 28.9711Z" fill="white"/>
<path d="M20.0321 25.332V37.9222C19.9882 37.8971 19.9444 37.8658 19.9067 37.8344V25.332H20.0321Z" fill="white"/>
</g>
<defs>
<clipPath id="clip0">
<rect width="25.8508" height="25.8508" fill="white" transform="translate(14.1758 14.1768)"/>
</clipPath>
</defs>
</svg>
