<svg width="42" height="40" viewBox="0 0 42 40" fill="none" xmlns="http://www.w3.org/2000/svg">
<g clip-path="url(#clip0)">
<path d="M21.0018 1.15343e-05C23.6943 -0.00281096 26.361 0.5124 28.8492 1.51615C31.3373 2.5199 33.5981 3.99247 35.502 5.84957C37.406 7.70667 38.9157 9.91181 39.9448 12.3388C40.9738 14.7657 41.502 17.3668 41.4991 19.9931C41.4947 31.0469 32.3184 40.0017 20.9974 40C9.6596 39.9983 0.491209 31.0297 0.500006 19.9477C0.508803 8.92399 9.67983 1.15343e-05 21.0018 1.15343e-05ZM23.3893 16.0057C21.8736 16.0057 20.4256 16.0057 18.9767 16.0057C18.718 16.0057 18.7127 15.8409 18.7127 15.6573C18.7127 14.9279 18.733 14.1986 18.696 13.4701C18.5597 10.762 15.9883 8.73264 13.2374 9.14365C11.0284 9.47487 9.01037 11.4296 9.20919 14.1823C9.37105 16.3789 11.3759 18.271 13.7494 18.368C14.4664 18.3971 15.186 18.3894 15.9038 18.3765C16.195 18.3714 16.283 18.4718 16.2803 18.7498C16.2692 20.0083 16.2692 21.2668 16.2803 22.5253C16.2803 22.8214 16.1924 22.926 15.8827 22.9218C15.091 22.9097 14.2992 22.8909 13.5075 22.9458C10.6264 23.1449 8.56611 26.0348 9.34818 28.7472C10.0036 31.022 12.1826 32.4507 14.5667 32.1692C16.8539 31.8989 18.6292 29.9605 18.7013 27.6377C18.7215 26.9813 18.7171 26.3223 18.7013 25.6642C18.6952 25.393 18.777 25.2815 19.0726 25.2849C20.3769 25.2969 21.6815 25.2969 22.9864 25.2849C23.2855 25.2849 23.3629 25.393 23.3559 25.6642C23.3418 26.2934 23.3418 26.9227 23.3559 27.5519C23.4139 30.2523 25.5147 32.225 28.2823 32.1855C30.5695 32.1538 32.6061 30.3518 32.863 28.138C33.133 25.8143 31.5821 23.6194 29.3107 23.0805C28.3245 22.8471 27.326 22.9484 26.3337 22.9492C25.8939 22.9492 25.7953 22.8162 25.8059 22.4129C25.8323 21.2408 25.834 20.0678 25.8059 18.8948C25.7962 18.4795 25.9211 18.3688 26.3443 18.3671C27.3515 18.3671 28.3676 18.4709 29.3635 18.2161C31.7932 17.5974 33.338 15.1373 32.7803 12.7467C32.2041 10.2746 29.7409 8.68373 27.2486 9.17369C24.979 9.61989 23.4166 11.463 23.3779 13.7489C23.3796 14.4792 23.3893 15.2059 23.3893 16.0057Z" fill="#303030"/>
<path d="M23.3877 20.6593C23.3877 21.3029 23.3807 21.9465 23.3921 22.5892C23.3921 22.8251 23.32 22.9204 23.0657 22.9187C21.7321 22.9101 20.3984 22.9101 19.0648 22.9187C18.7921 22.9187 18.7129 22.8208 18.7129 22.566C18.7217 21.2794 18.7217 19.9923 18.7129 18.7046C18.7129 18.467 18.7965 18.3743 19.0445 18.376C20.3782 18.3829 21.7118 18.3854 23.0455 18.376C23.3217 18.376 23.3974 18.4755 23.3921 18.7287C23.3798 19.3731 23.3886 20.0166 23.3877 20.6593Z" fill="#303030"/>
<path d="M25.8294 14.6164C25.8294 14.3023 25.818 13.9874 25.8294 13.6725C25.8822 12.4146 26.8965 11.4466 28.1519 11.4492C29.3835 11.4492 30.3987 12.4154 30.4647 13.6433C30.5262 14.7983 29.5849 15.8572 28.3358 15.955C27.5941 16.0133 26.8402 15.9713 26.0969 15.979C25.8831 15.979 25.8189 15.8769 25.8224 15.6855C25.8294 15.3286 25.8224 14.9716 25.8224 14.6147L25.8294 14.6164Z" fill="#303030"/>
<path d="M25.8265 26.6442C25.8265 26.3009 25.8345 25.9577 25.8265 25.6145C25.8195 25.3914 25.9145 25.3107 26.1388 25.3133C26.8558 25.3227 27.5754 25.2875 28.2897 25.3305C29.5486 25.406 30.5198 26.4597 30.4679 27.6395C30.4455 28.2244 30.1944 28.7786 29.766 29.1884C29.3377 29.5982 28.7647 29.8325 28.1648 29.8431C26.9165 29.8611 25.8846 28.882 25.8362 27.6301C25.823 27.3023 25.8362 26.9728 25.8362 26.645L25.8265 26.6442Z" fill="#303030"/>
<path d="M15.0709 25.3269C15.3656 25.3707 15.9181 25.127 16.1996 25.4127C16.4573 25.677 16.2726 26.2047 16.2735 26.614C16.2735 27.0971 16.3298 27.5845 16.2101 28.0642C15.9304 29.19 14.8633 29.9562 13.7469 29.8249C12.4995 29.6791 11.6207 28.7197 11.6471 27.5339C11.6549 26.9707 11.88 26.4311 12.2774 26.0225C12.6749 25.614 13.2156 25.3665 13.7918 25.3295C14.171 25.302 14.5536 25.3269 15.0709 25.3269Z" fill="#303030"/>
<path d="M16.2865 15.9953C15.3909 15.9953 14.5842 16.0356 13.7828 15.9858C13.2058 15.9495 12.6644 15.7008 12.2682 15.29C11.872 14.8791 11.6505 14.3369 11.6486 13.7729C11.6337 12.6333 12.5011 11.6414 13.628 11.5101C14.8745 11.3642 15.9364 12.073 16.1976 13.2726C16.3903 14.1581 16.2399 15.0565 16.2865 15.9953Z" fill="#303030"/>
</g>
<defs>
<clipPath id="clip0">
<rect width="41" height="40" fill="white" transform="translate(0.5)"/>
</clipPath>
</defs>
</svg>
