<svg width="19" height="19" viewBox="0 0 19 19" fill="none" xmlns="http://www.w3.org/2000/svg">
<path fill-rule="evenodd" clip-rule="evenodd" d="M2.78249 16.2175C1.9843 15.4193 1.75531 14.2018 2.00563 12.6043C0.699007 11.6517 0 10.6288 0 9.5C0 8.3712 0.699007 7.34835 2.00563 6.39573C1.75531 4.7982 1.9843 3.58067 2.78249 2.78249C3.58067 1.9843 4.7982 1.75531 6.39573 2.00563C7.34835 0.699007 8.3712 0 9.5 0C10.6288 0 11.6517 0.699007 12.6043 2.00563C14.2018 1.75531 15.4193 1.9843 16.2175 2.78249C17.0157 3.58067 17.2447 4.7982 16.9944 6.39573C18.301 7.34835 19 8.3712 19 9.5C19 10.6288 18.301 11.6517 16.9944 12.6043C17.2447 14.2018 17.0157 15.4193 16.2175 16.2175C15.4193 17.0157 14.2018 17.2447 12.6043 16.9944C11.6517 18.301 10.6288 19 9.5 19C8.3712 19 7.34835 18.301 6.39573 16.9944C4.7982 17.2447 3.58067 17.0157 2.78249 16.2175ZM6.60904 15.1982C6.95961 15.1232 7.32012 15.2725 7.51492 15.5735C8.27558 16.7487 8.95385 17.2727 9.49999 17.2727C10.0461 17.2727 10.7244 16.7487 11.4851 15.5735C11.6799 15.2725 12.0404 15.1232 12.3909 15.1982C13.7598 15.4914 14.61 15.3823 14.9961 14.9961C15.3823 14.61 15.4914 13.7598 15.1982 12.3909C15.1232 12.0404 15.2725 11.6799 15.5735 11.4851C16.7487 10.7244 17.2727 10.0461 17.2727 9.49999C17.2727 8.95385 16.7487 8.27558 15.5735 7.51492C15.2725 7.32012 15.1232 6.95961 15.1982 6.60904C15.4914 5.24014 15.3823 4.39002 14.9961 4.00384C14.61 3.61766 13.7598 3.50856 12.3909 3.80173C12.0404 3.87681 11.6799 3.72748 11.4851 3.4265C10.7244 2.25125 10.0461 1.72726 9.49999 1.72726C8.95385 1.72726 8.27558 2.25125 7.51492 3.4265C7.32012 3.72748 6.95961 3.87681 6.60904 3.80173C5.24014 3.50856 4.39002 3.61766 4.00384 4.00384C3.61766 4.39002 3.50856 5.24014 3.80173 6.60904C3.87681 6.95961 3.72748 7.32012 3.4265 7.51492C2.25125 8.27558 1.72726 8.95385 1.72726 9.49999C1.72726 10.0461 2.25125 10.7244 3.4265 11.4851C3.72748 11.6799 3.87681 12.0404 3.80173 12.3909C3.50856 13.7598 3.61766 14.61 4.00384 14.9961C4.39002 15.3823 5.24014 15.4914 6.60904 15.1982ZM12.3439 6.2984L8.63636 10.0059L6.65614 8.02567L5.43477 9.24704L8.63636 12.4486L13.5652 7.51977L12.3439 6.2984Z" fill="#F3F6F9"/>
</svg>
