<svg width="17" height="15" viewBox="0 0 17 15" fill="none" xmlns="http://www.w3.org/2000/svg">
<path fill-rule="evenodd" clip-rule="evenodd" d="M4.625 1.3125L5.1875 0.75H7.4375L8 1.3125V13.6875L7.4375 14.25H5.1875L4.625 13.6875V1.3125ZM5.75 1.875V13.125H6.875V1.875H5.75ZM9.31737 2.26313L9.65375 1.542L11.7688 0.7725L12.4887 1.10888L16.721 12.7369L16.3846 13.458L14.2708 14.2275L13.5508 13.8911L9.31625 2.26313H9.31737ZM10.5661 2.40713L14.4136 12.9776L15.4711 12.594L11.6236 2.02238L10.5661 2.40713V2.40713ZM0.125 1.3125L0.6875 0.75H2.9375L3.5 1.3125V13.6875L2.9375 14.25H0.6875L0.125 13.6875V1.3125ZM1.25 1.875V13.125H2.375V1.875H1.25Z" fill="white"/>
</svg>
