<svg width="16" height="16" viewBox="0 0 16 16" fill="none" xmlns="http://www.w3.org/2000/svg">
<path fill-rule="evenodd" clip-rule="evenodd" d="M14.4 8.8H10.4C9.51634 8.8 8.79999 9.51635 8.79999 10.4V14.4C8.79999 15.2837 9.51634 16 10.4 16H14.4C15.2836 16 16 15.2837 16 14.4V10.4C16 9.51635 15.2836 8.8 14.4 8.8ZM10.4 14.4V10.4H14.4V14.4H10.4ZM7.2 1.6V14.4C7.2 15.2837 6.48366 16 5.6 16H1.6C0.716344 16 0 15.2837 0 14.4V1.6C0 0.716344 0.716344 0 1.6 0H5.6C6.48366 0 7.2 0.716344 7.2 1.6ZM5.59998 1.6H1.59998V14.4H5.59998V1.6ZM14.4 0H10.4C9.51634 0 8.79999 0.716344 8.79999 1.6V5.6C8.79999 6.48366 9.51634 7.2 10.4 7.2H14.4C15.2836 7.2 16 6.48366 16 5.6V1.6C16 0.716344 15.2836 0 14.4 0ZM10.4 5.6V1.6H14.4V5.6H10.4Z" fill="#F3F6F9"/>
</svg>
