<svg width="17" height="20" viewBox="0 0 17 20" fill="none" xmlns="http://www.w3.org/2000/svg">
<path fill-rule="evenodd" clip-rule="evenodd" d="M5.42631 0.905C6.10712 0.328492 7.09442 0 8.145 0C9.19558 0 10.1829 0.328492 10.8637 0.905H11.765C12.7646 0.905 13.575 1.71536 13.575 2.715H14.48C15.4796 2.715 16.29 3.52536 16.29 4.525V18.1C16.29 19.0996 15.4796 19.91 14.48 19.91H1.81C0.810365 19.91 0 19.0996 0 18.1V4.525C0 3.52536 0.810365 2.715 1.81 2.715H2.715C2.715 1.71536 3.52536 0.905 4.525 0.905H5.42631ZM11.765 5.43C12.435 5.43 13.0199 5.06601 13.3329 4.525H14.48V18.1H1.81V4.525H2.95715C3.2701 5.06601 3.85504 5.43 4.525 5.43H11.765ZM4.52501 13.575V11.765H9.95501V13.575H4.52501ZM4.52501 8.145V9.955H11.765V8.145H4.52501ZM6.20615 2.715L6.47677 2.40311C6.77411 2.06045 7.41142 1.81 8.14501 1.81C8.87859 1.81 9.51591 2.06045 9.81324 2.40311L10.0839 2.715H11.765V3.62H4.52501V2.715H5.79322H6.20615Z" fill="#F3F6F9"/>
</svg>
