<svg width="17" height="17" viewBox="0 0 17 17" fill="none" xmlns="http://www.w3.org/2000/svg">
<path fill-rule="evenodd" clip-rule="evenodd" d="M11.433 0.065847C12.3357 -0.192084 13.2767 0.330652 13.5346 1.23341C13.578 1.38529 13.6 1.54248 13.6 1.70044L13.6 3.12354H15.3C16.2389 3.12354 17 3.88465 17 4.82354V15.0235C17 15.9624 16.2389 16.7235 15.3 16.7235H1.7C0.761116 16.7235 0 15.9624 0 15.0235H0.0226923C0.00760712 14.9321 0 14.8396 0 14.7467V4.61472C0 3.85571 0.503161 3.18865 1.23297 2.98013L11.433 0.065847ZM6.91916 15.0235H15.3V4.82354H13.6V6.52356H15.3V8.22356H13.6L13.6 11.8324C13.6 12.5914 13.0968 13.2585 12.367 13.467L6.91916 15.0235ZM1.69997 4.61471V14.7467L11.9 11.8324V1.70043L1.69997 4.61471ZM10.2 6.52358C10.2 6.99303 9.81944 7.37358 9.35 7.37358C8.88056 7.37358 8.5 6.99303 8.5 6.52358C8.5 6.05414 8.88056 5.67358 9.35 5.67358C9.81944 5.67358 10.2 6.05414 10.2 6.52358Z" fill="#F3F6F9"/>
</svg>
