<svg width="18" height="22" viewBox="0 0 18 22" fill="none" xmlns="http://www.w3.org/2000/svg">
<path d="M3.55404 0L0 3.39956V22H17.75V0H3.55404ZM3.92123 1.47181V3.75074H1.53871L3.92123 1.47181ZM16.4023 20.7109H1.34766V5.0398H5.26889V1.28906H16.4024V20.7109H16.4023Z" fill="#F3F6F9"/>
<path d="M2.95605 9.60608V16.1448L8.87622 19.4142L14.7964 16.1448V9.60608L8.87622 6.33667L2.95605 9.60608ZM12.7749 9.97819L8.87617 12.1312L4.97749 9.97819L8.87617 7.82515L12.7749 9.97819ZM4.30371 11.0945L8.20239 13.2475V17.5536L4.30371 15.4006V11.0945ZM9.55 17.5537V13.2475L13.4487 11.0945V15.4006L9.55 17.5537Z" fill="#F3F6F9"/>
</svg>
