<svg width="18" height="19" viewBox="0 0 18 19" fill="none" xmlns="http://www.w3.org/2000/svg">
<path d="M4.75675 10.6875C4.82256 10.7533 4.93081 10.7533 4.99661 10.6875L7.15746 8.52668L8.98505 10.3564C9.05086 10.4222 9.15911 10.4222 9.22491 10.3564L14.0285 5.54861C14.0943 5.48281 14.0943 5.37456 14.0285 5.30876L13.2473 4.52762C13.1815 4.46182 13.0733 4.46182 13.0075 4.52762L9.10605 8.43328L7.27845 6.60357C7.21265 6.53776 7.10439 6.53776 7.03859 6.60357L3.97562 9.66654C3.90982 9.73234 3.90982 9.8406 3.97562 9.9064L4.75675 10.6875Z" fill="#F3F6F9"/>
<path d="M17.3208 1.5283H9.76415V0.169811C9.76415 0.0764151 9.68774 0 9.59434 0H8.40566C8.31226 0 8.23585 0.0764151 8.23585 0.169811V1.5283H0.679245C0.303538 1.5283 0 1.83184 0 2.20755V13.2453C0 13.621 0.303538 13.9245 0.679245 13.9245H8.24434V14.6038L4.74623 16.8983C4.66769 16.9493 4.64646 17.0533 4.69741 17.1318L5.34057 18.1337V18.1359C5.39151 18.2144 5.49764 18.2356 5.57618 18.1847L9 15.9389L12.4238 18.1847C12.5024 18.2356 12.6085 18.2144 12.6594 18.1359V18.1337L13.3026 17.1318C13.3535 17.0533 13.3302 16.9493 13.2538 16.8983L9.76415 14.6101V13.9245H17.3208C17.6965 13.9245 18 13.621 18 13.2453V2.20755C18 1.83184 17.6965 1.5283 17.3208 1.5283ZM16.4717 12.3962H1.5283V3.0566H16.4717V12.3962Z" fill="#F3F6F9"/>
</svg>
