<svg width="34" height="39" viewBox="0 0 34 39" fill="none" xmlns="http://www.w3.org/2000/svg">
<path d="M28.1638 11.3788C28.1638 5.09294 23.1459 0 16.9526 0C10.7593 0 5.74133 5.09294 5.74133 11.3788C5.74133 15.1779 7.57672 18.5456 10.3976 20.6104C10.3795 20.6195 10.366 20.6241 10.3569 20.6287C8.3362 21.4959 6.52341 22.7393 4.96378 24.3268C3.40415 25.9098 2.18357 27.7542 1.32917 29.8098C0.492844 31.8194 0.0452986 33.9529 9.19499e-05 36.1461C-0.00442871 36.3526 0.158315 36.5224 0.361745 36.5224H3.06962C3.26401 36.5224 3.42675 36.3618 3.43128 36.1645C3.52169 32.6224 4.91857 29.3051 7.39138 26.7907C9.94555 24.1892 13.3361 22.7576 16.9526 22.7576C23.1459 22.7576 28.1638 17.6647 28.1638 11.3788ZM16.9526 19.2706C12.658 19.2706 9.17704 15.7376 9.17704 11.3788C9.17704 7.02 12.658 3.48706 16.9526 3.48706C21.2472 3.48706 24.7281 7.02 24.7281 11.3788C24.7281 15.7376 21.2472 19.2706 16.9526 19.2706ZM21.6993 29.4106H33.6338C33.8327 29.4106 33.9955 29.2454 33.9955 29.0435V26.4741C33.9955 26.2722 33.8327 26.1071 33.6338 26.1071H25.6549L27.7886 23.3495C27.8383 23.2853 27.8655 23.2027 27.8655 23.1247C27.8655 22.9228 27.7027 22.7576 27.5038 22.7576H24.2218C24.0003 22.7576 23.7923 22.8632 23.6522 23.0375L20.5555 27.0339C20.3566 27.2908 20.2481 27.612 20.2481 27.9424C20.2527 28.7545 20.8991 29.4106 21.6993 29.4106ZM32.5489 32.3471H20.6143C20.4154 32.3471 20.2527 32.5122 20.2527 32.7141V35.2835C20.2527 35.4854 20.4154 35.6506 20.6143 35.6506H28.5933L26.4595 38.4081C26.4098 38.4724 26.3827 38.5549 26.3827 38.6329C26.3827 38.8348 26.5454 39 26.7443 39H30.0263C30.2479 39 30.4558 38.8945 30.5959 38.7201L33.6926 34.7238C33.8915 34.4668 34 34.1456 34 33.8153C33.9955 33.0032 33.349 32.3471 32.5489 32.3471Z" fill="#1034A6"/>
</svg>
