<svg width="51" height="50" viewBox="0 0 51 50" fill="none" xmlns="http://www.w3.org/2000/svg">
<path d="M29.6904 42.6189H43.8967V46.1705H29.6904V42.6189Z" fill="#1034A6"/>
<path d="M29.6904 35.5156H50.9998V39.0672H29.6904V35.5156Z" fill="#1034A6"/>
<path d="M29.6904 28.4126H50.9998V31.9642H29.6904V28.4126Z" fill="#1034A6"/>
<path d="M34.2176 16.3674L26.1395 0L18.0615 16.3674L0 18.992L13.0698 31.7332L9.98345 49.7219L22.588 43.0965V39.0832L14.7017 43.2297L16.5698 32.3335L16.8859 30.492L15.5488 29.1903L7.63232 21.471L18.5729 19.8817L20.4197 19.6135L21.2472 17.939L26.1395 8.02476L31.0318 17.939L31.8593 19.6135L33.7061 19.8817L46.9428 21.8084L47.4489 18.2906L34.2176 16.3674Z" fill="#1034A6"/>
</svg>
