<svg width="104" height="104" viewBox="0 0 104 104" fill="none" xmlns="http://www.w3.org/2000/svg">
<g clip-path="url(#clip0)">
<path d="M52 101.999C24.3663 101.999 2 79.6054 2 52C2 24.3656 24.3625 2 52 2C79.6344 2 101.999 24.3625 101.999 52C101.999 79.6321 79.6031 101.999 52 101.999V101.999Z" fill="#EAEAEA"/>
<path d="M52.0001 63.7188C37.4516 63.7188 23.5798 70.0786 13.4419 83.8298C33.63 108.232 70.998 108.024 90.9138 83.3942C85.9959 78.5022 74.9188 63.7188 52.0001 63.7188Z" fill="#525252"/>
<path d="M90.9137 83.3942C81.5113 95.0206 67.4037 101.999 52 101.999V63.7188C74.9195 63.7188 85.9958 78.5038 90.9137 83.3942V83.3942Z" fill="#525252"/>
<path d="M52 54.9297C42.3069 54.9297 34.4219 47.0439 34.4219 37.3516V31.4922C34.4219 21.7998 42.3069 13.9141 52 13.9141C61.6924 13.9141 69.5781 21.7998 69.5781 31.4922V37.3516C69.5781 47.0439 61.6924 54.9297 52 54.9297Z" fill="#525252"/>
</g>
<path d="M52 100C25.4903 100 4 78.5097 4 52H0C0 80.7188 23.2812 104 52 104V100ZM100 52C100 78.5097 78.5097 100 52 100V104C80.7188 104 104 80.7188 104 52H100ZM52 4C78.5097 4 100 25.4903 100 52H104C104 23.2812 80.7188 0 52 0V4ZM52 0C23.2812 0 0 23.2812 0 52H4C4 25.4903 25.4903 4 52 4V0Z" fill="url(#paint0_linear)"/>
<defs>
<linearGradient id="paint0_linear" x1="52" y1="2" x2="52" y2="102" gradientUnits="userSpaceOnUse">
<stop stop-color="#47CAFB"/>
<stop offset="0.276042" stop-color="#0A7D79"/>
<stop offset="0.630208" stop-color="#FFA35D"/>
<stop offset="0.973958" stop-color="#BA93F9"/>
</linearGradient>
<clipPath id="clip0">
<path d="M2 52C2 24.3858 24.3858 2 52 2V2C79.6142 2 102 24.3858 102 52V52C102 79.6142 79.6142 102 52 102V102C24.3858 102 2 79.6142 2 52V52Z" fill="white"/>
</clipPath>
</defs>
</svg>
