<svg width="12" height="12" viewBox="0 0 12 12" fill="none" xmlns="http://www.w3.org/2000/svg">
<path d="M5.11172 3.91805C5.11172 4.22273 5.11172 4.51805 5.20781 4.79461C4.19766 5.98055 1.53047 9.11414 1.28203 9.3532C1.23265 9.3975 1.19316 9.4517 1.1661 9.51227C1.13905 9.57284 1.12504 9.63843 1.125 9.70477C1.125 9.90398 1.24687 10.0962 1.35 10.204C1.50469 10.3657 2.16562 10.9774 2.2875 10.8602C2.64844 10.5087 2.72109 10.4149 2.86875 10.2696C3.09141 10.0516 2.84531 9.60633 2.92266 9.42586C3 9.24539 3.08203 9.21023 3.21562 9.18211C3.34922 9.15398 3.58594 9.25008 3.77109 9.25242C3.96562 9.25477 4.07109 9.17273 4.21641 9.0368C4.33359 8.92898 4.41797 8.8282 4.42031 8.67117C4.425 8.46023 4.12031 8.18133 4.34766 7.95867C4.575 7.73602 4.90313 8.10398 5.14453 8.07586C5.38594 8.04773 5.67891 7.71258 5.70938 7.56961C5.73984 7.42664 5.43516 7.05867 5.48203 6.85008C5.49844 6.77977 5.64141 6.6157 5.74922 6.59227C5.85703 6.56883 6.33516 6.75398 6.44297 6.73055C6.57422 6.70242 6.72656 6.56414 6.85078 6.4868C7.21406 6.64383 7.54453 6.70711 7.96875 6.70711C9.57422 6.70711 10.875 5.45555 10.875 3.91336C10.875 2.37117 9.57422 1.125 7.96875 1.125C6.36328 1.125 5.11172 2.37586 5.11172 3.91805ZM9.375 3.375C9.375 3.52334 9.33101 3.66834 9.2486 3.79168C9.16619 3.91501 9.04906 4.01114 8.91201 4.06791C8.77497 4.12468 8.62417 4.13953 8.47868 4.11059C8.3332 4.08165 8.19956 4.01022 8.09467 3.90533C7.98978 3.80044 7.91835 3.6668 7.88941 3.52132C7.86047 3.37583 7.87532 3.22503 7.93209 3.08799C7.98886 2.95094 8.08499 2.83381 8.20832 2.7514C8.33166 2.66899 8.47666 2.625 8.625 2.625C8.82391 2.625 9.01468 2.70402 9.15533 2.84467C9.29598 2.98532 9.375 3.17609 9.375 3.375Z" fill="#525252"/>
</svg>
