<svg width="221" height="221" viewBox="0 0 221 221" fill="none" xmlns="http://www.w3.org/2000/svg">
<circle cx="110.464" cy="110.464" r="110.464" fill="#F3F6F9"/>
<path d="M162.215 178.774H57.5047C56.1905 178.774 55.125 177.708 55.125 176.394V33.607C55.125 32.2928 56.1905 31.2273 57.5047 31.2273H136.446C137.709 31.2273 138.919 31.7287 139.812 32.6214L163.201 56.0098C164.094 56.9025 164.595 58.1131 164.595 59.3754V176.394C164.595 177.708 163.53 178.774 162.215 178.774Z" fill="#BDBDBD"/>
<path d="M140.797 57.4048C139.482 57.4048 138.417 56.3393 138.417 55.025V31.6693C137.802 31.3888 137.135 31.2273 136.446 31.2273H131.277V55.025C131.277 60.2824 135.539 64.5443 140.797 64.5443H164.594V59.3752C164.594 58.6867 164.433 58.0196 164.153 57.4051L140.797 57.4048Z" fill="#9BA0A7"/>
<path d="M164.596 105.001H67.0251C64.3966 105.001 62.2656 107.132 62.2656 109.76V138.318C62.2656 144.889 67.593 150.217 74.1646 150.217H164.596V105.001Z" fill="#9BA0A7"/>
<path d="M174.117 143.077H74.1657C71.5372 143.077 69.4062 140.946 69.4062 138.317V105C69.4062 102.372 71.5372 100.241 74.1657 100.241H174.117C176.745 100.241 178.876 102.372 178.876 105V138.317C178.876 140.946 176.745 143.077 174.117 143.077Z" fill="#FFD164"/>
<path d="M93.204 135.938C84.0039 135.938 76.5455 128.479 76.5455 119.279V100.241H74.1657C71.5372 100.241 69.4062 102.372 69.4062 105V138.317C69.4062 140.946 71.5372 143.077 74.1657 143.077H174.117C176.745 143.077 178.876 140.946 178.876 138.317V135.938H93.204Z" fill="#FFC350"/>
<path d="M164.594 64.6973C163.364 64.6973 162.367 65.6939 162.367 66.9238V90.7216C162.367 91.9515 163.364 92.9481 164.594 92.9481C165.823 92.9481 166.82 91.9515 166.82 90.7216V66.9238C166.82 65.6942 165.823 64.6973 164.594 64.6973Z" fill="#070707"/>
<path d="M164.595 150.37C163.365 150.37 162.369 151.367 162.369 152.597V176.394C162.369 176.478 162.3 176.547 162.215 176.547H57.5047C57.4201 176.547 57.3516 176.479 57.3516 176.394V33.6072C57.3516 33.5226 57.4201 33.4537 57.5047 33.4537H136.191V55.0249C136.191 57.565 138.257 59.6315 140.797 59.6315H164.595C165.496 59.6315 166.307 59.0891 166.652 58.257C166.997 57.4248 166.806 56.4674 166.169 55.8303L139.992 29.6525C139.973 29.6338 139.954 29.6157 139.935 29.5976C139.934 29.597 139.934 29.5967 139.933 29.5964C139.933 29.5952 139.931 29.5943 139.93 29.5935C139.93 29.5926 139.929 29.5917 139.928 29.5911C139.927 29.5905 139.927 29.5899 139.926 29.5893C139.925 29.5881 139.924 29.5869 139.922 29.5854C139.922 29.5854 139.922 29.5854 139.922 29.5851C139.529 29.2247 139.006 29.0036 138.431 29C138.427 29.0003 138.422 29.0003 138.418 29H57.5047C54.9647 29 52.8984 31.0665 52.8984 33.6066V176.393C52.8984 178.933 54.9647 181 57.5047 181H162.215C164.755 181 166.822 178.933 166.822 176.393V152.597C166.822 151.367 165.825 150.37 164.595 150.37ZM140.644 36.6024L159.22 55.1781H140.797C140.712 55.1781 140.644 55.1095 140.644 55.0246V36.6024Z" fill="#070707"/>
<path d="M174.113 98.0144H74.1618C70.3096 98.0144 67.1758 101.149 67.1758 105V138.317C67.1758 142.17 70.3099 145.304 74.1618 145.304H174.113C177.965 145.304 181.099 142.169 181.099 138.317V105C181.099 101.148 177.965 98.0144 174.113 98.0144ZM176.646 138.317C176.646 139.714 175.509 140.85 174.113 140.85H74.1618C72.765 140.85 71.6289 139.714 71.6289 138.317V105C71.6289 103.604 72.7653 102.468 74.1618 102.468H174.113C175.51 102.468 176.646 103.604 176.646 105V138.317Z" fill="#070707"/>
<path d="M78.9219 109.913C77.6922 109.913 76.6953 110.91 76.6953 112.14V131.178C76.6953 132.408 77.6922 133.405 78.9219 133.405C80.1515 133.405 81.1484 132.408 81.1484 131.178V112.14C81.1484 110.91 80.1515 109.913 78.9219 109.913Z" fill="#070707"/>
<path d="M137.684 109.913C136.454 109.913 135.457 110.91 135.457 112.14V131.178C135.457 132.408 136.454 133.405 137.684 133.405C138.913 133.405 139.91 132.408 139.91 131.178V112.14C139.91 110.91 138.913 109.913 137.684 109.913Z" fill="#070707"/>
<path d="M96.476 109.913C95.2464 109.913 94.2494 110.91 94.2494 112.14V121.746L88.9485 111.144C88.4868 110.221 87.4504 109.735 86.4455 109.973C85.4406 110.21 84.7305 111.107 84.7305 112.14V131.178C84.7305 132.408 85.7274 133.405 86.957 133.405C88.1867 133.405 89.1836 132.408 89.1836 131.178V121.572L94.4846 132.174C94.8678 132.941 95.6471 133.405 96.4754 133.405C96.6449 133.405 96.8168 133.386 96.9875 133.345C97.9924 133.108 98.7026 132.211 98.7026 131.178V112.14C98.7026 110.91 97.7057 109.913 96.476 109.913Z" fill="#070707"/>
<path d="M114.118 109.98C112.927 109.683 111.717 110.407 111.418 111.6L108.819 121.998L106.219 111.6C105.921 110.407 104.711 109.682 103.519 109.98C102.326 110.278 101.601 111.487 101.899 112.68L106.659 131.718C106.906 132.709 107.797 133.405 108.819 133.405C109.84 133.405 110.731 132.709 110.979 131.718L115.738 112.68C116.037 111.487 115.311 110.278 114.118 109.98Z" fill="#070707"/>
<path d="M125.033 109.913C121.181 109.913 118.047 113.047 118.047 116.899V126.418C118.047 130.271 121.181 133.404 125.033 133.404C128.885 133.404 132.019 130.27 132.019 126.418V116.899C132.019 113.047 128.885 109.913 125.033 109.913ZM127.566 126.419C127.566 127.815 126.43 128.952 125.033 128.952C123.636 128.952 122.5 127.815 122.5 126.419V116.9C122.5 115.503 123.637 114.367 125.034 114.367C126.43 114.367 127.566 115.503 127.566 116.9L127.566 126.419Z" fill="#070707"/>
<path d="M155.556 126.871C154.492 126.256 153.129 126.619 152.513 127.683C152.061 128.466 151.22 128.951 150.318 128.951C148.921 128.951 147.785 127.815 147.785 126.418V116.899C147.785 115.503 148.922 114.366 150.318 114.366C151.219 114.366 152.061 114.852 152.513 115.634C153.129 116.698 154.492 117.061 155.556 116.445C156.62 115.829 156.983 114.466 156.367 113.402C155.121 111.25 152.803 109.913 150.318 109.913C146.466 109.913 143.332 113.047 143.332 116.899V126.418C143.332 130.271 146.466 133.404 150.318 133.404C152.804 133.404 155.122 132.067 156.368 129.913C156.984 128.849 156.62 127.487 155.556 126.871Z" fill="#070707"/>
<path d="M169.354 114.366C170.584 114.366 171.581 113.37 171.581 112.14C171.581 110.91 170.584 109.913 169.354 109.913H162.215C160.985 109.913 159.988 110.91 159.988 112.14V131.178C159.988 132.408 160.985 133.405 162.215 133.405H169.354C170.584 133.405 171.581 132.408 171.581 131.178C171.581 129.948 170.584 128.952 169.354 128.952H164.441V123.886H169.354C170.584 123.886 171.581 122.889 171.581 121.659C171.581 120.429 170.584 119.433 169.354 119.433H164.441V114.367H169.354V114.366Z" fill="#070707"/>
</svg>
