<svg width="36" height="36" viewBox="0 0 36 36" fill="none" xmlns="http://www.w3.org/2000/svg">
<path d="M30.9294 7.44184C31.9917 6.70057 32.6863 5.47486 32.6863 4.08572C32.6863 1.83274 30.8536 0 28.6006 0C26.3476 0 24.5149 1.83274 24.5149 4.08572C24.5149 5.47486 25.2094 6.70057 26.2717 7.44184C23.8787 8.37572 22.1802 10.7046 22.1802 13.4245V15.7592C22.1802 16.0802 22.4428 16.3429 22.7638 16.3429H34.4373C34.7583 16.3429 35.021 16.0802 35.021 15.7592V13.4245C35.021 10.7046 33.3225 8.37572 30.9294 7.44184ZM25.6822 4.08572C25.6822 2.47478 26.9896 1.16735 28.6006 1.16735C30.2115 1.16735 31.519 2.47478 31.519 4.08572C31.519 5.69666 30.2115 7.00409 28.6006 7.00409C26.9896 7.00409 25.6822 5.69666 25.6822 4.08572ZM33.8537 15.1755H23.3475V13.4245C23.3475 10.5295 25.7056 8.17143 28.6006 8.17143C31.4956 8.17143 33.8537 10.5295 33.8537 13.4245V15.1755Z" fill="#1034A6"/>
<path d="M28.4307 31.6875L21.4267 24.6834C21.199 24.4557 20.8255 24.4557 20.5978 24.6834L18.0939 27.1932L7.82706 16.9263L10.3369 14.4224C10.5645 14.1948 10.5645 13.8212 10.3369 13.5936L3.33278 6.58949C3.10514 6.36185 2.73159 6.36185 2.50396 6.58949L0.169265 8.92418C0.0642041 9.03508 0 9.181 0 9.33859V15.759C0 15.9166 0.0642041 16.0625 0.169265 16.1734L18.8468 34.851C18.9577 34.956 19.1036 35.0202 19.2612 35.0202H25.6816C25.8392 35.0202 25.9852 34.956 26.0961 34.851L28.4307 32.5163C28.6584 32.2886 28.6584 31.9151 28.4307 31.6875ZM25.4423 33.8529H19.5005L1.16735 15.5197V9.5779L2.91837 7.82687L9.09947 14.008L6.58968 16.5119C6.36204 16.7396 6.36204 17.1131 6.58968 17.3408L17.6795 28.4306C17.9071 28.6582 18.2807 28.6582 18.5083 28.4306L19.2612 27.6776L21.1815 29.5979L22.0103 28.7691L20.09 26.8488L21.0123 25.9208L27.1934 32.1019L25.4423 33.8529Z" fill="#1034A6"/>
<path d="M21.012 14.5917V17.51H19.8447V16.0042L16.757 19.0918L15.9282 18.263L19.0159 15.1753H17.51V14.008H20.4283C20.7494 14.008 21.012 14.2706 21.012 14.5917Z" fill="#1034A6"/>
<path d="M13.5918 20.5988L14.759 19.4316L15.5844 20.2571L14.4172 21.4242L13.5918 20.5988Z" fill="#1034A6"/>
<path d="M22.3452 30.7634L23.1707 29.938L24.3378 31.1052L23.5124 31.9306L22.3452 30.7634Z" fill="#1034A6"/>
<path d="M28.0161 9.33899H29.1835V10.5063H28.0161V9.33899Z" fill="#1034A6"/>
<path d="M28.0161 11.6736H29.1835V12.841H28.0161V11.6736Z" fill="#1034A6"/>
</svg>
