<svg width="33" height="36" viewBox="0 0 33 36" fill="none" xmlns="http://www.w3.org/2000/svg">
<path d="M22.3125 8.5061H6.09358C5.7073 8.5061 5.39404 8.19292 5.39404 7.80656C5.39404 7.42021 5.7073 7.10703 6.09358 7.10703H22.3125C22.6988 7.10703 23.012 7.42021 23.012 7.80656C23.012 8.19292 22.6988 8.5061 22.3125 8.5061Z" fill="#1034A6"/>
<path d="M26.5205 5.29098H19.4696C19.0833 5.29098 18.77 4.9778 18.77 4.59144C18.77 4.20509 19.0833 3.89191 19.4696 3.89191H26.5205C26.9068 3.89191 27.22 4.20509 27.22 4.59144C27.22 4.9778 26.9068 5.29098 26.5205 5.29098Z" fill="#1034A6"/>
<path d="M13.1445 5.2911H6.09358C5.7073 5.2911 5.39404 4.97792 5.39404 4.59157C5.39404 4.20521 5.7073 3.89203 6.09358 3.89203H13.1445C13.5309 3.89203 13.844 4.20521 13.844 4.59157C13.844 4.97792 13.5308 5.2911 13.1445 5.2911Z" fill="#1034A6"/>
<path d="M16.3187 5.29112C16.0261 5.29112 15.7595 5.10162 15.6608 4.82691C15.5636 4.55605 15.6468 4.24476 15.8662 4.05833C16.0949 3.86407 16.4328 3.83867 16.6878 3.99726C16.9322 4.14927 17.0619 4.44545 17.005 4.728C16.94 5.05069 16.6486 5.29112 16.3187 5.29112Z" fill="#1034A6"/>
<path d="M11.6451 26.1606C12.6791 25.2037 13.3272 23.837 13.3272 22.3221C13.3272 19.4349 10.9732 17.0859 8.07971 17.0859C5.18622 17.0859 2.83213 19.4349 2.83213 22.3221C2.83213 23.837 3.48019 25.2037 4.51424 26.1606C2.73462 26.2122 1.30273 27.676 1.30273 29.4678V35.1169C1.30273 35.5032 1.61599 35.8164 2.00227 35.8164H14.1571C14.5434 35.8164 14.8566 35.5032 14.8566 35.1169V29.4678C14.8566 27.676 13.4248 26.2123 11.6451 26.1606ZM4.23128 22.3221C4.23128 20.2062 5.95774 18.485 8.07978 18.485C10.2018 18.485 11.9282 20.2062 11.9282 22.3221C11.9282 24.4379 10.2018 26.1592 8.07978 26.1592C5.95774 26.1592 4.23128 24.4379 4.23128 22.3221ZM13.4575 34.4173H2.70181V29.4678C2.70181 28.4149 3.55846 27.5582 4.61141 27.5582H11.548C12.6009 27.5582 13.4575 28.4149 13.4575 29.4678V34.4173Z" fill="#1034A6"/>
<path d="M28.0987 26.1606C29.1328 25.2037 29.7808 23.837 29.7808 22.3221C29.7808 19.4349 27.4268 17.0859 24.5333 17.0859C21.6398 17.0859 19.2857 19.4349 19.2857 22.3221C19.2857 23.837 19.9338 25.2037 20.9679 26.1606C19.1882 26.2122 17.7563 27.676 17.7563 29.4678V35.1169C17.7563 35.5032 18.0696 35.8164 18.4559 35.8164H30.6107C30.997 35.8164 31.3102 35.5032 31.3102 35.1169V29.4678C31.3103 27.676 29.8784 26.2123 28.0987 26.1606ZM20.6849 22.3221C20.6849 20.2062 22.4113 18.485 24.5333 18.485C26.6554 18.485 28.3818 20.2062 28.3818 22.3221C28.3818 24.4379 26.6554 26.1592 24.5333 26.1592C22.4113 26.1592 20.6849 24.4379 20.6849 22.3221ZM29.9112 34.4173H19.1555V29.4678C19.1555 28.4149 20.0121 27.5582 21.0651 27.5582H28.0016C29.0546 27.5582 29.9112 28.4149 29.9112 29.4678V34.4173Z" fill="#1034A6"/>
<path d="M24.7432 15.0415C24.5961 15.0415 24.4504 14.9951 24.3283 14.9052L21.2548 12.642H11.3578L8.28434 14.9052C8.08868 15.0494 7.83209 15.0815 7.60691 14.9902C7.38166 14.899 7.21993 14.6974 7.1797 14.4578L6.87457 12.642H1.91673C0.859872 12.642 4.26795e-09 11.7826 4.26795e-09 10.7264V1.91568C-6.99495e-05 0.859382 0.859802 0 1.91673 0H30.696C31.7529 0 32.6127 0.859382 32.6127 1.91568V10.7264C32.6127 11.7827 31.7529 12.642 30.696 12.642H25.7382L25.433 14.4578C25.3928 14.6975 25.231 14.8991 25.0058 14.9902C24.921 15.0246 24.8319 15.0415 24.7432 15.0415ZM11.1281 11.2429H21.4847C21.634 11.2429 21.7793 11.2907 21.8995 11.3792L24.2418 13.104L24.4565 11.8265C24.5131 11.4896 24.8048 11.2429 25.1463 11.2429H30.696C30.9815 11.2429 31.2136 11.0111 31.2136 10.7264V1.91568C31.2136 1.63083 30.9815 1.39908 30.696 1.39908H1.91673C1.63125 1.39908 1.39908 1.63083 1.39908 1.91568V10.7264C1.39908 11.0112 1.63125 11.2429 1.91673 11.2429H7.46637C7.80803 11.2429 8.09967 11.4896 8.15619 11.8265L8.37088 13.104L10.7132 11.3792C10.8335 11.2907 10.9788 11.2429 11.1281 11.2429Z" fill="#1034A6"/>
</svg>
