<svg width="39" height="36" viewBox="0 0 39 36" fill="none" xmlns="http://www.w3.org/2000/svg">
<path d="M29.6462 15.6572C30.4199 15.0957 31.0624 14.3728 31.5293 13.5385C31.9961 12.7043 32.2762 11.7785 32.35 10.8254C32.4239 9.87225 32.2898 8.91443 31.957 8.01821C31.6243 7.12199 31.1008 6.30876 30.4228 5.63477C29.8321 5.04608 29.1293 4.58176 28.3561 4.26927C27.5829 3.95677 26.7549 3.80244 25.921 3.81539C22.4586 3.86474 19.6471 6.78809 19.6538 10.3322C19.6532 11.3725 19.9 12.3979 20.3739 13.324C20.8478 14.2501 21.5351 15.0501 22.3791 15.6582C22.4223 15.6908 22.4572 15.7332 22.4808 15.7819C22.5044 15.8307 22.516 15.8843 22.5149 15.9384V16.7872C22.199 16.9693 21.9421 17.2381 21.7744 17.5619C21.6067 17.8856 21.5354 18.2506 21.5688 18.6136C21.6023 18.9766 21.7391 19.3224 21.9632 19.6101C22.1872 19.8977 22.489 20.115 22.8328 20.2363V20.9811C22.8333 21.4868 23.0345 21.9716 23.392 22.3292C23.7496 22.6867 24.2344 22.8879 24.7401 22.8884H27.2833C27.7889 22.8879 28.2738 22.6867 28.6313 22.3291C28.9889 21.9716 29.19 21.4868 29.1906 20.9811V20.2359C29.5344 20.1146 29.8362 19.8973 30.0602 19.6097C30.2842 19.3221 30.4211 18.9762 30.4546 18.6132C30.488 18.2502 30.4167 17.8852 30.249 17.5615C30.0813 17.2378 29.8243 16.9689 29.5085 16.7868V15.9383C29.5075 15.8839 29.5194 15.83 29.5434 15.7811C29.5673 15.7322 29.6025 15.6897 29.6462 15.6572ZM20.9257 10.3299C20.9203 7.47848 23.1695 5.12646 25.9395 5.08696C25.9634 5.08696 25.9878 5.08641 26.0121 5.08641C27.3311 5.08638 28.5964 5.60939 29.5304 6.54077C30.0763 7.08455 30.4977 7.74025 30.7657 8.46266C31.0336 9.18507 31.1417 9.95701 31.0825 10.7252C31.0233 11.4935 30.7982 12.2397 30.4227 12.9125C30.0472 13.5853 29.5302 14.1687 28.9075 14.6224C28.6992 14.7728 28.5298 14.9706 28.4133 15.1995C28.2967 15.4284 28.2364 15.6818 28.2373 15.9387V16.5306H23.7868V15.9384C23.7878 15.6818 23.7276 15.4286 23.6113 15.1999C23.4949 14.9712 23.3258 14.7735 23.1177 14.6232C22.4381 14.1327 21.8849 13.4875 21.5038 12.741C21.1226 11.9945 20.9245 11.1681 20.9257 10.3299ZM27.2836 21.6169H24.7404C24.5719 21.6167 24.4103 21.5496 24.2911 21.4304C24.1719 21.3113 24.1048 21.1496 24.1046 20.9811V20.3453H27.9194V20.9811C27.9192 21.1496 27.8521 21.3113 27.7329 21.4304C27.6138 21.5496 27.4521 21.6167 27.2836 21.6169ZM28.5552 19.0737H23.4689C23.3002 19.0737 23.1385 19.0067 23.0193 18.8875C22.9001 18.7683 22.8331 18.6066 22.8331 18.4379C22.8331 18.2693 22.9001 18.1076 23.0193 17.9884C23.1385 17.8691 23.3002 17.8021 23.4689 17.8021H28.5552C28.7238 17.8021 28.8855 17.8691 29.0047 17.9884C29.124 18.1076 29.1909 18.2693 29.1909 18.4379C29.1909 18.6066 29.124 18.7683 29.0047 18.8875C28.8855 19.0067 28.7238 19.0737 28.5552 19.0737Z" fill="#1034A6"/>
<path d="M27.0413 7.8313C27.4411 7.99906 27.7977 8.25509 28.0846 8.58023C28.3714 8.90537 28.5809 9.29118 28.6975 9.70878C28.7451 9.86883 28.8537 10.0037 29 10.0843C29.1462 10.1649 29.3183 10.1847 29.4791 10.1395C29.6398 10.0942 29.7763 9.98759 29.8591 9.84255C29.9418 9.69751 29.9642 9.52574 29.9213 9.36434C29.7518 8.76095 29.4479 8.20373 29.0325 7.73441C28.6171 7.2651 28.1009 6.89584 27.5225 6.6543C27.3664 6.59045 27.1914 6.59122 27.0359 6.65644C26.8804 6.72165 26.7572 6.84596 26.6933 7.00203C26.6295 7.1581 26.6303 7.33314 26.6955 7.48864C26.7607 7.64415 26.885 7.76738 27.0411 7.83122L27.0413 7.8313Z" fill="#1034A6"/>
<path d="M26.6476 1.90736V0.635787C26.6476 0.467166 26.5806 0.305451 26.4613 0.186218C26.3421 0.0669846 26.1804 0 26.0118 0C25.8431 0 25.6814 0.0669846 25.5622 0.186218C25.443 0.305451 25.376 0.467166 25.376 0.635787V1.90736C25.376 2.07598 25.443 2.2377 25.5622 2.35693C25.6814 2.47616 25.8431 2.54315 26.0118 2.54315C26.1804 2.54315 26.3421 2.47616 26.4613 2.35693C26.5806 2.2377 26.6476 2.07598 26.6476 1.90736Z" fill="#1034A6"/>
<path d="M22.3925 3.31286C22.4984 3.31266 22.6025 3.28604 22.6955 3.23539C22.7885 3.18475 22.8674 3.11169 22.925 3.02285C22.9826 2.934 23.0172 2.83218 23.0255 2.72662C23.0338 2.62105 23.0156 2.51508 22.9726 2.41831L22.4554 1.25665C22.3868 1.1026 22.2598 0.982113 22.1024 0.921684C21.945 0.861255 21.77 0.865838 21.616 0.934425C21.4619 1.00301 21.3414 1.12998 21.281 1.28741C21.2206 1.44483 21.2252 1.61982 21.2937 1.77386L21.811 2.93552C21.861 3.04795 21.9425 3.14344 22.0458 3.21042C22.149 3.2774 22.2694 3.31298 22.3925 3.31286Z" fill="#1034A6"/>
<path d="M19.3961 5.48829C19.5247 5.48834 19.6503 5.44938 19.7563 5.37655C19.8623 5.30373 19.9438 5.20047 19.9899 5.08041C20.036 4.96034 20.0446 4.82912 20.0145 4.70406C19.9845 4.57901 19.9173 4.466 19.8217 4.37995L18.8767 3.52911C18.7514 3.41628 18.5864 3.35787 18.4179 3.36672C18.2495 3.37558 18.0915 3.45097 17.9787 3.57632C17.8659 3.70167 17.8075 3.8667 17.8163 4.03512C17.8252 4.20354 17.9006 4.36154 18.0259 4.47437L18.9708 5.32473C19.0874 5.43011 19.239 5.48841 19.3961 5.48829Z" fill="#1034A6"/>
<path d="M18.1508 8.2542C18.2029 8.09383 18.1891 7.91934 18.1126 7.76911C18.036 7.61887 17.9029 7.50521 17.7425 7.45311L16.5332 7.06027C16.4536 7.03389 16.3696 7.0235 16.286 7.02969C16.2024 7.03589 16.1209 7.05856 16.0461 7.09639C15.9713 7.13422 15.9047 7.18647 15.8502 7.25013C15.7957 7.31378 15.7543 7.3876 15.7284 7.46732C15.7025 7.54704 15.6926 7.63109 15.6993 7.71465C15.706 7.7982 15.7292 7.8796 15.7675 7.95416C15.8058 8.02873 15.8584 8.09499 15.9224 8.14913C15.9864 8.20326 16.0605 8.24421 16.1403 8.26962L17.3497 8.66262C17.4291 8.68852 17.5128 8.6985 17.5961 8.69199C17.6794 8.68548 17.7605 8.66261 17.8349 8.62469C17.9094 8.58677 17.9756 8.53454 18.0298 8.47099C18.084 8.40744 18.1251 8.33383 18.1508 8.25436V8.2542Z" fill="#1034A6"/>
<path d="M17.0933 11.1066L15.8287 11.2395C15.7452 11.2477 15.6642 11.2723 15.5903 11.312C15.5163 11.3516 15.451 11.4054 15.398 11.4704C15.345 11.5354 15.3054 11.6103 15.2814 11.6906C15.2574 11.771 15.2496 11.8553 15.2584 11.9387C15.2671 12.0222 15.2923 12.103 15.3325 12.1766C15.3726 12.2503 15.4269 12.3152 15.4923 12.3678C15.5576 12.4203 15.6328 12.4594 15.7133 12.4828C15.7938 12.5062 15.8782 12.5135 15.9616 12.5041L17.2262 12.3712C17.3931 12.3526 17.5459 12.2687 17.6512 12.1379C17.7565 12.007 17.8058 11.8398 17.7882 11.6728C17.7707 11.5058 17.6877 11.3525 17.5575 11.2464C17.4273 11.1403 17.2604 11.09 17.0933 11.1066Z" fill="#1034A6"/>
<path d="M34.7977 12.371L36.0623 12.504C36.2296 12.5208 36.3967 12.4706 36.527 12.3645C36.6574 12.2585 36.7405 12.1051 36.7581 11.9379C36.7757 11.7707 36.7263 11.6034 36.6209 11.4725C36.5154 11.3416 36.3624 11.2578 36.1954 11.2394L34.9307 11.1064C34.8474 11.0972 34.7631 11.1045 34.6826 11.1279C34.6021 11.1513 34.5271 11.1905 34.4618 11.243C34.3965 11.2956 34.3422 11.3605 34.3021 11.4341C34.262 11.5077 34.2369 11.5885 34.2281 11.6718C34.2193 11.7552 34.2271 11.8395 34.2511 11.9198C34.275 12.0001 34.3146 12.0749 34.3675 12.1399C34.4204 12.2049 34.4857 12.2588 34.5595 12.2984C34.6334 12.3381 34.7143 12.3628 34.7977 12.371Z" fill="#1034A6"/>
<path d="M34.477 8.69354C34.5438 8.69351 34.6101 8.68294 34.6736 8.66223L35.8829 8.26939C35.9624 8.24359 36.0359 8.2024 36.0994 8.14818C36.1629 8.09396 36.2151 8.02776 36.253 7.95337C36.2909 7.87898 36.3138 7.79785 36.3203 7.71461C36.3269 7.63138 36.317 7.54767 36.2912 7.46826C36.2654 7.38885 36.2242 7.3153 36.17 7.25182C36.1157 7.18833 36.0495 7.13614 35.9751 7.09823C35.9007 7.06033 35.8196 7.03744 35.7364 7.03089C35.6531 7.02434 35.5694 7.03424 35.49 7.06004L34.2808 7.45288C34.1367 7.49954 34.0139 7.59611 33.9347 7.72522C33.8555 7.85432 33.825 8.00746 33.8486 8.15707C33.8723 8.30668 33.9486 8.44293 34.0638 8.54129C34.179 8.63964 34.3255 8.69363 34.477 8.69354Z" fill="#1034A6"/>
<path d="M33.0508 5.3247L33.9957 4.47434C34.121 4.3615 34.1963 4.2035 34.2052 4.0351C34.214 3.8667 34.1555 3.70169 34.0427 3.57637C33.9299 3.45105 33.7719 3.37569 33.6035 3.36687C33.4351 3.35805 33.27 3.41648 33.1447 3.52932L32.1999 4.37992C32.0769 4.49336 32.0035 4.65071 31.9958 4.81785C31.9881 4.985 32.0465 5.14846 32.1585 5.27279C32.2705 5.39712 32.4269 5.47229 32.594 5.48201C32.761 5.49173 32.9252 5.43521 33.0508 5.3247Z" fill="#1034A6"/>
<path d="M29.6314 3.31286C29.7544 3.31292 29.8748 3.27731 29.9779 3.21033C30.0811 3.14336 30.1626 3.0479 30.2126 2.93552L30.7298 1.77386C30.7984 1.61982 30.803 1.44483 30.7425 1.28741C30.6821 1.12998 30.5616 1.00301 30.4076 0.934425C30.2535 0.865838 30.0785 0.861255 29.9211 0.921684C29.7637 0.982113 29.6367 1.1026 29.5681 1.25665L29.0509 2.41831C29.0079 2.51508 28.9897 2.62105 28.9981 2.72662C29.0064 2.83218 29.0409 2.934 29.0985 3.02285C29.1561 3.11169 29.235 3.18475 29.328 3.23539C29.421 3.28604 29.5252 3.31266 29.6311 3.31286H29.6314Z" fill="#1034A6"/>
<path d="M36.2399 30.5176H27.9746V29.8818C27.9746 28.9273 26.7323 28.2319 26.3516 28.0416C26.319 28.0253 26.285 28.0118 26.25 28.0012L20.0272 26.1343C19.6334 25.7865 18.2259 24.565 16.505 23.3259C13.7574 21.3479 11.627 20.345 10.1726 20.345H5.0863V19.7092C5.0863 19.5406 5.01931 19.3789 4.90008 19.2596C4.78085 19.1404 4.61913 19.0734 4.45051 19.0734H0.635787C0.467166 19.0734 0.305451 19.1404 0.186218 19.2596C0.0669845 19.3789 0 19.5406 0 19.7092V33.6965C0 33.8651 0.0669845 34.0269 0.186218 34.1461C0.305451 34.2653 0.467166 34.3323 0.635787 34.3323H4.45051C4.61913 34.3323 4.78085 34.2653 4.90008 34.1461C5.01931 34.0269 5.0863 33.8651 5.0863 33.6965V33.0607H6.96401C7.36067 33.1135 10.6052 33.7541 13.4733 34.3203C19.2099 35.4529 20.0203 35.6039 20.1992 35.6039H36.2399C36.7455 35.6033 37.2303 35.4022 37.5879 35.0446C37.9455 34.687 38.1466 34.2022 38.1472 33.6965V32.425C38.1466 31.9193 37.9455 31.4345 37.5879 31.0769C37.2303 30.7193 36.7455 30.5182 36.2399 30.5176ZM3.81472 33.0607H1.27157V20.345H3.81472V33.0607ZM36.8756 33.6965C36.8755 33.8651 36.8084 34.0267 36.6892 34.1459C36.57 34.2651 36.4084 34.3321 36.2399 34.3323H20.2288C19.8322 34.2795 16.5876 33.639 13.72 33.0727C7.98294 31.9402 7.17255 31.7892 6.99366 31.7892H5.0863V21.6166H10.1726C12.5783 21.6166 17.5654 25.6293 19.2841 27.1755C19.3539 27.2383 19.4368 27.2849 19.5267 27.3119L25.8289 29.2026C26.2248 29.4097 26.6422 29.7425 26.7027 29.9012V31.1534C26.7025 31.3129 26.6424 31.4665 26.5343 31.5839C26.4263 31.7012 26.2781 31.7738 26.1192 31.7871L19.9353 30.5502L15.5743 28.0582C15.5018 28.0166 15.4218 27.9898 15.339 27.9792C15.2561 27.9685 15.1719 27.9744 15.0913 27.9963C15.0106 28.0182 14.9351 28.0558 14.869 28.107C14.8029 28.1581 14.7476 28.2218 14.7061 28.2944C14.6646 28.3669 14.6379 28.4469 14.6274 28.5298C14.6169 28.6127 14.6228 28.6969 14.6449 28.7775C14.6669 28.8581 14.7046 28.9336 14.7559 28.9996C14.8071 29.0656 14.8708 29.1209 14.9435 29.1623L19.394 31.7054C19.4533 31.7393 19.5177 31.7635 19.5847 31.7769L25.9426 33.0485C25.9836 33.0567 26.0254 33.0608 26.0673 33.0607C26.4616 33.0603 26.8461 32.9378 27.1681 32.7102C27.4901 32.4825 27.7338 32.1608 27.8657 31.7892H36.2399C36.4084 31.7894 36.57 31.8564 36.6892 31.9756C36.8084 32.0948 36.8755 32.2564 36.8756 32.425V33.6965Z" fill="#1034A6"/>
</svg>
