<svg width="29" height="37" viewBox="0 0 29 37" fill="none" xmlns="http://www.w3.org/2000/svg">
<path d="M28.1815 16.1916C28.4814 16.1916 28.725 15.9481 28.725 15.6479V7.12042C28.725 6.43119 28.1641 5.87034 27.4746 5.87034H25.3425V4.18581C25.3425 3.49574 24.7822 2.93545 24.0921 2.93545H21.8902V1.25036C21.8902 0.561135 21.329 0 20.6398 0H5.63406C5.33387 0 5.0903 0.24357 5.0903 0.543477C5.0903 0.843665 5.33387 1.08723 5.63406 1.08723H20.6398C20.7295 1.08723 20.8029 1.16039 20.8029 1.25036V29.6174C20.8029 29.7071 20.7295 29.7803 20.6398 29.7803C19.2908 29.7803 1.94267 29.7803 1.25036 29.7803C1.16039 29.7803 1.08723 29.7071 1.08723 29.6174V1.25036C1.08723 1.16039 1.16039 1.08723 1.25036 1.08723H3.45959C3.7595 1.08723 4.00306 0.843665 4.00306 0.543477C4.00306 0.24357 3.7595 0 3.45959 0H1.25036C0.561135 0 0 0.561135 0 1.25036V29.6174C0 30.3066 0.561135 30.8675 1.25036 30.8675H3.45314V32.552C3.45314 33.2421 4.01315 33.8024 4.70266 33.8024H6.83509V35.4875C6.83509 36.1767 7.39594 36.7378 8.08517 36.7378H27.4746C28.1641 36.7378 28.725 36.1767 28.725 35.4875V17.8224C28.725 17.5224 28.4814 17.2789 28.1815 17.2789C27.8807 17.2789 27.6377 17.5224 27.6377 17.8224V35.4875C27.6377 35.5774 27.5646 35.6506 27.4746 35.6506H8.08517C7.99548 35.6506 7.92232 35.5774 7.92232 35.4875V33.8024H24.0921C24.7822 33.8024 25.3425 33.2421 25.3425 32.552V25.0341C25.3425 24.7342 25.0995 24.4907 24.7987 24.4907C24.4985 24.4907 24.2552 24.7342 24.2552 25.0341V32.552C24.2552 32.642 24.1826 32.7151 24.0921 32.7151C23.575 32.7151 5.2254 32.7151 4.70266 32.7151C4.61269 32.7151 4.5401 32.642 4.5401 32.552V30.8675H20.6398C21.329 30.8675 21.8902 30.3066 21.8902 29.6174C21.8902 28.8236 21.8902 5.27921 21.8902 4.02268H24.0921C24.1826 4.02268 24.2552 4.09584 24.2552 4.18581V6.95757V22.86C24.2552 23.1607 24.4985 23.4034 24.7987 23.4034C25.0995 23.4034 25.3425 23.1607 25.3425 22.86V6.95757H27.4746C27.5646 6.95757 27.6377 7.03073 27.6377 7.12042V15.6479C27.6377 15.9481 27.8807 16.1916 28.1815 16.1916Z" fill="#1034A6"/>
<path d="M14.0133 5.3817C14.0133 3.69044 12.6373 2.31451 10.9461 2.31451C9.25484 2.31451 7.87891 3.69044 7.87891 5.3817C7.87891 7.07295 9.25484 8.4486 10.9461 8.4486C12.6373 8.4486 14.0133 7.07295 14.0133 5.3817ZM8.96614 5.3817C8.96614 4.2897 9.85437 3.40175 10.9461 3.40175C12.0378 3.40175 12.926 4.28998 12.926 5.3817C12.926 6.47342 12.0378 7.36165 10.9461 7.36165C9.85437 7.36165 8.96614 6.47342 8.96614 5.3817Z" fill="#1034A6"/>
<path d="M18.3629 5.92509C18.6634 5.92509 18.9067 5.68181 18.9067 5.38162C18.9067 5.08115 18.6634 4.83786 18.3629 4.83786H15.814C15.5138 4.83786 15.2705 5.08115 15.2705 5.38162C15.2705 5.68181 15.5138 5.92509 15.814 5.92509H18.3629Z" fill="#1034A6"/>
<path d="M6.07658 4.83786H3.52764C3.22746 4.83786 2.98389 5.08115 2.98389 5.38162C2.98389 5.68181 3.22746 5.92509 3.52764 5.92509H6.07658C6.37677 5.92509 6.62005 5.68181 6.62005 5.38162C6.62005 5.08115 6.37677 4.83786 6.07658 4.83786Z" fill="#1034A6"/>
<path d="M4.24072 10.541C4.24072 10.8412 4.48401 11.0845 4.7842 11.0845H17.1062C17.4064 11.0845 17.6497 10.8412 17.6497 10.541C17.6497 10.2405 17.4064 9.99725 17.1062 9.99725H4.7842C4.48401 9.99725 4.24072 10.2405 4.24072 10.541Z" fill="#1034A6"/>
<path d="M17.1059 12.6334H4.7842C4.48401 12.6334 4.24072 12.8767 4.24072 13.1769C4.24072 13.4771 4.48401 13.7204 4.7842 13.7204H17.1059C17.4064 13.7204 17.6497 13.4771 17.6497 13.1769C17.6497 12.8767 17.4064 12.6334 17.1059 12.6334Z" fill="#1034A6"/>
<path d="M17.1059 15.2693H4.7842C4.48401 15.2693 4.24072 15.5126 4.24072 15.8128C4.24072 16.1132 4.48401 16.3565 4.7842 16.3565H17.1059C17.4064 16.3565 17.6497 16.1132 17.6497 15.8128C17.6497 15.5126 17.4064 15.2693 17.1059 15.2693Z" fill="#1034A6"/>
<path d="M17.1059 17.905H4.7842C4.48401 17.905 4.24072 18.1483 4.24072 18.4488C4.24072 18.7489 4.48401 18.9922 4.7842 18.9922H17.1059C17.4064 18.9922 17.6497 18.7489 17.6497 18.4488C17.6497 18.1483 17.4064 17.905 17.1059 17.905Z" fill="#1034A6"/>
<path d="M17.1059 20.5412H4.7842C4.48401 20.5412 4.24072 20.7845 4.24072 21.0849C4.24072 21.3851 4.48401 21.6284 4.7842 21.6284H17.1059C17.4064 21.6284 17.6497 21.3851 17.6497 21.0849C17.6497 20.7845 17.4064 20.5412 17.1059 20.5412Z" fill="#1034A6"/>
<path d="M17.3421 23.3002C17.1098 23.1099 16.7675 23.1438 16.5769 23.3759L13.982 26.5407L12.779 25.3618C12.5646 25.1518 12.2204 25.1552 12.0102 25.3696C11.8003 25.584 11.8036 25.9282 12.0181 26.1382L13.3651 27.4586C13.7435 27.8294 14.3582 27.7961 14.6945 27.3863L17.4178 24.0654C17.6081 23.8334 17.5742 23.4906 17.3421 23.3002Z" fill="#1034A6"/>
</svg>
