<svg width="39" height="39" viewBox="0 0 39 39" fill="none" xmlns="http://www.w3.org/2000/svg">
<path d="M28.437 39C22.613 39 17.8745 34.2615 17.8745 28.4375C17.8745 22.6135 22.613 17.875 28.437 17.875C34.261 17.875 38.9995 22.6135 38.9995 28.4375C38.9995 34.2615 34.261 39 28.437 39ZM28.437 19.5C23.5084 19.5 19.4995 23.5089 19.4995 28.4375C19.4995 33.3661 23.5084 37.375 28.437 37.375C33.3657 37.375 37.3745 33.3661 37.3745 28.4375C37.3745 23.5089 33.3657 19.5 28.437 19.5Z" fill="#1034A6"/>
<path d="M26.8129 32.4999C26.5984 32.4999 26.3904 32.4138 26.2377 32.2626L22.9877 29.0126C22.6708 28.6958 22.6708 28.1806 22.9877 27.8638C23.3045 27.5469 23.8197 27.5469 24.1365 27.8638L26.7723 30.4995L31.8878 24.6528C32.1835 24.3131 32.697 24.279 33.035 24.5764C33.373 24.8721 33.4072 25.3856 33.1114 25.7236L27.4239 32.2236C27.276 32.3926 27.0632 32.4934 26.8389 32.4999C26.8308 32.4999 26.821 32.4999 26.8129 32.4999Z" fill="#1034A6"/>
<path d="M13.8125 34.1251H4.06251C1.82325 34.1251 0 32.3018 0 30.0625V4.06251C0 1.82325 1.82325 0 4.06251 0H21.9375C24.1768 0 26 1.82325 26 4.06251V13.8125C26 14.261 25.636 14.625 25.1875 14.625C24.739 14.625 24.375 14.261 24.375 13.8125V4.06251C24.375 2.71863 23.2814 1.625 21.9375 1.625H4.06251C2.71863 1.625 1.625 2.71863 1.625 4.06251V30.0625C1.625 31.4064 2.71863 32.5 4.06251 32.5H13.8125C14.261 32.5 14.625 32.8641 14.625 33.3125C14.625 33.7611 14.261 34.1251 13.8125 34.1251Z" fill="#1034A6"/>
<path d="M15.438 22.5711C14.9895 22.5711 14.6255 22.2071 14.6255 21.7586V8.93735C14.6255 8.48885 14.9895 8.12485 15.438 8.12485H20.313C20.7615 8.12485 21.1255 8.48885 21.1255 8.93735V16.2824C21.1255 16.7309 20.7615 17.0949 20.313 17.0949C19.8645 17.0949 19.5005 16.7309 19.5005 16.2824V9.74985H16.2505V21.7586C16.2505 22.2087 15.8865 22.5711 15.438 22.5711Z" fill="#1034A6"/>
<path d="M10.563 24.375H5.68799C5.23949 24.375 4.87549 24.011 4.87549 23.5625V15.4375C4.87549 14.989 5.23949 14.625 5.68799 14.625H10.563C11.0115 14.625 11.3755 14.989 11.3755 15.4375V23.5625C11.3755 24.011 11.0115 24.375 10.563 24.375ZM6.50049 22.75H9.7505V16.25H6.50049V22.75Z" fill="#1034A6"/>
<path d="M14.6575 24.3749H4.0625C3.614 24.3749 3.25 24.0108 3.25 23.5623C3.25 23.1138 3.614 22.7498 4.0625 22.7498H14.6575C15.106 22.7498 15.47 23.1138 15.47 23.5623C15.47 24.0108 15.106 24.3749 14.6575 24.3749Z" fill="#1034A6"/>
</svg>
