<svg width="127" height="36" viewBox="0 0 127 36" fill="none" xmlns="http://www.w3.org/2000/svg">
<g clip-path="url(#clip0)">
<path d="M11.9789 5.99874C18.5692 5.96064 23.9753 11.337 24 17.9388C24.0273 24.5524 18.6918 29.9869 12.0134 29.9987C5.38606 30.0116 0.00931013 24.6414 4.25255e-05 18.0134C-0.00415592 16.4374 0.302563 14.8761 0.902634 13.4188C1.50271 11.9616 2.38434 10.637 3.49706 9.52096C4.60977 8.40492 5.9317 7.51935 7.38715 6.91495C8.8426 6.31055 10.403 5.9992 11.9789 5.99874ZM11.2334 13.4228L12.759 13.4258C13.8402 13.5849 14.7252 14.1055 15.4435 14.9144C15.5624 15.0482 15.6386 15.0807 15.8039 14.9911C16.2544 14.7429 16.7167 14.5169 17.1734 14.28C17.7655 13.9711 18.3576 13.6622 18.9837 13.3388C17.1055 10.7608 14.6176 9.44481 11.4455 9.63841C8.61994 9.80883 6.43588 11.1691 4.84288 13.5402L8.2549 15.1852C8.32132 15.1054 8.36869 15.0446 8.41966 14.9875C9.17497 14.1369 10.0961 13.5855 11.2334 13.4228ZM11.6046 26.442L11.2293 26.46C11.2293 26.4692 11.2293 26.479 11.2293 26.4883H12.5628V26.462L12.2909 26.4425C12.3574 26.4281 12.4246 26.4174 12.4923 26.4106C13.2635 26.3679 14.0246 26.2142 14.752 25.9544C18.5955 24.6291 20.9412 20.6903 20.2734 16.6866C20.1797 16.1202 20.0546 15.5616 19.8188 15.0302C19.7905 15.0371 19.7626 15.0459 19.7354 15.0565C18.6928 15.5961 17.6517 16.1377 16.6066 16.6727C16.4778 16.7386 16.4639 16.8148 16.4964 16.9399C16.6281 17.4386 16.6703 17.9567 16.621 18.4701C16.2755 21.9666 12.3687 23.8423 9.42262 21.9301C9.33303 21.8724 9.25374 21.7906 9.1137 21.7658V22.0078C9.1137 23.2343 9.11885 24.4607 9.10855 25.6871C9.10855 25.889 9.17754 25.9636 9.36187 26.0223C10.0945 26.253 10.8442 26.373 11.6046 26.442ZM4.03917 15.229C3.358 17.2426 3.4028 19.2126 4.17973 21.1593C4.82537 22.7771 5.88291 24.0637 7.36264 25.0544C7.37139 24.9483 7.38066 24.8906 7.38066 24.833C7.38066 22.7827 7.37139 20.7325 7.37499 18.6822C7.37499 18.1262 7.32351 17.5665 7.41876 17.0135C7.4445 16.8591 7.36058 16.8235 7.25503 16.7731C6.70567 16.5115 6.15836 16.2453 5.61003 15.9817C5.09362 15.7335 4.57618 15.4864 4.03917 15.229ZM11.9681 15.2197C11.4141 15.2217 10.8732 15.3878 10.4135 15.6971C9.95388 16.0063 9.59616 16.4448 9.38552 16.9572C9.17488 17.4696 9.12077 18.0329 9.23002 18.576C9.33927 19.1192 9.60698 19.6177 9.99935 20.0088C10.3917 20.3999 10.8912 20.666 11.4346 20.7734C11.9781 20.8809 12.5412 20.8249 13.0529 20.6126C13.5646 20.4003 14.0019 20.0411 14.3096 19.5804C14.6173 19.1197 14.7817 18.5782 14.7819 18.0242C14.7836 17.6545 14.7119 17.2882 14.5709 16.9464C14.4298 16.6047 14.2224 16.2944 13.9605 16.0334C13.6985 15.7725 13.3874 15.5662 13.0451 15.4266C12.7029 15.2869 12.3362 15.2165 11.9666 15.2197H11.9681Z" fill="#1034A6"/>
<path d="M11.2324 13.4241C11.7354 13.3172 12.2554 13.3183 12.758 13.4272L11.2324 13.4241Z" fill="#1034A6"/>
<path d="M11.6048 26.4432H12.2911L12.5629 26.4628V26.4891H11.2305C11.2305 26.4798 11.2305 26.47 11.2305 26.4607L11.6048 26.4432Z" fill="#1034A6"/>
</g>
<path d="M43.432 26.168C41.864 26.168 40.424 25.8 39.112 25.064C37.8 24.328 36.76 23.312 35.992 22.016C35.224 20.704 34.84 19.224 34.84 17.576C34.84 15.944 35.224 14.48 35.992 13.184C36.76 11.872 37.8 10.848 39.112 10.112C40.424 9.376 41.864 9.008 43.432 9.008C45.016 9.008 46.456 9.376 47.752 10.112C49.064 10.848 50.096 11.872 50.848 13.184C51.616 14.48 52 15.944 52 17.576C52 19.224 51.616 20.704 50.848 22.016C50.096 23.312 49.064 24.328 47.752 25.064C46.44 25.8 45 26.168 43.432 26.168ZM43.432 23.168C44.44 23.168 45.328 22.944 46.096 22.496C46.864 22.032 47.464 21.376 47.896 20.528C48.328 19.68 48.544 18.696 48.544 17.576C48.544 16.456 48.328 15.48 47.896 14.648C47.464 13.8 46.864 13.152 46.096 12.704C45.328 12.256 44.44 12.032 43.432 12.032C42.424 12.032 41.528 12.256 40.744 12.704C39.976 13.152 39.376 13.8 38.944 14.648C38.512 15.48 38.296 16.456 38.296 17.576C38.296 18.696 38.512 19.68 38.944 20.528C39.376 21.376 39.976 22.032 40.744 22.496C41.528 22.944 42.424 23.168 43.432 23.168ZM66.7158 14.432C66.7158 15.328 66.4998 16.168 66.0677 16.952C65.6518 17.736 64.9878 18.368 64.0758 18.848C63.1798 19.328 62.0438 19.568 60.6678 19.568H57.8598V26H54.4998V9.248H60.6678C61.9638 9.248 63.0678 9.472 63.9798 9.92C64.8918 10.368 65.5718 10.984 66.0198 11.768C66.4838 12.552 66.7158 13.44 66.7158 14.432ZM60.5238 16.856C61.4518 16.856 62.1398 16.648 62.5878 16.232C63.0358 15.8 63.2598 15.2 63.2598 14.432C63.2598 12.8 62.3478 11.984 60.5238 11.984H57.8598V16.856H60.5238ZM80.5013 9.248V11.96H76.0373V26H72.6773V11.96H68.2133V9.248H80.5013ZM86.3129 9.248V26H82.9529V9.248H86.3129ZM107.897 9.248V26H104.537V15.104L100.049 26H97.5046L92.9926 15.104V26H89.6326V9.248H93.4486L98.7766 21.704L104.105 9.248H107.897ZM121.491 22.808H114.819L113.715 26H110.187L116.211 9.224H120.123L126.147 26H122.595L121.491 22.808ZM120.579 20.12L118.155 13.112L115.73 20.12H120.579Z" fill="#1034A6"/>
<defs>
<clipPath id="clip0">
<rect width="24" height="24" fill="white" transform="translate(0 6)"/>
</clipPath>
</defs>
</svg>
