<svg width="54" height="54" viewBox="0 0 54 54" fill="none" xmlns="http://www.w3.org/2000/svg">
<g clip-path="url(#clip0)">
<path d="M27 51.9996C13.1832 51.9996 2 40.8027 2 27C2 13.1828 13.1813 2 27 2C40.8172 2 51.9996 13.1813 51.9996 27C51.9996 40.8161 40.8016 51.9996 27 51.9996Z" fill="#EDF2F8"/>
<path d="M27 2V51.9996C40.8016 51.9996 51.9996 40.8161 51.9996 27C51.9996 13.1816 40.8172 2 27 2Z" fill="#EDF2F8"/>
<path d="M27 32.8594C19.7258 32.8594 12.7899 36.0393 7.72095 42.9149C17.815 55.1162 36.499 55.0121 46.4569 42.6971C43.998 40.2511 38.4594 32.8594 27 32.8594Z" fill="#699FDD"/>
<path d="M46.4569 42.6971C41.7556 48.5103 34.7019 51.9996 27 51.9996V32.8594C38.4597 32.8594 43.9979 40.2519 46.4569 42.6971Z" fill="#699FDD"/>
<path d="M27 28.4648C22.1534 28.4648 18.2109 24.522 18.2109 19.6758V16.7461C18.2109 11.8999 22.1534 7.95703 27 7.95703C31.8462 7.95703 35.7891 11.8999 35.7891 16.7461V19.6758C35.7891 24.522 31.8462 28.4648 27 28.4648Z" fill="#699FDD"/>
<path d="M27 37.957V58.4648C31.8466 58.4648 35.7891 54.5224 35.7891 49.6758V46.7461C35.7891 41.8995 31.8466 37.957 27 37.957Z" fill="#699FDD"/>
</g>
<path d="M27 50C14.2975 50 4 39.7025 4 27H0C0 41.9117 12.0883 54 27 54V50ZM50 27C50 39.7025 39.7025 50 27 50V54C41.9117 54 54 41.9117 54 27H50ZM27 4C39.7025 4 50 14.2975 50 27H54C54 12.0883 41.9117 0 27 0V4ZM27 0C12.0883 0 0 12.0883 0 27H4C4 14.2975 14.2975 4 27 4V0Z" fill="url(#paint0_linear)"/>
<defs>
<linearGradient id="paint0_linear" x1="27" y1="2" x2="27" y2="52" gradientUnits="userSpaceOnUse">
<stop stop-color="#47CAFB"/>
<stop offset="0.276042" stop-color="#0A7D79"/>
<stop offset="0.630208" stop-color="#FFA35D"/>
<stop offset="0.973958" stop-color="#BA93F9"/>
</linearGradient>
<clipPath id="clip0">
<path d="M2 27C2 13.1929 13.1929 2 27 2V2C40.8071 2 52 13.1929 52 27V27C52 40.8071 40.8071 52 27 52V52C13.1929 52 2 40.8071 2 27V27Z" fill="white"/>
</clipPath>
</defs>
</svg>
