<svg width="18" height="18" viewBox="0 0 18 18" fill="none" xmlns="http://www.w3.org/2000/svg">
<path fill-rule="evenodd" clip-rule="evenodd" d="M9 18C4.02944 18 0 13.9706 0 9C0 4.02944 4.02944 0 9 0C13.9706 0 18 4.02944 18 9C18 13.9706 13.9706 18 9 18ZM9.00035 16.3645C13.0672 16.3645 16.364 13.0677 16.364 9.00084C16.364 4.93402 13.0672 1.63721 9.00035 1.63721C4.93353 1.63721 1.63672 4.93402 1.63672 9.00084C1.63672 13.0677 4.93353 16.3645 9.00035 16.3645ZM13.09 8.18093H9.8173V4.9082H8.18093V8.18093H4.9082V9.8173H8.18093V13.09H9.8173V9.8173H13.09V8.18093Z" fill="#1034A6"/>
</svg>
