<svg width="33" height="33" viewBox="0 0 33 33" fill="none" xmlns="http://www.w3.org/2000/svg">
<path d="M24.7986 24.75V22.6755C24.7986 21.5751 24.3615 20.5197 23.5834 19.7416C22.8052 18.9635 21.7499 18.5264 20.6495 18.5264H12.3513C11.2508 18.5264 10.1955 18.9635 9.4174 19.7416C8.63929 20.5197 8.20215 21.5751 8.20215 22.6755V24.75" stroke="#5E646D" stroke-width="2" stroke-linecap="round" stroke-linejoin="round"/>
<path d="M16.4997 14.3768C18.7912 14.3768 20.6488 12.5192 20.6488 10.2277C20.6488 7.93623 18.7912 6.07861 16.4997 6.07861C14.2082 6.07861 12.3506 7.93623 12.3506 10.2277C12.3506 12.5192 14.2082 14.3768 16.4997 14.3768Z" stroke="#5E646D" stroke-width="2" stroke-linecap="round" stroke-linejoin="round"/>
<path d="M16.5 0C7.38705 0 0 7.38705 0 16.5C0 25.6129 7.38705 33 16.5 33C25.6129 33 33 25.6129 33 16.5C33 7.38705 25.6129 0 16.5 0ZM3.3 16.5C3.3 12.9991 4.69071 9.64167 7.16619 7.16619C9.64167 4.69071 12.9991 3.3 16.5 3.3C19.5492 3.3 22.3492 4.34445 24.585 6.0819L6.0819 24.585C4.27844 22.2759 3.29919 19.4299 3.3 16.5ZM16.5 29.7C13.57 29.7011 10.724 28.7218 8.415 26.9181L26.9181 8.415C28.7216 10.7241 29.7008 13.5701 29.7 16.5C29.7 20.0009 28.3093 23.3583 25.8338 25.8338C23.3583 28.3093 20.0009 29.7 16.5 29.7Z" fill="#5E646D"/>
</svg>
