<svg width="106" height="55" viewBox="0 0 106 55" fill="none"
    xmlns="http://www.w3.org/2000/svg">
    <mask id="mask0" mask-type="alpha" maskUnits="userSpaceOnUse" x="0" y="0" width="106" height="55">
        <rect x="-0.5" y="0.5" width="104" height="53.7826" transform="matrix(-1 0 0 1 104.5 0)" fill="#C4C4C4" stroke="#27AE60"/>
    </mask>
    <g mask="url(#mask0)">
        <path opacity="0.2" d="M88.3204 27.6988C96.8164 27.4281 104.896 40.1428 107.082 45.4446V55.0938H-5.68512L-1.80155 13.2287C6.82858 15.5632 16.0341 10.8942 18.6657 10.778C24.6004 10.778 33.4504 24.0889 37.4069 31.0827C40.6553 37.3095 44.7992 38.6406 46.4651 38.5278C54.2114 38.7985 60.1045 24.8785 62.0827 17.8847C63.8319 10.0334 65.8012 8.40918 66.768 8.40919C68.3902 8.40413 70.8286 10.7104 73.3275 18.5616C75.8263 26.4127 79.7828 28.6011 81.4486 28.7139C83.7787 28.8717 86.5504 27.6988 88.3204 27.6988Z" fill="url(#paint0_linear)"/>
        <path d="M88.3204 27.6988L88.3523 28.6983C88.3416 28.6987 88.331 28.6988 88.3204 28.6988L88.3204 27.6988ZM81.4487 28.7139L81.5162 27.7162L81.4487 28.7139ZM66.7681 8.40919L66.7712 9.40919H66.768L66.7681 8.40919ZM62.0828 17.8847L63.0588 18.1022C63.0547 18.1206 63.0501 18.1388 63.045 18.1569L62.0828 17.8847ZM46.4651 38.5278L46.3975 37.5301C46.4317 37.5278 46.4659 37.5272 46.5 37.5284L46.4651 38.5278ZM37.4069 31.0827L38.2772 30.5903C38.2828 30.6002 38.2882 30.6101 38.2935 30.6202L37.4069 31.0827ZM18.6657 10.778L18.6215 9.77896C18.6362 9.77831 18.651 9.77798 18.6657 9.77798V10.778ZM106.158 45.8259C105.105 43.2746 102.597 38.8656 99.317 35.1432C95.9921 31.3698 92.1185 28.5783 88.3523 28.6983L88.2886 26.6993C93.0183 26.5486 97.4323 29.9791 100.818 33.8209C104.248 37.7136 106.872 42.3129 108.007 45.0634L106.158 45.8259ZM88.3204 28.6988C87.5799 28.6988 86.5976 28.9499 85.3158 29.2407C84.1181 29.5125 82.7102 29.8016 81.3811 29.7116L81.5162 27.7162C82.5172 27.784 83.6602 27.5656 84.8733 27.2903C86.0024 27.0341 87.2909 26.6988 88.3204 26.6988L88.3204 28.6988ZM81.3811 29.7116C79.1155 29.5582 74.9279 26.8871 72.3746 18.8648L74.2804 18.2583C76.7247 25.9383 80.45 27.644 81.5162 27.7162L81.3811 29.7116ZM72.3746 18.8648C71.1405 14.9873 69.9452 12.5604 68.9083 11.1248C67.8468 9.6549 67.0932 9.40818 66.7712 9.40918L66.7649 7.40919C68.0651 7.40514 69.3418 8.30902 70.5297 9.9538C71.7423 11.6328 73.0157 14.2846 74.2804 18.2583L72.3746 18.8648ZM66.768 9.40919C66.8384 9.40919 66.3643 9.40271 65.5765 10.7169C64.8234 11.973 63.9228 14.224 63.0588 18.1022L61.1067 17.6673C61.9919 13.6942 62.9505 11.2074 63.8611 9.68853C64.7369 8.22778 65.7308 7.40918 66.7681 7.40919L66.768 9.40919ZM63.045 18.1569C62.0388 21.7143 60.0385 27.0362 57.286 31.4589C55.91 33.6697 54.3182 35.7015 52.5305 37.1723C50.7399 38.6455 48.6882 39.6061 46.4302 39.5272L46.5 37.5284C48.1152 37.5848 49.705 36.907 51.2598 35.6278C52.8176 34.3462 54.2751 32.5116 55.588 30.4021C58.2131 26.184 60.1485 21.049 61.1205 17.6126L63.045 18.1569ZM46.5327 39.5255C44.3577 39.6728 39.8936 38.0113 36.5203 31.5453L38.2935 30.6202C41.4171 36.6077 45.2407 37.6084 46.3975 37.5301L46.5327 39.5255ZM36.5365 31.5751C34.5752 28.1082 31.4054 23.0847 28.0051 18.9421C26.3035 16.8689 24.5694 15.0475 22.9232 13.7532C21.2474 12.4355 19.8052 11.778 18.6657 11.778V9.77798C20.4935 9.77798 22.3831 10.7843 24.1594 12.181C25.9654 13.601 27.8039 15.5445 29.5511 17.6732C33.0487 21.9345 36.282 27.0634 38.2772 30.5903L36.5365 31.5751ZM18.7098 11.777C18.4906 11.7867 18.1431 11.8495 17.6344 11.9807C17.1382 12.1087 16.5491 12.2853 15.8631 12.4947C14.5034 12.9097 12.805 13.4413 10.9148 13.8948C7.14401 14.7996 2.49112 15.4259 -2.06265 14.194L-1.54041 12.2634C2.53595 13.3661 6.80087 12.8251 10.4482 11.95C12.2672 11.5135 13.9029 11.0019 15.2791 10.5818C15.961 10.3736 16.5902 10.1846 17.1349 10.0441C17.667 9.90686 18.1829 9.79834 18.6215 9.77896L18.7098 11.777Z" fill="#4ECDC4"/>
        <mask id="path-5-inside-1" fill="white">
            <ellipse rx="1.43835" ry="1.55632" transform="matrix(-1 0 0 1 26.9659 16.1857)"/>
        </mask>
        <ellipse rx="1.43835" ry="1.55632" transform="matrix(-1 0 0 1 26.9659 16.1857)" fill="white"/>
        <path d="M27.5276 16.1857C27.5276 16.1134 27.4996 16.0174 27.4177 15.9288C27.3332 15.8374 27.1745 15.742 26.9659 15.742V19.742C24.9215 19.742 23.5276 17.9985 23.5276 16.1857H27.5276ZM26.9659 15.742C26.7574 15.742 26.5987 15.8374 26.5142 15.9288C26.4323 16.0174 26.4043 16.1134 26.4043 16.1857H30.4043C30.4043 17.9985 29.0104 19.742 26.9659 19.742V15.742ZM26.4043 16.1857C26.4043 16.2581 26.4323 16.354 26.5142 16.4427C26.5987 16.534 26.7574 16.6294 26.9659 16.6294V12.6294C29.0104 12.6294 30.4043 14.373 30.4043 16.1857H26.4043ZM26.9659 16.6294C27.1745 16.6294 27.3332 16.534 27.4177 16.4427C27.4996 16.354 27.5276 16.2581 27.5276 16.1857H23.5276C23.5276 14.373 24.9215 12.6294 26.9659 12.6294V16.6294Z" fill="#4ECDC4" mask="url(#path-5-inside-1)"/>
    </g>
    <defs>
        <linearGradient id="paint0_linear" x1="50.6985" y1="8.40918" x2="50.8668" y2="55.0937" gradientUnits="userSpaceOnUse">
            <stop stop-color="#4ECDC4"/>
            <stop offset="1" stop-color="#4ECDC4" stop-opacity="0"/>
        </linearGradient>
    </defs>
</svg>