<svg width="38" height="30" viewBox="0 0 38 30" fill="none" xmlns="http://www.w3.org/2000/svg">
<path d="M22.4904 18.8139C23.2871 17.9339 23.7274 16.7862 23.7246 15.5966C23.7246 12.9588 21.6083 10.8239 19 10.8239C16.3917 10.8239 14.2754 12.9588 14.2754 15.5966C14.2754 16.8366 14.742 17.9616 15.5096 18.8139C14.5898 19.3866 13.8217 20.1745 13.2707 21.1102C12.7198 22.0459 12.4024 23.1018 12.3458 24.1875C12.3435 24.2337 12.3505 24.2799 12.3665 24.3232C12.3826 24.3665 12.4072 24.4062 12.4389 24.4397C12.4707 24.4731 12.5089 24.4998 12.5512 24.518C12.5935 24.5362 12.639 24.5455 12.685 24.5455H14.5469C14.725 24.5455 14.8692 24.4048 14.8819 24.2259C15.0431 22.0696 16.8328 20.3693 19.0042 20.3693C21.1757 20.3693 22.9654 22.0739 23.1266 24.2259C23.1393 24.4048 23.2835 24.5455 23.4616 24.5455H25.3192C25.3652 24.5455 25.4108 24.5362 25.4531 24.518C25.4954 24.4998 25.5336 24.4731 25.5653 24.4397C25.597 24.4062 25.6217 24.3665 25.6377 24.3232C25.6537 24.2799 25.6608 24.2337 25.6585 24.1875C25.5397 21.9162 24.3013 19.9389 22.4904 18.8139ZM19 17.8125C17.7913 17.8125 16.8074 16.8196 16.8074 15.5966C16.8074 14.3736 17.7913 13.3807 19 13.3807C20.2087 13.3807 21.1926 14.3736 21.1926 15.5966C21.1926 16.8196 20.2087 17.8125 19 17.8125ZM36.6429 2.72727H29.8571V0.340909C29.8571 0.153409 29.7045 0 29.5179 0H27.1429C26.9562 0 26.8036 0.153409 26.8036 0.340909V2.72727H20.5268V0.340909C20.5268 0.153409 20.3741 0 20.1875 0H17.8125C17.6259 0 17.4732 0.153409 17.4732 0.340909V2.72727H11.1964V0.340909C11.1964 0.153409 11.0437 0 10.8571 0H8.48214C8.29554 0 8.14286 0.153409 8.14286 0.340909V2.72727H1.35714C0.606473 2.72727 0 3.33665 0 4.09091V28.6364C0 29.3906 0.606473 30 1.35714 30H36.6429C37.3935 30 38 29.3906 38 28.6364V4.09091C38 3.33665 37.3935 2.72727 36.6429 2.72727ZM34.9464 26.9318H3.05357V5.79545H8.14286V8.18182C8.14286 8.36932 8.29554 8.52273 8.48214 8.52273H10.8571C11.0437 8.52273 11.1964 8.36932 11.1964 8.18182V5.79545H17.4732V8.18182C17.4732 8.36932 17.6259 8.52273 17.8125 8.52273H20.1875C20.3741 8.52273 20.5268 8.36932 20.5268 8.18182V5.79545H26.8036V8.18182C26.8036 8.36932 26.9562 8.52273 27.1429 8.52273H29.5179C29.7045 8.52273 29.8571 8.36932 29.8571 8.18182V5.79545H34.9464V26.9318Z" fill="#1034A6"/>
</svg>
