<svg width="173" height="171" viewBox="0 0 173 171" fill="none" xmlns="http://www.w3.org/2000/svg">
<path opacity="0.23" d="M86.117 170.564C133.642 170.564 172.168 132.472 172.168 85.4832C172.168 38.4944 133.642 0.402344 86.117 0.402344C38.5923 0.402344 0.065918 38.4944 0.065918 85.4832C0.065918 132.472 38.5923 170.564 86.117 170.564Z" fill="#9BA0A7"/>
<path d="M62.3546 66.5214L29.5568 66.9034C28.8656 66.9114 28.184 67.0648 27.5574 67.3533C26.9307 67.6418 26.3733 68.0588 25.9221 68.5766C25.471 69.0945 25.1364 69.7013 24.9407 70.3568C24.7449 71.0122 24.6925 71.7014 24.7868 72.3785L33.7241 136.328C33.886 137.491 34.4722 138.556 35.3724 139.323C36.2726 140.089 37.4249 140.504 38.6126 140.489L139.777 139.318C140.965 139.304 142.106 138.862 142.987 138.076C143.868 137.289 144.429 136.211 144.563 135.045L150.744 79.7635C150.795 79.3112 150.747 78.8535 150.605 78.4206C150.463 77.9878 150.23 77.5896 149.921 77.2526C149.612 76.9156 149.234 76.6473 148.812 76.4655C148.39 76.2838 147.934 76.1927 147.473 76.1983L70.375 77.0947L67.6088 69.5314C67.088 68.6087 66.3249 67.8421 65.4002 67.3123C64.4755 66.7825 63.4233 66.5093 62.3546 66.5214Z" fill="#5E646D"/>
<path d="M62.375 68.0697L29.5772 68.4466C28.8873 68.4551 28.2071 68.6081 27.5814 68.8956C26.9557 69.1831 26.3989 69.5986 25.9476 70.1146C25.4963 70.6306 25.1608 71.2354 24.9633 71.889C24.7659 72.5427 24.7109 73.2303 24.802 73.9065L31.9158 137.876L146.402 136.552L150.76 81.2966C150.809 80.8445 150.761 80.3871 150.619 79.9546C150.477 79.5221 150.243 79.1243 149.934 78.7874C149.625 78.4506 149.247 78.1823 148.826 78.0003C148.404 77.8183 147.948 77.7266 147.489 77.7314L70.3903 78.6278L67.6189 71.0645C67.0973 70.1458 66.3351 69.3829 65.4124 68.856C64.4897 68.329 63.4405 68.0574 62.375 68.0697Z" fill="#9BA0A7"/>
<path d="M84.6092 34.509L26.0112 45.624L40.1112 118.292L98.7092 107.177L84.6092 34.509Z" fill="#F3F6F9"/>
<g style="mix-blend-mode:multiply" opacity="0.42">
<path d="M84.6075 34.5112L83.7112 34.6844L74.4287 106.819L90.1863 108.8L98.7064 107.18L84.6075 34.5112Z" fill="#9BA0A7"/>
</g>
<path d="M75.0719 41.9151L37.6406 49.0151L38.2579 52.1964L75.6891 45.0963L75.0719 41.9151Z" fill="#507FDF"/>
<path d="M66.6396 48.4822L47.9316 52.0308L48.2403 53.6214L66.9483 50.0728L66.6396 48.4822Z" fill="#9BA0A7"/>
<path d="M57.323 58.6212L36.6167 62.5488L36.9253 64.1394L57.6317 60.2118L57.323 58.6212Z" fill="#9BA0A7"/>
<path d="M58.2366 63.338L37.5303 67.2656L37.8389 68.8562L58.5452 64.9286L58.2366 63.338Z" fill="#9BA0A7"/>
<path d="M59.1551 68.0533L38.4487 71.981L38.7574 73.5716L59.4637 69.6439L59.1551 68.0533Z" fill="#9BA0A7"/>
<path d="M82.3162 53.8829L61.6099 57.8105L61.9185 59.4012L82.6248 55.4735L82.3162 53.8829Z" fill="#9BA0A7"/>
<path d="M83.2239 58.5948L62.5176 62.5225L62.8262 64.1131L83.5325 60.1854L83.2239 58.5948Z" fill="#9BA0A7"/>
<path d="M84.1424 63.3101L63.436 67.2378L63.7447 68.8284L84.451 64.9008L84.1424 63.3101Z" fill="#9BA0A7"/>
<path d="M85.0555 68.027L64.3491 71.9546L64.6578 73.5452L85.3641 69.6176L85.0555 68.027Z" fill="#9BA0A7"/>
<path d="M145.995 41.2345L86.8052 33.7896L77.3608 107.191L136.55 114.636L145.995 41.2345Z" fill="#F3F6F9"/>
<path d="M134.604 45.3421L96.7944 40.5864L96.381 43.7998L134.19 48.5555L134.604 45.3421Z" fill="#507FDF"/>
<path d="M124.52 48.9941L105.623 46.6172L105.416 48.2239L124.313 50.6007L124.52 48.9941Z" fill="#9BA0A7"/>
<path d="M112.482 55.7621L91.5669 53.1313L91.3602 54.738L112.276 57.3688L112.482 55.7621Z" fill="#9BA0A7"/>
<path d="M111.868 60.5317L90.9531 57.9009L90.7464 59.5076L111.662 62.1383L111.868 60.5317Z" fill="#9BA0A7"/>
<path d="M111.255 65.2914L90.3398 62.6606L90.1331 64.2673L111.048 66.8981L111.255 65.2914Z" fill="#9BA0A7"/>
<path d="M110.642 70.0561L89.7266 67.4253L89.5198 69.032L110.435 71.6627L110.642 70.0561Z" fill="#9BA0A7"/>
<path d="M137.719 58.9413L116.803 56.3105L116.596 57.9172L137.512 60.548L137.719 58.9413Z" fill="#9BA0A7"/>
<path d="M137.105 63.7011L116.19 61.0703L115.983 62.677L136.899 65.3077L137.105 63.7011Z" fill="#9BA0A7"/>
<path d="M136.492 68.4657L115.577 65.835L115.37 67.4416L136.285 70.0724L136.492 68.4657Z" fill="#9BA0A7"/>
<path opacity="0.34" d="M96.5653 122.513C113.759 117.032 123.204 98.8076 117.66 81.8076C112.117 64.8077 93.6843 55.4698 76.4905 60.9508C59.2967 66.4318 49.8523 84.6562 55.3958 101.656C60.9393 118.656 79.3715 127.994 96.5653 122.513Z" fill="#9BA0A7"/>
<path d="M45.7934 93.8004C46.2085 101.766 49.0033 109.431 53.8244 115.826C58.6454 122.221 65.2761 127.059 72.878 129.728C80.4799 132.397 88.7116 132.777 96.5321 130.82C104.353 128.864 111.411 124.658 116.814 118.735C122.217 112.813 125.722 105.439 126.887 97.5464C128.051 89.654 126.823 81.5973 123.356 74.3953C119.889 67.1932 114.341 61.1693 107.411 57.0852C100.482 53.0012 92.4838 51.0404 84.4275 51.4509C73.6244 52.0014 63.4849 56.7724 56.2396 64.7145C48.9943 72.6565 45.2366 83.119 45.7934 93.8004ZM119.193 90.0671C119.525 96.454 117.934 102.795 114.621 108.288C111.308 113.78 106.422 118.179 100.581 120.926C94.7397 123.673 88.2059 124.647 81.8054 123.722C75.405 122.798 69.4255 120.019 64.6229 115.735C59.8203 111.45 56.4104 105.855 54.8244 99.6545C53.2383 93.4544 53.5474 86.9285 55.7124 80.902C57.8774 74.8755 61.8012 69.6191 66.9876 65.7975C72.1741 61.9758 78.3902 59.7606 84.8499 59.4319C93.5123 58.9937 101.996 61.9748 108.436 67.7195C114.876 73.4643 118.745 81.5026 119.193 90.0671Z" fill="#9BA0A7"/>
<path d="M61.0561 90.001C60.3195 79.8148 72.5021 63.0074 90.655 65.34" stroke="#9BA0A7" stroke-width="12.35" stroke-miterlimit="10" stroke-linecap="round"/>
<path opacity="0.12" d="M104.203 64.5249C112.352 88.8345 98.8198 112.176 78.4468 123.096C85.9724 124.989 93.9335 124.173 100.906 120.794C107.879 117.415 113.409 111.693 116.506 104.653C119.603 97.6123 120.066 89.712 117.812 82.3648C115.558 75.0177 110.734 68.7031 104.203 64.5504V64.5249Z" fill="#5E646D"/>
<path d="M119.193 90.0671C119.308 92.3072 119.191 94.5531 118.843 96.7696C118.129 101.216 116.485 105.467 114.016 109.25C111.547 113.033 108.307 116.266 104.503 118.741C100.699 121.216 96.4145 122.879 91.9237 123.625C87.4328 124.37 82.834 124.182 78.4211 123.071C74.9829 124.908 71.3566 126.378 67.6035 127.456C72.6162 130.053 78.1205 131.59 83.7665 131.969C89.4124 132.349 95.0766 131.563 100.399 129.662C105.721 127.76 110.585 124.785 114.681 120.924C118.777 117.063 122.016 112.402 124.192 107.237C126.368 102.072 127.433 96.5159 127.32 90.9218C127.206 85.3277 125.917 79.8182 123.533 74.7434C121.15 69.6686 117.725 65.1396 113.476 61.4444C109.226 57.7492 104.246 54.9685 98.8508 53.2793C101.071 56.8094 102.867 60.5835 104.203 64.525C108.576 67.2966 112.218 71.0598 114.825 75.5022C117.432 79.9445 118.929 84.9377 119.193 90.0671Z" fill="#5E646D"/>
<path d="M51.1197 93.4999C51.4803 100.424 53.909 107.086 58.099 112.645C62.2889 118.204 68.0517 122.41 74.659 124.731C81.2662 127.051 88.4211 127.383 95.2191 125.684C102.017 123.985 108.153 120.331 112.85 115.184C117.548 110.037 120.597 103.629 121.611 96.7688C122.626 89.909 121.56 82.9058 118.55 76.6446C115.539 70.3835 110.718 65.1456 104.697 61.5932C98.6753 58.0407 91.7238 56.3333 84.7211 56.6867C80.0692 56.9201 75.5095 58.0578 71.3027 60.0347C67.0958 62.0115 63.3242 64.7888 60.2036 68.2077C57.083 71.6266 54.6745 75.6201 53.1158 79.96C51.5571 84.2998 50.8788 88.9008 51.1197 93.4999ZM119.193 90.0366C119.526 96.4247 117.935 102.767 114.622 108.261C111.309 113.756 106.423 118.155 100.581 120.904C94.7395 123.652 88.2045 124.626 81.8028 123.703C75.4011 122.779 69.4202 119.999 64.6163 115.715C59.8125 111.43 56.4016 105.833 54.8149 99.6321C53.2282 93.4309 53.537 86.9037 55.7022 80.876C57.8674 74.8483 61.7918 69.5908 66.9792 65.7683C72.1665 61.9459 78.3838 59.7301 84.8447 59.4014C89.1347 59.1824 93.4262 59.8011 97.4743 61.2223C101.522 62.6434 105.248 64.8391 108.437 67.684C111.627 70.5289 114.219 73.9671 116.064 77.8024C117.91 81.6377 118.973 85.7949 119.193 90.0366Z" fill="#7B858F"/>
</svg>
