<svg width="180" height="180" viewBox="0 0 180 180" fill="none" xmlns="http://www.w3.org/2000/svg">
<circle cx="90" cy="90" r="90" fill="#F2F2F2"/>
<path d="M84.627 69.0363L57.1973 78.3452V106.071L84.627 115.38C85.5412 115.691 86.4898 115.011 86.4898 114.045V70.3718C86.4898 69.4058 85.5412 68.7261 84.627 69.0363Z" fill="#5E646D"/>
<path d="M40.285 106.071C40.2004 106.071 40.1168 106.066 40.0327 106.065V127.559C40.0327 130.328 42.2752 132.573 45.0438 132.577C45.0922 132.577 45.1404 132.577 45.1889 132.577C47.9625 132.581 50.213 130.333 50.213 127.559V106.071H40.285Z" fill="#9BA0A7"/>
<path d="M90.281 84.0688H86.4897V100.357H90.281C92.1925 100.357 93.7422 98.8074 93.7422 96.8959V87.5301C93.7422 85.6186 92.1927 84.0688 90.281 84.0688Z" fill="#7B858F"/>
<path d="M40.2849 78.345C32.6286 78.345 26.4219 84.5517 26.4219 92.208C26.4219 99.8643 32.6286 106.071 40.2849 106.071H57.197V78.3447C56.4696 78.345 40.9617 78.345 40.2849 78.345Z" fill="#5E646D"/>
<path d="M84.627 69.0364L80.7206 70.3621V107.122C80.7206 108.087 79.7721 108.767 78.8578 108.457L57.1973 101.106V106.071L84.627 115.38C85.5412 115.69 86.4898 115.01 86.4898 114.045V70.3713C86.4898 69.4058 85.5412 68.7259 84.627 69.0364Z" fill="#828282"/>
<path d="M26.6475 89.7275C26.5019 90.5328 26.4219 91.3609 26.4219 92.2079C26.4219 99.8642 32.6286 106.071 40.2849 106.071H57.197V101.11H40.2849C33.4759 101.11 27.8173 96.1996 26.6475 89.7275Z" fill="#828282"/>
<path d="M40.285 106.071C40.2004 106.071 40.1171 106.066 40.0327 106.065V106.071H40.285Z" fill="#2F80ED"/>
<path d="M50.2129 106.071H45.0206V127.559C45.0206 129.41 44.0179 131.026 42.5269 131.895C43.2665 132.327 44.1258 132.575 45.0437 132.577C45.0921 132.577 45.1403 132.577 45.1888 132.577C47.9624 132.581 50.2129 130.333 50.2129 127.56V106.071Z" fill="#5E646D"/>
<path d="M132.963 69.9736C123.639 69.9736 115.801 76.3322 113.546 84.9493L106.42 88.6836C105.321 89.2597 105.321 90.8325 106.42 91.4086L113.546 95.1429C115.801 103.76 123.639 110.119 132.963 110.119C144.049 110.119 153.035 101.132 153.035 90.0462C153.035 78.9602 144.049 69.9736 132.963 69.9736Z" fill="#27AE60"/>
<path d="M127.351 33.1267C119.512 25.2879 106.803 25.2879 98.9644 33.1267C92.371 39.72 91.3252 49.7583 95.8235 57.4463L93.4257 65.1252C93.056 66.3096 94.1681 67.4217 95.3526 67.0521L103.031 64.6542C110.719 69.1525 120.758 68.1065 127.351 61.5134C135.19 53.6743 135.19 40.9652 127.351 33.1267Z" fill="#2F80ED"/>
<path d="M128.078 118.579C121.485 111.986 111.446 110.94 103.758 115.438L96.0797 113.04C94.8955 112.671 93.7831 113.783 94.1528 114.967L96.5504 122.646C92.0524 130.334 93.0981 140.372 99.6912 146.966C107.53 154.804 120.239 154.804 128.078 146.966C135.917 139.127 135.917 126.418 128.078 118.579Z" fill="#F2C94C"/>
<path d="M38.3813 127.518C38.3813 133.851 46.0942 136.7 50.3707 132.429C51.6839 131.118 52.4071 129.374 52.4071 127.518V107.953H57.151L71.6273 112.866C72.633 113.207 73.7246 112.668 74.0659 111.663C74.4071 110.657 73.8685 109.565 72.863 109.224L59.3914 104.652V79.6823L84.8386 71.0462V113.289L81.3601 112.108C80.3554 111.768 79.263 112.305 78.9215 113.311C78.5803 114.316 79.1189 115.408 80.1244 115.75L84.2815 117.16C86.4614 117.898 88.6842 116.264 88.6842 114.004V102.239H90.5526C93.5214 102.239 95.9367 99.8239 95.9367 96.8551V87.4893C95.9367 84.5205 93.5214 82.105 90.5526 82.105H88.6839V70.3304C88.6839 68.0697 86.4642 66.4397 84.2805 67.1744L57.151 76.3813H40.5563C31.852 76.3813 24.7705 83.4628 24.7705 92.1671C24.7705 100.133 30.7029 106.736 38.3813 107.8V127.518ZM90.5523 85.9503C91.4007 85.9503 92.0908 86.6405 92.0908 87.4891V96.8548C92.0908 97.7032 91.4007 98.3933 90.5523 98.3933H88.6839V85.9503H90.5523ZM48.5615 127.518C48.5615 129.085 47.3696 130.616 45.3174 130.613C43.6133 130.61 42.2268 129.222 42.2268 127.518V107.953H48.5613L48.5615 127.518ZM28.6161 92.1671C28.6161 85.5832 33.9724 80.2268 40.5563 80.2268H55.5456V104.107C55.4238 104.107 40.5899 104.109 40.4684 104.105C40.3866 104.102 40.4081 104.103 40.3323 104.102C33.852 103.981 28.6161 98.6758 28.6161 92.1671Z" fill="#111519"/>
<path d="M133.234 68.0098C123.526 68.0098 114.994 74.3732 112.192 83.5887L105.799 86.9392C103.324 88.2362 103.335 91.7795 105.799 93.0703L112.192 96.4211C114.994 105.636 123.526 112 133.234 112C145.363 112 155.23 102.133 155.23 90.0049C155.23 77.8767 145.363 68.0098 133.234 68.0098ZM133.234 108.154C124.984 108.154 117.764 102.587 115.677 94.6147C115.54 94.0912 115.189 93.6497 114.71 93.3987L108.234 90.0049L114.71 86.6111C115.189 86.3601 115.54 85.9186 115.677 85.3951C117.764 77.423 124.984 71.8553 133.234 71.8553C143.242 71.8553 151.384 79.9972 151.384 90.0049C151.384 100.013 143.242 108.154 133.234 108.154Z" fill="#111519"/>
<path d="M128.982 62.8313C133.137 58.6771 135.425 53.1536 135.425 47.2786C135.425 46.7322 135.404 46.1798 135.364 45.6363C135.285 44.5774 134.363 43.787 133.303 43.8617C132.244 43.9406 131.45 44.863 131.528 45.9221C131.562 46.3708 131.579 46.8271 131.579 47.2786C131.579 52.1263 129.691 56.6841 126.263 60.1123C122.836 63.5397 118.278 65.4271 113.43 65.4271C110.206 65.4271 107.04 64.5716 104.274 62.9531C103.807 62.6803 103.246 62.616 102.73 62.7772L95.7513 64.9564L97.9305 57.9777C98.0917 57.4611 98.0279 56.9007 97.7546 56.4338C96.1361 53.6679 95.2809 50.5019 95.2809 47.2786C95.2809 42.4298 97.1683 37.872 100.595 34.4449C104.024 31.0169 108.581 29.1293 113.429 29.1293C118.277 29.1293 122.835 31.0169 126.263 34.4446C127.399 35.5806 128.377 36.855 129.17 38.2325C129.699 39.1529 130.874 39.4695 131.795 38.9398C132.716 38.4102 133.032 37.2347 132.502 36.3143C131.541 34.6438 130.357 33.1002 128.982 31.7255C124.828 27.5716 119.305 25.2837 113.429 25.2837C107.554 25.2837 102.031 27.5716 97.8761 31.7255C93.7224 35.879 91.4351 41.4025 91.4351 47.2786C91.4351 50.8939 92.3242 54.4508 94.0131 57.6203L91.8614 64.5111C91.0331 67.1679 93.515 69.679 96.1969 68.8458L103.087 66.6943C106.257 68.3836 109.814 69.2727 113.429 69.2727C119.305 69.2727 124.829 66.9853 128.982 62.8313Z" fill="#111519"/>
<path d="M106.186 57.1991L123.227 40.1583C123.977 39.4071 123.977 38.1899 123.227 37.439C122.476 36.6883 121.258 36.6883 120.507 37.439L103.467 54.4797C102.716 55.2309 102.716 56.4481 103.467 57.1991C104.218 57.9497 105.435 57.9497 106.186 57.1991Z" fill="#111519"/>
<path d="M112.204 40.249C112.204 37.2805 109.789 34.8652 106.82 34.8652C103.852 34.8652 101.437 37.2805 101.437 40.249C101.437 43.2176 103.852 45.6328 106.82 45.6328C109.789 45.6328 112.204 43.2178 112.204 40.249ZM105.282 40.249C105.282 39.4007 105.972 38.7108 106.82 38.7108C107.669 38.7108 108.359 39.4007 108.359 40.249C108.359 41.0974 107.669 41.7873 106.82 41.7873C105.972 41.7873 105.282 41.0974 105.282 40.249Z" fill="#111519"/>
<path d="M120.054 59.5918C123.023 59.5918 125.438 57.1765 125.438 54.208C125.438 51.2395 123.023 48.8242 120.054 48.8242C117.085 48.8242 114.67 51.2395 114.67 54.208C114.67 57.1765 117.085 59.5918 120.054 59.5918ZM120.054 52.6698C120.903 52.6698 121.592 53.3597 121.592 54.208C121.592 55.0564 120.903 55.7462 120.054 55.7462C119.206 55.7462 118.516 55.0564 118.516 54.208C118.516 53.3597 119.206 52.6698 120.054 52.6698Z" fill="#111519"/>
<path d="M103.813 113.316L96.9236 111.164C94.2625 110.332 91.7572 112.838 92.5884 115.499L94.7396 122.389C86.9405 137.004 97.5684 154.716 114.156 154.716C126.242 154.716 136.15 144.964 136.15 132.732C136.151 116.222 118.49 105.483 103.813 113.316ZM126.99 119.898C126.99 119.898 126.99 119.898 126.99 119.898C130.417 123.326 132.305 127.884 132.305 132.732C132.305 142.828 124.127 150.873 114.156 150.873C100.169 150.871 91.4126 135.658 98.4813 123.576C98.7543 123.109 98.8182 122.549 98.6572 122.032L96.4783 115.054L103.456 117.233C103.973 117.394 104.534 117.33 105.001 117.057C112.113 112.895 121.156 114.064 126.99 119.898Z" fill="#111519"/>
<path d="M126.107 101V93.343H124.309V91.049H126.107V88.817H124.309V86.523H126.107V78.866H130.974L133.392 86.523H136.213V78.866H139.654V86.523H141.421V88.817H139.654V91.049H141.421V93.343H139.654V101H134.756L132.276 93.343H129.548V101H126.107ZM129.424 86.523H130.292L129.393 83.547H129.269L129.424 86.523ZM129.548 91.049H131.594L130.912 88.817H129.486L129.548 91.049ZM134.849 91.049H136.275L136.213 88.817H134.136L134.849 91.049ZM136.306 96.164H136.461L136.337 93.343H135.5L136.306 96.164Z" fill="#111519"/>
<path d="M102.581 133.248L103.822 142.636C104.006 144.027 105.202 145.075 106.605 145.075H121.708C123.11 145.075 124.307 144.027 124.491 142.636L125.731 133.248C125.837 132.446 125.592 131.638 125.059 131.029C124.526 130.422 123.757 130.073 122.948 130.073H121.362V127.622C121.362 123.664 118.142 120.444 114.184 120.444C110.226 120.444 107.006 123.664 107.006 127.622V130.073H105.364C103.668 130.073 102.359 131.568 102.581 133.248ZM110.852 127.622C110.852 125.784 112.347 124.29 114.184 124.29C116.021 124.29 117.516 125.784 117.516 127.622V130.073H110.852V127.622ZM121.764 133.918L120.798 141.23H107.515L106.549 133.918H121.764Z" fill="#111519"/>
</svg>
