<svg width="225" height="181" fill="none" xmlns="http://www.w3.org/2000/svg"><g opacity=".25" clip-path="url(#prefix__clip0)"><path opacity=".23" d="M111.117 173.564c47.525 0 86.051-38.092 86.051-85.081 0-46.989-38.526-85.08-86.051-85.08s-86.051 38.091-86.051 85.08 38.526 85.081 86.051 85.081z" fill="#9BA0A7"/><path opacity=".46" d="M110.287 181c44.84 0 81.189-2.157 81.189-4.818 0-2.661-36.349-4.818-81.189-4.818-44.839 0-81.188 2.157-81.188 4.818 0 2.661 36.35 4.818 81.188 4.818z" fill="#5E646D"/><path d="M87.354 69.521l-32.797.382a4.92 4.92 0 00-2 .45 4.868 4.868 0 00-1.635 1.223 4.767 4.767 0 00-1.135 3.802l8.937 63.95a4.802 4.802 0 001.648 2.994 4.902 4.902 0 003.24 1.167l101.165-1.172a4.9 4.9 0 003.21-1.242 4.804 4.804 0 001.576-3.031l6.181-55.28a3.184 3.184 0 00-.823-2.512 3.258 3.258 0 00-2.448-1.054l-77.098.897-2.766-7.564a5.906 5.906 0 00-2.209-2.219 5.993 5.993 0 00-3.046-.79z" fill="#5E646D"/><path d="M87.375 71.07l-32.798.376c-.69.009-1.37.162-1.996.45a4.873 4.873 0 00-1.633 1.218 4.772 4.772 0 00-1.146 3.792l7.114 63.97 114.486-1.324 4.358-55.256a3.197 3.197 0 00-.826-2.509 3.257 3.257 0 00-2.445-1.056l-77.099.897-2.771-7.564a5.9 5.9 0 00-2.207-2.208 5.987 5.987 0 00-3.037-.786z" fill="#9BA0A7"/><path d="M51.136 88.896l5.78 52.001 114.485-1.33 4.111-52.118-124.376 1.447z" fill="#9BA0A7"/><path d="M109.609 37.508L51.011 48.623l14.1 72.668 58.598-11.115-14.1-72.668z" fill="#F3F6F9"/><path d="M109.608 37.51l-.897.174-9.282 72.134 15.757 1.981 8.52-1.619-14.098-72.67z" fill="#9BA0A7" opacity=".42"/><path d="M100.072 44.915l-37.432 7.1.618 3.181 37.431-7.1-.617-3.181zM108.383 87.745l-37.431 7.1.617 3.182 37.431-7.1-.617-3.182zM109.626 94.143l-37.431 7.1.617 3.181 37.431-7.1-.617-3.181zM110.868 100.535l-37.431 7.1.617 3.182 37.431-7.1-.617-3.182zM91.64 51.482L72.932 55.03l.308 1.59 18.708-3.548-.308-1.59zM82.323 61.621l-20.706 3.928.309 1.59 20.706-3.927-.309-1.591zM83.237 66.338L62.53 70.265l.309 1.59 20.706-3.927-.308-1.59zM84.155 71.053L63.45 74.981l.308 1.59 20.707-3.927-.309-1.59zM85.068 75.77l-20.706 3.928.309 1.59 20.706-3.927-.309-1.591zM85.981 80.486l-20.706 3.927.309 1.59 20.706-3.927-.309-1.59zM86.899 85.196l-20.706 3.928.308 1.59 20.707-3.927-.309-1.591zM107.316 56.883L86.61 60.81l.309 1.59 20.706-3.927-.309-1.59zM108.224 61.594l-20.707 3.928.309 1.59 20.706-3.927-.308-1.59zM109.142 66.31l-20.706 3.927.308 1.591 20.707-3.928-.309-1.59zM110.055 71.026l-20.706 3.928.309 1.59 20.706-3.927-.309-1.59zM110.974 75.742L90.267 79.67l.309 1.59 20.706-3.927-.308-1.59zM111.887 80.458l-20.706 3.927.308 1.591 20.707-3.927-.309-1.591z" fill="#9BA0A7"/><path d="M170.995 44.234l-59.19-7.444-9.444 73.401 59.189 7.445 9.445-73.401z" fill="#F3F6F9"/><path d="M159.604 48.342l-37.809-4.756-.414 3.214 37.809 4.756.414-3.214zM153.387 92.006l-37.733-4.899-.426 3.207 37.733 4.9.426-3.208zM152.53 98.45l-37.732-4.898-.426 3.206 37.732 4.899.426-3.207zM152.372 104.528l-37.809-4.756-.413 3.213 37.809 4.756.413-3.213zM149.52 51.994l-18.897-2.377-.207 1.607 18.897 2.377.207-1.607zM137.482 58.762l-20.915-2.631-.207 1.606 20.916 2.631.206-1.606zM136.868 63.531l-20.915-2.63-.207 1.606 20.916 2.631.206-1.607zM136.255 68.29l-20.915-2.63-.207 1.607 20.915 2.63.207-1.606zM135.642 73.056l-20.915-2.631-.207 1.606 20.915 2.631.207-1.606zM135.029 77.815l-20.916-2.63-.206 1.606 20.915 2.631.207-1.607zM134.415 82.58L113.5 79.95l-.207 1.606 20.916 2.63.206-1.606zM162.718 61.941l-20.915-2.63-.207 1.606 20.916 2.63.206-1.606zM162.105 66.7l-20.915-2.63-.207 1.607 20.916 2.63.206-1.606zM161.492 71.465l-20.915-2.63-.207 1.606 20.915 2.63.207-1.606zM160.878 76.23l-20.915-2.63-.207 1.606 20.915 2.63.207-1.606zM160.265 80.995l-20.916-2.631-.206 1.606 20.915 2.631.207-1.606zM159.651 85.754l-20.915-2.63-.207 1.606 20.916 2.631.206-1.607z" fill="#9BA0A7"/><path d="M169.645 171.639l-110.437 1.283a5.362 5.362 0 01-3.536-1.275 5.248 5.248 0 01-1.8-3.268L44.12 98.578a5.21 5.21 0 01.168-2.209 5.248 5.248 0 011.071-1.945 5.32 5.32 0 011.785-1.337 5.378 5.378 0 012.184-.494l128.265-1.487a5.377 5.377 0 012.196.442c.692.3 1.312.74 1.818 1.295a5.258 5.258 0 011.118 1.92c.231.712.306 1.463.22 2.205l-8.072 70.016a5.243 5.243 0 01-1.726 3.302 5.359 5.359 0 01-3.502 1.353z" fill="#9BA0A7"/><path d="M169.666 173.192l-110.427 1.283a5.357 5.357 0 01-3.536-1.275 5.248 5.248 0 01-1.8-3.268l-9.767-69.806a5.211 5.211 0 01.168-2.21c.214-.716.58-1.38 1.072-1.945a5.32 5.32 0 011.788-1.338 5.376 5.376 0 012.185-.492l128.265-1.487a5.37 5.37 0 012.195.44c.692.299 1.311.74 1.817 1.294a5.209 5.209 0 011.335 4.123l-8.072 70.016a5.242 5.242 0 01-1.719 3.31 5.348 5.348 0 01-3.504 1.355z" fill="#5E646D"/><path opacity=".34" d="M121.565 125.513c17.194-5.481 26.638-23.706 21.095-40.706-5.544-17-23.976-26.338-41.17-20.857-17.194 5.481-26.638 23.706-21.094 40.706 5.543 17 23.975 26.338 41.169 20.857z" fill="#9BA0A7"/><path d="M156.621 128.893l-13.644-12.168-5.276 5.782 13.644 12.168 5.276-5.782z" fill="#5E646D"/><path d="M152.681 125.379l-5.765-5.14-5.275 5.782 5.764 5.141 5.276-5.783zM148.51 140.759a3.979 3.979 0 01-.294-5.653l9.097-9.968a4.07 4.07 0 012.796-1.315 4.056 4.056 0 012.917 1.025l33.287 29.943-14.722 15.722-33.081-29.754z" fill="#9BA0A7"/><path d="M187.35 175.652l-5.759-5.139 14.722-15.722 5.553 4.95a3.986 3.986 0 011.328 2.764 3.974 3.974 0 01-1.035 2.884l-9.097 9.973a4.066 4.066 0 01-2.795 1.313 4.077 4.077 0 01-2.917-1.023z" fill="#5E646D"/><path d="M157.313 125.138l-4.085 4.472 36.234 32.499 6.851-7.318-33.287-29.943a4.06 4.06 0 00-2.918-1.025 4.08 4.08 0 00-2.795 1.315z" fill="#7B858F"/><path d="M198.09 169.851l4.07-4.462a3.978 3.978 0 001.034-2.884 3.982 3.982 0 00-1.328-2.764l-5.553-4.95-6.851 7.318 8.628 7.742zM70.793 96.8a40.044 40.044 0 008.031 22.025 40.758 40.758 0 0019.054 13.902 41.226 41.226 0 0023.654 1.093 40.875 40.875 0 0020.281-12.085 40.128 40.128 0 0010.074-21.189 39.93 39.93 0 00-3.531-23.151 40.503 40.503 0 00-15.945-17.31 41.152 41.152 0 00-22.984-5.634c-10.803.55-20.942 5.321-28.188 13.263C73.994 75.656 70.236 86.12 70.793 96.8zm73.4-3.733a32.044 32.044 0 01-4.573 18.22 32.578 32.578 0 01-14.04 12.639 33.04 33.04 0 01-18.775 2.796 32.867 32.867 0 01-17.182-7.988 32.273 32.273 0 01-9.799-16.08 31.99 31.99 0 01.888-18.752 32.366 32.366 0 0111.275-15.105 32.939 32.939 0 0117.863-6.365c8.662-.439 17.146 2.543 23.586 8.287 6.44 5.745 10.309 13.783 10.757 22.348z" fill="#9BA0A7"/><path d="M86.056 93c-.736-10.186 11.446-26.993 29.599-24.66" stroke="#9BA0A7" stroke-width="12.35" stroke-miterlimit="10" stroke-linecap="round"/><path opacity=".12" d="M129.203 67.525c8.149 24.31-5.383 47.651-25.756 58.571a33.054 33.054 0 0022.46-2.303c6.972-3.379 12.502-9.1 15.599-16.14a32 32 0 001.307-22.288c-2.254-7.347-7.079-13.662-13.61-17.815v-.025z" fill="#5E646D"/><path d="M144.193 93.067a32.476 32.476 0 01-.35 6.702 32.165 32.165 0 01-4.827 12.481 32.555 32.555 0 01-9.513 9.49 32.975 32.975 0 01-12.579 4.885 33.12 33.12 0 01-13.503-.555 55.363 55.363 0 01-10.818 4.386 41.23 41.23 0 0032.796 2.206 40.884 40.884 0 0014.282-8.738 40.334 40.334 0 009.511-13.687 39.938 39.938 0 003.128-16.315 39.957 39.957 0 00-3.787-16.179 40.371 40.371 0 00-10.057-13.299 40.923 40.923 0 00-14.625-8.165 53.21 53.21 0 015.352 11.246 32.451 32.451 0 0110.622 10.977 32.024 32.024 0 014.368 14.565z" fill="#5E646D"/><path d="M76.12 96.5a34.813 34.813 0 006.979 19.145 35.429 35.429 0 0016.56 12.085 35.841 35.841 0 0020.56.954 35.538 35.538 0 0017.631-10.5 34.886 34.886 0 008.761-18.415 34.705 34.705 0 00-3.061-20.125 35.207 35.207 0 00-13.853-15.051 35.777 35.777 0 00-19.976-4.907 35.772 35.772 0 00-13.418 3.348 35.417 35.417 0 00-11.1 8.173 34.968 34.968 0 00-7.087 11.753A34.682 34.682 0 0076.12 96.5zm68.073-3.464a32.051 32.051 0 01-4.571 18.225 32.576 32.576 0 01-14.041 12.642 33.035 33.035 0 01-18.778 2.799 32.863 32.863 0 01-17.187-7.988 32.275 32.275 0 01-9.801-16.082 31.996 31.996 0 01.887-18.756A32.369 32.369 0 0191.98 68.768a32.943 32.943 0 0117.866-6.367c4.29-.219 8.581.4 12.629 1.821a32.778 32.778 0 0110.963 6.462 32.355 32.355 0 017.627 10.118 32.03 32.03 0 013.129 12.234z" fill="#7B858F"/></g><defs><clipPath id="prefix__clip0"><path fill="#fff" d="M0 0h225v181H0z"/></clipPath></defs></svg>