<svg width="221" height="221" viewBox="0 0 221 221" fill="none" xmlns="http://www.w3.org/2000/svg">
<circle cx="110.464" cy="110.464" r="110.464" fill="#F3F6F9"/>
<g opacity="0.9" clip-path="url(#clip0)">
<path d="M125.4 59V53.4H105.8C104.254 53.4 103 54.6537 103 56.2V182.199C103 183.747 104.254 184.999 105.8 184.999H125.4V179.4H108.6V117.8H125.4V112.2H108.6V59H125.4Z" fill="#828282"/>
<path d="M21.8008 59H33.0008V115H21.8008V59Z" fill="#2F80ED"/>
<path d="M44.1992 59H55.3992V115H44.1992V59Z" fill="#9B51E0"/>
<path d="M66.6016 59H77.8016V115H66.6016V59Z" fill="#27AE60"/>
<path d="M66.6008 87V75.8L44.2008 87V75.8L21.8008 87V115H89.0008V75.8L66.6008 87Z" fill="#9BA0A7"/>
<path d="M33 98.2H72.2V126.2H33V98.2Z" fill="#507FDF"/>
<path d="M41.3984 126.2H72.1984V98.2H69.3984L41.3984 126.2Z" fill="#56CCF2"/>
<path d="M72.1992 126.2H94.5992V112.2L86.1992 103.8H72.1992V126.2Z" fill="#F2994A"/>
<path d="M89.0008 126.2C89.0008 129.294 86.4934 131.8 83.4008 131.8C80.3082 131.8 77.8008 129.294 77.8008 126.2C77.8008 123.107 80.3082 120.6 83.4008 120.6C86.4934 120.6 89.0008 123.107 89.0008 126.2Z" fill="#BDBDBD"/>
<path d="M49.8016 126.2C49.8016 129.294 47.2941 131.8 44.2016 131.8C41.109 131.8 38.6016 129.294 38.6016 126.2C38.6016 123.107 41.109 120.6 44.2016 120.6C47.2941 120.6 49.8016 123.107 49.8016 126.2Z" fill="#BDBDBD"/>
<path d="M61.0008 126.2C61.0008 129.294 58.4934 131.8 55.4008 131.8C52.3082 131.8 49.8008 129.294 49.8008 126.2C49.8008 123.107 52.3082 120.6 55.4008 120.6C58.4934 120.6 61.0008 123.107 61.0008 126.2Z" fill="#BDBDBD"/>
<path d="M159.001 33.8L133.801 42.2V73H184.201V42.2L159.001 33.8Z" fill="#9BA0A7"/>
<path d="M139.398 73H184.198V42.2L173.698 38.7L139.398 73Z" fill="#7B858F"/>
<path d="M145 50.6H173V73H145V50.6Z" fill="#507FDF"/>
<path d="M145 50.6H173V56.2H145V50.6Z" fill="#2F80ED"/>
<path d="M159.001 92.6L133.801 101V131.8H184.201V101L159.001 92.6Z" fill="#9BA0A7"/>
<path d="M139.398 131.8H184.198V101L173.698 97.5L139.398 131.8Z" fill="#7B858F"/>
<path d="M145 109.4H173V131.8H145V109.4Z" fill="#9B51E0"/>
<path d="M145 109.4H173V115H145V109.4Z" fill="#2F80ED"/>
<path d="M159.001 157L133.801 165.4V196.2H184.201V165.4L159.001 157Z" fill="#9BA0A7"/>
<path d="M139.398 196.199H184.198V165.399L173.698 161.899L139.398 196.199Z" fill="#7B858F"/>
<path d="M145 173.799H173V196.199H145V173.799Z" fill="#27AE60"/>
<path d="M145 173.799H173V179.399H145V173.799Z" fill="#2F80ED"/>
<path d="M72.1992 103.8H77.7992V126.2H72.1992V103.8Z" fill="#2F80ED"/>
<path d="M187 101C187 99.7956 186.229 98.725 185.085 98.3436L159.885 89.9436C159.31 89.7522 158.69 89.7522 158.115 89.9436L132.915 98.3436C131.771 98.725 131 99.7956 131 101V131.8C131 133.348 132.254 134.6 133.8 134.6H184.2C185.746 134.6 187 133.348 187 131.8V101ZM147.8 129V112.2H170.2V129H147.8ZM181.4 129H175.8V109.4C175.8 107.854 174.546 106.6 173 106.6H145C143.454 106.6 142.2 107.854 142.2 109.4V129H136.6V103.019L159 95.5518L181.4 103.019V129Z" fill="#070707"/>
<path d="M187 165.4C187 164.195 186.229 163.125 185.085 162.743L159.885 154.343C159.31 154.152 158.69 154.152 158.115 154.343L132.915 162.743C131.771 163.125 131 164.195 131 165.4V196.2C131 197.747 132.254 199 133.8 199H184.2C185.746 199 187 197.747 187 196.2V165.4ZM147.8 193.4V176.6H170.2V193.4H147.8ZM181.4 193.4H175.8V173.8C175.8 172.253 174.546 171 173 171H145C143.454 171 142.2 172.253 142.2 173.8V193.4H136.6V167.419L159 159.951L181.4 167.419V193.4Z" fill="#070707"/>
<path d="M187 42.2C187 40.9955 186.229 39.925 185.085 39.5436L159.885 31.1436C159.31 30.9521 158.69 30.9521 158.115 31.1436L132.915 39.5436C131.771 39.925 131 40.9955 131 42.2V73C131 74.5477 132.254 75.8 133.8 75.8H184.2C185.746 75.8 187 74.5477 187 73V42.2ZM147.8 70.2V53.4H170.2V70.2H147.8ZM181.4 70.2H175.8V50.6C175.8 49.0537 174.546 47.8 173 47.8H145C143.454 47.8 142.2 49.0537 142.2 50.6V70.2H136.6V44.2193L159 36.7518L181.4 44.2193V70.2Z" fill="#070707"/>
<path d="M125.4 59V53.4H105.8C104.254 53.4 103 54.6537 103 56.2V182.199C103 183.747 104.254 184.999 105.8 184.999H125.4V179.4H108.6V117.8H125.4V112.2H108.6V59H125.4Z" fill="#070707"/>
<path d="M21.8 117.8H30.2V126.2C30.2 127.748 31.4537 129 33 129H36.3154C37.2314 131.65 39.4189 133.658 42.1369 134.347C44.8535 135.035 47.7342 134.31 49.8 132.417C51.8672 134.31 54.7479 135.035 57.4645 134.347C60.1811 133.658 62.3686 131.65 63.2846 129H75.5154C76.6844 132.355 79.848 134.603 83.4 134.603C86.9533 134.603 90.117 132.355 91.2846 129H94.6C96.1463 129 97.4 127.748 97.4 126.2V112.2C97.4 111.458 97.1047 110.747 96.5797 110.222L91.8 105.442V75.8C91.8014 74.8306 91.2982 73.9283 90.4738 73.4183C89.648 72.907 88.6172 72.8605 87.749 73.2953L80.6 76.8705V59C80.6 57.4537 79.3463 56.2 77.8 56.2H66.6C65.0537 56.2 63.8 57.4537 63.8 59V74.0705L58.2 76.8705V59C58.2 57.4537 56.9463 56.2 55.4 56.2H44.2C42.6537 56.2 41.4 57.4537 41.4 59V74.0705L35.8 76.8705V59C35.8 57.4537 34.5463 56.2 33 56.2H21.8C20.2537 56.2 19 57.4537 19 59V115C19 116.548 20.2537 117.8 21.8 117.8ZM35.8 123.4V101H69.4V123.4H63.2846C62.3686 120.752 60.1811 118.743 57.4645 118.054C54.7479 117.367 51.8672 118.091 49.8 119.985C47.7342 118.091 44.8535 117.367 42.1369 118.054C39.4189 118.743 37.2314 120.752 36.3154 123.4H35.8ZM44.2 129C42.6537 129 41.4 127.748 41.4 126.2C41.4 124.654 42.6537 123.4 44.2 123.4C45.7463 123.4 47 124.654 47 126.2C47 127.748 45.7463 129 44.2 129ZM55.4 129C53.8537 129 52.6 127.748 52.6 126.2C52.6 124.654 53.8537 123.4 55.4 123.4C56.9463 123.4 58.2 124.654 58.2 126.2C58.2 127.748 56.9463 129 55.4 129ZM83.4 129C81.8537 129 80.6 127.748 80.6 126.2C80.6 124.654 81.8537 123.4 83.4 123.4C84.9463 123.4 86.2 124.654 86.2 126.2C86.2 127.748 84.9463 129 83.4 129ZM91.8 123.4H91.2846C90.117 120.046 86.9533 117.799 83.4 117.799C79.848 117.799 76.6844 120.046 75.5154 123.4H75V106.6H85.0406L91.8 113.359V123.4ZM69.4 61.8H75V79.6705L69.4 82.4705V61.8ZM47 61.8H52.6V79.6705L47 82.4705V61.8ZM41.4 84.2V87C41.4 87.9707 41.9018 88.873 42.7275 89.383C43.5533 89.8943 44.5842 89.9408 45.4523 89.506L63.8 80.3308V87C63.8 87.9707 64.3018 88.873 65.1275 89.383C65.9533 89.8943 66.9842 89.9408 67.8523 89.506L86.2 80.3308V101H75V98.2C75 96.6537 73.7463 95.4 72.2 95.4H33C31.4537 95.4 30.2 96.6537 30.2 98.2V112.2H24.6V88.7308L41.4 80.3308V84.2ZM30.2 61.8V79.6705L24.6 82.4705V61.8H30.2Z" fill="#070707"/>
</g>
<defs>
<clipPath id="clip0">
<rect width="168" height="168" fill="white" transform="translate(19 31)"/>
</clipPath>
</defs>
</svg>
