<svg width="28" height="30" viewBox="0 0 28 30" fill="none" xmlns="http://www.w3.org/2000/svg">
<path d="M24.2539 0H6.03125C4.09262 0 2.51562 1.577 2.51562 3.51562V5.68359H0.171875V8.02734H2.51562V13.8867H0.171875V16.2305H2.51562V22.0898H0.171875V24.4336H2.51562V26.4844C2.51562 28.423 4.09262 30 6.03125 30H24.2539C26.1925 30 27.7695 28.423 27.7695 26.4844V3.51562C27.7695 1.577 26.1925 0 24.2539 0ZM25.4258 26.4844C25.4258 27.1305 24.9 27.6562 24.2539 27.6562H6.03125C5.38512 27.6562 4.85938 27.1305 4.85938 26.4844V24.4336H5.38672V24.4306C5.40617 24.4315 5.42563 24.4336 5.44531 24.4336C6.09259 24.4336 6.61719 23.909 6.61719 23.2617C6.61719 22.6144 6.09259 22.0898 5.44531 22.0898C5.42563 22.0898 5.40617 22.0919 5.38672 22.0928V22.0898H4.85938V16.2305H5.38672V16.2275C5.40617 16.2284 5.42563 16.2305 5.44531 16.2305C6.09259 16.2305 6.61719 15.7059 6.61719 15.0586C6.61719 14.4113 6.09259 13.8867 5.44531 13.8867C5.42563 13.8867 5.40617 13.8888 5.38672 13.8897V13.8867H4.85938V8.02734H5.38672V8.02437C5.40617 8.02528 5.42563 8.02734 5.44531 8.02734C6.09259 8.02734 6.61719 7.50275 6.61719 6.85547C6.61719 6.20819 6.09259 5.68359 5.44531 5.68359C5.42563 5.68359 5.40617 5.68565 5.38672 5.68657V5.68359H4.85938V3.51562C4.85938 2.86949 5.38512 2.34375 6.03125 2.34375H24.2539C24.9 2.34375 25.4258 2.86949 25.4258 3.51562V26.4844ZM18.8049 14.6919C19.3879 13.976 19.7381 13.0634 19.7381 12.0703C19.7381 9.77646 17.8718 7.91016 15.5779 7.91016C13.2841 7.91016 11.4178 9.77646 11.4178 12.0703C11.4178 13.0843 11.7828 14.0142 12.3878 14.7368C10.1104 15.9178 8.55078 18.2977 8.55078 21.0352H10.8945C10.8945 18.4181 13.0236 16.2891 15.6406 16.2891C18.2577 16.2891 20.3867 18.4181 20.3867 21.0352H22.7305C22.7305 18.2623 21.1301 15.8567 18.8049 14.6919ZM15.5779 10.2539C16.5795 10.2539 17.3943 11.0687 17.3943 12.0703C17.3943 13.0719 16.5795 13.8867 15.5779 13.8867C14.5763 13.8867 13.7615 13.0719 13.7615 12.0703C13.7615 11.0687 14.5763 10.2539 15.5779 10.2539Z" fill="#2B7EDD"/>
</svg>
