<svg width="24" height="24" viewBox="0 0 24 24" fill="none" xmlns="http://www.w3.org/2000/svg">
    <path
        d="M14 3.5V5.5H17.5V3.5H14ZM12.5 3.25C12.5 2.56 13.06 2 13.75 2H17.75C18.44 2 19 2.56 19 3.25V5.75C19 6.44 18.44 7 17.75 7H13.75C13.06 7 12.5 6.44 12.5 5.75V3.25ZM15.75 8.5C15.9489 8.5 16.1397 8.57902 16.2803 8.71967C16.421 8.86032 16.5 9.05109 16.5 9.25V15.94L17.72 14.72C17.7887 14.6463 17.8715 14.5872 17.9635 14.5462C18.0555 14.5052 18.1548 14.4832 18.2555 14.4814C18.3562 14.4796 18.4562 14.4982 18.5496 14.5359C18.643 14.5736 18.7278 14.6297 18.799 14.701C18.8703 14.7722 18.9264 14.857 18.9641 14.9504C19.0018 15.0438 19.0204 15.1438 19.0186 15.2445C19.0168 15.3452 18.9948 15.4445 18.9538 15.5365C18.9128 15.6285 18.8537 15.7113 18.78 15.78L16.28 18.28C16.1394 18.4205 15.9488 18.4993 15.75 18.4993C15.5512 18.4993 15.3606 18.4205 15.22 18.28L12.72 15.78C12.6463 15.7113 12.5872 15.6285 12.5462 15.5365C12.5052 15.4445 12.4832 15.3452 12.4814 15.2445C12.4796 15.1438 12.4982 15.0438 12.5359 14.9504C12.5736 14.857 12.6297 14.7722 12.701 14.701C12.7722 14.6297 12.857 14.5736 12.9504 14.5359C13.0438 14.4982 13.1438 14.4796 13.2445 14.4814C13.3452 14.4832 13.4445 14.5052 13.5365 14.5462C13.6285 14.5872 13.7113 14.6463 13.78 14.72L15 15.94V9.25C15 9.05109 15.079 8.86032 15.2197 8.71967C15.3603 8.57902 15.5511 8.5 15.75 8.5ZM6.5 15V17H10V15H6.5ZM5 14.75C5 14.06 5.56 13.5 6.25 13.5H10.25C10.94 13.5 11.5 14.06 11.5 14.75V17.25C11.5 17.94 10.94 18.5 10.25 18.5H6.25C5.56 18.5 5 17.94 5 17.25V14.75ZM2.75 16C2.94891 16 3.13968 16.079 3.28033 16.2197C3.42098 16.3603 3.5 16.5511 3.5 16.75V18.75C3.5 19.44 4.06 20 4.75 20H19.25C19.94 20 20.5 19.44 20.5 18.75V16.75C20.5 16.5511 20.579 16.3603 20.7197 16.2197C20.8603 16.079 21.0511 16 21.25 16C21.4489 16 21.6397 16.079 21.7803 16.2197C21.921 16.3603 22 16.5511 22 16.75V18.75C22 19.4793 21.7103 20.1788 21.1945 20.6945C20.6788 21.2103 19.9793 21.5 19.25 21.5H4.75C4.02065 21.5 3.32118 21.2103 2.80546 20.6945C2.28973 20.1788 2 19.4793 2 18.75V16.75C2 16.5511 2.07902 16.3603 2.21967 16.2197C2.36032 16.079 2.55109 16 2.75 16V16Z"
        fill="" />
</svg>