<svg width="30" height="38" viewBox="0 0 30 38" fill="none" xmlns="http://www.w3.org/2000/svg">
<path fill-rule="evenodd" clip-rule="evenodd" d="M3.33333 0.666016H20.6904L30 9.97566V33.9994C30 35.8403 28.5076 37.3327 26.6667 37.3327H3.33333C1.49238 37.3327 0 35.8403 0 33.9994V3.99935C0 2.1584 1.49238 0.666016 3.33333 0.666016ZM16.6667 3.99951H3.33333V33.9995H26.6667V13.9993H20C18.159 13.9993 16.6667 12.507 16.6667 10.666V3.99951ZM20 4.68987V10.666H25.9761L20 4.68987ZM8.33333 27.3327V23.9993H18.3333V27.3327H8.33333ZM8.33333 17.3327V20.666H21.6667V17.3327H8.33333Z" fill="#1034A6"/>
</svg>
