<svg width="30" height="38" viewBox="0 0 30 38" fill="none" xmlns="http://www.w3.org/2000/svg">
<path fill-rule="evenodd" clip-rule="evenodd" d="M20.6904 0.666504H3.33333C1.49238 0.666504 0 2.15889 0 3.99984V33.9998C0 35.8408 1.49238 37.3332 3.33333 37.3332H26.6667C28.5076 37.3332 30 35.8408 30 33.9998V9.97615L20.6904 0.666504ZM3.33357 4.00002H16.6668V10.6666C16.6668 12.5076 18.1592 14 20.0001 14H26.6669V34H3.33357V4.00002ZM20.0001 10.6666V4.69025L25.9765 10.6666H20.0001ZM11.9318 23.048V27H13.7078V23.048H15.1158L16.3958 27H18.9237V23.048H19.8358V21.864H18.9237V20.712H19.8358V19.528H18.9237V15.576H17.1478V19.528H15.6917L14.4438 15.576H11.9318V19.528H11.0037V20.712H11.9318V21.864H11.0037V23.048H11.9318ZM14.0918 19.528H13.6438L13.5638 17.992H13.6278L14.0918 19.528ZM14.7638 21.864H13.7078L13.6757 20.712H14.4117L14.7638 21.864ZM17.1798 21.864H16.4438L16.0758 20.712H17.1478L17.1798 21.864ZM17.2757 24.504H17.1958L16.7798 23.048H17.2118L17.2757 24.504Z" fill="#FF4F79"/>
</svg>
