<svg width="30" height="38" viewBox="0 0 30 38" fill="none" xmlns="http://www.w3.org/2000/svg">
<path fill-rule="evenodd" clip-rule="evenodd" d="M20.6904 0.666992H3.33333C1.49238 0.666992 0 2.15938 0 4.00033V34.0003C0 35.8413 1.49238 37.3337 3.33333 37.3337H26.6667C28.5076 37.3337 30 35.8413 30 34.0003V9.97664L20.6904 0.666992ZM16.6667 4H3.33333V34H26.6667V14.0003H20C18.159 14.0003 16.6667 12.5079 16.6667 10.667V4ZM25.9766 10.667L20 4.69036V10.667H25.9766ZM15.073 14.921C16.4283 14.921 17.5113 15.2757 18.322 15.985C19.1453 16.6943 19.557 17.695 19.557 18.987C19.557 20.1777 19.1643 21.1087 18.379 21.78C17.6063 22.4387 16.5803 22.7743 15.301 22.787L15.206 24.212H12.356L12.261 20.678H13.401C14.3763 20.678 15.1173 20.5577 15.624 20.317C16.1433 20.0763 16.403 19.6393 16.403 19.006C16.403 18.5627 16.2827 18.2143 16.042 17.961C15.8013 17.7077 15.4657 17.581 15.035 17.581C14.579 17.581 14.2243 17.714 13.971 17.98C13.7177 18.2333 13.591 18.5817 13.591 19.025H10.532C10.5067 18.2523 10.665 17.5557 11.007 16.935C11.3617 16.3143 11.881 15.8267 12.565 15.472C13.2617 15.1047 14.0977 14.921 15.073 14.921ZM13.819 29.152C13.249 29.152 12.7803 28.9873 12.413 28.658C12.0583 28.316 11.881 27.898 11.881 27.404C11.881 26.8973 12.0583 26.473 12.413 26.131C12.7803 25.789 13.249 25.618 13.819 25.618C14.3763 25.618 14.8323 25.789 15.187 26.131C15.5543 26.473 15.738 26.8973 15.738 27.404C15.738 27.898 15.5543 28.316 15.187 28.658C14.8323 28.9873 14.3763 29.152 13.819 29.152Z" fill="#FF4F79"/>
</svg>
