<svg width="36" height="34" viewBox="0 0 36 34" fill="none" xmlns="http://www.w3.org/2000/svg">
<path fill-rule="evenodd" clip-rule="evenodd" d="M23.3333 11.1111H12.2222C11.6329 11.1111 11.0676 10.877 10.6509 10.4602C10.2341 10.0435 10 9.47826 10 8.88889V2.22222C10 1.63285 10.2341 1.06762 10.6509 0.650874C11.0676 0.234126 11.6329 0 12.2222 0H23.3333C23.9227 0 24.4879 0.234126 24.9047 0.650874C25.3214 1.06762 25.5556 1.63285 25.5556 2.22222V8.88889C25.5556 9.47826 25.3214 10.0435 24.9047 10.4602C24.4879 10.877 23.9227 11.1111 23.3333 11.1111ZM23.3333 2.22222H12.2222V8.88889H23.3333V2.22222ZM26.8892 17.5556H8.66694V20.9778H6.88916V15.7778H16.8892V12.2223H18.6669V15.7778H28.6669V20.9778H26.8892V17.5556ZM2.22222 22.2223H13.3333C13.9227 22.2223 14.4879 22.4564 14.9047 22.8732C15.3214 23.2899 15.5556 23.8551 15.5556 24.4445V31.1112C15.5556 31.7005 15.3214 32.2658 14.9047 32.6825C14.4879 33.0993 13.9227 33.3334 13.3333 33.3334H2.22222C1.63285 33.3334 1.06762 33.0993 0.650874 32.6825C0.234126 32.2658 0 31.7005 0 31.1112V24.4445C0 23.8551 0.234126 23.2899 0.650874 22.8732C1.06762 22.4564 1.63285 22.2223 2.22222 22.2223ZM2.22222 24.4445V31.1112H13.3333V24.4445H2.22222ZM33.3333 22.2223H22.2222C21.6329 22.2223 21.0676 22.4564 20.6509 22.8732C20.2341 23.2899 20 23.8551 20 24.4445V31.1112C20 31.7005 20.2341 32.2658 20.6509 32.6825C21.0676 33.0993 21.6329 33.3334 22.2222 33.3334H33.3333C33.9227 33.3334 34.4879 33.0993 34.9047 32.6825C35.3214 32.2658 35.5556 31.7005 35.5556 31.1112V24.4445C35.5556 23.8551 35.3214 23.2899 34.9047 22.8732C34.4879 22.4564 33.9227 22.2223 33.3333 22.2223ZM22.2222 31.1112V24.4445H33.3333V31.1112H22.2222Z" fill="#1034A6"/>
</svg>
