<svg width="37" height="29" viewBox="0 0 37 29" fill="none" xmlns="http://www.w3.org/2000/svg">
<path fill-rule="evenodd" clip-rule="evenodd" d="M3.05785 0.608887H33.9421C35.631 0.608887 37 2.11484 37 3.97252V15.7452H33.6364V12.3816H3.36364V24.1542H18.5V27.5179H28.5907L27.4017 26.3289L29.5761 24.1545H21.8636V20.7908H29.5761L27.4017 18.6164L29.7801 16.238L36.0148 22.4727L30.9696 27.5179H33.9654L33.9421 27.518H30.9695L29.7801 28.7073L28.5908 27.518H3.05785C1.36905 27.518 0 26.012 0 24.1543V3.97252C0 2.11484 1.36905 0.608887 3.05785 0.608887ZM33.6364 3.97243V9.01798H3.36364V3.97243H33.6364Z" fill="#4ECDC4"/>
</svg>
