<svg width="32" height="32" viewBox="0 0 32 32" fill="none" xmlns="http://www.w3.org/2000/svg">
<path fill-rule="evenodd" clip-rule="evenodd" d="M3 28.5C3 28.776 3.224 29 3.5 29H8V26.5C8 26.1022 8.15804 25.7206 8.43934 25.4393C8.72064 25.158 9.10218 25 9.5 25H14.5C14.8978 25 15.2794 25.158 15.5607 25.4393C15.842 25.7206 16 26.1022 16 26.5V29H20.5C20.6326 29 20.7598 28.9473 20.8536 28.8536C20.9473 28.7598 21 28.6326 21 28.5V3.5C21 3.36739 20.9473 3.24021 20.8536 3.14645C20.7598 3.05268 20.6326 3 20.5 3H3.5C3.36739 3 3.24021 3.05268 3.14645 3.14645C3.05268 3.24021 3 3.36739 3 3.5V28.5ZM3.5 32C2.57174 32 1.6815 31.6313 1.02513 30.9749C0.368749 30.3185 0 29.4283 0 28.5L0 3.5C0 1.568 1.568 0 3.5 0H20.5C22.432 0 24 1.568 24 3.5V28.5C24 28.67 23.988 28.836 23.964 29H28.5C28.6326 29 28.7598 28.9473 28.8536 28.8536C28.9473 28.7598 29 28.6326 29 28.5V16.57C29.0001 16.4877 28.9798 16.4068 28.9411 16.3342C28.9024 16.2616 28.8464 16.1997 28.778 16.154L26.668 14.748C26.5017 14.6398 26.3586 14.4997 26.2469 14.3358C26.1351 14.1719 26.057 13.9874 26.017 13.7931C25.9771 13.5988 25.976 13.3985 26.014 13.2038C26.052 13.0091 26.1282 12.8239 26.2382 12.6588C26.3482 12.4937 26.4899 12.3522 26.655 12.2422C26.8202 12.1323 27.0055 12.0562 27.2002 12.0184C27.3949 11.9806 27.5952 11.9817 27.7895 12.0218C27.9838 12.0619 28.1682 12.1402 28.332 12.252L30.442 13.658C31.416 14.308 32 15.4 32 16.57V28.5C32 29.4283 31.6313 30.3185 30.9749 30.9749C30.3185 31.6313 29.4283 32 28.5 32H21.5C21.3669 32.0002 21.2344 31.9827 21.106 31.948C20.908 31.982 20.706 32 20.5 32H14.5C14.1022 32 13.7206 31.842 13.4393 31.5607C13.158 31.2794 13 30.8978 13 30.5V28H11V30.5C11 30.8978 10.842 31.2794 10.5607 31.5607C10.2794 31.842 9.89782 32 9.5 32H3.5ZM6 7.5C6 7.10218 6.15804 6.72064 6.43934 6.43934C6.72064 6.15804 7.10218 6 7.5 6H8.5C8.89782 6 9.27936 6.15804 9.56066 6.43934C9.84196 6.72064 10 7.10218 10 7.5C10 7.89782 9.84196 8.27936 9.56066 8.56066C9.27936 8.84196 8.89782 9 8.5 9H7.5C7.10218 9 6.72064 8.84196 6.43934 8.56066C6.15804 8.27936 6 7.89782 6 7.5ZM7.5 12C7.10218 12 6.72064 12.158 6.43934 12.4393C6.15804 12.7206 6 13.1022 6 13.5C6 13.8978 6.15804 14.2794 6.43934 14.5607C6.72064 14.842 7.10218 15 7.5 15H8.5C8.89782 15 9.27936 14.842 9.56066 14.5607C9.84196 14.2794 10 13.8978 10 13.5C10 13.1022 9.84196 12.7206 9.56066 12.4393C9.27936 12.158 8.89782 12 8.5 12H7.5ZM6 19.5C6 19.1022 6.15804 18.7206 6.43934 18.4393C6.72064 18.158 7.10218 18 7.5 18H8.5C8.89782 18 9.27936 18.158 9.56066 18.4393C9.84196 18.7206 10 19.1022 10 19.5C10 19.8978 9.84196 20.2794 9.56066 20.5607C9.27936 20.842 8.89782 21 8.5 21H7.5C7.10218 21 6.72064 20.842 6.43934 20.5607C6.15804 20.2794 6 19.8978 6 19.5ZM15.5 18C15.1022 18 14.7206 18.158 14.4393 18.4393C14.158 18.7206 14 19.1022 14 19.5C14 19.8978 14.158 20.2794 14.4393 20.5607C14.7206 20.842 15.1022 21 15.5 21H16.5C16.8978 21 17.2794 20.842 17.5607 20.5607C17.842 20.2794 18 19.8978 18 19.5C18 19.1022 17.842 18.7206 17.5607 18.4393C17.2794 18.158 16.8978 18 16.5 18H15.5ZM14 13.5C14 13.1022 14.158 12.7206 14.4393 12.4393C14.7206 12.158 15.1022 12 15.5 12H16.5C16.8978 12 17.2794 12.158 17.5607 12.4393C17.842 12.7206 18 13.1022 18 13.5C18 13.8978 17.842 14.2794 17.5607 14.5607C17.2794 14.842 16.8978 15 16.5 15H15.5C15.1022 15 14.7206 14.842 14.4393 14.5607C14.158 14.2794 14 13.8978 14 13.5ZM15.5 6C15.1022 6 14.7206 6.15804 14.4393 6.43934C14.158 6.72064 14 7.10218 14 7.5C14 7.89782 14.158 8.27936 14.4393 8.56066C14.7206 8.84196 15.1022 9 15.5 9H16.5C16.8978 9 17.2794 8.84196 17.5607 8.56066C17.842 8.27936 18 7.89782 18 7.5C18 7.10218 17.842 6.72064 17.5607 6.43934C17.2794 6.15804 16.8978 6 16.5 6H15.5Z" fill="#FF4F79"/>
</svg>
