<svg width="30" height="38" viewBox="0 0 30 38" fill="none" xmlns="http://www.w3.org/2000/svg">
<path fill-rule="evenodd" clip-rule="evenodd" d="M20.6904 0.666504H3.33333C1.49238 0.666504 0 2.15889 0 3.99984V33.9998C0 35.8408 1.49238 37.3332 3.33333 37.3332H26.6667C28.5076 37.3332 30 35.8408 30 33.9998V9.97615L20.6904 0.666504ZM3.33333 4H16.6667V10.6665C16.6667 12.5075 18.159 13.9998 20 13.9998H26.6667V34H3.33333V4ZM20 10.6665V4.69036L25.9761 10.6665H20ZM20.4883 17.8215L13.3335 24.9763L9.51197 21.1548L7.15495 23.5118L13.3335 29.6903L22.8453 20.1785L20.4883 17.8215Z" fill="#4ECDC4"/>
</svg>
