<svg width="30" height="38" viewBox="0 0 30 38" fill="none" xmlns="http://www.w3.org/2000/svg">
<path fill-rule="evenodd" clip-rule="evenodd" d="M3.33333 0.666504H20.6904L30 9.97615V33.9998C30 35.8408 28.5076 37.3332 26.6667 37.3332H3.33333C1.49238 37.3332 0 35.8408 0 33.9998V3.99984C0 2.15889 1.49238 0.666504 3.33333 0.666504ZM16.6667 4H3.33333V34H26.6667V13.9998H20C18.159 13.9998 16.6667 12.5075 16.6667 10.6665V4ZM20 4.69036V10.6665H25.9761L20 4.69036ZM8.33333 27.3332V23.9998H18.3333V27.3332H8.33333ZM8.33333 17.3332V20.6665H21.6667V17.3332H8.33333Z" fill="#1034A6"/>
</svg>
