<svg width="30" height="38" viewBox="0 0 30 38" fill="none" xmlns="http://www.w3.org/2000/svg">
<path fill-rule="evenodd" clip-rule="evenodd" d="M9.9932 2.33366C11.247 1.27195 13.0652 0.666992 15 0.666992C16.9348 0.666992 18.753 1.27195 20.0068 2.33366H21.6667C23.5076 2.33366 25 3.82604 25 5.66699H26.6667C28.5076 5.66699 30 7.15938 30 9.00033V34.0003C30 35.8413 28.5076 37.3337 26.6667 37.3337H3.33333C1.49238 37.3337 0 35.8413 0 34.0003V9.00033C0 7.15938 1.49238 5.66699 3.33333 5.66699H5C5 3.82604 6.49238 2.33366 8.33333 2.33366H9.9932ZM21.6667 10.667C22.9005 10.667 23.9777 9.99666 24.5541 9.00033H26.6667V34.0003H3.33333V9.00033H5.44594C6.02229 9.99666 7.09953 10.667 8.33333 10.667H21.6667ZM21.6667 24.0003V20.667H8.33333V24.0003H21.6667ZM11.4294 5.66699L11.9277 5.09262C12.4753 4.46156 13.649 4.00033 15 4.00033C16.351 4.00033 17.5247 4.46156 18.0723 5.09262L18.5706 5.66699H21.6667V7.33366H8.33333V5.66699H10.6689H11.4294Z" fill="#FF4F79"/>
</svg>
