<svg width="34" height="36" viewBox="0 0 34 36" fill="none" xmlns="http://www.w3.org/2000/svg">
<path d="M15.4492 22.2857V25.7143C12.5199 25.7143 9.71059 26.798 7.63927 28.7269C5.56795 30.6558 4.40429 33.2721 4.40429 36H0.722656C0.722656 32.3627 2.2742 28.8745 5.03596 26.3025C7.79772 23.7306 11.5435 22.2857 15.4492 22.2857ZM15.4492 20.5714C9.34689 20.5714 4.40429 15.9686 4.40429 10.2857C4.40429 4.60286 9.34689 0 15.4492 0C21.5515 0 26.4941 4.60286 26.4941 10.2857C26.4941 15.9686 21.5515 20.5714 15.4492 20.5714ZM15.4492 17.1429C19.5174 17.1429 22.8125 14.0743 22.8125 10.2857C22.8125 6.49714 19.5174 3.42857 15.4492 3.42857C11.381 3.42857 8.08593 6.49714 8.08593 10.2857C8.08593 14.0743 11.381 17.1429 15.4492 17.1429ZM32.0166 27.4286H33.8574V36H19.1308V27.4286H20.9717V25.7143C20.9717 24.3503 21.5535 23.0422 22.5891 22.0777C23.6248 21.1133 25.0295 20.5714 26.4941 20.5714C27.9588 20.5714 29.3634 21.1133 30.3991 22.0777C31.4347 23.0422 32.0166 24.3503 32.0166 25.7143V27.4286ZM28.3349 27.4286V25.7143C28.3349 25.2596 28.141 24.8236 27.7958 24.5021C27.4505 24.1806 26.9823 24 26.4941 24C26.0059 24 25.5377 24.1806 25.1925 24.5021C24.8472 24.8236 24.6533 25.2596 24.6533 25.7143V27.4286H28.3349Z" fill="#4ECDC4"/>
</svg>
