<svg width="24" height="25" viewBox="0 0 24 25" fill="none" xmlns="http://www.w3.org/2000/svg">
<path d="M0 4.5C0 2.29086 1.79086 0.5 4 0.5H20C22.2091 0.5 24 2.29086 24 4.5V20.5C24 22.7091 22.2091 24.5 20 24.5H4C1.79086 24.5 0 22.7091 0 20.5V4.5Z" fill="#1034A6" fill-opacity="0.16"/>
<path d="M12 12.0714C11.4317 12.0714 10.8866 11.8457 10.4848 11.4438C10.0829 11.042 9.85714 10.4969 9.85714 9.92859C9.85714 9.36027 10.0829 8.81522 10.4848 8.41336C10.8866 8.0115 11.4317 7.78573 12 7.78573C12.5683 7.78573 13.1134 8.0115 13.5152 8.41336C13.9171 8.81522 14.1429 9.36027 14.1429 9.92859C14.1429 10.21 14.0874 10.4886 13.9797 10.7486C13.8721 11.0086 13.7142 11.2448 13.5152 11.4438C13.3162 11.6428 13.08 11.8006 12.82 11.9083C12.5601 12.016 12.2814 12.0714 12 12.0714ZM12 3.92859C10.4087 3.92859 8.88258 4.56073 7.75736 5.68595C6.63214 6.81117 6 8.33729 6 9.92859C6 14.4286 12 21.0714 12 21.0714C12 21.0714 18 14.4286 18 9.92859C18 8.33729 17.3679 6.81117 16.2426 5.68595C15.1174 4.56073 13.5913 3.92859 12 3.92859Z" fill="#1034A6"/>
</svg>
