<svg width="246" height="155" viewBox="0 0 246 155" fill="none" xmlns="http://www.w3.org/2000/svg">
<path d="M195.19 26.836L195.542 28.1984L194.421 36.8745L192.33 37.5114L193.437 29.2211L190.673 30.0548L191.05 31.5368L189.35 32.0617L188.536 28.8622L195.19 26.836Z" fill="#E0E0E0"/>
<path d="M203.709 30.9618C204.118 32.5751 203.395 34.308 201.022 35.0297C199.906 35.3953 198.717 35.3953 197.602 35.0297L197.954 33.1849C198.781 33.5147 199.682 33.5498 200.528 33.2852C201.487 32.9919 201.971 32.3705 201.784 31.6295C201.597 30.8885 201.054 30.5759 199.544 31.0351L197.429 31.6835L196.554 26.4307L201.625 24.8869L202.045 26.5813L198.575 27.6349L198.885 29.4064L199.562 29.198C202.02 28.4377 203.3 29.3524 203.709 30.9618Z" fill="#E0E0E0"/>
<path d="M203.554 26.8784C203.18 25.3964 203.688 24.1768 204.806 23.8371C205.923 23.4975 206.921 24.2231 207.309 25.736C207.697 27.2489 207.165 28.4377 206.057 28.7773C204.95 29.1169 203.931 28.3605 203.554 26.8784ZM206.727 25.9174C206.428 24.7364 205.74 24.1883 204.964 24.4238C204.188 24.6592 203.86 25.5276 204.16 26.7009C204.46 27.8742 205.137 28.4338 205.923 28.1945C206.71 27.9552 207.013 27.1023 206.713 25.9174H206.727ZM209.869 22.3705L210.574 22.1582L207.21 32.9842L206.505 33.1964L209.869 22.3705ZM209.753 29.6187C209.379 28.1366 209.897 26.917 211.001 26.5774C212.105 26.2377 213.117 26.9942 213.508 28.4763C213.9 29.9583 213.374 31.1779 212.257 31.5176C211.139 31.8572 210.116 31.1007 209.739 29.6187H209.753ZM212.926 28.6577C212.63 27.4998 211.95 26.9247 211.163 27.164C210.377 27.4033 210.056 28.2563 210.359 29.4373C210.663 30.6183 211.347 31.1663 212.123 30.9309C212.898 30.6955 213.195 29.8271 212.898 28.6577H212.926Z" fill="#E0E0E0"/>
<path d="M213.303 153.528L238.13 153.741L238.377 119.439L213.549 119.225L213.303 153.528Z" fill="#EBEBEB"/>
<path d="M228.661 120.456L228.22 153.667L224.299 153.636L225.138 120.425L228.661 120.456Z" fill="#FAFAFA"/>
<path d="M199.29 120.205L213.533 120.329L238.361 120.541L213.508 124.119L213.297 153.54L199.058 153.42L199.29 120.205Z" fill="#E0E0E0"/>
<path d="M207.045 120.271L206.477 153.482L202.252 153.447L202.944 120.236L207.045 120.271Z" fill="#FAFAFA"/>
<path d="M218.318 110.163C218.318 110.232 217.898 110.317 217.133 110.398C216.052 110.514 214.965 110.566 213.879 110.557C212.237 110.564 210.603 110.329 209.019 109.858C208.773 109.771 208.537 109.655 208.314 109.511C208.052 109.346 207.83 109.116 207.665 108.839C207.495 108.542 207.405 108.198 207.404 107.847C207.405 107.54 207.441 107.234 207.51 106.936C207.732 105.821 208.04 104.729 208.43 103.671C208.646 103.119 208.916 102.593 209.234 102.104C209.552 101.602 209.953 101.168 210.416 100.827C210.664 100.643 210.942 100.513 211.234 100.441C211.531 100.37 211.839 100.37 212.137 100.441C212.643 100.6 213.112 100.879 213.508 101.259C214.792 102.396 215.885 103.769 216.738 105.315C217.313 106.346 217.753 107.459 218.047 108.623C218.24 109.449 218.262 109.92 218.209 109.935C218.054 109.985 217.704 108.129 216.192 105.69C215.304 104.283 214.22 103.036 212.979 101.996C212.67 101.713 212.31 101.503 211.921 101.382C211.742 101.344 211.557 101.346 211.378 101.388C211.199 101.431 211.03 101.513 210.881 101.63C210.519 101.911 210.206 102.261 209.957 102.664C209.68 103.097 209.443 103.56 209.252 104.046C208.886 105.049 208.59 106.081 208.367 107.133C208.238 107.508 208.246 107.923 208.392 108.291C208.616 108.61 208.929 108.841 209.284 108.947C209.685 109.09 210.094 109.208 210.507 109.302C210.913 109.403 211.315 109.48 211.706 109.545C212.486 109.68 213.219 109.758 213.896 109.808C215.247 109.908 216.365 109.927 217.116 109.97C217.867 110.012 218.315 110.093 218.318 110.163Z" fill="#E0E0E0"/>
<path d="M217.803 110.414C217.803 110.344 218.255 110.198 219.09 109.989C219.926 109.781 221.146 109.507 222.617 109.117C224.346 108.68 226.042 108.094 227.687 107.365C228.139 107.178 228.566 106.929 228.96 106.624C229.128 106.494 229.267 106.325 229.369 106.13C229.451 105.956 229.475 105.757 229.44 105.566C229.387 105.312 229.305 105.065 229.197 104.833C229.08 104.559 228.96 104.281 228.844 104.003C228.607 103.451 228.336 102.917 228.033 102.405C227.735 101.908 227.379 101.456 226.975 101.058C226.609 100.677 226.181 100.375 225.713 100.167C225.295 99.9875 224.835 99.9658 224.404 100.105C223.969 100.273 223.57 100.535 223.23 100.877C221.907 102.145 220.762 103.622 219.834 105.257C219.209 106.366 218.702 107.549 218.325 108.785C218.061 109.669 217.955 110.174 217.884 110.163C217.814 110.151 217.817 109.626 217.98 108.689C218.234 107.362 218.669 106.084 219.27 104.899C220.163 103.135 221.312 101.542 222.673 100.182C223.091 99.7398 223.59 99.3991 224.136 99.1826C224.75 98.9691 225.412 98.9867 226.016 99.2327C226.311 99.349 226.593 99.5032 226.855 99.692C227.111 99.8777 227.355 100.083 227.585 100.306C228.044 100.76 228.446 101.279 228.78 101.849C229.106 102.4 229.397 102.974 229.651 103.567L230.004 104.42C230.146 104.732 230.248 105.065 230.307 105.408C230.374 105.812 230.313 106.228 230.135 106.589C229.97 106.905 229.744 107.178 229.472 107.388C229.014 107.736 228.516 108.016 227.991 108.222C226.287 108.931 224.527 109.463 222.733 109.812C221.213 110.12 219.975 110.279 219.122 110.375C218.269 110.472 217.814 110.479 217.803 110.414Z" fill="#FAFAFA"/>
<path d="M194.771 120.156L231.267 120.47L231.349 109.115L194.853 108.802L194.771 120.156Z" fill="#E0E0E0"/>
<path d="M208.196 120.268L241.184 120.551L241.265 109.197L208.278 108.913L208.196 120.268Z" fill="#EBEBEB"/>
<path d="M231.136 109.125L230.907 120.53L227.06 120.441L227.328 109.09L231.136 109.125Z" fill="#FAFAFA"/>
<path d="M203.804 108.947L203.43 120.252L199.202 120.213L199.428 108.855L203.804 108.947Z" fill="#FAFAFA"/>
<path d="M232.241 153.93L243.581 154.027L243.693 138.358L232.353 138.261L232.241 153.93Z" fill="#EBEBEB"/>
<path d="M239.253 138.831L239.052 153.999L237.257 153.988L237.642 138.816L239.253 138.831Z" fill="#FAFAFA"/>
<path d="M225.836 138.716L232.342 138.77L243.683 138.87L232.332 140.503L232.233 153.941L225.73 153.887L225.836 138.716Z" fill="#E0E0E0"/>
<path d="M229.376 138.746L229.119 153.918L227.187 153.899L227.504 138.731L229.376 138.746Z" fill="#FAFAFA"/>
<path d="M234.528 134.13C234.528 134.258 233.77 134.451 232.494 134.516C231.723 134.548 230.952 134.455 230.205 134.242C229.903 134.156 229.639 133.956 229.458 133.679C229.355 133.502 229.3 133.298 229.299 133.088C229.299 132.926 229.315 132.764 229.348 132.606C229.45 132.079 229.594 131.562 229.778 131.062C229.884 130.79 230.016 130.531 230.173 130.29C230.336 130.029 230.543 129.805 230.783 129.63C230.925 129.528 231.084 129.459 231.25 129.427C231.417 129.394 231.588 129.399 231.753 129.441C232.014 129.527 232.255 129.674 232.458 129.873C233.056 130.413 233.559 131.066 233.943 131.803C234.581 133.081 234.574 134.003 234.465 134.019C234.355 134.034 234.112 133.247 233.407 132.189C232.994 131.583 232.502 131.048 231.947 130.599C231.833 130.493 231.7 130.415 231.556 130.371C231.505 130.363 231.453 130.366 231.403 130.381C231.353 130.395 231.307 130.421 231.266 130.456C231.129 130.568 231.009 130.705 230.914 130.861C230.798 131.044 230.7 131.24 230.621 131.444C230.458 131.887 230.326 132.342 230.226 132.807C230.173 133.023 230.184 133.119 230.202 133.142C230.273 133.238 230.371 133.307 230.48 133.339C230.826 133.464 231.179 133.561 231.538 133.629C231.891 133.698 232.215 133.745 232.518 133.779C233.738 133.918 234.525 133.98 234.528 134.13Z" fill="#E0E0E0"/>
<path d="M234.292 134.262C234.271 134.115 235.12 133.876 236.457 133.49C237.229 133.265 237.987 132.983 238.724 132.645C238.91 132.564 239.087 132.459 239.25 132.332C239.297 132.294 239.337 132.245 239.366 132.189C239.366 132.158 239.366 132.158 239.366 132.1C239.297 131.88 239.213 131.665 239.112 131.46C239.007 131.219 238.89 130.986 238.76 130.761C238.636 130.555 238.49 130.366 238.326 130.198C238.182 130.048 238.015 129.928 237.832 129.843C237.691 129.777 237.535 129.767 237.388 129.812C237.219 129.874 237.065 129.974 236.933 130.105C236.338 130.661 235.816 131.303 235.381 132.015C234.637 133.243 234.482 134.185 234.323 134.161C234.267 134.161 234.228 133.903 234.274 133.459C234.356 132.83 234.536 132.222 234.807 131.66C235.202 130.818 235.729 130.057 236.362 129.41C236.574 129.182 236.829 129.007 237.109 128.897C237.439 128.778 237.796 128.784 238.121 128.916C238.276 128.974 238.423 129.053 238.559 129.152C238.683 129.243 238.8 129.343 238.911 129.453C239.137 129.681 239.335 129.94 239.5 130.225C239.654 130.486 239.792 130.758 239.913 131.039C239.969 131.174 240.022 131.305 240.078 131.425C240.151 131.59 240.203 131.766 240.234 131.946C240.27 132.188 240.233 132.436 240.128 132.652C240.034 132.829 239.907 132.982 239.754 133.1C239.527 133.265 239.28 133.395 239.02 133.486C238.227 133.805 237.406 134.034 236.57 134.169C235.191 134.381 234.313 134.37 234.292 134.262Z" fill="#FAFAFA"/>
<path d="M223.779 138.685L240.447 138.828L240.484 133.641L223.816 133.498L223.779 138.685Z" fill="#E0E0E0"/>
<path d="M229.908 138.738L244.975 138.868L245.012 133.681L229.945 133.551L229.908 138.738Z" fill="#EBEBEB"/>
<path d="M240.382 133.656L240.276 138.862L238.52 138.824L238.643 133.64L240.382 133.656Z" fill="#FAFAFA"/>
<path d="M227.896 133.571L227.726 138.735L225.794 138.719L225.9 133.528L227.896 133.571Z" fill="#FAFAFA"/>
<path d="M16.4649 153.877L36.8037 154.052L37.0054 125.952L16.6665 125.777L16.4649 153.877Z" fill="#EBEBEB"/>
<path d="M29.0429 126.774L28.6832 153.984L25.4673 153.957L26.1584 126.751L29.0429 126.774Z" fill="#FAFAFA"/>
<path d="M4.9829 126.57L16.6513 126.67L36.9907 126.844L16.6301 129.777L16.4573 153.88L4.79248 153.779L4.9829 126.57Z" fill="#E0E0E0"/>
<path d="M11.3339 126.624L10.872 153.829L7.40918 153.802L7.97338 126.597L11.3339 126.624Z" fill="#FAFAFA"/>
<path d="M20.5689 118.345C20.5689 118.484 20.2163 118.627 19.6063 118.766C18.0959 119.077 16.5544 119.168 15.0221 119.036C14.6695 119.001 14.3169 118.959 13.9643 118.889C13.5712 118.825 13.1825 118.732 12.8006 118.611C12.5608 118.531 12.3301 118.421 12.113 118.283C11.8296 118.106 11.5881 117.859 11.4077 117.562C11.2167 117.23 11.113 116.846 11.108 116.454C11.106 116.155 11.138 115.857 11.2032 115.566C11.3853 114.617 11.6437 113.687 11.9755 112.787C12.165 112.298 12.4014 111.832 12.6807 111.398C12.8299 111.179 12.9912 110.97 13.1638 110.773C13.3536 110.555 13.5681 110.364 13.8021 110.205C14.0615 110.021 14.3495 109.89 14.6519 109.819C14.9704 109.75 15.2991 109.758 15.6146 109.843C16.1021 109.996 16.5517 110.268 16.9298 110.638C18.008 111.618 18.9118 112.807 19.5957 114.146C20.0551 115.036 20.3756 116.004 20.5443 117.01C20.6465 117.72 20.5936 118.129 20.4773 118.168C20.2057 118.241 19.772 116.782 18.5026 114.926C17.7578 113.854 16.8767 112.906 15.8861 112.108C15.6916 111.929 15.4644 111.797 15.2196 111.722C15.1397 111.71 15.0583 111.716 14.9807 111.74C14.903 111.764 14.8307 111.805 14.7683 111.861C14.6596 111.945 14.5592 112.04 14.4685 112.147C14.3698 112.266 14.2605 112.417 14.1617 112.564C13.9595 112.885 13.7871 113.227 13.6469 113.586C13.3592 114.376 13.1235 115.187 12.9416 116.014C12.9043 116.147 12.8818 116.284 12.8747 116.423C12.8747 116.512 12.8747 116.52 12.8747 116.539C12.9927 116.693 13.1516 116.804 13.3295 116.855C13.636 116.974 13.9479 117.074 14.264 117.156C14.5849 117.245 14.9022 117.315 15.209 117.38C15.8261 117.504 16.415 117.592 16.9722 117.662C18.0583 117.797 18.961 117.878 19.5851 117.982C20.2093 118.086 20.5654 118.206 20.5689 118.345Z" fill="#E0E0E0"/>
<path d="M20.1495 118.546C20.1036 118.26 21.627 117.797 24.0284 117.075C25.4075 116.664 26.759 116.148 28.073 115.531C28.3991 115.392 28.7072 115.206 28.9898 114.98C29.0671 114.922 29.1311 114.845 29.1767 114.756C29.1767 114.721 29.1767 114.756 29.1767 114.659C29.1372 114.504 29.0828 114.354 29.0145 114.212L28.7218 113.544C28.535 113.117 28.3242 112.703 28.0906 112.305C27.8755 111.941 27.6196 111.608 27.329 111.313C27.1926 111.172 27.0464 111.043 26.8917 110.927C26.7627 110.828 26.6229 110.746 26.4756 110.684C26.2429 110.574 25.9832 110.554 25.7386 110.626C25.4473 110.735 25.1797 110.908 24.9523 111.135C23.8888 112.12 22.9528 113.259 22.17 114.52C20.8265 116.697 20.5233 118.38 20.2447 118.333C20.1248 118.333 20.0402 117.866 20.1178 117.064C20.2527 115.928 20.5677 114.827 21.0487 113.81C21.7538 112.287 22.6966 110.91 23.8344 109.742C24.2252 109.324 24.6928 109.002 25.2061 108.797C25.8186 108.578 26.4803 108.59 27.0856 108.831C27.3675 108.939 27.6363 109.085 27.8861 109.264C28.1198 109.429 28.3414 109.613 28.549 109.816C28.9553 110.219 29.311 110.68 29.6069 111.186C29.886 111.66 30.1357 112.153 30.3545 112.664L30.6507 113.374C30.7852 113.679 30.8813 114.002 30.9363 114.335C31.0064 114.791 30.9344 115.26 30.7318 115.667C30.5569 116 30.3159 116.286 30.0265 116.504C29.6125 116.815 29.1617 117.063 28.6866 117.241C27.2588 117.811 25.7802 118.215 24.2752 118.445C23.2794 118.612 22.2746 118.707 21.2673 118.727C20.5726 118.75 20.1671 118.685 20.1495 118.546Z" fill="#FAFAFA"/>
<path d="M1.28646 126.539L31.1812 126.796L31.2479 117.494L1.3532 117.237L1.28646 126.539Z" fill="#E0E0E0"/>
<path d="M12.2754 126.631L39.2998 126.863L39.3665 117.562L12.3421 117.33L12.2754 126.631Z" fill="#EBEBEB"/>
<path d="M31.0703 117.492L30.8834 126.836L27.731 126.763L27.9496 117.465L31.0703 117.492Z" fill="#FAFAFA"/>
<path d="M8.67875 117.345L8.37549 126.608L4.90918 126.577L5.09607 117.272L8.67875 117.345Z" fill="#FAFAFA"/>
<path d="M39.766 10.6337L40.1186 12.1042L34.741 13.6171L34.466 12.4593L36.5465 8.85063C37.0225 8.01697 37.0402 7.58471 36.952 7.20648C36.8074 6.59281 36.3384 6.3458 35.5873 6.55808C35.2991 6.62505 35.0304 6.76897 34.8052 6.97704C34.5801 7.1851 34.4054 7.45086 34.2967 7.75067L32.8862 7.24121C33.2389 6.20686 34.0922 5.36163 35.3546 4.99883C36.9414 4.55499 38.2074 5.14936 38.5282 6.54264C38.7081 7.31454 38.6763 8.04399 37.9147 9.33693L36.677 11.4867L39.766 10.6337Z" fill="#E0E0E0"/>
<path d="M39.8581 8.02471C39.2551 5.45041 40.2107 3.62872 41.9738 3.13856C43.7369 2.6484 45.3661 3.73679 45.9691 6.30722C46.5721 8.87766 45.6164 10.6994 43.8533 11.1934C42.0902 11.6874 40.4611 10.5951 39.8581 8.02471ZM44.3012 6.77423C43.8851 5.00271 43.1445 4.4315 42.3194 4.66307C41.4942 4.89464 41.1099 5.78619 41.526 7.55385C41.9421 9.3215 42.6826 9.89657 43.4972 9.66886C44.3117 9.44115 44.7173 8.54188 44.3012 6.77423Z" fill="#E0E0E0"/>
<path d="M46.3638 4.23852C46.0641 2.96874 46.519 1.92281 47.4746 1.67194C48.4302 1.42107 49.2765 2.05789 49.5904 3.33539C49.9042 4.61289 49.4246 5.6511 48.4796 5.90197C47.5346 6.15284 46.6601 5.50444 46.3638 4.23852ZM49.0685 3.46661C48.8287 2.45156 48.2504 1.97298 47.591 2.1621C46.9316 2.35121 46.6354 3.08066 46.8857 4.09186C47.1361 5.10305 47.6897 5.58549 48.3632 5.39637C49.0367 5.20726 49.3047 4.48938 49.0685 3.47819V3.46661ZM51.7978 0.502507L52.3973 0.336548L49.3576 9.50289L48.7582 9.67271L51.7978 0.502507ZM51.5862 6.67773C51.29 5.40795 51.752 4.36202 52.697 4.11115C53.642 3.86028 54.5025 4.4971 54.8128 5.7746C55.1231 7.0521 54.6576 8.09031 53.702 8.33732C52.7464 8.58433 51.886 7.95137 51.5862 6.68545V6.67773ZM54.2909 5.90583C54.0546 4.90235 53.4869 4.41219 52.8134 4.60131C52.1399 4.79043 51.8578 5.5083 52.1081 6.53107C52.3585 7.55384 52.9262 8.02084 53.5856 7.83558C54.245 7.65033 54.5271 6.92474 54.2944 5.92513L54.2909 5.90583Z" fill="#E0E0E0"/>
<path d="M106.564 35.0374C106.592 36.6314 105.506 38.1251 103.038 38.1559C101.875 38.2023 100.726 37.8721 99.7339 37.2065L100.481 35.5199C101.208 36.0616 102.071 36.3422 102.95 36.3227C103.948 36.3034 104.558 35.8479 104.547 35.076C104.547 34.362 104.047 33.9182 102.915 33.9491H102.001L101.98 32.5056L103.719 30.2748L100.044 30.3443L100.02 28.5882L106.056 28.4763L106.081 29.8927L104.181 32.3705C105.739 32.6137 106.543 33.648 106.564 35.0374Z" fill="#E0E0E0"/>
<path d="M107.46 33.1887C107.41 30.0548 108.951 28.2756 111.067 28.2331C113.183 28.1907 114.791 29.9313 114.84 33.0459C114.889 36.1606 113.352 37.963 111.222 38.0015C109.092 38.0401 107.509 36.3034 107.46 33.1887ZM112.848 33.0845C112.813 30.9425 112.107 30.0625 111.109 30.0818C110.111 30.1011 109.448 31.0043 109.484 33.1694C109.519 35.3346 110.221 36.1914 111.205 36.1721C112.188 36.1528 112.88 35.2304 112.848 33.0845V33.0845Z" fill="#E0E0E0"/>
<path d="M115.831 30.8036C115.806 29.2598 116.579 28.2254 117.739 28.2022C118.899 28.1791 119.703 29.1787 119.728 30.7302C119.752 32.2818 118.966 33.3084 117.82 33.3277C116.674 33.347 115.856 32.3396 115.831 30.8036ZM119.111 30.7418C119.089 29.5145 118.55 28.812 117.749 28.812C116.949 28.812 116.427 29.584 116.448 30.7958C116.469 32.0077 116.995 32.7256 117.809 32.7256C118.624 32.7256 119.128 31.9846 119.111 30.7418ZM122.965 28.1714H123.691L117.95 37.7237H117.224L122.965 28.1714ZM121.202 35.1532C121.18 33.6094 121.963 32.5751 123.109 32.5558C124.255 32.5365 125.073 33.5438 125.098 35.0799C125.123 36.616 124.351 37.6581 123.19 37.6812C122.03 37.7044 121.212 36.6932 121.188 35.1532H121.202ZM124.481 35.0915C124.463 33.8796 123.934 33.1617 123.12 33.1617C122.305 33.1617 121.801 33.9143 121.819 35.1417C121.836 36.369 122.379 37.0714 123.18 37.0714C123.98 37.0714 124.488 36.3072 124.467 35.0915H124.481Z" fill="#E0E0E0"/>
<path d="M148.297 5.86723C148.128 7.0714 147.172 7.9861 145.395 7.68892C144.554 7.56508 143.765 7.17467 143.124 6.5658L143.861 5.45426C144.32 5.94392 144.909 6.2615 145.543 6.36125C146.266 6.48089 146.756 6.22616 146.834 5.67039C146.911 5.11462 146.636 4.73253 145.508 4.54341L143.917 4.27711L144.771 0.498642L148.565 1.1316L148.389 2.39752L145.793 1.96526L145.515 3.2389L146.023 3.32381C147.863 3.63257 148.466 4.6592 148.297 5.86723Z" fill="#F5F5F5"/>
<path d="M149.059 4.70167C149.373 2.45157 150.688 1.36705 152.232 1.61406C153.777 1.86107 154.722 3.33154 154.408 5.58164C154.094 7.83174 152.786 8.9124 151.235 8.66925C149.683 8.4261 148.748 6.94791 149.059 4.70167ZM152.938 5.35007C153.153 3.80626 152.744 3.07682 152.024 2.95717C151.305 2.83753 150.727 3.39715 150.512 4.94482C150.297 6.49248 150.702 7.21421 151.414 7.33386C152.127 7.4535 152.73 6.89773 152.945 5.35393L152.938 5.35007Z" fill="#F5F5F5"/>
<path d="M155.346 4.1073C155.501 2.99962 156.175 2.35508 157.011 2.49402C157.846 2.63296 158.312 3.4589 158.157 4.57816C158.001 5.69742 157.321 6.33038 156.492 6.19143C155.664 6.05249 155.191 5.21884 155.346 4.1073ZM160.787 3.17329L161.313 3.26206L156.097 9.3601L155.572 9.27133L160.787 3.17329ZM157.73 4.50483C157.853 3.61714 157.543 3.03049 156.965 2.93401C156.386 2.83752 155.932 3.31996 155.808 4.18449C155.685 5.04902 155.984 5.65496 156.573 5.75531C157.162 5.85566 157.589 5.38866 157.712 4.50483H157.73ZM158.728 7.95523C158.883 6.84755 159.564 6.20301 160.392 6.34196C161.221 6.4809 161.693 7.31841 161.538 8.42609C161.383 9.53377 160.71 10.1783 159.874 10.0394C159.038 9.90043 158.555 9.06677 158.71 7.95523H158.728ZM161.094 8.34118C161.214 7.46507 160.918 6.86685 160.329 6.77036C159.74 6.67387 159.296 7.13316 159.172 8.01699C159.049 8.90081 159.359 9.49518 159.937 9.59167C160.516 9.68816 160.953 9.21343 161.076 8.35276L161.094 8.34118Z" fill="#F5F5F5"/>
<path d="M6.77415 38.6191L5.48354 44.6515L4.22113 44.335L5.27901 39.4218L4.17529 39.1401L4.41508 38.017L6.77415 38.6191Z" fill="#F5F5F5"/>
<path d="M7.09185 41.8842C7.515 39.8927 8.76682 39.0205 10.1209 39.3678C11.475 39.7152 12.2367 41.1046 11.8135 43.0923C11.3904 45.0799 10.1491 45.956 8.78445 45.6087C7.41979 45.2613 6.66517 43.8757 7.09185 41.8842ZM10.5335 42.7642C10.8262 41.3941 10.5053 40.7109 9.86701 40.5488C9.22876 40.3867 8.67514 40.8422 8.38246 42.2123C8.08978 43.5824 8.40714 44.2655 9.03834 44.4276C9.66954 44.5897 10.2373 44.1343 10.5335 42.7642Z" fill="#F5F5F5"/>
<path d="M17.6884 41.4172L18.1538 41.5369L13.0972 46.6044L12.6353 46.4848L17.6884 41.4172ZM12.7516 41.8379C12.9632 40.8537 13.6085 40.3288 14.349 40.5179C15.0895 40.7071 15.4527 41.4828 15.2412 42.4747C15.0296 43.4666 14.3808 43.9799 13.6473 43.7947C12.9138 43.6094 12.5542 42.8182 12.7622 41.8379H12.7516ZM14.8462 42.3744C15.0155 41.6025 14.7757 41.039 14.2644 40.9078C13.7531 40.7765 13.3123 41.1625 13.1466 41.9382C12.9808 42.714 13.21 43.2736 13.7319 43.4049C14.2538 43.5361 14.6911 43.1772 14.8568 42.3744H14.8462ZM15.5233 45.5469C15.7313 44.5627 16.3837 44.0417 17.1171 44.2269C17.8506 44.4122 18.2208 45.2034 18.0128 46.1837C17.8047 47.164 17.1559 47.6928 16.4154 47.5037C15.6749 47.3146 15.3223 46.5272 15.5338 45.5469H15.5233ZM17.6214 46.0834C17.7871 45.3115 17.5579 44.748 17.0395 44.6168C16.5212 44.4855 16.0875 44.8638 15.9217 45.6472C15.756 46.4307 15.9923 46.9826 16.5036 47.1139C17.0149 47.2451 17.4627 46.8591 17.6214 46.0834Z" fill="#F5F5F5"/>
<path d="M209.344 105.227L178.074 76.3188C176.843 75.1807 175.335 74.2677 173.648 73.6388C171.961 73.0099 170.133 72.6791 168.281 72.6677L65.3345 72.0541C63.5853 72.0433 61.8508 72.318 60.2314 72.8623C58.612 73.4065 57.1398 74.2095 55.8998 75.2248C54.6599 76.2401 53.6768 77.4476 53.0074 78.7775C52.3381 80.1074 51.9957 81.5332 52 82.9726L52.1736 142.957C52.1773 144.389 52.5242 145.807 53.1945 147.129C53.8649 148.451 54.8455 149.651 56.0801 150.66C57.3148 151.67 58.7793 152.469 60.3898 153.012C62.0004 153.555 63.7253 153.832 65.4658 153.826L168.056 153.471C169.951 153.467 171.822 153.128 173.544 152.478C175.266 151.827 176.798 150.88 178.037 149.7L209.494 119.596C211.591 117.593 212.732 115.031 212.704 112.388C212.677 109.744 211.483 107.199 209.344 105.227V105.227ZM191.943 115.647C191.13 117.294 189.742 118.705 187.955 119.702C186.167 120.699 184.06 121.238 181.901 121.25C179.741 121.261 177.626 120.746 175.822 119.769C174.019 118.791 172.608 117.396 171.768 115.758C170.928 114.121 170.697 112.316 171.105 110.57C171.512 108.825 172.539 107.218 174.056 105.954C175.573 104.689 177.512 103.822 179.627 103.464C181.742 103.106 183.939 103.272 185.94 103.941C188.618 104.839 190.754 106.574 191.879 108.765C193.004 110.957 193.028 113.426 191.943 115.632V115.647Z" fill="#9BA0A7"/>
<g opacity="0.4">
<path opacity="0.4" d="M209.344 105.227L178.074 76.3188C176.843 75.1807 175.335 74.2677 173.648 73.6388C171.961 73.0099 170.133 72.6791 168.281 72.6677L65.3345 72.0541C63.5853 72.0433 61.8508 72.318 60.2314 72.8623C58.612 73.4065 57.1398 74.2095 55.8998 75.2248C54.6599 76.2401 53.6768 77.4476 53.0074 78.7775C52.3381 80.1074 51.9957 81.5332 52 82.9726L52.1736 142.957C52.1773 144.389 52.5242 145.807 53.1945 147.129C53.8649 148.451 54.8455 149.651 56.0801 150.66C57.3148 151.67 58.7793 152.469 60.3898 153.012C62.0004 153.555 63.7253 153.832 65.4658 153.826L168.056 153.471C169.951 153.467 171.822 153.128 173.544 152.478C175.266 151.827 176.798 150.88 178.037 149.7L209.494 119.596C211.591 117.593 212.732 115.031 212.704 112.388C212.677 109.744 211.483 107.199 209.344 105.227V105.227ZM191.943 115.647C191.13 117.294 189.742 118.705 187.955 119.702C186.167 120.699 184.06 121.238 181.901 121.25C179.741 121.261 177.626 120.746 175.822 119.769C174.019 118.791 172.608 117.396 171.768 115.758C170.928 114.121 170.697 112.316 171.105 110.57C171.512 108.825 172.539 107.218 174.056 105.954C175.573 104.689 177.512 103.822 179.627 103.464C181.742 103.106 183.939 103.272 185.94 103.941C188.618 104.839 190.754 106.574 191.879 108.765C193.004 110.957 193.028 113.426 191.943 115.632V115.647Z" fill="black"/>
</g>
<path d="M214.761 105.227L183.477 76.3188C182.245 75.1811 180.737 74.2683 179.051 73.6395C177.364 73.0106 175.536 72.6796 173.684 72.6677L70.7373 72.0541C68.9879 72.0428 67.2532 72.3172 65.6335 72.8612C64.0139 73.4053 62.5414 74.2083 61.3013 75.2237C60.0612 76.2391 59.0781 77.4468 58.409 78.7769C57.7398 80.107 57.3979 81.5331 57.4029 82.9726L57.5717 142.957C57.576 144.393 57.9249 145.813 58.5984 147.137C59.2719 148.461 60.2567 149.663 61.4962 150.673C62.7357 151.683 64.2055 152.481 65.8212 153.022C67.4369 153.563 69.1665 153.836 70.9108 153.826L173.496 153.471C175.391 153.466 177.262 153.127 178.984 152.477C180.706 151.826 182.238 150.879 183.477 149.7L214.93 119.596C217.025 117.591 218.163 115.029 218.132 112.385C218.101 109.741 216.903 107.197 214.761 105.227V105.227ZM197.365 115.647C196.552 117.294 195.164 118.705 193.376 119.702C191.589 120.699 189.482 121.238 187.322 121.25C185.163 121.261 183.047 120.746 181.244 119.769C179.44 118.791 178.029 117.396 177.19 115.758C176.35 114.121 176.119 112.316 176.526 110.57C176.934 108.825 177.961 107.218 179.478 105.954C180.995 104.689 182.933 103.822 185.049 103.464C187.164 103.106 189.361 103.272 191.361 103.941C194.039 104.839 196.175 106.574 197.301 108.765C198.426 110.957 198.449 113.426 197.365 115.632V115.647Z" fill="#9BA0A7"/>
<path d="M91.6611 103.216C91.7409 95.9445 97.1863 91.3632 104.822 91.425C112.458 91.4867 117.725 96.0834 117.645 103.413C117.565 110.742 112.186 115.265 104.555 115.207C96.9236 115.149 91.5767 110.487 91.6611 103.216ZM110.155 103.359C110.206 98.7272 108.063 96.5002 104.766 96.4771C101.548 96.4501 99.2734 98.7117 99.2218 103.274C99.1703 107.836 101.393 110.128 104.611 110.155C107.908 110.178 110.103 107.978 110.155 103.359ZM136.04 92.166L144.952 92.2355L108.673 135.076L99.7612 135.007L136.04 92.166ZM127.073 123.841C127.157 116.57 132.598 111.988 140.163 112.046C147.799 112.108 153.136 116.77 153.057 124.038C152.977 131.305 147.532 135.871 139.891 135.806C132.354 135.755 126.993 131.093 127.073 123.841ZM145.491 123.98C145.543 119.422 143.399 117.125 140.102 117.102C136.885 117.075 134.615 119.275 134.563 123.899C134.511 128.523 136.73 130.753 139.947 130.78C143.245 130.788 145.44 128.523 145.487 123.961L145.491 123.98Z" fill="white"/>
<path d="M211.338 123.069C211.711 123.233 212.057 123.437 212.365 123.675C213.008 124.096 213.946 124.729 215.132 125.566C216.319 126.404 217.764 127.438 219.386 128.685C221.009 129.931 222.829 131.386 224.71 133.112C226.778 134.981 228.649 136.992 230.305 139.121L230.971 139.997L231.6 140.912C232.039 141.537 232.437 142.181 232.791 142.841C233.58 144.242 234.036 145.754 234.133 147.295C234.163 148.119 234.017 148.941 233.701 149.723C233.372 150.532 232.845 151.276 232.153 151.911C230.734 153.199 228.856 154.082 226.788 154.435C224.69 154.777 222.527 154.734 220.451 154.312C218.366 153.897 216.347 153.284 214.434 152.486C210.673 150.908 207.263 148.821 204.345 146.311C202.954 145.135 201.652 143.89 200.447 142.583C199.272 141.314 198.152 140.052 197.089 138.797C192.868 133.779 189.585 128.955 187.521 124.64C187.005 123.563 186.559 122.529 186.175 121.533C185.987 121.035 185.809 120.549 185.663 120.066C185.504 119.6 185.389 119.124 185.321 118.642C185.158 117.729 185.436 116.799 186.095 116.053C186.663 115.453 187.438 115.009 188.318 114.779C188.682 114.68 189.055 114.609 189.434 114.567C189.768 114.537 190.104 114.531 190.438 114.547C190.963 114.568 191.48 114.661 191.967 114.821C192.264 114.923 192.539 115.063 192.783 115.234C192.943 115.354 193.013 115.42 192.999 115.435C192.985 115.45 192.887 115.408 192.708 115.319C192.45 115.19 192.172 115.087 191.883 115.014C191.411 114.897 190.921 114.84 190.429 114.844C190.115 114.847 189.801 114.868 189.491 114.906C189.144 114.962 188.803 115.042 188.473 115.146C187.706 115.377 187.04 115.791 186.559 116.334C186.023 116.991 185.821 117.795 185.997 118.573C186.074 119.027 186.196 119.475 186.362 119.912C186.517 120.375 186.709 120.846 186.906 121.332C187.316 122.305 187.785 123.319 188.314 124.374C190.438 128.581 193.759 133.332 197.999 138.268C199.062 139.503 200.183 140.747 201.362 142C202.548 143.272 203.828 144.484 205.194 145.628C208.027 148.051 211.331 150.07 214.968 151.602C216.803 152.366 218.739 152.954 220.737 153.355C222.641 153.747 224.626 153.793 226.553 153.49C228.376 153.184 230.037 152.414 231.3 151.29C232.471 150.201 233.088 148.783 233.026 147.33C232.937 145.9 232.516 144.497 231.788 143.196C231.455 142.558 231.08 141.934 230.667 141.328L230.08 140.437L229.442 139.565C227.848 137.454 226.045 135.455 224.053 133.586C222.243 131.857 220.484 130.375 218.894 129.094C217.304 127.812 215.93 126.74 214.79 125.863L212.201 123.841C211.876 123.614 211.586 123.355 211.338 123.069V123.069Z" fill="#263238"/>
<path d="M162.479 63.1656C162.413 63.1656 161.1 55.6202 159.543 46.2957C157.986 36.9711 156.78 29.4064 156.851 29.3987C156.921 29.391 158.23 36.944 159.787 46.2686C161.344 55.5932 162.549 63.1579 162.479 63.1656Z" fill="#263238"/>
<path d="M201.151 21.8572C201.143 21.8971 201.129 21.936 201.109 21.973L200.959 22.3088L200.363 23.594L198.13 28.3103C196.254 32.2933 193.684 37.8047 190.954 43.9298C188.225 50.0548 185.856 55.6241 184.167 59.665C183.328 61.6758 182.648 63.3084 182.174 64.4547C181.94 65.0066 181.757 65.4427 181.625 65.7553C181.564 65.8943 181.513 66.0023 181.475 66.0911C181.461 66.1299 181.442 66.1675 181.419 66.203C181.422 66.162 181.434 66.1217 181.452 66.0834L181.578 65.7399C181.696 65.4273 181.865 64.968 182.08 64.4276C182.521 63.2891 183.178 61.6449 184.003 59.6187C185.654 55.5662 187.999 49.9699 190.729 43.8603C193.459 37.7507 196.043 32.2277 197.966 28.2563C198.904 26.2725 199.72 24.6669 200.279 23.5631L200.921 22.2933C200.991 22.1582 201.052 22.0502 201.095 21.9653L201.151 21.8572Z" fill="#263238"/>
<path d="M228.86 51.56C228.903 51.6025 222.191 55.929 213.852 61.2088C205.512 66.4886 198.749 70.7572 198.707 70.7109C198.665 70.6646 205.381 66.342 213.716 61.0621C222.05 55.7823 228.823 51.5137 228.86 51.56Z" fill="#263238"/>
<path d="M146.199 64.5743C146.142 64.609 143.549 61.8726 140.402 58.4917C137.254 55.1108 134.74 52.3165 134.773 52.2895C134.806 52.2625 137.423 54.9911 140.57 58.3721C143.718 61.753 146.25 64.5396 146.199 64.5743Z" fill="#263238"/>
<path d="M225.69 85.8479C225.69 85.902 221.558 84.9603 216.502 83.7484C211.446 82.5365 207.365 81.5098 207.384 81.4558C207.403 81.4018 211.516 82.3435 216.572 83.5554C221.628 84.7673 225.713 85.7939 225.69 85.8479Z" fill="#263238"/>
<path d="M166.588 85.7244L169.637 84.281L171.255 81.7106L173.014 84.2192L176.137 85.5546L173.089 86.9981L171.466 89.5685L169.712 87.0598L166.588 85.7244Z" fill="white"/>
<path d="M150.106 81.7414L151.176 81.2358L151.743 80.3366L152.358 81.2127L153.451 81.6797L152.381 82.1853L151.814 83.0845L151.199 82.2084L150.106 81.7414Z" fill="white"/>
<path d="M160.631 99.4682L162.695 98.4917L163.793 96.7511L164.979 98.4493L167.095 99.3524L165.031 100.329L163.933 102.069L162.747 100.371L160.631 99.4682Z" fill="white"/>
<path d="M243.94 153.864C243.94 153.918 189.547 153.965 122.467 153.965C55.3874 153.965 0.987793 153.918 0.987793 153.864C0.987793 153.81 55.3662 153.764 122.467 153.764C189.569 153.764 243.94 153.806 243.94 153.864Z" fill="#263238"/>
<path d="M75.5722 54.2656L72.328 48.0054C74.3334 44.4417 75.0485 40.186 74.3326 36.0746C73.6168 31.9632 71.5218 28.2935 68.4595 25.7868C65.3972 23.2801 61.589 22.1177 57.7834 22.5281C53.9779 22.9385 50.4501 24.8919 47.8937 28.0045C45.3372 31.1171 43.9368 35.1637 43.9678 39.3489C43.9988 43.5342 45.4589 47.5554 48.0612 50.6222C50.6634 53.689 54.2196 55.5796 58.0308 55.9224C61.8419 56.2652 65.6324 55.0354 68.6572 52.4747L75.5722 54.2656Z" fill="white"/>
<path d="M75.5721 54.2656L68.643 52.5288C68.637 52.5279 68.6313 52.5257 68.6262 52.5222C68.6211 52.5187 68.6167 52.514 68.6134 52.5086C68.61 52.5031 68.6078 52.4969 68.6068 52.4904C68.6058 52.4839 68.6061 52.4773 68.6077 52.4709C68.6077 52.4709 68.6077 52.4709 68.6077 52.4516L68.6712 52.5211C67.7014 53.3468 66.6455 54.0438 65.5258 54.5975C64.1971 55.2512 62.7901 55.6944 61.3471 55.9136C60.546 56.0358 59.7364 56.0797 58.9281 56.0448C58.5085 56.0216 58.0854 56.0101 57.6587 55.9715L56.3645 55.7553C52.5137 54.9287 49.0953 52.5273 46.8049 49.0398C45.5321 47.1097 44.6509 44.9043 44.2201 42.5712C43.7782 40.1041 43.8396 37.5605 44.3999 35.1224C44.9782 32.5749 46.1024 30.2147 47.6794 28.237L48.3035 27.4651C48.5116 27.2104 48.7549 27.002 48.977 26.7704C49.1992 26.5388 49.4213 26.3034 49.6823 26.1104L50.4157 25.5083C50.6574 25.3049 50.912 25.1205 51.1774 24.9564L51.9532 24.4431L52.7642 24.0108C53.0304 23.8635 53.3049 23.7346 53.5858 23.6249C55.7624 22.6803 58.1054 22.2845 60.4409 22.467C62.6501 22.6303 64.7993 23.3248 66.7353 24.501C70.2101 26.6287 72.8045 30.1372 73.9817 34.3003C74.4568 36.0676 74.6816 37.9042 74.6482 39.7461C74.6056 41.3441 74.3539 42.9272 73.9006 44.447C73.5186 45.7102 73.0026 46.9201 72.3632 48.0517V48.0016L75.5685 54.2849L72.2785 48.0286C72.2751 48.0214 72.2734 48.0135 72.2734 48.0054C72.2734 47.9974 72.2751 47.9894 72.2785 47.9823C72.9058 46.8537 73.4111 45.6492 73.7843 44.3929C74.2299 42.8825 74.4745 41.3097 74.5107 39.7229C74.5373 37.8949 74.3102 36.073 73.8371 34.3196C72.6549 30.2076 70.078 26.7478 66.6365 24.6515C64.7213 23.4923 62.5964 22.8084 60.4127 22.6484C58.1028 22.4731 55.7864 22.8688 53.6352 23.8063C53.3579 23.9167 53.0871 24.0456 52.8242 24.1922L52.0237 24.6168L51.255 25.1262C50.9936 25.2887 50.7426 25.4705 50.5039 25.6704L49.7775 26.2648C49.5307 26.4578 49.3226 26.7048 49.0934 26.9209C48.8642 27.137 48.6315 27.3532 48.4305 27.604L47.8134 28.3489C46.2537 30.3029 45.1416 32.6354 44.5692 35.1533C44.0147 37.5621 43.9521 40.075 44.3858 42.5133C44.8107 44.8204 45.6798 47.0018 46.9353 48.9124C49.1984 52.3672 52.5766 54.7513 56.3857 55.5817L57.6657 55.7978C58.0889 55.8364 58.5085 55.848 58.9211 55.875C59.7245 55.9124 60.5293 55.871 61.326 55.7515C62.7629 55.5438 64.1652 55.1123 65.4905 54.4701C66.6052 53.9268 67.6574 53.2415 68.6253 52.4284C68.6296 52.4234 68.6348 52.4194 68.6406 52.4167C68.6463 52.4139 68.6526 52.4125 68.6588 52.4125C68.6651 52.4125 68.6713 52.4139 68.6771 52.4167C68.6829 52.4194 68.688 52.4234 68.6923 52.4284C68.6977 52.4377 68.7005 52.4484 68.7005 52.4593C68.7005 52.4702 68.6977 52.4809 68.6923 52.4902V52.4902L68.6676 52.4091L75.5721 54.2656Z" fill="#263238"/>
<path d="M54.8061 36.0525C54.5668 35.929 54.3084 35.8556 54.0444 35.8364C53.6575 35.7684 53.2611 35.8109 52.8936 35.9596C52.526 36.1084 52.1998 36.3584 51.9463 36.6855C53.6001 37.7352 55.8534 39.1285 57.4649 40.1359L59.4995 38.8622C58.0326 37.9784 56.1919 36.8669 54.8061 36.0525Z" fill="#9BA0A7"/>
<g opacity="0.3">
<path opacity="0.3" d="M54.8061 36.0525C54.5668 35.929 54.3084 35.8556 54.0444 35.8364C53.6575 35.7684 53.2611 35.8109 52.8936 35.9596C52.526 36.1084 52.1998 36.3584 51.9463 36.6855C53.6001 37.7352 55.8534 39.1285 57.4649 40.1359L59.4995 38.8622C58.0326 37.9784 56.1919 36.8669 54.8061 36.0525Z" fill="black"/>
</g>
<path d="M61.0369 42.4825L60.9629 42.413C60.4551 42.0927 59.905 41.4829 59.4043 41.4944C59.2103 41.4944 58.9987 41.6836 58.4945 41.9923C57.6552 42.5133 56.2412 43.4203 55.3949 43.9221C54.6897 44.3582 53.794 44.694 52.9724 44.4007C52.5532 44.2321 52.1676 43.9766 51.8369 43.648L61.0334 37.8125C60.9876 37.6619 60.9382 37.5191 60.8923 37.3725C60.7071 36.782 60.7021 36.1416 60.8779 35.5476C61.0538 34.9537 61.401 34.4383 61.8675 34.0789C62.334 33.7195 62.8944 33.5355 63.4646 33.5547C64.0347 33.5739 64.5838 33.7951 65.0293 34.1851C65.4747 34.5751 65.7924 35.1129 65.9347 35.7175C66.0769 36.3222 66.036 36.961 65.818 37.538C65.6001 38.115 65.2169 38.5989 64.726 38.9171C64.2352 39.2352 63.6633 39.3704 63.0963 39.3022C62.8844 39.2872 62.6727 39.3338 62.4827 39.4373C62.1301 39.6226 61.8056 39.858 61.386 40.1205C62.0913 40.4678 62.5744 41.0236 63.403 40.9387C64.5455 40.8229 65.5576 41.7299 65.9067 42.9379C66.0711 43.5151 66.0649 44.1345 65.8889 44.7076C65.7128 45.2807 65.376 45.7784 64.9264 46.1297C64.4739 46.4853 63.9301 46.6747 63.3731 46.6707C62.8161 46.6668 62.2746 46.4697 61.8263 46.1078C61.3781 45.7458 61.0462 45.2377 60.8784 44.6563C60.7106 44.075 60.7155 43.4504 60.8923 42.8723C60.9347 42.7604 60.9946 42.6291 61.0369 42.4825ZM63.3854 37.8511C63.554 37.8532 63.7213 37.8182 63.8773 37.7482C64.0333 37.6782 64.1749 37.5746 64.2936 37.4435C64.4123 37.3125 64.5058 37.1567 64.5685 36.9854C64.6311 36.8141 64.6617 36.6307 64.6584 36.4462C64.6529 36.0823 64.5179 35.7352 64.2822 35.4786C64.0464 35.222 63.7285 35.0762 63.396 35.0722C63.0555 35.0763 62.7301 35.2266 62.49 35.4909C62.2499 35.7551 62.1143 36.1121 62.1124 36.4848C62.1225 36.8476 62.2608 37.192 62.4983 37.4454C62.7357 37.6989 63.0538 37.8415 63.3854 37.8433V37.8511ZM63.3854 45.215C63.718 45.2183 64.0386 45.0793 64.279 44.8277C64.5194 44.5762 64.6606 44.2318 64.6725 43.868C64.6796 43.6834 64.6526 43.4992 64.5932 43.3262C64.5337 43.1533 64.443 42.9953 64.3265 42.8616C64.21 42.7279 64.07 42.6214 63.9149 42.5483C63.7599 42.4752 63.593 42.437 63.4242 42.4362C63.0915 42.4318 62.7702 42.569 62.5281 42.8188C62.286 43.0686 62.1421 43.4116 62.1265 43.7754C62.1235 44.1443 62.2517 44.5 62.484 44.7672C62.7164 45.0344 63.0346 45.1923 63.3713 45.2073L63.3854 45.215Z" fill="#9BA0A7"/>
<path d="M59.9651 40.0896C59.9334 40.0896 59.9475 39.831 59.6865 39.6264C59.6148 39.572 59.532 39.5376 59.4454 39.5262C59.3587 39.5147 59.2708 39.5266 59.1893 39.5608C59.0923 39.6031 59.0091 39.6763 58.9505 39.7709C58.8919 39.8655 58.8605 39.9772 58.8605 40.0915C58.8605 40.2058 58.8919 40.3175 58.9505 40.4121C59.0091 40.5067 59.0923 40.5799 59.1893 40.6222C59.2708 40.6564 59.3587 40.6683 59.4454 40.6568C59.532 40.6454 59.6148 40.611 59.6865 40.5566C59.9475 40.352 59.9334 40.0819 59.9651 40.0896C59.9969 40.0973 59.9933 40.1513 59.9651 40.2594C59.9442 40.4201 59.8686 40.5661 59.7535 40.6685C59.6666 40.7475 59.5625 40.8007 59.4514 40.823C59.3402 40.8453 59.2257 40.8359 59.1188 40.7959C58.9848 40.7454 58.8685 40.6504 58.7862 40.5241C58.7039 40.3979 58.6597 40.2466 58.6597 40.0915C58.6597 39.9364 58.7039 39.7851 58.7862 39.6589C58.8685 39.5326 58.9848 39.4376 59.1188 39.3871C59.2257 39.3471 59.3402 39.3377 59.4514 39.36C59.5625 39.3823 59.6666 39.4355 59.7535 39.5145C59.8684 39.6154 59.944 39.7602 59.9651 39.9198C59.9933 40.0278 59.9757 40.0896 59.9651 40.0896Z" fill="#263238"/>
<path d="M62.2145 39.5994C62.1548 39.6486 62.0924 39.6937 62.0276 39.7345L61.5022 40.0818L59.7638 41.2011L58.0007 42.2972L57.4647 42.6214C57.4007 42.665 57.3335 42.7024 57.2637 42.7333C57.3227 42.6819 57.3851 42.6354 57.4506 42.5944L57.976 42.247L59.7144 41.1316L61.4775 40.0355L62.0135 39.7075C62.0779 39.6659 62.1451 39.6297 62.2145 39.5994Z" fill="#263238"/>
<path d="M60.6841 38.0556C60.6574 38.0797 60.6291 38.1016 60.5995 38.1212L60.3456 38.2949L59.4076 38.9317C58.6177 39.4566 57.5211 40.1745 56.2904 40.9348L53.1485 42.8877L52.1788 43.4512L51.9179 43.6056L51.8262 43.6557C51.8262 43.6557 51.8544 43.6326 51.9108 43.594L52.1647 43.4242L53.1097 42.8182L56.2446 40.846C57.4717 40.0741 58.5719 39.3755 59.3724 38.8661L60.3209 38.2679L60.5819 38.1058L60.6841 38.0556Z" fill="#263238"/>
<path d="M118.938 59.0706L119.608 60.4099L120.831 61.1432L119.608 61.8765L118.938 63.2157L118.268 61.8765L117.044 61.1432L118.268 60.4099L118.938 59.0706Z" fill="#9BA0A7"/>
<path d="M123.409 40.7302L124.104 40.68L124.665 40.2246L124.71 40.9888L125.126 41.6025L124.428 41.6526L123.868 42.1042L123.822 41.3439L123.409 40.7302Z" fill="#9BA0A7"/>
<path d="M236.2 101.633L236.894 101.583L237.455 101.128L237.501 101.892L237.917 102.506L237.219 102.556L236.658 103.007L236.612 102.247L236.2 101.633Z" fill="#9BA0A7"/>
<path d="M156.75 63.5284L157.445 63.4782L158.009 63.0266L158.055 63.787L158.467 64.4006L157.773 64.4508L157.208 64.9024L157.166 64.142L156.75 63.5284Z" fill="#9BA0A7"/>
<path d="M160.988 30.9155L161.683 30.8653L162.244 30.4137L162.289 31.1741L162.702 31.7877L162.007 31.8379L161.447 32.2933L161.401 31.5291L160.988 30.9155Z" fill="#9BA0A7"/>
<path d="M139.637 51.1548L140.695 50.4871L141.255 49.3022L141.865 50.4601L142.951 51.0776L141.894 51.7414L141.329 52.9301L140.719 51.7723L139.637 51.1548Z" fill="#9BA0A7"/>
<path d="M228.516 116.963L229.574 116.296L230.135 115.111L230.745 116.269L231.827 116.882L230.769 117.55L230.209 118.735L229.599 117.577L228.516 116.963Z" fill="#9BA0A7"/>
<path d="M223.202 95.7939L224.26 95.1262L224.824 93.9413L225.434 95.0992L226.517 95.7128L225.459 96.3805L224.895 97.5693L224.288 96.4076L223.202 95.7939Z" fill="#9BA0A7"/>
</svg>
