<svg width="157" height="144" viewBox="0 0 157 144" fill="none" xmlns="http://www.w3.org/2000/svg">
<path d="M61.4626 122.869H95.5359V141.419H61.4626V122.869Z" fill="#4ECDC4"/>
<path d="M120.625 122.869H154.699V141.419H120.625V122.869Z" fill="#4ECDC4"/>
<path d="M36.3723 141.419H2.29902V122.869H36.3723V141.419Z" fill="#4ECDC4"/>
<path d="M78.5037 33.2117C87.0574 33.2117 93.9915 26.2908 93.9915 17.7535C93.9915 9.21625 87.0574 2.29541 78.5037 2.29541C69.95 2.29541 63.0159 9.21625 63.0159 17.7535C63.0159 26.2908 69.95 33.2117 78.5037 33.2117Z" fill="#F2F3D9"/>
<path d="M86.2067 4.3457C87.5108 6.6108 88.2606 9.23429 88.2606 12.0344C88.2606 20.5717 81.3265 27.4925 72.7728 27.4925C69.9673 27.4925 67.3388 26.7442 65.0693 25.4425C67.7417 30.0838 72.755 33.212 78.5033 33.212C87.057 33.212 93.9911 26.2912 93.9911 17.7539C93.9911 12.0166 90.8569 7.01295 86.2067 4.3457Z" fill="#E3D888"/>
<path d="M52.4829 45.5781V59.1812H104.522V45.5781C104.522 38.7482 98.9745 33.2114 92.1319 33.2114H64.8733C58.0303 33.2117 52.4829 38.7485 52.4829 45.5781Z" fill="#6F8DE9"/>
<path d="M92.1285 33.2119H84.6943C91.5373 33.2119 97.0845 38.7487 97.0845 45.5786V59.1817H104.519V45.5786C104.519 38.7487 98.9715 33.2119 92.1285 33.2119Z" fill="#4ECDC4"/>
<path d="M61.4626 84.5332H95.5359V103.083H61.4626V84.5332Z" fill="#6F8DE9"/>
<path d="M120.625 84.5332H154.699V103.083H120.625V84.5332Z" fill="#6F8DE9"/>
<path d="M36.3723 103.083H2.29902V84.5331H36.3723V103.083Z" fill="#6F8DE9"/>
<path d="M36.3699 103.083H30.1748V84.5331H36.3699V103.083Z" fill="#FF4F79"/>
<path d="M95.5352 103.083H89.3401V84.5331H95.5352V103.083Z" fill="#FF4F79"/>
<path d="M154.7 103.083H148.505V84.5331H154.7V103.083Z" fill="#FF4F79"/>
<path d="M36.3699 141.419H30.1748V122.869H36.3699V141.419Z" fill="#E3D888"/>
<path d="M95.5352 141.419H89.3401V122.869H95.5352V141.419Z" fill="#E3D888"/>
<path d="M154.7 141.419H148.505V122.869H154.7V141.419Z" fill="#E3D888"/>
<path d="M154.7 105.379C155.971 105.379 157 104.351 157 103.084V84.534C157 83.2663 155.971 82.2386 154.7 82.2386H152.011C150.741 82.2386 149.711 83.2663 149.711 84.534C149.711 85.8016 150.741 86.8293 152.011 86.8293H152.4V100.788H122.926V86.8293H141.279C142.549 86.8293 143.579 85.8016 143.579 84.534C143.579 83.2663 142.549 82.2386 141.279 82.2386H139.964V72.1664C139.964 70.8987 138.934 69.871 137.664 69.871H80.7998V61.4768H104.52C105.79 61.4768 106.819 60.4491 106.819 59.1814V45.5783C106.819 37.4936 100.23 30.9162 92.1296 30.9162H90.4231C94.0225 27.6653 96.2879 22.9687 96.2879 17.7535C96.2879 7.96411 88.3085 0 78.5003 0C68.6921 0 60.7127 7.96411 60.7127 17.7535C60.7127 22.9687 62.9782 27.6653 66.5775 30.9162H64.871C56.7708 30.9162 50.1811 37.4936 50.1811 45.5783V59.1814C50.1811 60.4491 51.2105 61.4768 52.4809 61.4768H76.2002V69.871H19.3365C18.066 69.871 17.0366 70.8987 17.0366 72.1664V82.2386H15.7215C14.4511 82.2386 13.4217 83.2663 13.4217 84.534C13.4217 85.8016 14.4511 86.8293 15.7215 86.8293H34.0742V100.788H4.59961V86.8293H4.98904C6.25946 86.8293 7.28885 85.8016 7.28885 84.534C7.28885 83.2663 6.25946 82.2386 4.98904 82.2386H2.2998C1.02939 82.2386 0 83.2663 0 84.534V103.084C0 104.351 1.02939 105.379 2.2998 105.379H17.0366V120.574H2.2998C1.02939 120.574 0 121.602 0 122.869V141.419C0 142.687 1.02939 143.714 2.2998 143.714H36.3731C37.6435 143.714 38.6729 142.687 38.6729 141.419V122.869C38.6729 121.602 37.6435 120.574 36.3731 120.574H21.6359V105.379H36.3737C37.6441 105.379 38.6735 104.351 38.6735 103.084V84.534C38.6735 83.2663 37.6441 82.2386 36.3737 82.2386H21.6363V74.4617H76.2002V82.2373H61.4634C60.1929 82.2373 59.1635 83.2651 59.1635 84.5327V103.083C59.1635 104.35 60.1929 105.378 61.4634 105.378H76.2002V120.575H61.463C60.1926 120.575 59.1632 121.602 59.1632 122.87V141.42C59.1632 142.688 60.1926 143.715 61.463 143.715H73.1338C74.4042 143.715 75.4336 142.688 75.4336 141.42C75.4336 140.152 74.4042 139.125 73.1338 139.125H63.7629V125.166H93.2368V139.125H83.8662C82.5958 139.125 81.5664 140.152 81.5664 141.42C81.5664 142.688 82.5958 143.715 83.8662 143.715H95.5369C96.8074 143.715 97.8368 142.688 97.8368 141.42V122.87C97.8368 121.602 96.8074 120.575 95.5369 120.575H80.7998V105.378H95.5366C96.8071 105.378 97.8364 104.35 97.8364 103.083V84.5327C97.8364 83.2651 96.8071 82.2373 95.5366 82.2373H80.7998V74.4617H135.364V82.2386H120.626C119.356 82.2386 118.326 83.2663 118.326 84.534V103.084C118.326 104.351 119.356 105.379 120.626 105.379H135.364V120.574H120.627C119.356 120.574 118.327 121.602 118.327 122.869V141.419C118.327 142.687 119.356 143.714 120.627 143.714H154.7C155.971 143.714 157 142.687 157 141.419V122.869C157 121.602 155.971 120.574 154.7 120.574H139.963V105.379H154.7ZM65.312 17.7538C65.312 10.4958 71.228 4.5911 78.5 4.5911C85.772 4.5911 91.688 10.4958 91.688 17.7538C91.688 25.0116 85.772 30.9165 78.5 30.9165C71.228 30.9165 65.312 25.0116 65.312 17.7538ZM54.7801 45.5786C54.7801 40.0253 59.3068 35.5073 64.8704 35.5073H92.1292C97.6932 35.5073 102.22 40.0253 102.22 45.5786V56.8864H93.8093V52.9983C93.8093 51.7306 92.7799 50.7029 91.5095 50.7029C90.2391 50.7029 89.2097 51.7306 89.2097 52.9983V56.8864H67.7897V52.9983C67.7897 51.7306 66.7603 50.7029 65.4899 50.7029C64.2194 50.7029 63.19 51.7306 63.19 52.9983V56.8864H54.7798V45.5786H54.7801ZM34.0733 139.124H4.59961V125.165H34.0733V139.124ZM93.2368 100.787H63.7635V86.8284H93.2368V100.787ZM152.4 139.124H122.927V125.165H152.4V139.124Z" fill="#070707"/>
</svg>
