<svg width="54" height="54" viewBox="0 0 54 54" fill="none" xmlns="http://www.w3.org/2000/svg">
<path d="M13.166 31.3371C13.208 31.4244 13.2738 31.4981 13.3558 31.5497C13.4378 31.6013 13.5327 31.6286 13.6295 31.6286H15.1724V41.9144C15.1724 42.0508 15.2266 42.1816 15.323 42.2781C15.4195 42.3745 15.5503 42.4287 15.6867 42.4287H38.3154C38.4518 42.4287 38.5826 42.3745 38.6791 42.2781C38.7755 42.1816 38.8297 42.0508 38.8297 41.9144V31.6286H40.3726C40.4695 31.6287 40.5644 31.6013 40.6464 31.5497C40.7285 31.4982 40.7943 31.4244 40.8362 31.3371C40.8782 31.2498 40.8946 31.1523 40.8837 31.0561C40.8727 30.9598 40.8347 30.8686 40.7741 30.7929L38.717 28.2215C38.6688 28.1613 38.6077 28.1127 38.5382 28.0793C38.4686 28.0459 38.3925 28.0286 38.3154 28.0286H15.6867C15.6096 28.0286 15.5335 28.0459 15.4639 28.0793C15.3944 28.1127 15.3333 28.1613 15.2851 28.2215L13.2279 30.7929C13.1674 30.8686 13.1295 30.9598 13.1185 31.0561C13.1076 31.1524 13.124 31.2498 13.166 31.3371ZM16.201 41.4001V31.6286H25.9725C26.0496 31.6287 26.1257 31.6113 26.1952 31.578C26.2648 31.5446 26.3259 31.496 26.3741 31.4358L27.5153 30.009V41.4001H16.201ZM37.8011 41.4001H28.5439V30.009L29.6852 31.4358C29.7334 31.496 29.7945 31.5446 29.864 31.578C29.9335 31.6113 30.0097 31.6287 30.0868 31.6286H37.8011V41.4001ZM38.0682 29.0572L39.3025 30.6001H30.334L29.0997 29.0572H38.0682ZM15.9339 29.0572H26.9596L25.7253 30.6001H14.6996L15.9339 29.0572Z" fill="#FF4F79"/>
<path d="M38.8296 21.8572C38.8972 21.8573 38.9641 21.844 39.0265 21.8182C39.0889 21.7923 39.1456 21.7544 39.1933 21.7066L40.7362 20.1637C40.7839 20.1159 40.8218 20.0592 40.8477 19.9968C40.8735 19.9345 40.8868 19.8676 40.8868 19.8C40.8868 19.7325 40.8735 19.6656 40.8477 19.6032C40.8218 19.5408 40.7839 19.4841 40.7362 19.4364L39.1933 17.8935C39.1455 17.8457 39.0888 17.8079 39.0265 17.782C38.9641 17.7562 38.8972 17.7429 38.8296 17.7429C38.7621 17.7429 38.6952 17.7562 38.6328 17.782C38.5704 17.8079 38.5137 17.8457 38.466 17.8935L36.9231 19.4364C36.8753 19.4841 36.8375 19.5408 36.8116 19.6032C36.7858 19.6656 36.7725 19.7325 36.7725 19.8C36.7725 19.8676 36.7858 19.9345 36.8116 19.9968C36.8375 20.0592 36.8753 20.1159 36.9231 20.1637L38.466 21.7066C38.5137 21.7544 38.5704 21.7923 38.6328 21.8182C38.6952 21.844 38.7621 21.8573 38.8296 21.8572ZM38.8296 18.9844L39.6452 19.8L38.8296 20.6156L38.014 19.8L38.8296 18.9844Z" fill="#FF4F79"/>
<path d="M16.8654 15.5351C16.9131 15.5829 16.9698 15.6208 17.0322 15.6466C17.0946 15.6725 17.1615 15.6858 17.229 15.6858C17.2966 15.6858 17.3635 15.6725 17.4259 15.6466C17.4883 15.6208 17.545 15.5829 17.5927 15.5351L19.1356 13.9923C19.1833 13.9445 19.2212 13.8878 19.2471 13.8254C19.2729 13.763 19.2862 13.6961 19.2862 13.6286C19.2862 13.561 19.2729 13.4942 19.2471 13.4318C19.2212 13.3694 19.1833 13.3127 19.1356 13.2649L17.5927 11.7221C17.545 11.6743 17.4883 11.6364 17.4259 11.6106C17.3635 11.5847 17.2966 11.5714 17.229 11.5714C17.1615 11.5714 17.0946 11.5847 17.0322 11.6106C16.9698 11.6364 16.9131 11.6743 16.8654 11.7221L15.3225 13.2649C15.2748 13.3127 15.2369 13.3694 15.211 13.4318C15.1852 13.4942 15.1719 13.561 15.1719 13.6286C15.1719 13.6961 15.1852 13.763 15.211 13.8254C15.2369 13.8878 15.2748 13.9445 15.3225 13.9923L16.8654 15.5351ZM17.229 12.813L18.0446 13.6286L17.229 14.4442L16.4135 13.6286L17.229 12.813Z" fill="#FF4F79"/>
<path d="M31.1148 23.9144H22.8862C22.5585 23.9142 22.2392 24.0183 21.9746 24.2117C21.71 24.4051 21.5138 24.6777 21.4144 24.99C21.3151 25.3023 21.3177 25.6381 21.4219 25.9489C21.5261 26.2596 21.7265 26.5291 21.9941 26.7183C22.2617 26.9075 22.5826 27.0067 22.9103 27.0014C23.238 26.9962 23.5555 26.8867 23.8168 26.689C24.0782 26.4912 24.2698 26.2155 24.364 25.9015C24.4581 25.5876 24.45 25.2519 24.3406 24.9429H28.6318C28.5486 25.178 28.5235 25.4297 28.5588 25.6766C28.5941 25.9234 28.6887 26.1581 28.8345 26.3603C28.9804 26.5626 29.173 26.7266 29.3961 26.8381C29.6191 26.9496 29.8659 27.0054 30.1152 27.0007C30.3645 26.996 30.609 26.931 30.8277 26.8111C31.0463 26.6913 31.2327 26.5202 31.3708 26.3126C31.5089 26.1049 31.5946 25.8669 31.6206 25.6189C31.6466 25.3709 31.6121 25.1203 31.52 24.8886C31.8294 24.8043 32.1048 24.6257 32.3079 24.3776C32.5111 24.1296 32.6319 23.8244 32.6537 23.5045C32.6754 23.1847 32.597 22.866 32.4292 22.5927C32.2614 22.3195 32.0127 22.1053 31.7176 21.9799L32.6453 17.3416L33.0592 15.6857H34.2005C34.3369 15.6857 34.4678 15.6316 34.5642 15.5351C34.6607 15.4387 34.7148 15.3079 34.7148 15.1715C34.7148 15.0351 34.6607 14.9042 34.5642 14.8078C34.4678 14.7113 34.3369 14.6572 34.2005 14.6572H32.6577C32.543 14.6572 32.4316 14.6955 32.3412 14.7661C32.2508 14.8367 32.1866 14.9355 32.1588 15.0467L31.7419 16.7143H21.8576C21.7815 16.7143 21.7064 16.7312 21.6376 16.7637C21.5688 16.7963 21.5081 16.8437 21.4599 16.9025C21.4116 16.9614 21.3771 17.0302 21.3586 17.104C21.3402 17.1779 21.3384 17.2549 21.3533 17.3295L22.3819 22.4724C22.4052 22.5889 22.4682 22.6938 22.5601 22.7692C22.6521 22.8446 22.7673 22.8858 22.8862 22.8858H31.1148C31.2512 22.8858 31.382 22.94 31.4785 23.0364C31.5749 23.1329 31.6291 23.2637 31.6291 23.4001C31.6291 23.5365 31.5749 23.6673 31.4785 23.7637C31.382 23.8602 31.2512 23.9144 31.1148 23.9144ZM31.2075 19.2858H29.8832L30.0375 17.7429H31.5161L31.2075 19.2858ZM26.4862 20.3143V21.8572H25.4088L25.2545 20.3143H26.4862ZM25.1516 19.2858L24.9974 17.7429H26.4862V19.2858H25.1516ZM27.5148 20.3143H28.7465L28.5922 21.8572H27.5148V20.3143ZM27.5148 19.2858V17.7429H29.0037L28.8494 19.2858H27.5148ZM23.9636 17.7429L24.1179 19.2858H22.7936L22.4851 17.7429H23.9636ZM22.9993 20.3143H24.2208L24.3751 21.8572H23.3079L22.9993 20.3143ZM29.626 21.8572L29.7802 20.3143H31.0017L30.6931 21.8572H29.626ZM23.4005 25.4572C23.4005 25.5589 23.3703 25.6584 23.3138 25.7429C23.2573 25.8275 23.177 25.8934 23.083 25.9324C22.989 25.9713 22.8856 25.9815 22.7859 25.9616C22.6861 25.9418 22.5945 25.8928 22.5225 25.8209C22.4506 25.749 22.4016 25.6573 22.3818 25.5576C22.3619 25.4578 22.3721 25.3544 22.4111 25.2604C22.45 25.1664 22.5159 25.0861 22.6005 25.0296C22.685 24.9731 22.7845 24.9429 22.8862 24.9429C23.0225 24.9431 23.1533 24.9973 23.2497 25.0937C23.3461 25.1902 23.4003 25.3209 23.4005 25.4572ZM30.0862 25.9715C29.9845 25.9715 29.8851 25.9414 29.8005 25.8848C29.7159 25.8283 29.65 25.748 29.6111 25.654C29.5722 25.5601 29.562 25.4567 29.5818 25.3569C29.6017 25.2571 29.6507 25.1655 29.7226 25.0936C29.7945 25.0216 29.8861 24.9727 29.9859 24.9528C30.0857 24.933 30.1891 24.9432 30.283 24.9821C30.377 25.021 30.4573 25.0869 30.5139 25.1715C30.5704 25.2561 30.6005 25.3555 30.6005 25.4572C30.6004 25.5936 30.5461 25.7243 30.4497 25.8207C30.3533 25.9171 30.2226 25.9714 30.0862 25.9715Z" fill="#FF4F79"/>
</svg>
