<svg width="262" height="194" viewBox="0 0 262 194" fill="none" xmlns="http://www.w3.org/2000/svg">
<path d="M235.137 179.9H217.883V180.031H235.137V179.9Z" fill="#EBEBEB"/>
<path d="M173.311 181.317H168.784V181.448H173.311V181.317Z" fill="#EBEBEB"/>
<path d="M217.362 175.066H207.365V175.196H217.362V175.066Z" fill="#EBEBEB"/>
<path d="M50.5923 175.941H28.0928V176.071H50.5923V175.941Z" fill="#EBEBEB"/>
<path d="M58.5315 175.941H55.2339V176.071H58.5315V175.941Z" fill="#EBEBEB"/>
<path d="M118.055 178.14H69.2526V178.27H118.055V178.14Z" fill="#EBEBEB"/>
<path d="M124.957 148.284H24.3628C23.5739 148.284 22.8173 147.971 22.2594 147.413C21.7016 146.855 21.3882 146.099 21.3882 145.31V3.90992C21.3951 3.12553 21.7115 2.3756 22.2686 1.82338C22.8257 1.27116 23.5784 0.961342 24.3628 0.961372H124.957C125.348 0.961372 125.734 1.03831 126.095 1.1878C126.456 1.33729 126.784 1.55639 127.06 1.83261C127.337 2.10883 127.556 2.43674 127.705 2.79764C127.855 3.15853 127.932 3.54533 127.932 3.93596V145.31C127.932 145.7 127.855 146.087 127.705 146.448C127.556 146.809 127.337 147.137 127.06 147.413C126.784 147.689 126.456 147.908 126.095 148.058C125.734 148.207 125.348 148.284 124.957 148.284ZM24.3628 1.06556C23.6088 1.06694 22.8862 1.36705 22.353 1.90017C21.8199 2.4333 21.5198 3.15597 21.5184 3.90992V145.31C21.5198 146.064 21.8199 146.786 22.353 147.319C22.8862 147.853 23.6088 148.153 24.3628 148.154H124.957C125.711 148.153 126.434 147.853 126.967 147.319C127.5 146.786 127.8 146.064 127.801 145.31V3.90992C127.8 3.15597 127.5 2.4333 126.967 1.90017C126.434 1.36705 125.711 1.06694 124.957 1.06556H24.3628Z" fill="#EBEBEB"/>
<path d="M237.637 148.284H137.043C136.254 148.284 135.497 147.971 134.94 147.413C134.382 146.855 134.068 146.099 134.068 145.31V3.90992C134.075 3.12553 134.392 2.3756 134.949 1.82338C135.506 1.27116 136.259 0.961342 137.043 0.961372H237.637C238.426 0.961372 239.183 1.27477 239.741 1.83261C240.298 2.39045 240.612 3.14705 240.612 3.93596V145.31C240.612 146.099 240.298 146.855 239.741 147.413C239.183 147.971 238.426 148.284 237.637 148.284ZM137.043 1.06556C136.289 1.06694 135.566 1.36705 135.033 1.90017C134.5 2.4333 134.2 3.15597 134.199 3.90992V145.31C134.2 146.064 134.5 146.786 135.033 147.319C135.566 147.853 136.289 148.153 137.043 148.154H237.637C238.391 148.153 239.114 147.853 239.647 147.319C240.18 146.786 240.48 146.064 240.482 145.31V3.90992C240.48 3.15597 240.18 2.4333 239.647 1.90017C239.114 1.36705 238.391 1.06694 237.637 1.06556H137.043Z" fill="#EBEBEB"/>
<path d="M261.236 171.518H0.764038V171.649H261.236V171.518Z" fill="#EBEBEB"/>
<path d="M84.1359 32.5045H25.6548V171.315H84.1359V32.5045Z" fill="#E6E6E6"/>
<path d="M81.6511 35.0207H28.1449V171.315H81.6511V35.0207Z" fill="#F0F0F0"/>
<path d="M77.8898 52.9985H32.1926V102.915H77.8898V52.9985Z" fill="#FAFAFA"/>
<path d="M77.8898 118.007H32.1926V167.924H77.8898V118.007Z" fill="#E6E6E6"/>
<path d="M41.1945 38.636H68.8879C71.2708 38.6429 73.5538 39.5944 75.2363 41.2818C76.9189 42.9693 77.8637 45.255 77.8637 47.638V50.4146H32.1926V47.638C32.1926 45.2505 33.141 42.9608 34.8292 41.2726C36.5174 39.5845 38.807 38.636 41.1945 38.636Z" fill="#FAFAFA"/>
<path d="M36.0944 105.161H32.1926V115.329H36.0944V105.161Z" fill="#E6E6E6"/>
<path d="M36.0944 115.329H36.8602V105.161H36.0944V115.329Z" fill="#E0E0E0"/>
<path d="M34.8025 109.156C34.8025 109.482 34.7058 109.801 34.5247 110.071C34.3436 110.342 34.0862 110.553 33.7851 110.678C33.484 110.802 33.1527 110.834 32.8332 110.77C32.5138 110.706 32.2205 110.549 31.9904 110.318C31.7604 110.088 31.6041 109.794 31.5411 109.474C31.4782 109.154 31.5115 108.823 31.6369 108.523C31.7623 108.222 31.9741 107.965 32.2455 107.785C32.5169 107.605 32.8357 107.509 33.1615 107.51C33.5972 107.511 34.0146 107.685 34.3222 107.994C34.6298 108.303 34.8025 108.721 34.8025 109.156Z" fill="#E0E0E0"/>
<path d="M34.4951 112.001H33.646V114.058H34.4951V112.001Z" fill="#E0E0E0"/>
<path d="M34.0054 109.156C34.0054 109.612 33.8702 110.057 33.617 110.436C33.3638 110.815 33.0038 111.11 32.5828 111.284C32.1617 111.458 31.6985 111.503 31.2517 111.414C30.8049 111.325 30.3946 111.105 30.0728 110.783C29.751 110.46 29.5321 110.049 29.4439 109.602C29.3556 109.155 29.402 108.692 29.577 108.271C29.7521 107.851 30.0481 107.492 30.4274 107.239C30.8067 106.987 31.2524 106.853 31.7081 106.854C32.0104 106.853 32.3099 106.912 32.5892 107.028C32.8686 107.143 33.1224 107.313 33.3359 107.527C33.5495 107.741 33.7185 107.995 33.8334 108.275C33.9483 108.554 34.0068 108.854 34.0054 109.156Z" fill="#F5F5F5"/>
<path d="M48.2689 38.636H45.6537L43.148 50.4146H45.7631L48.2689 38.636Z" fill="#F5F5F5"/>
<path d="M77.3428 44.007C76.9089 42.876 76.2354 41.8523 75.3684 41.0063L73.368 50.4146H75.9727L77.3428 44.007Z" fill="#F5F5F5"/>
<path d="M71.9093 38.9903C71.1349 38.76 70.3314 38.6425 69.5234 38.6413H59.8807L57.375 50.4198H69.4765L71.9093 38.9903Z" fill="#F5F5F5"/>
<path d="M45.2162 52.9985H42.601L32.1926 101.972V102.915H34.6045L45.2162 52.9985Z" fill="#F5F5F5"/>
<path d="M68.9295 52.9985H56.828L46.2164 102.915H58.3179L68.9295 52.9985Z" fill="#F5F5F5"/>
<path d="M75.4153 52.9985H72.8001L62.1937 102.915H64.8037L75.4153 52.9985Z" fill="#F5F5F5"/>
<path d="M220.889 10.6301H220.378V25.7739H220.889V10.6301Z" fill="#E6E6E6"/>
<path d="M236.814 34.1924L220.634 24.4143L204.448 34.1924H236.814Z" fill="#E6E6E6"/>
<path d="M219.514 34.1924L220.634 24.4143L213.356 34.1924H219.514Z" fill="#FAFAFA"/>
<path d="M221.748 125.451H207.204C206.824 125.451 206.516 125.759 206.516 126.139V129.035C206.516 129.415 206.824 129.723 207.204 129.723H221.748C222.128 129.723 222.436 129.415 222.436 129.035V126.139C222.436 125.759 222.128 125.451 221.748 125.451Z" fill="#F5F5F5"/>
<path d="M221.748 136.047H207.204C206.824 136.047 206.516 136.355 206.516 136.735V139.631C206.516 140.011 206.824 140.319 207.204 140.319H221.748C222.128 140.319 222.436 140.011 222.436 139.631V136.735C222.436 136.355 222.128 136.047 221.748 136.047Z" fill="#F5F5F5"/>
<path d="M233.548 130.744H219.003C218.623 130.744 218.315 131.052 218.315 131.432V134.328C218.315 134.708 218.623 135.016 219.003 135.016H233.548C233.928 135.016 234.235 134.708 234.235 134.328V131.432C234.235 131.052 233.928 130.744 233.548 130.744Z" fill="#F0F0F0"/>
<path d="M195.779 89.8917H210.84C211.22 89.8917 211.528 89.5839 211.528 89.2041V86.167C211.528 85.7872 211.22 85.4793 210.84 85.4793H195.779C195.4 85.4793 195.092 85.7872 195.092 86.167V89.2041C195.092 89.5839 195.4 89.8917 195.779 89.8917Z" fill="#F5F5F5"/>
<path d="M200.801 84.427H215.862C216.242 84.427 216.549 84.1191 216.549 83.7394V80.7023C216.549 80.3225 216.242 80.0146 215.862 80.0146H200.801C200.422 80.0146 200.114 80.3225 200.114 80.7023V83.7394C200.114 84.1191 200.422 84.427 200.801 84.427Z" fill="#F5F5F5"/>
<path d="M183.595 84.427H198.655C199.035 84.427 199.343 84.1191 199.343 83.7394V80.7023C199.343 80.3225 199.035 80.0146 198.655 80.0146H183.595C183.215 80.0146 182.907 80.3225 182.907 80.7023V83.7394C182.907 84.1191 183.215 84.427 183.595 84.427Z" fill="#F0F0F0"/>
<path d="M131 193.039C186.784 193.039 232.006 190.398 232.006 187.142C232.006 183.885 186.784 181.244 131 181.244C75.216 181.244 29.9941 183.885 29.9941 187.142C29.9941 190.398 75.216 193.039 131 193.039Z" fill="#F5F5F5"/>
<path d="M121.086 10.552H119.508V50.076H121.086V10.552Z" fill="#263238"/>
<path d="M122.67 10.552H121.878V50.076H122.67V10.552Z" fill="#263238"/>
<path d="M125.046 10.552H124.254V50.076H125.046V10.552Z" fill="#263238"/>
<path d="M129.781 10.552H128.203V50.076H129.781V10.552Z" fill="#263238"/>
<path d="M132.157 10.552H131.365V50.076H132.157V10.552Z" fill="#263238"/>
<path d="M135.319 10.552H132.948V50.076H135.319V10.552Z" fill="#263238"/>
<path d="M137.689 10.552H136.897V50.076H137.689V10.552Z" fill="#263238"/>
<path d="M139.273 10.552H138.481V50.076H139.273V10.552Z" fill="#263238"/>
<path d="M143.221 10.552H141.643V50.076H143.221V10.552Z" fill="#263238"/>
<path d="M147.17 10.552H145.592V50.076H147.17V10.552Z" fill="#263238"/>
<path d="M150.337 10.552H147.967V50.076H150.337V10.552Z" fill="#263238"/>
<path d="M152.708 10.552H151.916V50.076H152.708V10.552Z" fill="#263238"/>
<path d="M155.865 10.552H154.286V50.076H155.865V10.552Z" fill="#263238"/>
<path d="M159.819 10.552H157.448V50.076H159.819V10.552Z" fill="#263238"/>
<path d="M161.402 10.552H160.61V50.076H161.402V10.552Z" fill="#263238"/>
<path d="M165.351 10.552H162.981V50.076H165.351V10.552Z" fill="#263238"/>
<path d="M167.721 10.552H166.143V50.076H167.721V10.552Z" fill="#263238"/>
<path d="M170.889 10.552H168.518V50.076H170.889V10.552Z" fill="#263238"/>
<path d="M172.472 10.552H171.681V50.076H172.472V10.552Z" fill="#263238"/>
<path d="M175.629 10.552H174.837V50.076H175.629V10.552Z" fill="#263238"/>
<path d="M178 10.552H176.421V50.076H178V10.552Z" fill="#263238"/>
<path d="M181.954 10.552H180.375V50.076H181.954V10.552Z" fill="#263238"/>
<path d="M185.116 10.552H184.324V50.076H185.116V10.552Z" fill="#263238"/>
<path d="M188.278 10.552H187.486V50.076H188.278V10.552Z" fill="#263238"/>
<path d="M190.648 10.552H189.07V50.076H190.648V10.552Z" fill="#263238"/>
<path d="M195.389 10.552H193.018V50.076H195.389V10.552Z" fill="#263238"/>
<path d="M196.972 10.552H196.181V50.076H196.972V10.552Z" fill="#263238"/>
<path d="M199.343 10.552H197.764V50.076H199.343V10.552Z" fill="#263238"/>
<path d="M151.593 55.8585C151.593 56.6034 151.03 57.2494 149.843 57.2494C149.247 57.2584 148.664 57.0758 148.181 56.7284L148.535 56.0877C148.906 56.3755 149.363 56.5296 149.832 56.5253C150.421 56.5253 150.765 56.2648 150.765 55.8532C150.765 55.4417 150.473 55.1969 149.806 55.1969H149.4V54.6342L150.405 53.4413H148.394V52.7484H151.411V53.3006L150.337 54.5769C150.504 54.5783 150.669 54.6126 150.822 54.6778C150.976 54.743 151.115 54.8378 151.231 54.9569C151.348 55.076 151.44 55.2169 151.502 55.3716C151.564 55.5263 151.595 55.6918 151.593 55.8585Z" fill="#263238"/>
<path d="M155.339 56.1814H153.125L152.687 57.2233H151.838L153.828 52.7953H154.635L156.636 57.2233H155.776L155.339 56.1814ZM155.068 55.5355L154.234 53.5767L153.401 55.5146L155.068 55.5355Z" fill="#263238"/>
<path d="M160.105 55.8272C160.105 56.6034 159.543 57.2494 158.355 57.2494C157.759 57.2592 157.176 57.0765 156.693 56.7284L157.042 56.0877C157.414 56.3766 157.873 56.5308 158.344 56.5253C158.928 56.5253 159.277 56.2648 159.277 55.848C159.277 55.4313 159.006 55.1604 158.089 55.1604H157.047L157.276 52.7484H159.881V53.4413H157.98L157.886 54.4832H158.308C159.579 54.4727 160.105 55.0406 160.105 55.8272Z" fill="#263238"/>
<path d="M164.116 55.8116C164.112 56.015 164.066 56.2154 163.981 56.4001C163.896 56.5849 163.773 56.75 163.621 56.885C163.469 57.0201 163.29 57.1222 163.097 57.1849C162.903 57.2476 162.699 57.2695 162.496 57.2494C161.288 57.2494 160.579 56.4732 160.579 55.051C160.579 53.535 161.465 52.6963 162.752 52.6963C163.158 52.685 163.559 52.784 163.913 52.9828L163.611 53.6028C163.356 53.4514 163.063 53.3772 162.767 53.3892C161.934 53.3892 161.408 53.9101 161.408 54.9103C161.56 54.7533 161.745 54.6311 161.949 54.552C162.153 54.4729 162.372 54.4387 162.59 54.4519C162.781 54.4324 162.975 54.4528 163.157 54.512C163.34 54.5712 163.509 54.6678 163.653 54.7957C163.796 54.9236 163.912 55.08 163.991 55.2548C164.071 55.4297 164.114 55.6193 164.116 55.8116ZM163.319 55.8532C163.319 55.3896 162.97 55.0979 162.434 55.0979C162.324 55.0849 162.213 55.0946 162.108 55.1264C162.002 55.1583 161.904 55.2115 161.82 55.2829C161.736 55.3543 161.667 55.4422 161.619 55.5413C161.57 55.6403 161.543 55.7483 161.538 55.8585C161.538 56.2752 161.866 56.6034 162.455 56.6034C162.56 56.6142 162.667 56.603 162.768 56.5704C162.869 56.5378 162.962 56.4845 163.042 56.414C163.121 56.3434 163.185 56.2572 163.229 56.1606C163.273 56.0641 163.297 55.9594 163.299 55.8532H163.319Z" fill="#263238"/>
<path d="M167.852 52.7588V53.311L166.132 57.1869H165.252L166.914 53.4569H165.179V54.2071H164.413V52.7588H167.852Z" fill="#263238"/>
<path d="M172.608 55.9835C172.608 56.7441 172.014 57.1869 170.873 57.1869H168.675V52.7588H170.758C171.8 52.7588 172.389 53.2121 172.389 53.9101C172.398 54.1099 172.349 54.3079 172.248 54.4807C172.148 54.6534 171.999 54.7935 171.821 54.8843C172.057 54.9521 172.263 55.0975 172.406 55.297C172.549 55.4965 172.62 55.7384 172.608 55.9835ZM169.482 53.3788V54.6186H170.644C171.212 54.6186 171.535 54.4206 171.535 54.0143C171.535 53.608 171.212 53.3996 170.644 53.3996L169.482 53.3788ZM171.764 55.8741C171.764 55.4365 171.43 55.2385 170.811 55.2385H169.498V56.5148H170.826C171.446 56.5409 171.78 56.3429 171.78 55.9001L171.764 55.8741Z" fill="#263238"/>
<path d="M124.467 185.386L120.185 185.141L119.55 175.16L123.827 175.41L124.467 185.386Z" fill="#7B858F"/>
<path d="M124.999 182.839H119.789C119.704 182.839 119.622 182.868 119.556 182.921C119.49 182.974 119.443 183.048 119.425 183.13L118.539 186.938C118.518 187.031 118.517 187.127 118.539 187.219C118.56 187.311 118.602 187.397 118.662 187.471C118.722 187.544 118.798 187.603 118.884 187.643C118.97 187.682 119.064 187.701 119.159 187.699C120.842 187.699 122.066 187.574 124.186 187.574C125.488 187.574 129.396 187.709 131.214 187.709C133.032 187.709 133.266 185.933 132.532 185.771C129.234 185.047 126.754 184.052 125.707 183.099C125.512 182.927 125.259 182.834 124.999 182.839Z" fill="#263238"/>
<path opacity="0.2" d="M123.827 175.415L119.544 175.165L119.878 180.307L124.16 180.348L123.827 175.415Z" fill="black"/>
<path d="M125.27 183.432C125.25 183.428 125.232 183.417 125.218 183.402C125.204 183.388 125.195 183.369 125.192 183.349C125.189 183.329 125.193 183.308 125.203 183.289C125.212 183.271 125.226 183.256 125.244 183.245C125.4 183.151 126.806 182.302 127.26 182.542C127.312 182.57 127.355 182.613 127.385 182.664C127.416 182.715 127.432 182.774 127.432 182.833C127.438 182.931 127.423 183.028 127.386 183.119C127.349 183.209 127.291 183.29 127.218 183.354C126.973 183.515 126.682 183.59 126.39 183.568C126.012 183.565 125.637 183.52 125.27 183.432ZM125.567 183.292C126.065 183.459 126.609 183.431 127.088 183.214C127.14 183.168 127.18 183.111 127.205 183.046C127.229 182.982 127.237 182.912 127.228 182.844C127.23 182.82 127.225 182.796 127.214 182.775C127.203 182.754 127.186 182.736 127.166 182.724C127.125 182.706 127.08 182.697 127.036 182.698C126.519 182.801 126.028 183.003 125.587 183.292H125.567Z" fill="#9BA0A7"/>
<path d="M125.27 183.417C125.254 183.407 125.242 183.393 125.234 183.376C125.225 183.36 125.222 183.341 125.223 183.323C125.223 183.271 125.343 182.036 125.848 181.63C125.907 181.579 125.976 181.542 126.05 181.519C126.125 181.497 126.203 181.49 126.28 181.5C126.356 181.501 126.428 181.528 126.486 181.576C126.544 181.624 126.584 181.691 126.598 181.765C126.687 182.245 125.817 183.182 125.374 183.422C125.359 183.427 125.342 183.427 125.327 183.422C125.308 183.426 125.288 183.424 125.27 183.417ZM125.973 181.786C125.669 182.172 125.487 182.64 125.452 183.13C125.9 182.797 126.452 182.088 126.4 181.802C126.4 181.776 126.4 181.719 126.254 181.703H126.207C126.118 181.701 126.032 181.73 125.962 181.786H125.973Z" fill="#9BA0A7"/>
<path d="M102.275 185.745L98.1128 184.73L99.2849 174.8L103.447 175.816L102.275 185.745Z" fill="#7B858F"/>
<path d="M102.838 182.839H97.6284C97.5429 182.839 97.4599 182.867 97.3928 182.92C97.3257 182.973 97.2784 183.047 97.2585 183.13L96.3573 186.938C96.3368 187.031 96.3375 187.126 96.3593 187.218C96.381 187.31 96.4233 187.396 96.483 187.469C96.5426 187.542 96.6181 187.601 96.7037 187.641C96.7893 187.68 96.8828 187.7 96.9772 187.699C98.6598 187.699 99.8893 187.574 102.004 187.574C103.307 187.574 107.214 187.709 109.032 187.709C110.85 187.709 111.084 185.933 110.35 185.771C107.052 185.047 104.578 184.052 103.531 183.099C103.339 182.93 103.093 182.838 102.838 182.839Z" fill="#263238"/>
<path opacity="0.2" d="M103.447 175.821L99.2849 174.806L98.6077 180.52H102.906L103.447 175.821Z" fill="black"/>
<path d="M103.124 183.432C103.105 183.427 103.088 183.417 103.075 183.402C103.062 183.387 103.054 183.369 103.051 183.349C103.048 183.329 103.051 183.308 103.059 183.29C103.068 183.271 103.081 183.256 103.098 183.245C103.255 183.151 104.661 182.302 105.12 182.542C105.172 182.57 105.215 182.612 105.245 182.664C105.274 182.715 105.288 182.774 105.286 182.833C105.295 182.931 105.28 183.029 105.243 183.12C105.206 183.211 105.148 183.291 105.073 183.354C104.828 183.516 104.537 183.591 104.244 183.568C103.867 183.565 103.491 183.52 103.124 183.432ZM103.421 183.292C103.92 183.459 104.463 183.431 104.942 183.214C104.995 183.168 105.035 183.111 105.059 183.046C105.084 182.982 105.092 182.912 105.083 182.844C105.083 182.766 105.052 182.74 105.021 182.724C104.98 182.706 104.935 182.697 104.89 182.698C104.367 182.799 103.868 183.001 103.421 183.292Z" fill="#9BA0A7"/>
<path d="M103.093 183.417C103.078 183.407 103.066 183.393 103.058 183.376C103.051 183.359 103.048 183.341 103.051 183.323C103.051 183.271 103.171 182.036 103.671 181.63C103.73 181.579 103.799 181.542 103.874 181.519C103.948 181.497 104.027 181.49 104.104 181.5C104.18 181.5 104.254 181.526 104.313 181.574C104.372 181.623 104.412 181.69 104.427 181.765C104.51 182.245 103.645 183.182 103.197 183.422C103.182 183.427 103.166 183.427 103.15 183.422C103.131 183.426 103.111 183.424 103.093 183.417ZM103.796 181.786C103.492 182.172 103.31 182.64 103.275 183.13C103.718 182.797 104.27 182.088 104.218 181.802C104.218 181.776 104.218 181.719 104.072 181.703H104.026C103.942 181.704 103.861 181.734 103.796 181.786Z" fill="#9BA0A7"/>
<path d="M115.2 57.614C116.09 57.6058 116.95 57.9349 117.607 58.5351C118.264 59.1353 118.67 59.962 118.742 60.8491C118.826 61.8181 118.904 62.7193 118.951 63.0787C119.164 64.9385 120.878 72.5651 121.206 74.4197L121.665 76.9567C121.701 77.1338 126.025 76.7483 126.025 76.7483L127.697 78.7071C127.348 79.1154 126.976 79.5033 126.582 79.8688C126.192 80.2448 125.776 80.593 125.337 80.9106C124.875 81.2568 124.384 81.5618 123.868 81.8223C123.264 82.1364 122.613 82.3527 121.941 82.4631C121.512 82.5238 121.077 82.5238 120.649 82.4631C120.129 82.384 119.629 82.2072 119.175 81.9421C118.719 81.6714 118.318 81.318 117.992 80.9002C117.604 80.3843 117.309 79.8042 117.122 79.1863L117.054 78.9623L117.007 78.7852L116.804 78.0611C116.664 77.5766 116.539 77.0921 116.419 76.6024C115.94 74.6541 114.09 65.7147 113.814 63.7195C113.673 62.7245 113.543 61.7191 113.46 60.7136C113.418 60.1927 113.382 59.6718 113.35 59.1873C113.319 58.7028 113.304 58.1871 113.298 57.5932L115.2 57.614Z" fill="#9BA0A7"/>
<path opacity="0.6" d="M115.2 57.614C116.09 57.6058 116.95 57.9349 117.607 58.5351C118.264 59.1353 118.67 59.962 118.742 60.8491C118.826 61.8181 118.904 62.7193 118.951 63.0787C119.164 64.9385 120.878 72.5651 121.206 74.4197L121.665 76.9567C121.701 77.1338 126.025 76.7483 126.025 76.7483L127.697 78.7071C127.348 79.1154 126.976 79.5033 126.582 79.8688C126.192 80.2448 125.776 80.593 125.337 80.9106C124.875 81.2568 124.384 81.5618 123.868 81.8223C123.264 82.1364 122.613 82.3527 121.941 82.4631C121.512 82.5238 121.077 82.5238 120.649 82.4631C120.129 82.384 119.629 82.2072 119.175 81.9421C118.719 81.6714 118.318 81.318 117.992 80.9002C117.604 80.3843 117.309 79.8042 117.122 79.1863L117.054 78.9623L117.007 78.7852L116.804 78.0611C116.664 77.5766 116.539 77.0921 116.419 76.6024C115.94 74.6541 114.09 65.7147 113.814 63.7195C113.673 62.7245 113.543 61.7191 113.46 60.7136C113.418 60.1927 113.382 59.6718 113.35 59.1873C113.319 58.7028 113.304 58.1871 113.298 57.5932L115.2 57.614Z" fill="white"/>
<path d="M124.483 76.8525C124.483 76.8525 123.493 79.3478 125.947 80.4158L128.093 79.2697L126.832 76.4983L124.483 76.8525Z" fill="#9BA0A7"/>
<path opacity="0.8" d="M124.483 76.8525C124.483 76.8525 123.493 79.3478 125.947 80.4158L128.093 79.2697L126.832 76.4983L124.483 76.8525Z" fill="white"/>
<path d="M126.661 76.6181L128.791 74.7739L130.833 78.3476C129.9 78.8315 128.893 79.1588 127.854 79.3166C127.01 79.4051 126.661 78.655 126.39 77.9517C126.309 77.7259 126.291 77.4822 126.339 77.247C126.387 77.0119 126.498 76.7944 126.661 76.6181Z" fill="#7B858F"/>
<path d="M131.646 74.6697L133.198 76.7744L130.833 78.3476L128.791 74.7739L131.646 74.6697Z" fill="#7B858F"/>
<path opacity="0.1" d="M121.665 76.9567L118.914 77.5714C118.914 77.5714 120.513 77.3057 120.92 73.8154C120.92 73.6331 120.92 73.0444 120.977 73.2424C121.363 75.2897 121.665 76.9567 121.665 76.9567Z" fill="black"/>
<path d="M134.532 63.7664H121.524V76.7744H134.532V63.7664Z" fill="#263238"/>
<path opacity="0.7" d="M134.532 63.7664H121.524V76.7744H134.532V63.7664Z" fill="white"/>
<path d="M134.532 76.7796H140.33V63.7716H134.532V76.7796Z" fill="#263238"/>
<path opacity="0.6" d="M134.532 76.7796H140.33V63.7716H134.532V76.7796Z" fill="white"/>
<path opacity="0.7" d="M127.656 72.4088H122.154V76.045H127.656V72.4088Z" fill="white"/>
<path d="M123.67 73.1903H123.274V75.2584H123.67V73.1903Z" fill="#263238"/>
<path d="M124.176 73.1903H123.978V75.2584H124.176V73.1903Z" fill="#263238"/>
<path d="M124.921 73.1903H124.374V75.2584H124.921V73.1903Z" fill="#263238"/>
<path d="M125.379 73.1903H125.181V75.2584H125.379V73.1903Z" fill="#263238"/>
<path d="M125.884 73.1903H125.686V75.2584H125.884V73.1903Z" fill="#263238"/>
<path d="M126.536 73.1903H126.14V75.2584H126.536V73.1903Z" fill="#263238"/>
<path d="M140.992 61.5315H135.194V64.4228H140.992V61.5315Z" fill="#263238"/>
<path opacity="0.4" d="M140.992 61.5315H135.194V64.4228H140.992V61.5315Z" fill="white"/>
<path d="M135.194 61.5315H120.862V64.4228H135.194V61.5315Z" fill="#263238"/>
<path opacity="0.5" d="M135.194 61.5315H120.862V64.4228H135.194V61.5315Z" fill="white"/>
<path d="M139.007 61.5315H137.173V65.746H139.007V61.5315Z" fill="#9BA0A7"/>
<path d="M139.007 72.5599H137.173V76.7744H139.007V72.5599Z" fill="#9BA0A7"/>
<g opacity="0.3">
<path opacity="0.3" d="M139.007 61.5315H137.173V65.746H139.007V61.5315Z" fill="white"/>
<path opacity="0.3" d="M139.007 72.5599H137.173V76.7744H139.007V72.5599Z" fill="white"/>
</g>
<path d="M104.359 90.944L114.33 139.355L118.586 179.312L125.358 179.041C125.358 179.041 125.754 158.531 123.764 137.094C121.972 117.741 118.555 96.4608 117.799 90.0272L114.371 86.8025L109.365 87.6204L104.359 90.944Z" fill="#263238"/>
<path d="M97.3574 91.0482L99.2485 143.934L97.3105 179.187L105.047 179.562C105.047 179.562 107.573 162.782 108.86 142.773C110.152 122.597 110.204 100.618 110.516 93.7155L107.511 88.5633H102.64L97.3574 91.0482Z" fill="#263238"/>
<path d="M117.482 83.8592C117.242 82.0567 117.2 80.2959 117.138 78.6081C116.507 61.8389 116.487 61.4794 116.231 58.5517C116.208 58.2963 116.109 58.0536 115.948 57.8543C115.787 57.6549 115.57 57.5079 115.325 57.4317C105.052 53.9778 100.863 55.6657 93.4921 57.5203C93.2106 57.6066 92.969 57.7903 92.8106 58.0384C92.6521 58.2866 92.5872 58.583 92.6273 58.8747C93.1483 63.7976 94.7111 75.8419 95.0653 83.88C95.1174 85.0574 95.0966 87.8913 95.0653 89.4593C95.0611 89.7666 95.1669 90.0653 95.3638 90.3013C95.5606 90.5373 95.8354 90.6951 96.1385 90.7461C98.7432 91.1837 105.281 92.0172 107.276 89.7042C107.496 89.4597 107.801 89.31 108.129 89.2867C108.456 89.2633 108.78 89.3682 109.032 89.5792C109.85 90.246 111.183 90.845 113.314 90.694C115.34 90.5533 116.674 90.3762 117.523 90.2303C117.7 90.202 117.869 90.1369 118.02 90.0394C118.17 89.9418 118.299 89.8139 118.397 89.6638C118.495 89.5137 118.561 89.3447 118.59 89.1678C118.619 88.9908 118.61 88.8098 118.565 88.6362C118.19 87.1776 117.622 84.8959 117.482 83.8592Z" fill="#9BA0A7"/>
<path d="M108.412 56.0095L105.578 57.8745L102.932 57.9891L101.369 56.6294C101.425 55.0417 101.343 53.452 101.124 51.8784C101.014 50.8068 100.758 49.7552 100.363 48.7528H100.634L103.239 48.8049L106.141 48.8622C106.141 48.8622 106.026 49.9405 106.026 51.2741C106.022 51.9355 106.057 52.5964 106.13 53.2537C106.186 53.8714 106.323 54.4792 106.536 55.0614C106.969 56.0877 108.349 56.0043 108.412 56.0095Z" fill="#7B858F"/>
<path d="M108.86 55.7334C108.86 56.0929 108.485 65.2875 107.724 78.3476L100.092 55.8324L100.467 55.7543L104.786 57.8953H106.094L108.532 55.6709H108.568L108.86 55.7334Z" fill="#9BA0A7"/>
<path opacity="0.5" d="M108.86 55.7334C108.86 56.0929 108.485 65.2875 107.724 78.3476L100.092 55.8324L100.467 55.7543L104.786 57.8953H106.094L108.532 55.6709H108.568L108.86 55.7334Z" fill="white"/>
<path d="M101.093 55.6136L105.651 57.9058L103.739 60.4375L100.087 55.8376L101.093 55.6136Z" fill="#9BA0A7"/>
<path d="M108.86 55.723V55.7334L107.349 60.4428L105.541 58.0516L105.432 57.9058L105.505 57.8328L107.933 55.5771L108.521 55.6709L108.558 55.6761L108.86 55.723Z" fill="#9BA0A7"/>
<g opacity="0.8">
<path opacity="0.8" d="M101.093 55.6136L105.651 57.9058L103.739 60.4375L100.087 55.8376L101.093 55.6136Z" fill="white"/>
</g>
<g opacity="0.8">
<path opacity="0.8" d="M108.86 55.723V55.7334L107.349 60.4428L105.541 58.0516L105.432 57.9058L105.505 57.8328L107.933 55.5771L108.521 55.6709L108.558 55.6761L108.86 55.723Z" fill="white"/>
</g>
<path d="M106.172 61.8441C106.178 61.9469 106.153 62.0491 106.101 62.1379C106.049 62.2267 105.972 62.2981 105.879 62.3431C105.787 62.388 105.683 62.4045 105.581 62.3904C105.479 62.3764 105.383 62.3324 105.306 62.2641C105.229 62.1958 105.174 62.1062 105.148 62.0066C105.122 61.9071 105.126 61.802 105.159 61.7046C105.193 61.6073 105.254 61.5221 105.336 61.4597C105.418 61.3974 105.517 61.3608 105.62 61.3544C105.688 61.3502 105.757 61.3595 105.821 61.3818C105.886 61.4042 105.946 61.4391 105.997 61.4846C106.049 61.5301 106.09 61.5853 106.12 61.647C106.15 61.7086 106.168 61.7756 106.172 61.8441Z" fill="white"/>
<path d="M107.089 68.7258C107.089 68.8587 107.038 68.9867 106.947 69.0835C106.856 69.1803 106.732 69.2387 106.599 69.2467C106.531 69.2509 106.462 69.2416 106.397 69.2193C106.332 69.1969 106.273 69.162 106.221 69.1165C106.17 69.071 106.128 69.0158 106.098 68.9542C106.068 68.8925 106.051 68.8255 106.047 68.757C106.04 68.6197 106.087 68.4851 106.179 68.3826C106.271 68.2801 106.399 68.2181 106.536 68.21C106.607 68.2058 106.678 68.2159 106.744 68.2399C106.811 68.2638 106.872 68.3011 106.923 68.3493C106.975 68.3976 107.016 68.4558 107.045 68.5205C107.073 68.5853 107.088 68.6551 107.089 68.7258Z" fill="white"/>
<path opacity="0.2" d="M106.161 53.2641C105.044 53.0746 103.967 52.6995 102.973 52.1545C102.352 51.8018 101.821 51.312 101.418 50.7225C101.015 50.133 100.753 49.4593 100.65 48.7528C100.608 48.5067 100.587 48.2575 100.587 48.0078L103.27 48.8049L105.812 49.5602L106.057 51.2741C106.053 51.9389 106.088 52.6034 106.161 53.2641Z" fill="black"/>
<path d="M98.7328 43.0484C99.1443 46.8774 99.2537 48.4975 101.265 50.3729C104.317 53.1964 108.922 51.8524 109.662 47.9818C110.324 44.5019 109.532 38.8132 105.708 37.4848C104.867 37.1837 103.962 37.1027 103.08 37.2494C102.199 37.3961 101.369 37.7657 100.67 38.323C99.9715 38.8804 99.4267 39.607 99.0877 40.434C98.7486 41.261 98.6264 42.161 98.7328 43.0484Z" fill="#7B858F"/>
<path d="M105 43.9288C105.052 44.2362 105.255 44.4498 105.453 44.4498C105.651 44.4498 105.781 44.1372 105.734 43.8299C105.687 43.5225 105.484 43.3089 105.281 43.3089C105.078 43.3089 104.953 43.6319 105 43.9288Z" fill="#263238"/>
<path d="M108.49 43.3975C108.537 43.71 108.74 43.9184 108.943 43.9184C109.146 43.9184 109.271 43.6059 109.225 43.2985C109.178 42.9911 108.969 42.7775 108.771 42.7775C108.573 42.7775 108.443 43.0849 108.49 43.3975Z" fill="#263238"/>
<path d="M107.146 43.7569C107.645 44.6472 108.235 45.4835 108.907 46.2522C108.751 46.3706 108.572 46.4549 108.382 46.4997C108.192 46.5446 107.994 46.549 107.802 46.5127L107.146 43.7569Z" fill="#7B858F"/>
<path d="M103.432 43.2985C103.47 43.3021 103.509 43.2928 103.542 43.2721C103.575 43.2514 103.6 43.2204 103.614 43.1839C103.755 42.9208 103.95 42.6897 104.185 42.505C104.419 42.3204 104.69 42.1862 104.979 42.1107C105.027 42.0996 105.069 42.0697 105.095 42.0278C105.122 41.9858 105.13 41.9351 105.12 41.8867C105.107 41.8405 105.078 41.8007 105.037 41.7756C104.996 41.7504 104.948 41.7417 104.901 41.7513C104.553 41.8382 104.227 41.9991 103.947 42.2229C103.666 42.4467 103.437 42.7283 103.275 43.0484C103.267 43.071 103.263 43.095 103.264 43.119C103.265 43.143 103.271 43.1666 103.281 43.1884C103.291 43.2102 103.306 43.2298 103.324 43.246C103.341 43.2622 103.362 43.2747 103.385 43.2829C103.391 43.2885 103.399 43.2928 103.407 43.2955C103.415 43.2982 103.423 43.2992 103.432 43.2985Z" fill="#263238"/>
<path d="M109.313 41.7669C109.346 41.7699 109.379 41.7637 109.408 41.7489C109.438 41.7342 109.463 41.7116 109.48 41.6836C109.493 41.6635 109.503 41.6408 109.508 41.6171C109.512 41.5933 109.512 41.5688 109.507 41.545C109.503 41.5212 109.493 41.4986 109.479 41.4786C109.466 41.4586 109.448 41.4415 109.428 41.4283C109.186 41.2569 108.907 41.1478 108.613 41.1105C108.32 41.0733 108.021 41.1091 107.745 41.2147C107.703 41.2321 107.669 41.2651 107.651 41.3069C107.632 41.3486 107.631 41.3958 107.646 41.4387C107.665 41.4816 107.701 41.5153 107.744 41.5327C107.788 41.5502 107.837 41.5501 107.88 41.5325C108.099 41.4578 108.331 41.4358 108.559 41.4684C108.788 41.501 109.005 41.5873 109.193 41.72C109.226 41.7493 109.269 41.7659 109.313 41.7669Z" fill="#263238"/>
<path d="M106.969 47.8828C106.59 47.8866 106.215 47.8144 105.865 47.6703C105.515 47.5262 105.198 47.3132 104.932 47.0441C104.915 47.0257 104.905 47.0015 104.905 46.9764C104.905 46.9512 104.915 46.927 104.932 46.9086C104.941 46.8995 104.951 46.8922 104.963 46.8873C104.975 46.8823 104.987 46.8797 105 46.8797C105.012 46.8797 105.025 46.8823 105.037 46.8873C105.048 46.8922 105.059 46.8995 105.067 46.9086C105.359 47.1977 105.713 47.4158 106.102 47.5459C106.492 47.676 106.906 47.7146 107.313 47.6588C107.338 47.657 107.363 47.6645 107.383 47.6799C107.403 47.6952 107.417 47.7173 107.422 47.7421C107.424 47.7549 107.422 47.7678 107.419 47.78C107.415 47.7923 107.409 47.8036 107.4 47.8134C107.392 47.8232 107.382 47.8311 107.37 47.8368C107.359 47.8425 107.346 47.8457 107.334 47.8463C107.213 47.8655 107.091 47.8777 106.969 47.8828Z" fill="#263238"/>
<path d="M100.811 49.9301C99.9603 48.7222 99.5277 47.2692 99.5795 45.7925C99.6312 44.3159 100.164 42.8967 101.098 41.7513C102.192 40.3083 101.145 40.1311 101.145 40.1311C109.365 39.8811 108.959 37.2451 107.87 35.5885C107.562 35.1121 107.147 34.7134 106.659 34.4233C106.171 34.1333 105.623 33.9598 105.057 33.9163H105.015C104.575 33.8973 104.145 34.0495 103.815 34.3408C103.485 34.6322 103.28 35.0402 103.244 35.4791V35.5104C103.244 35.5104 96.1489 34.432 96.9928 43.0589C97.3106 46.4554 100.811 49.9301 100.811 49.9301Z" fill="#263238"/>
<path d="M97.8263 46.0491C98.0991 46.7245 98.6268 47.2653 99.2954 47.5546C100.191 47.9193 100.759 47.1483 100.608 46.2366C100.467 45.4187 99.8371 44.2414 98.8942 44.2414C98.5653 44.2536 98.2546 44.395 98.0293 44.635C97.804 44.8749 97.6824 45.1939 97.6908 45.5229C97.6962 45.7062 97.7425 45.886 97.8263 46.0491Z" fill="#7B858F"/>
<path opacity="0.6" d="M115.314 66.7983L115.46 69.6062L110.824 69.8458L110.678 67.0379L112.736 66.9285C112.59 66.8295 112.6 66.6159 112.59 66.4076C112.59 66.0637 112.668 65.8033 112.939 65.7876C113.21 65.772 113.314 66.0585 113.335 66.4024C113.335 66.6264 113.392 66.8035 113.257 66.9233L115.314 66.7983Z" fill="white"/>
<path d="M114.705 67.0679L111.271 67.2472C111.084 67.257 110.941 67.4163 110.951 67.6031L111.032 69.169C111.042 69.3557 111.202 69.4992 111.388 69.4895L114.822 69.3101C115.009 69.3004 115.152 69.1411 115.142 68.9543L115.061 67.3884C115.051 67.2016 114.892 67.0582 114.705 67.0679Z" fill="white"/>
<path d="M113.132 66.1627C113.132 66.2111 113.112 66.2575 113.078 66.2917C113.044 66.3258 112.998 66.3451 112.949 66.3451C112.901 66.3451 112.855 66.3258 112.82 66.2917C112.786 66.2575 112.767 66.2111 112.767 66.1627C112.765 66.1147 112.782 66.0679 112.814 66.032C112.846 65.9962 112.891 65.974 112.939 65.97C112.964 65.9693 112.99 65.9738 113.014 65.9832C113.037 65.9926 113.059 66.0068 113.077 66.0248C113.095 66.0429 113.109 66.0644 113.118 66.0881C113.128 66.1118 113.132 66.1372 113.132 66.1627Z" fill="#263238"/>
<path opacity="0.2" d="M94.7579 69.1165L94.5444 77.0505L93.4087 66.0221L94.7579 69.1165Z" fill="black"/>
<path d="M113.34 76.5087L112.975 82.312L113.632 82.7861L110.037 83.3643L111.512 76.3941L113.34 76.5087Z" fill="white"/>
<path opacity="0.5" d="M111.512 76.3941L113.34 76.5087L113.278 77.5089C112.608 77.5838 111.935 77.6116 111.261 77.5922L111.512 76.3941Z" fill="black"/>
<path d="M113.366 73.2319C114.688 73.0731 116.02 73.0139 117.351 73.0548L117.841 76.0919C116.561 76.425 115.259 76.6686 113.944 76.8212C110.991 77.2953 108.464 76.8785 108.308 75.8887C108.151 74.899 110.412 73.7112 113.366 73.2319Z" fill="#263238"/>
<path d="M113.366 73.2319C114.688 73.0731 116.02 73.0139 117.351 73.0548L117.841 76.0919C116.561 76.425 115.259 76.6686 113.944 76.8212C110.991 77.2953 108.464 76.8785 108.308 75.8887C108.151 74.899 110.412 73.7112 113.366 73.2319Z" fill="white"/>
<path d="M116.862 73.0444C117.028 73.0444 117.195 73.0444 117.351 73.0444L117.841 76.0815C117.695 76.1388 117.539 76.1909 117.377 76.243L116.862 73.0444Z" fill="#263238"/>
<path d="M107.432 79.0613C107.432 79.0613 109.792 78.431 110.855 78.1236C113.835 77.2745 113.95 78.7227 114.022 79.2176C114.117 79.6817 114.067 80.1634 113.881 80.5989C113.695 81.0344 113.381 81.4029 112.981 81.6556C112.053 82.2495 107.459 81.5462 107.459 81.5462L107.432 79.0613Z" fill="#7B858F"/>
<path d="M104.39 79.0509C105.542 78.6985 106.745 78.5435 107.948 78.5924C107.948 78.5924 107.167 80.5877 108.334 82.0671L104.734 82.536L104.39 79.0509Z" fill="#9BA0A7"/>
<path opacity="0.8" d="M104.39 79.0509C105.542 78.6985 106.745 78.5435 107.948 78.5924C107.948 78.5924 107.167 80.5877 108.334 82.0671L104.734 82.536L104.39 79.0509Z" fill="white"/>
<path d="M93.5389 57.7443C93.5389 57.7443 88.4597 57.7443 88.6316 74.6749C88.7463 85.8127 92.6221 83.7863 97.5971 83.4685L106.354 82.6506C106.354 82.6506 105.453 80.2543 106.198 78.332C106.198 78.332 101.884 79.1811 94.8257 78.332C94.8257 78.332 93.8255 70.0542 94.6954 68.3715C94.6954 68.3872 95.779 60.8699 93.5389 57.7443Z" fill="#9BA0A7"/>
<path opacity="0.6" d="M93.5389 57.7443C93.5389 57.7443 88.4597 57.7443 88.6316 74.6749C88.7463 85.8127 92.6221 83.7863 97.5971 83.4685L106.354 82.6506C106.354 82.6506 105.453 80.2543 106.198 78.332C106.198 78.332 101.884 79.1811 94.8257 78.332C94.8257 78.332 93.8255 70.0542 94.6954 68.3715C94.6954 68.3872 95.779 60.8699 93.5389 57.7443Z" fill="white"/>
<path opacity="0.1" d="M111.866 128.306L110.517 104.733L109.157 116.517L111.866 128.306Z" fill="black"/>
<path d="M200.905 112.584H86.2509V187.866H200.905V112.584Z" fill="#9BA0A7"/>
<g opacity="0.4">
<path opacity="0.4" d="M200.905 112.584H86.2509V187.866H200.905V112.584Z" fill="white"/>
</g>
<path d="M201.442 111.954H85.4383C84.7219 111.954 84.1411 112.534 84.1411 113.251V117.101C84.1411 117.817 84.7219 118.398 85.4383 118.398H201.442C202.158 118.398 202.739 117.817 202.739 117.101V113.251C202.739 112.534 202.158 111.954 201.442 111.954Z" fill="#9BA0A7"/>
<path d="M145.878 101.722H171.493L173.327 80.8117H147.707L145.878 101.722Z" fill="#9BA0A7"/>
<path opacity="0.2" d="M148.384 101.722H171.524L173.176 82.8329H150.041L148.384 101.722Z" fill="black"/>
<path d="M157.042 104.494H164.59V96.8515H157.021L157.042 104.494Z" fill="#263238"/>
<path d="M157.021 96.8515H164.59V89.0686H157.021V96.8515Z" fill="#263238"/>
<path opacity="0.1" d="M157.021 96.8515H164.59V89.0686H157.021V96.8515Z" fill="white"/>
<path opacity="0.2" d="M163.674 89.0686H158.089C157.667 89.0686 157.323 89.2145 157.323 89.3968C157.323 89.5792 157.667 89.725 158.089 89.725H163.674C164.09 89.725 164.434 89.5792 164.434 89.3968C164.434 89.2145 164.09 89.0686 163.674 89.0686Z" fill="white"/>
<path d="M140.71 111.797H175.129V104.494H147.967L140.71 108.234V111.797Z" fill="#9BA0A7"/>
<path opacity="0.2" d="M147.967 111.792H175.134V104.489H147.967V111.792Z" fill="black"/>
<path d="M167.596 84.9532H170.659L171.806 71.8254H168.748L167.596 84.9532Z" fill="#9BA0A7"/>
<path opacity="0.2" d="M167.596 84.9532H170.659L171.806 71.8254H168.748L167.596 84.9532Z" fill="black"/>
<path d="M157.553 74.8833L179.427 74.6854L180.162 66.3086L158.287 66.5065L157.553 74.8833Z" fill="#9BA0A7"/>
<path d="M159.016 73.3049H178.057L178.588 67.2411L159.527 67.4495L159.016 73.3049Z" fill="#263238"/>
<path d="M180.161 66.3086L179.427 74.6854L180.75 73.8831L181.229 67.7881L180.161 66.3086Z" fill="#9BA0A7"/>
<g opacity="0.2">
<path opacity="0.2" d="M180.161 66.3086L179.427 74.6854L180.75 73.8831L181.229 67.7881L180.161 66.3086Z" fill="black"/>
</g>
<path d="M88.1159 159.479C88.1159 159.479 106.583 136.037 86.5895 156.625C86.5895 156.625 90.3872 133.797 82.9846 157.531C82.9846 157.531 77.9835 135.464 79.7808 160.782C79.7808 160.782 70.6226 139.543 78.5305 165.762C78.5305 165.762 109.084 175.082 86.1363 165.642C86.1363 165.642 117.429 163.933 88.5691 162.871C88.5691 162.871 119.972 148.305 88.1159 159.479Z" fill="#9BA0A7"/>
<path opacity="0.1" d="M88.1159 159.479C88.1159 159.479 106.583 136.037 86.5895 156.625C86.5895 156.625 90.3872 133.797 82.9846 157.531C82.9846 157.531 77.9835 135.464 79.7808 160.782C79.7808 160.782 70.6226 139.543 78.5305 165.762C78.5305 165.762 109.084 175.082 86.1363 165.642C86.1363 165.642 117.429 163.933 88.5691 162.871C88.5691 162.871 119.972 148.305 88.1159 159.479Z" fill="black"/>
<path d="M72.248 175.316C72.2292 175.321 72.2094 175.321 72.1907 175.316C72.1412 175.301 72.0998 175.266 72.0755 175.22C72.0511 175.175 72.0457 175.121 72.0604 175.071C73.6232 170.185 77.4105 166.101 80.3278 163.538C80.3458 163.519 80.3672 163.505 80.3909 163.494C80.4146 163.484 80.4401 163.479 80.4658 163.479C80.4916 163.479 80.5171 163.484 80.5408 163.494C80.5645 163.505 80.5859 163.519 80.6039 163.538C80.6222 163.555 80.6367 163.576 80.6467 163.599C80.6566 163.623 80.6617 163.648 80.6617 163.673C80.6617 163.698 80.6566 163.723 80.6467 163.747C80.6367 163.77 80.6222 163.791 80.6039 163.808C77.7283 166.345 73.9775 170.367 72.4563 175.17C72.4443 175.215 72.4168 175.254 72.3787 175.281C72.3406 175.308 72.2943 175.32 72.248 175.316Z" fill="#263238"/>
<path d="M59.6307 172.873H80.8279C81.1769 172.873 81.4583 173.331 81.4583 173.915C81.4583 174.498 81.1769 174.957 80.8279 174.957H80.3695L78.9056 183.813C78.5566 185.896 77.3845 187.376 76.0404 187.376H64.413C63.0741 187.376 61.8968 185.912 61.553 183.813L60.0839 174.957H59.6307C59.2817 174.957 59.0004 174.498 59.0004 173.915C59.0004 173.331 59.2765 172.873 59.6307 172.873Z" fill="#263238"/>
<path d="M76.0352 187.595H64.4129C62.9751 187.595 61.7197 186.058 61.3602 183.865L59.9172 175.139H59.6307C59.167 175.139 58.8024 174.618 58.8024 173.92C58.8024 173.222 59.167 172.701 59.6307 172.701H80.8279C81.2915 172.701 81.6562 173.222 81.6562 173.92C81.6562 174.618 81.2915 175.139 80.8279 175.139H80.5361L79.0983 183.865C78.7285 186.058 77.473 187.595 76.0352 187.595ZM59.6307 173.092C59.4275 173.092 59.1931 173.43 59.1931 173.92C59.1931 174.41 59.4275 174.748 59.6307 174.748H60.0891C60.135 174.749 60.1793 174.765 60.2144 174.795C60.2496 174.824 60.2734 174.865 60.2818 174.91L61.7457 183.813C62.0739 185.813 63.1731 187.214 64.4129 187.214H76.0352C77.275 187.214 78.3742 185.813 78.7076 183.813L80.1715 174.92C80.1799 174.875 80.2038 174.834 80.2389 174.805C80.2741 174.775 80.3184 174.759 80.3642 174.759H80.8227C81.031 174.759 81.2603 174.42 81.2603 173.93C81.2603 173.441 81.031 173.102 80.8227 173.102L59.6307 173.092Z" fill="#263238"/>
<path d="M77.1761 152.827C77.1761 152.827 88.3191 119.32 74.3317 150.269C74.3317 150.269 69.3932 123.331 70.6851 152.723C70.6851 152.723 56.2602 130.166 68.4242 157.625C68.4242 157.625 49.7067 137.662 69.0337 163.673C69.0337 163.673 106.787 161.782 77.4522 160.49C77.4522 160.49 111.6 146.018 79.0515 156.427C79.0463 156.427 108.151 127.603 77.1761 152.827Z" fill="#9BA0A7"/>
<path d="M64.5849 175.316H64.538C64.5133 175.31 64.4901 175.299 64.4696 175.284C64.4492 175.269 64.432 175.25 64.4189 175.228C64.4058 175.206 64.3972 175.182 64.3935 175.157C64.3898 175.132 64.3911 175.106 64.3973 175.082C67.0802 164.199 74.5661 153.572 74.6443 153.463C74.6588 153.441 74.6775 153.424 74.699 153.41C74.7206 153.396 74.7447 153.387 74.7699 153.382C74.7951 153.378 74.8209 153.379 74.8459 153.384C74.8708 153.39 74.8944 153.401 74.9152 153.416C74.9364 153.431 74.9544 153.45 74.9683 153.472C74.9821 153.494 74.9915 153.518 74.9958 153.544C75.0002 153.57 74.9994 153.596 74.9936 153.621C74.9878 153.647 74.9771 153.671 74.9621 153.692C74.8839 153.796 67.4396 164.371 64.7724 175.175C64.7618 175.217 64.7374 175.253 64.7033 175.279C64.6692 175.304 64.6274 175.317 64.5849 175.316Z" fill="#263238"/>
<path d="M58.5888 154.395C58.5888 154.395 32.3176 133.703 55.3902 156.109C55.3902 156.109 29.8119 151.853 56.4321 160.151C56.4321 160.151 31.7029 165.752 60.0787 163.736C60.0787 163.736 36.282 173.998 65.6632 165.142C65.6632 165.142 76.1081 130.9 65.5278 156.619C65.5278 156.619 63.6159 121.544 62.4282 153.89C62.3865 153.89 46.0861 118.695 58.5888 154.395Z" fill="#9BA0A7"/>
<path opacity="0.3" d="M58.5888 154.395C58.5888 154.395 32.3176 133.703 55.3902 156.109C55.3902 156.109 29.8119 151.853 56.4321 160.151C56.4321 160.151 31.7029 165.752 60.0787 163.736C60.0787 163.736 36.282 173.998 65.6632 165.142C65.6632 165.142 76.1081 130.9 65.5278 156.619C65.5278 156.619 63.6159 121.544 62.4282 153.89C62.3865 153.89 46.0861 118.695 58.5888 154.395Z" fill="white"/>
<path d="M70.9768 176.822C70.9347 176.821 70.8937 176.807 70.86 176.782C70.8263 176.757 70.8015 176.721 70.7893 176.681C66.1529 161.188 57.9272 157.229 57.849 157.192C57.8025 157.17 57.7663 157.13 57.7479 157.082C57.7295 157.033 57.7303 156.98 57.7501 156.932C57.7726 156.885 57.8125 156.85 57.8612 156.832C57.9099 156.814 57.9635 156.817 58.0105 156.838C58.0939 156.875 66.4707 160.891 71.1644 176.566C71.1791 176.616 71.1736 176.67 71.1493 176.715C71.1249 176.761 71.0836 176.796 71.0341 176.811L70.9768 176.822Z" fill="#263238"/>
</svg>
