<svg width="146" height="147" viewBox="0 0 146 147" fill="none" xmlns="http://www.w3.org/2000/svg">
<g clip-path="url(#clip0)">
<path d="M141.723 0.5H12.832C10.4698 0.5 8.55469 2.41511 8.55469 4.77734V142.223C8.55469 144.585 10.4698 146.5 12.832 146.5H141.723C144.085 146.5 146 144.585 146 142.223V4.77734C146 2.41511 144.085 0.5 141.723 0.5Z" fill="#7C83E7"/>
<path d="M141.723 0.5H81.5547V146.5H141.723C144.085 146.5 146 144.585 146 142.223V4.77734C146 2.41511 144.085 0.5 141.723 0.5Z" fill="#5F69E2"/>
<path d="M124.613 17.6094H38.4961C36.1339 17.6094 34.2188 19.5245 34.2188 21.8867V125.113C34.2188 127.476 36.1339 129.391 38.4961 129.391H124.613C126.976 129.391 128.891 127.476 128.891 125.113V21.8867C128.891 19.5245 126.976 17.6094 124.613 17.6094Z" fill="#F0F7FF"/>
<path d="M124.613 17.6094H81.5547V129.391H124.613C126.976 129.391 128.891 127.476 128.891 125.113V21.8867C128.891 19.5245 126.976 17.6094 124.613 17.6094Z" fill="#DFE7F4"/>
<path d="M21.3867 43.5586H4.27734C1.91511 43.5586 0 41.6435 0 39.2812C0 36.919 1.91511 35.0039 4.27734 35.0039H21.3867C23.749 35.0039 25.6641 36.919 25.6641 39.2812C25.6641 41.6435 23.749 43.5586 21.3867 43.5586Z" fill="#F0F7FF"/>
<path d="M21.3867 77.7773H4.27734C1.91511 77.7773 0 75.8622 0 73.5C0 71.1378 1.91511 69.2227 4.27734 69.2227H21.3867C23.749 69.2227 25.6641 71.1378 25.6641 73.5C25.6641 75.8622 23.749 77.7773 21.3867 77.7773Z" fill="#F0F7FF"/>
<path d="M21.3867 111.996H4.27734C1.91511 111.996 0 110.081 0 107.719C0 105.357 1.91511 103.441 4.27734 103.441H21.3867C23.749 103.441 25.6641 105.357 25.6641 107.719C25.6641 110.081 23.749 111.996 21.3867 111.996Z" fill="#F0F7FF"/>
<path d="M96.5254 107.719H66.584C64.2217 107.719 62.3066 105.804 62.3066 103.441C62.3066 101.079 64.2217 99.1641 66.584 99.1641H96.5254C98.8876 99.1641 100.803 101.079 100.803 103.441C100.803 105.804 98.8876 107.719 96.5254 107.719Z" fill="#7C83E7"/>
<path d="M96.5254 99.1641H81.5547V107.719H96.5254C98.8876 107.719 100.803 105.804 100.803 103.441C100.803 101.079 98.8876 99.1641 96.5254 99.1641Z" fill="#5F69E2"/>
<path d="M81.5547 60.668C70.9412 60.668 62.3066 69.3025 62.3066 79.916V86.332C62.3066 88.6943 64.2217 90.6094 66.584 90.6094H96.5254C98.8876 90.6094 100.803 88.6943 100.803 86.332V79.916C100.803 69.3025 92.1682 60.668 81.5547 60.668Z" fill="#61729B"/>
<path d="M81.5547 60.668V90.6094H96.5254C98.8876 90.6094 100.803 88.6943 100.803 86.332V79.916C100.803 69.3025 92.1682 60.668 81.5547 60.668Z" fill="#47568C"/>
<path d="M81.5547 69.2227C89.8228 69.2227 96.5254 62.52 96.5254 54.252C96.5254 45.9839 89.8228 39.2812 81.5547 39.2812C73.2866 39.2812 66.584 45.9839 66.584 54.252C66.584 62.52 73.2866 69.2227 81.5547 69.2227Z" fill="#FFD9C0"/>
<path d="M81.5547 39.2812V69.2227C89.8097 69.2227 96.5254 62.5069 96.5254 54.252C96.5254 45.997 89.8097 39.2812 81.5547 39.2812Z" fill="#FBCEAF"/>
<path d="M107.168 52.5V43.248H104.36V40.944H107.168V37.992H104.36V35.688H107.168V26.796H110.912L114.332 35.688H118.58V26.796H121.424V35.688H124.232V37.992H121.424V40.944H124.232V43.248H121.424V52.5H117.644L114.224 43.248H109.976V52.5H107.168ZM109.904 35.688H111.416L109.904 31.224H109.76L109.904 35.688ZM109.976 40.944H113.36L112.28 37.992H109.904L109.976 40.944ZM116.24 40.944H118.652L118.58 37.992H115.16L116.24 40.944ZM118.58 47.424H118.724L118.616 43.248H117.104L118.58 47.424Z" fill="#7C83E7"/>
</g>
<defs>
<clipPath id="clip0">
<rect width="146" height="146" fill="white" transform="translate(0 0.5)"/>
</clipPath>
</defs>
</svg>
