<svg width="228" height="170" viewBox="0 0 228 170" fill="none" xmlns="http://www.w3.org/2000/svg">
<path d="M227.332 148.974H0.667969V149.087H227.332V148.974Z" fill="#EBEBEB"/>
<path d="M204.62 156.268H189.606V156.381H204.62V156.268Z" fill="#EBEBEB"/>
<path d="M150.819 157.501H146.88V157.614H150.819V157.501Z" fill="#EBEBEB"/>
<path d="M189.153 152.061H180.454V152.174H189.153V152.061Z" fill="#EBEBEB"/>
<path d="M44.0289 152.822H24.4497V152.936H44.0289V152.822Z" fill="#EBEBEB"/>
<path d="M50.9374 152.822H48.0679V152.936H50.9374V152.822Z" fill="#EBEBEB"/>
<path d="M102.735 154.735H60.2671V154.849H102.735V154.735Z" fill="#EBEBEB"/>
<path d="M108.107 128.755H20.5737C19.888 128.754 19.2308 128.481 18.7463 127.995C18.2618 127.51 17.9897 126.852 17.9897 126.167V3.11988C17.9957 2.43808 18.2704 1.78618 18.7543 1.30576C19.2381 0.825337 19.8919 0.555207 20.5737 0.554039H108.107C108.793 0.554039 109.452 0.826756 109.937 1.31219C110.423 1.79763 110.695 2.45603 110.695 3.14254V126.167C110.695 126.853 110.423 127.512 109.937 127.997C109.452 128.483 108.793 128.755 108.107 128.755ZM20.5737 0.644705C19.918 0.645906 19.2896 0.907211 18.8264 1.37127C18.3632 1.83532 18.1031 2.4642 18.1031 3.11988V126.167C18.1031 126.822 18.3632 127.451 18.8264 127.915C19.2896 128.379 19.918 128.641 20.5737 128.642H108.107C108.763 128.641 109.392 128.38 109.856 127.916C110.32 127.452 110.581 126.823 110.582 126.167V3.11988C110.581 2.46379 110.32 1.83491 109.856 1.37099C109.392 0.907064 108.763 0.645903 108.107 0.644705H20.5737Z" fill="#EBEBEB"/>
<path d="M206.166 128.755H118.629C117.942 128.754 117.285 128.481 116.8 127.996C116.314 127.511 116.041 126.853 116.04 126.167V3.11988C116.047 2.43767 116.323 1.78577 116.807 1.30547C117.292 0.825179 117.946 0.555194 118.629 0.554039H206.166C206.847 0.556398 207.5 0.827056 207.983 1.30735C208.466 1.78764 208.74 2.43887 208.746 3.11988V126.167C208.746 126.852 208.474 127.509 207.991 127.994C207.507 128.479 206.851 128.753 206.166 128.755ZM118.629 0.644705C117.972 0.645903 117.344 0.907064 116.88 1.37099C116.416 1.83491 116.155 2.46379 116.153 3.11988V126.167C116.155 126.823 116.416 127.452 116.88 127.916C117.344 128.38 117.972 128.641 118.629 128.642H206.166C206.822 128.641 207.451 128.38 207.915 127.916C208.379 127.452 208.64 126.823 208.641 126.167V3.11988C208.64 2.46379 208.379 1.83491 207.915 1.37099C207.451 0.907064 206.822 0.645903 206.166 0.644705H118.629Z" fill="#EBEBEB"/>
<path d="M102.707 27.3049L107.39 26.6204L102.707 25.9359L103.863 24.1044L102.032 25.2604L101.347 20.5821L100.663 25.2604L98.8314 24.1044L99.992 25.9359L95.3091 26.6204L99.992 27.3049L98.8314 29.1364L100.663 27.9759L101.347 32.6587L102.032 27.9759L103.863 29.1364L102.707 27.3049Z" fill="#F5F5F5"/>
<path d="M149.781 39.8032L154.459 39.1187L149.781 38.4341L150.937 36.6027L149.106 37.7587L148.421 33.0758L147.737 37.7587L145.905 36.6027L147.066 38.4341L142.383 39.1187L147.066 39.8032L145.905 41.6346L147.737 40.4741L148.421 45.157L149.106 40.4741L150.937 41.6346L149.781 39.8032Z" fill="#F5F5F5"/>
<path d="M83.9441 60.1123L88.627 59.4278L83.9441 58.7387L85.1046 56.9118L83.2731 58.0678L82.5886 53.3849L81.9041 58.0678L80.0727 56.9118L81.2332 58.7387L76.5503 59.4278L81.2332 60.1123L80.0727 61.9437L81.9041 60.7832L82.5886 65.4661L83.2731 60.7832L85.1046 61.9437L83.9441 60.1123Z" fill="#F5F5F5"/>
<path d="M44.3646 60.1123L49.043 59.4278L44.3646 58.7387L45.5206 56.9118L43.6892 58.0678L43.0046 53.3849L42.3201 58.0678L40.4887 56.9118L41.6492 58.7387L36.9663 59.4278L41.6492 60.1123L40.4887 61.9437L42.3201 60.7832L43.0046 65.4661L43.6892 60.7832L45.5206 61.9437L44.3646 60.1123Z" fill="#F5F5F5"/>
<path d="M66.786 87.9874L71.4689 87.3029L66.786 86.6139L67.9465 84.7869L66.1151 85.9429L65.4306 81.26L64.7415 85.9429L62.9146 84.7869L64.0706 86.6139L59.3877 87.3029L64.0706 87.9874L62.9146 89.8189L64.7415 88.6584L65.4306 93.3412L66.1151 88.6584L67.9465 89.8189L66.786 87.9874Z" fill="#F5F5F5"/>
<path d="M158.771 72.9777L163.454 72.2932L158.771 71.6087L159.931 69.7772L158.1 70.9378L157.415 66.2549L156.731 70.9378L154.899 69.7772L156.055 71.6087L151.377 72.2932L156.055 72.9777L154.899 74.8092L156.731 73.6532L157.415 78.3361L158.1 73.6532L159.931 74.8092L158.771 72.9777Z" fill="#F5F5F5"/>
<path d="M191.8 114.471L196.479 113.782L191.8 113.097L192.956 111.27L191.125 112.426L190.44 107.743L189.756 112.426L187.924 111.27L189.085 113.097L184.402 113.782L189.085 114.471L187.924 116.298L189.756 115.142L190.44 119.825L191.125 115.142L192.956 116.298L191.8 114.471Z" fill="#F5F5F5"/>
<path d="M152.732 113.029L157.415 112.345L152.732 111.656L153.893 109.829L152.061 110.985L151.377 106.302L150.688 110.985L148.861 109.829L150.017 111.656L145.334 112.345L150.017 113.029L148.861 114.861L150.688 113.7L151.377 118.383L152.061 113.7L153.893 114.861L152.732 113.029Z" fill="#F5F5F5"/>
<path d="M66.786 122.785L71.4689 122.096L66.786 121.411L67.9465 119.58L66.1151 120.74L65.4306 116.058L64.7415 120.74L62.9146 119.58L64.0706 121.411L59.3877 122.096L64.0706 122.785L62.9146 124.612L64.7415 123.456L65.4306 128.139L66.1151 123.456L67.9465 124.612L66.786 122.785Z" fill="#F5F5F5"/>
<path d="M117.667 101.501L122.35 100.817L117.667 100.132L118.828 98.3007L116.996 99.4566L116.312 94.7783L115.627 99.4566L113.796 98.3007L114.952 100.132L110.269 100.817L114.952 101.501L113.796 103.333L115.627 102.172L116.312 106.855L116.996 102.172L118.828 103.333L117.667 101.501Z" fill="#F5F5F5"/>
<path d="M91.1024 151.925L95.7853 151.24L91.1024 150.556L92.2584 148.724L90.427 149.88L89.7424 145.202L89.0579 149.88L87.2265 148.724L88.387 150.556L83.7041 151.24L88.387 151.925L87.2265 153.756L89.0579 152.596L89.7424 157.279L90.427 152.596L92.2584 153.756L91.1024 151.925Z" fill="#F5F5F5"/>
<path d="M143.194 148.869L147.877 148.185L143.194 147.5L144.35 145.669L142.523 146.829L141.834 142.147L141.15 146.829L139.318 145.669L140.479 147.5L135.796 148.185L140.479 148.869L139.318 150.701L141.15 149.54L141.834 154.223L142.523 149.54L144.35 150.701L143.194 148.869Z" fill="#F5F5F5"/>
<path d="M143.784 64.3418C141 60.2211 139.808 53.7566 137.256 51.1953C139.232 49.6785 141.329 48.3261 143.525 47.1516C145.089 51.6532 146.019 58.639 150.053 60.2982C148.077 61.8149 145.981 63.1674 143.784 64.3418Z" fill="#EBEBEB"/>
<path d="M148.498 61.0688C148.108 60.8104 148.208 60.3027 148.684 59.9854C145.892 57.7414 144.89 52.519 143.625 48.6114C143.522 48.6581 143.41 48.6821 143.297 48.6818C143.184 48.6815 143.072 48.6569 142.969 48.6096C142.867 48.5623 142.775 48.4934 142.701 48.4077C142.627 48.322 142.573 48.2214 142.541 48.1127C141.216 48.8471 139.93 49.6506 138.688 50.5199C138.785 50.7485 138.792 51.005 138.708 51.2385C138.624 51.472 138.455 51.6653 138.235 51.7801C140.125 54.4502 141.277 59.3779 143.344 63.0589C143.576 62.9726 143.83 62.9644 144.067 63.0356C144.305 63.1068 144.512 63.2534 144.659 63.4533C145.979 62.7262 147.261 61.9303 148.498 61.0688ZM141.698 56.4947C141.286 55.3931 141.667 54.1964 142.51 53.8065C143.353 53.4166 144.323 54.0649 144.708 55.1937C145.094 56.3225 144.795 57.4921 143.956 57.8638C143.117 58.2355 142.106 57.6054 141.712 56.4947H141.698Z" fill="#E0E0E0"/>
<path d="M80.4763 50.8191C76.4915 52.9678 70.4487 53.2353 67.9282 55.375C66.6636 53.2312 65.5605 50.9961 64.6279 48.6884C68.8847 47.7818 75.3899 47.8452 77.1761 44.1325C78.4442 46.2744 79.5475 48.5097 80.4763 50.8191Z" fill="#EBEBEB"/>
<path d="M77.7839 45.7554C77.5209 46.1045 77.054 45.9367 76.7956 45.4245C74.529 47.8407 69.6557 48.0991 65.9611 48.7927C66.0011 48.8919 66.0189 48.9988 66.013 49.1056C66.0072 49.2125 65.978 49.3168 65.9274 49.4111C65.8768 49.5054 65.806 49.5874 65.7202 49.6513C65.6344 49.7152 65.5355 49.7595 65.4307 49.7809C65.9701 51.0684 66.6093 52.4238 67.389 53.8609C67.7381 53.6841 68.2504 53.9606 68.5224 54.4774C71.1109 53.0041 75.7303 52.5598 79.2708 51.0503C79.2012 50.8241 79.2078 50.5813 79.2897 50.3594C79.3717 50.1374 79.5243 49.9485 79.7241 49.8217C79.1892 48.5388 78.559 47.1879 77.7884 45.7418L77.7839 45.7554ZM73.1055 51.7801C72.6282 51.909 72.1204 51.8617 71.6751 51.647C71.2297 51.4322 70.8766 51.0643 70.6802 50.6105C70.3765 49.7039 71.0429 48.8833 72.1082 48.6567C73.1735 48.43 74.2343 48.8879 74.5199 49.7583C74.8055 50.6287 74.1527 51.5172 73.1055 51.7801Z" fill="#E0E0E0"/>
<path d="M120.025 44.7898C116.639 41.7752 114.317 36.1766 111.443 34.5582C113.024 32.6346 114.747 30.8329 116.598 29.1681C118.905 32.8582 121.077 38.9917 125.175 39.3952C123.596 41.3199 121.874 43.1232 120.025 44.7898Z" fill="#EBEBEB"/>
<path d="M123.855 40.5195C123.443 40.3925 123.438 39.8984 123.832 39.4813C120.8 38.1803 118.873 33.6878 116.955 30.4737C116.876 30.546 116.782 30.5999 116.679 30.6312C116.576 30.6626 116.468 30.6708 116.361 30.6552C116.255 30.6396 116.154 30.6006 116.064 30.5409C115.975 30.4813 115.9 30.4026 115.845 30.3105C114.82 31.2625 113.764 32.3233 112.671 33.5563C112.957 33.8238 112.871 34.3995 112.477 34.8302C114.743 36.7614 116.747 40.9501 119.381 43.7562C119.569 43.6139 119.799 43.5369 120.036 43.5369C120.272 43.5369 120.502 43.6139 120.691 43.7562C121.711 42.8133 122.763 41.757 123.864 40.5376L123.855 40.5195ZM116.602 38.1803C116.317 37.7759 116.187 37.2821 116.237 36.7899C116.287 36.2976 116.513 35.84 116.874 35.5011C117.599 34.9163 118.615 35.2518 119.199 36.1766C119.784 37.1014 119.707 38.2528 118.986 38.8195C118.266 39.3861 117.205 39.0869 116.615 38.1803H116.602Z" fill="#E0E0E0"/>
<path d="M130.651 92.0674C129.105 87.8106 129.721 81.795 127.976 78.9889C130.281 78.0549 132.652 77.2942 135.071 76.7132C135.347 81.056 134.332 87.4842 137.745 89.7962C135.441 90.7303 133.069 91.4895 130.651 92.0674Z" fill="#EBEBEB"/>
<path d="M136.05 90.1407C135.746 89.8279 135.982 89.3973 136.503 89.2341C134.445 86.641 134.903 81.7768 134.758 78.0233C134.654 78.0495 134.544 78.0523 134.439 78.0313C134.333 78.0104 134.233 77.9662 134.146 77.9021C134.06 77.8379 133.988 77.7554 133.937 77.6603C133.886 77.5652 133.857 77.4601 133.851 77.3524C132.491 77.7014 131.064 78.1321 129.513 78.6897C129.636 79.0614 129.286 79.5283 128.733 79.7187C129.812 82.4976 129.577 87.1352 130.547 90.8525C130.78 90.8197 131.018 90.8628 131.226 90.9754C131.433 91.088 131.599 91.2642 131.698 91.4781C133.058 91.1335 134.477 90.7074 136.023 90.1543L136.05 90.1407ZM130.801 84.6373C130.74 84.1465 130.86 83.6505 131.138 83.2413C131.415 82.832 131.832 82.5372 132.31 82.4115C133.217 82.2392 133.96 83.019 134.033 84.1069C134.105 85.1949 133.493 86.1741 132.591 86.3328C131.689 86.4915 130.882 85.7117 130.801 84.6373Z" fill="#E0E0E0"/>
<path d="M190.867 74.7231C187.48 71.7084 185.159 66.1098 182.285 64.4914C183.867 62.569 185.59 60.7673 187.439 59.1014C189.751 62.7915 191.923 68.925 196.021 69.3285C194.441 71.2533 192.718 73.0566 190.867 74.7231Z" fill="#EBEBEB"/>
<path d="M194.692 70.4572C194.275 70.3258 194.275 69.8316 194.67 69.4146C191.628 68.0999 189.706 63.621 187.797 60.3934C187.718 60.4657 187.623 60.5195 187.521 60.5509C187.418 60.5823 187.31 60.5905 187.203 60.5749C187.097 60.5592 186.996 60.5202 186.906 60.4606C186.817 60.401 186.742 60.3223 186.687 60.2302C185.662 61.1821 184.606 62.2429 183.513 63.476C183.799 63.7434 183.713 64.3192 183.318 64.7498C185.585 66.681 187.589 70.8698 190.223 73.6759C190.412 73.5342 190.641 73.4577 190.878 73.4577C191.114 73.4577 191.344 73.5342 191.533 73.6759C192.553 72.7329 193.604 71.6767 194.706 70.4572H194.692ZM187.439 68.0999C187.153 67.6965 187.024 67.2033 187.074 66.7116C187.124 66.2199 187.35 65.7629 187.711 65.4253C188.432 64.836 189.452 65.1714 190.032 66.0962C190.612 67.021 190.544 68.1725 189.824 68.7391C189.103 69.3058 188.047 69.0066 187.439 68.0999Z" fill="#E0E0E0"/>
<path d="M188.183 67.8143L187.988 67.9639L187.874 67.7871L188.065 67.6375C187.946 67.4412 187.877 67.2185 187.865 66.9893L188.101 66.9485C188.107 67.139 188.159 67.3254 188.251 67.4925L188.591 67.2295C188.486 66.9485 188.382 66.6357 188.622 66.4498C188.795 66.3138 189.053 66.3637 189.293 66.6901L189.488 66.5405L189.601 66.7218L189.411 66.8669C189.505 67.0305 189.566 67.2105 189.592 67.3973L189.361 67.4381C189.339 67.2897 189.293 67.1459 189.225 67.0119L188.881 67.2794C188.989 67.5605 189.103 67.8733 188.881 68.0546C188.659 68.2359 188.427 68.1407 188.183 67.8143ZM188.799 67.0663L189.107 66.8352C188.989 66.6901 188.885 66.6719 188.808 66.7309C188.731 66.7898 188.749 66.9167 188.799 67.0663ZM188.663 67.7826C188.749 67.7191 188.727 67.5922 188.663 67.4381L188.359 67.6738C188.491 67.8189 188.591 67.8415 188.663 67.7826Z" fill="#E0E0E0"/>
<path d="M110.564 65.7834C107.522 69.7047 104.743 73.9025 103.515 78.3859C101.466 77.5382 99.3622 76.686 97.3086 75.6932C98.9179 71.0284 101.697 66.9349 104.358 63.0907C106.407 63.9384 108.51 64.7906 110.564 65.7834Z" fill="#EBEBEB"/>
<path d="M105.31 63.8704C105.157 64.0756 104.942 64.2258 104.697 64.2985C104.452 64.3713 104.189 64.3626 103.95 64.2738C101.755 67.4789 99.5613 70.8607 98.0835 74.6097C98.3067 74.7294 98.48 74.9248 98.5722 75.1608C98.6645 75.3967 98.6696 75.6578 98.5867 75.8972C99.8696 76.4865 101.166 77.035 102.449 77.57C102.481 77.4584 102.537 77.3549 102.612 77.2667C102.688 77.1784 102.781 77.1074 102.887 77.0584C102.992 77.0094 103.106 76.9836 103.223 76.9827C103.339 76.9818 103.454 77.0058 103.56 77.0532C104.806 73.4039 106.996 69.9586 109.426 66.6991C109.32 66.6523 109.227 66.5813 109.153 66.4919C109.08 66.4024 109.029 66.297 109.004 66.1841C108.979 66.0712 108.98 65.954 109.009 65.8419C109.037 65.7298 109.091 65.6259 109.167 65.5386C107.88 64.9493 106.588 64.4008 105.305 63.8658L105.31 63.8704ZM104.933 71.2732C104.692 71.7195 104.294 72.0612 103.817 72.2335C103.34 72.4057 102.816 72.3963 102.345 72.2071C102.125 72.1019 101.931 71.9516 101.774 71.7659C101.616 71.5803 101.5 71.3635 101.433 71.1298C101.365 70.8962 101.347 70.6508 101.381 70.4099C101.415 70.169 101.499 69.938 101.629 69.7319C101.888 69.286 102.299 68.9487 102.787 68.7821C103.275 68.6155 103.807 68.6308 104.285 68.8253C104.504 68.9275 104.697 69.0766 104.852 69.2619C105.007 69.4472 105.12 69.6642 105.181 69.8977C105.243 70.1312 105.253 70.3754 105.21 70.613C105.167 70.8507 105.073 71.0761 104.933 71.2732Z" fill="#E0E0E0"/>
<path d="M104.24 70.7474L104.485 70.8607L104.381 71.042L104.136 70.9287C104.018 71.1219 103.848 71.2788 103.646 71.382L103.479 71.178C103.648 71.0938 103.793 70.9673 103.9 70.8108L103.447 70.6068C103.247 70.8244 103.016 71.0602 102.713 70.9151C102.49 70.8108 102.386 70.5524 102.554 70.1898L102.309 70.0764L102.413 69.8951L102.658 70.0084C102.759 69.8505 102.896 69.7185 103.057 69.6231L103.225 69.8135C103.096 69.893 102.984 69.996 102.894 70.1172L103.347 70.3212C103.551 70.1036 103.801 69.8679 104.095 70.013C104.317 70.1263 104.413 70.3666 104.24 70.7474ZM103.198 70.4935L102.808 70.3122C102.74 70.4799 102.781 70.5842 102.876 70.6295C102.971 70.6748 103.084 70.6068 103.198 70.4935ZM103.946 70.3167C103.837 70.2668 103.728 70.3394 103.615 70.4572L104.005 70.634C104.073 70.4618 104.027 70.3666 103.946 70.3167Z" fill="#E0E0E0"/>
<path d="M187.861 89.0301C184.814 92.9514 182.04 97.1492 180.812 101.633C178.762 100.785 176.659 99.9326 174.605 98.9398C176.215 94.2751 178.994 90.1815 181.65 86.3373C183.704 87.185 185.807 88.0464 187.861 89.0301Z" fill="#EBEBEB"/>
<path d="M182.606 87.1125C182.455 87.3191 182.24 87.4707 181.995 87.5443C181.749 87.6179 181.487 87.6096 181.246 87.5205C179.052 90.721 176.858 94.1074 175.38 97.8564C175.605 97.9739 175.779 98.168 175.873 98.4035C175.966 98.639 175.971 98.9001 175.888 99.1393C177.171 99.7332 178.468 100.277 179.75 100.817C179.782 100.705 179.837 100.601 179.913 100.512C179.988 100.423 180.081 100.352 180.187 100.303C180.292 100.254 180.407 100.228 180.524 100.228C180.64 100.227 180.755 100.252 180.861 100.3C182.108 96.6732 184.297 93.2052 186.727 89.9458C186.621 89.899 186.528 89.828 186.455 89.7385C186.382 89.6491 186.33 89.5437 186.305 89.4308C186.28 89.3179 186.282 89.2007 186.31 89.0886C186.339 88.9764 186.393 88.8726 186.469 88.7853C185.186 88.2005 183.894 87.652 182.611 87.117L182.606 87.1125ZM182.207 94.529C181.966 94.9752 181.569 95.317 181.091 95.4892C180.614 95.6614 180.09 95.652 179.619 95.4628C179.399 95.3582 179.204 95.2081 179.046 95.0226C178.889 94.837 178.772 94.6201 178.705 94.3862C178.637 94.1523 178.62 93.9068 178.654 93.6657C178.688 93.4246 178.773 93.1935 178.903 92.9876C179.168 92.5522 179.58 92.226 180.065 92.068C180.55 91.91 181.075 91.9307 181.546 92.1263C181.759 92.2283 181.948 92.3748 182.099 92.556C182.251 92.7372 182.362 92.9489 182.425 93.1767C182.487 93.4045 182.5 93.6431 182.463 93.8764C182.425 94.1097 182.338 94.3322 182.207 94.529Z" fill="#E0E0E0"/>
<path d="M181.546 93.994L181.791 94.1074C181.754 94.1663 181.718 94.2252 181.686 94.2887L181.442 94.1754C181.319 94.3669 181.149 94.5232 180.948 94.6287L180.784 94.4247C180.953 94.339 181.098 94.2128 181.206 94.0575L180.753 93.8535C180.553 94.0711 180.322 94.3068 180.018 94.1618C179.796 94.0575 179.692 93.7991 179.86 93.4365L179.615 93.3231C179.646 93.2597 179.683 93.2007 179.719 93.1418L179.964 93.2551C180.065 93.0959 180.201 92.9624 180.363 92.8653L180.526 93.0602C180.4 93.1409 180.289 93.2438 180.2 93.3639L180.653 93.5679C180.857 93.3503 181.106 93.1146 181.401 93.2597C181.614 93.373 181.705 93.6268 181.546 93.994ZM180.503 93.7402L180.113 93.5588C180.045 93.7266 180.086 93.8308 180.181 93.8762C180.277 93.9215 180.381 93.8535 180.494 93.7402H180.503ZM181.251 93.5634C181.142 93.5135 181.034 93.586 180.92 93.6994L181.306 93.8807C181.369 93.7084 181.337 93.6042 181.242 93.5634H181.251Z" fill="#E0E0E0"/>
<path d="M168.318 36.2128C168.077 31.267 163.653 27.8625 163.413 22.9167L169.759 20.5821C170.004 25.5279 174.424 28.9324 174.669 33.8737L168.318 36.2128Z" fill="#EBEBEB"/>
<path d="M173.427 33.9417C173.4 33.6833 173.457 33.4233 173.588 33.1992C173.719 32.9751 173.918 32.7985 174.157 32.695C173.391 28.8462 170.326 25.8497 169.569 22.001C169.464 22.0473 169.349 22.0675 169.234 22.0596C169.119 22.0518 169.008 22.0163 168.91 21.9562C168.812 21.896 168.73 21.813 168.671 21.7142C168.612 21.6154 168.578 21.5038 168.572 21.389L164.628 22.8442C164.654 23.102 164.598 23.3617 164.468 23.5857C164.338 23.8097 164.14 23.9866 163.902 24.0908C164.659 27.9396 167.724 30.9406 168.49 34.7894C168.595 34.743 168.709 34.7227 168.823 34.7302C168.937 34.7377 169.048 34.7729 169.146 34.8326C169.243 34.8924 169.325 34.9749 169.384 35.0732C169.443 35.1715 169.477 35.2825 169.483 35.3968L173.422 33.9417H173.427ZM167.33 28.955C167.206 28.752 167.131 28.5238 167.108 28.2875C167.086 28.0511 167.117 27.8128 167.199 27.5901C167.281 27.3674 167.413 27.1662 167.584 27.0014C167.755 26.8367 167.961 26.7126 168.186 26.6385C168.68 26.4769 169.214 26.4896 169.699 26.6744C170.184 26.8592 170.591 27.205 170.852 27.654C170.976 27.8565 171.052 28.0845 171.076 28.3208C171.099 28.5572 171.069 28.7957 170.987 29.0186C170.905 29.2415 170.773 29.4429 170.602 29.6078C170.431 29.7726 170.225 29.8966 170 29.9705C169.504 30.1317 168.967 30.117 168.481 29.9287C167.994 29.7404 167.588 29.3901 167.33 28.9369V28.955Z" fill="#E0E0E0"/>
<path d="M168.254 28.81L167.991 28.9052L167.892 28.7284L168.15 28.6286C168.047 28.444 168.009 28.2301 168.041 28.0212H168.331C168.302 28.1934 168.325 28.3706 168.399 28.5289L168.853 28.3567C168.78 28.0892 168.721 27.7945 169.043 27.6767C169.188 27.6354 169.343 27.6453 169.482 27.7047C169.62 27.7642 169.734 27.8695 169.805 28.0031L170.068 27.9079L170.172 28.0892L169.909 28.1844C169.989 28.3381 170.026 28.5101 170.018 28.683H169.759C169.766 28.5448 169.741 28.4068 169.687 28.2796L169.233 28.4564C169.306 28.7238 169.374 29.0185 169.048 29.1364C168.898 29.187 168.736 29.1818 168.59 29.1218C168.444 29.0618 168.325 28.951 168.254 28.81ZM169.161 28.2615L169.573 28.1073C169.46 27.9623 169.342 27.926 169.238 27.9623C169.134 27.9985 169.12 28.1209 169.152 28.2615H169.161ZM168.848 28.8689C168.961 28.8281 168.961 28.7102 168.93 28.5652L168.517 28.7148C168.621 28.8689 168.739 28.9052 168.853 28.8689H168.848Z" fill="#E0E0E0"/>
<path d="M39.849 94.7919C39.6042 89.8597 35.1843 86.4416 34.9395 81.4958L41.286 79.1611C41.5308 84.1069 45.9508 87.5069 46.1956 92.4527L39.849 94.7919Z" fill="#EBEBEB"/>
<path d="M44.9582 92.5207C44.9315 92.2629 44.9873 92.0033 45.1177 91.7792C45.248 91.5552 45.4462 91.3783 45.6835 91.2741C44.9219 87.4253 41.8574 84.4288 41.0958 80.5755C40.9909 80.6229 40.8761 80.6439 40.7613 80.6369C40.6465 80.6298 40.5351 80.5948 40.4368 80.535C40.3386 80.4751 40.2564 80.3922 40.1974 80.2934C40.1385 80.1946 40.1045 80.0829 40.0985 79.9681L36.1545 81.4232C36.1812 81.6811 36.1253 81.9407 35.995 82.1647C35.8646 82.3888 35.6665 82.5657 35.4292 82.6699C36.1908 86.5187 39.2553 89.5197 40.0169 93.3684C40.1217 93.3211 40.2366 93.3 40.3514 93.3071C40.4662 93.3141 40.5776 93.3491 40.6759 93.409C40.7741 93.4688 40.8563 93.5517 40.9153 93.6505C40.9742 93.7493 41.0082 93.861 41.0142 93.9759L44.9582 92.5207ZM38.8564 87.5341C38.7333 87.3311 38.6576 87.1029 38.6351 86.8665C38.6125 86.6302 38.6435 86.3918 38.7259 86.1691C38.8082 85.9465 38.9398 85.7453 39.1107 85.5805C39.2817 85.4157 39.4876 85.2917 39.7131 85.2176C40.206 85.0571 40.7389 85.0704 41.2231 85.2552C41.7073 85.4399 42.1136 85.7851 42.3742 86.2331C42.4982 86.4356 42.5748 86.6636 42.5981 86.8999C42.6214 87.1362 42.591 87.3748 42.509 87.5977C42.427 87.8206 42.2956 88.022 42.1246 88.1868C41.9537 88.3517 41.7476 88.4757 41.5219 88.5496C41.0265 88.7096 40.4911 88.6943 40.0056 88.506C39.5202 88.3178 39.1144 87.9682 38.8564 87.516V87.5341Z" fill="#E0E0E0"/>
<path d="M39.7816 87.389L39.5187 87.4842L39.4189 87.3029L39.6773 87.2077C39.5778 87.0218 39.5412 86.8087 39.5731 86.6003H39.8632C39.8311 86.7724 39.8549 86.9503 39.9312 87.108L40.3845 86.9357C40.3075 86.6683 40.2485 86.3736 40.5749 86.2557C40.72 86.2136 40.8753 86.2231 41.0142 86.2826C41.153 86.3421 41.267 86.448 41.3365 86.5821L41.5995 86.4869L41.6992 86.6683L41.4408 86.7635C41.5225 86.9163 41.5587 87.0893 41.5451 87.2621H41.2595C41.2664 87.1239 41.2416 86.9858 41.1869 86.8587L40.7336 87.0355C40.8107 87.2984 40.8741 87.5976 40.5523 87.7154C40.4059 87.759 40.2489 87.7503 40.1083 87.6907C39.9676 87.6312 39.8521 87.5245 39.7816 87.389ZM40.6883 86.8405L41.1053 86.6864C41.0725 86.6282 41.0214 86.5824 40.9599 86.5562C40.8985 86.53 40.8301 86.5247 40.7653 86.5413C40.6475 86.5821 40.6475 86.6864 40.6792 86.8405H40.6883ZM40.3755 87.448C40.4933 87.4072 40.4933 87.2893 40.4571 87.1397L40.0445 87.2938C40.1533 87.448 40.2667 87.4842 40.3664 87.448H40.3755Z" fill="#E0E0E0"/>
<path d="M56.0417 36.1131C54.3145 40.8821 48.3351 40.7869 46.3677 44.8306C44.5272 43.2122 42.7411 41.6573 40.9595 40.2701C42.6821 35.5011 48.6661 35.5963 50.6335 31.5526C52.4695 33.1937 54.2828 34.7123 56.0417 36.1131Z" fill="#EBEBEB"/>
<path d="M51.5134 32.763C51.2822 33.1891 50.711 33.1846 50.2939 32.8129C48.1451 35.6144 43.7841 36.0768 41.8076 39.3499C42.0005 39.5208 42.1333 39.7493 42.1864 40.0016C42.2394 40.2538 42.2099 40.5164 42.1023 40.7506C43.2114 41.6573 44.3387 42.6153 45.4841 43.6247C45.7153 43.2031 46.2865 43.2031 46.699 43.5749C48.8478 40.7733 53.2088 40.3109 55.1899 37.0379C54.9967 36.8681 54.8637 36.6404 54.8106 36.3887C54.7575 36.1371 54.7872 35.875 54.8952 35.6416C53.78 34.735 52.6512 33.7769 51.5088 32.7675L51.5134 32.763ZM49.9041 39.5629C49.0337 40.0163 47.6374 39.7624 46.7988 38.9872C45.9601 38.212 45.8921 37.1739 46.7988 36.7206C47.7054 36.2672 49.0654 36.5211 49.9086 37.3008C50.7518 38.0805 50.7699 39.1141 49.9041 39.572V39.5629Z" fill="#E0E0E0"/>
<path d="M49.3378 38.8149C49.4194 38.8875 49.4964 38.9555 49.569 39.028L49.4012 39.1187L49.1701 38.9101C48.9578 39.0034 48.7253 39.0408 48.4946 39.0189L48.3767 38.7787C48.5706 38.801 48.7669 38.7745 48.9479 38.7016L48.5354 38.3253C48.3866 38.3865 48.2242 38.407 48.0649 38.3847C47.9055 38.3624 47.755 38.2981 47.6287 38.1984C47.5732 38.1625 47.5284 38.1123 47.499 38.053C47.4697 37.9937 47.4569 37.9276 47.462 37.8617C47.4671 37.7958 47.4899 37.7324 47.5281 37.6784C47.5662 37.6244 47.6182 37.5816 47.6786 37.5547L47.4429 37.3416L47.6106 37.2509L47.8418 37.4595C48.0144 37.3837 48.202 37.348 48.3903 37.3552L48.5127 37.5909C48.3585 37.5882 48.2051 37.6128 48.0594 37.6635L48.481 38.0488C48.6287 37.9836 48.7916 37.9605 48.9516 37.9821C49.1116 38.0037 49.2625 38.0691 49.3876 38.1712C49.4419 38.208 49.4855 38.2585 49.5139 38.3176C49.5423 38.3766 49.5547 38.4422 49.5496 38.5075C49.5445 38.5729 49.5223 38.6358 49.4851 38.6898C49.4479 38.7437 49.3971 38.7869 49.3378 38.8149ZM48.2679 38.0987L47.8962 37.7587C47.8718 37.7737 47.8517 37.7947 47.8377 37.8197C47.8238 37.8447 47.8165 37.8728 47.8165 37.9015C47.8165 37.9301 47.8238 37.9583 47.8377 37.9833C47.8517 38.0082 47.8718 38.0293 47.8962 38.0443C47.9507 38.0794 48.012 38.1024 48.0762 38.1118C48.1403 38.1212 48.2057 38.1167 48.2679 38.0987ZM49.1293 38.3299C49.0714 38.2907 49.0054 38.2654 48.9362 38.256C48.867 38.2465 48.7965 38.2532 48.7303 38.2755L49.0975 38.6109C49.2426 38.5112 49.2381 38.4115 49.1474 38.3299H49.1293Z" fill="#E0E0E0"/>
<path d="M60.6887 103.559C58.966 108.328 52.9821 108.233 51.0146 112.277C49.2013 110.658 47.388 109.103 45.6064 107.716C47.3336 102.947 53.313 103.042 55.2805 98.9988C57.121 100.617 58.9298 102.158 60.6887 103.559Z" fill="#EBEBEB"/>
<path d="M56.1599 100.209C55.9287 100.631 55.362 100.631 54.9449 100.259C52.7962 103.061 48.4351 103.523 46.4541 106.796C46.6484 106.966 46.7825 107.194 46.8364 107.447C46.8903 107.699 46.8612 107.962 46.7533 108.197C47.864 109.103 48.9927 110.074 50.1351 111.071C50.3618 110.649 50.933 110.649 51.35 111.021C53.4943 108.219 57.8598 107.753 59.8364 104.484C59.6432 104.314 59.5102 104.087 59.4571 103.835C59.404 103.583 59.4336 103.321 59.5417 103.088C58.4325 102.181 57.3053 101.223 56.1599 100.214V100.209ZM54.5505 107.009C53.6847 107.462 52.2839 107.209 51.4498 106.433C50.6157 105.658 50.5431 104.62 51.4498 104.167C52.3564 103.713 53.7164 103.967 54.5551 104.747C55.3937 105.527 55.4164 106.56 54.5505 107.018V107.009Z" fill="#E0E0E0"/>
<path d="M53.9882 106.261L54.2194 106.474C54.1604 106.501 54.106 106.533 54.0516 106.565L53.8204 106.352C53.6073 106.447 53.3731 106.486 53.1404 106.465C53.1042 106.383 53.0634 106.306 53.0271 106.225C53.221 106.247 53.4172 106.22 53.5983 106.148L53.1812 105.771C53.0321 105.832 52.8694 105.852 52.7101 105.829C52.5507 105.806 52.4004 105.74 52.2746 105.64C52.2202 105.604 52.1765 105.554 52.1479 105.495C52.1193 105.436 52.1069 105.371 52.112 105.306C52.1171 105.241 52.1394 105.178 52.1768 105.124C52.2141 105.071 52.2651 105.028 52.3245 105.001L52.0933 104.788L52.261 104.697L52.4922 104.906C52.6635 104.831 52.8491 104.793 53.0362 104.797C53.077 104.878 53.1223 104.956 53.1631 105.033C53.0086 105.031 52.855 105.057 52.7098 105.11L53.1268 105.49C53.2756 105.429 53.438 105.409 53.5974 105.431C53.7567 105.453 53.9072 105.518 54.0335 105.617C54.0879 105.654 54.1318 105.704 54.1606 105.763C54.1894 105.822 54.2021 105.887 54.1975 105.952C54.1929 106.018 54.1711 106.081 54.1344 106.135C54.0976 106.189 54.0472 106.233 53.9882 106.261ZM52.9319 105.54L52.5647 105.205C52.4378 105.305 52.4514 105.404 52.5647 105.49C52.619 105.524 52.6797 105.546 52.743 105.555C52.8063 105.563 52.8707 105.558 52.9319 105.54ZM53.7932 105.776C53.7364 105.735 53.6702 105.708 53.6006 105.699C53.531 105.689 53.4601 105.697 53.3943 105.722L53.7615 106.057C53.8884 105.957 53.8839 105.858 53.7932 105.776Z" fill="#E0E0E0"/>
<path d="M142.496 56.4041L142.269 56.4993C142.247 56.4267 142.22 56.3542 142.192 56.2771L142.415 56.1819C142.335 55.9473 142.312 55.6973 142.347 55.4521L142.591 55.4838C142.561 55.6854 142.575 55.8911 142.632 56.0867L143.027 55.9145C142.977 55.5926 142.936 55.239 143.217 55.1211C143.421 55.0305 143.67 55.1574 143.842 55.5745L144.065 55.4747L144.146 55.6969L143.924 55.7921C143.987 55.9865 144.011 56.1912 143.997 56.395L143.756 56.3678C143.766 56.206 143.749 56.0437 143.706 55.8873L143.308 56.0595C143.357 56.3814 143.407 56.7395 143.131 56.8574C142.927 56.939 142.677 56.8121 142.496 56.4041ZM143.271 55.8147L143.625 55.6606C143.534 55.4793 143.434 55.4249 143.348 55.4657C143.262 55.5065 143.249 55.6425 143.271 55.8147ZM142.986 56.5129C143.085 56.4721 143.09 56.3315 143.063 56.1547L142.714 56.3089C142.804 56.4947 142.904 56.5491 142.986 56.5129Z" fill="#E0E0E0"/>
<path d="M73.069 50.9777C73.0962 51.0503 73.1188 51.1319 73.146 51.2089L72.9375 51.2543C72.9103 51.1772 72.8876 51.1001 72.865 51.0231C72.6389 51.0688 72.4049 51.0564 72.185 50.9868C72.185 50.9097 72.2167 50.8327 72.2303 50.7511C72.411 50.8124 72.6038 50.8295 72.7925 50.8009C72.7471 50.6649 72.7018 50.5244 72.661 50.3884C72.3573 50.3884 72.0309 50.3884 71.9357 50.0937C71.8722 49.8807 72.0037 49.6404 72.389 49.5452C72.3663 49.4682 72.3391 49.3911 72.3165 49.3095L72.525 49.2641C72.525 49.3412 72.5749 49.4183 72.5975 49.4954C72.7816 49.4588 72.971 49.4588 73.1551 49.4954C73.1551 49.5724 73.1551 49.6495 73.1188 49.7265C72.9688 49.7012 72.8156 49.7012 72.6655 49.7265C72.7063 49.8671 72.7517 50.0031 72.797 50.1436C73.0962 50.1436 73.4316 50.1436 73.5178 50.4247C73.5948 50.6287 73.4588 50.8735 73.069 50.9777ZM72.5794 50.1391C72.5431 50.0167 72.5023 49.8897 72.4661 49.7719C72.2893 49.8308 72.2349 49.9215 72.2666 50.0121C72.2983 50.1028 72.4207 50.1345 72.5794 50.1391ZM73.2095 50.5108C73.1778 50.4065 73.0463 50.3884 72.8831 50.3839C72.9239 50.5063 72.9602 50.6287 73.001 50.7511C73.2004 50.6876 73.2367 50.5969 73.2004 50.5108H73.2095Z" fill="#E0E0E0"/>
<path d="M117.341 37.8811L117.146 38.0307L117.032 37.8539L117.223 37.7043C117.104 37.5079 117.035 37.2853 117.023 37.056L117.259 37.0152C117.266 37.2058 117.317 37.3921 117.409 37.5592L117.753 37.2963C117.644 37.0152 117.54 36.7024 117.78 36.5166C118.021 36.3307 118.234 36.4304 118.451 36.7568L118.646 36.6072L118.76 36.7886L118.569 36.9336C118.663 37.0972 118.725 37.2773 118.751 37.464L118.519 37.5048C118.497 37.3565 118.451 37.2127 118.383 37.0787L118.039 37.3462C118.148 37.6272 118.261 37.94 118.039 38.1213C117.817 38.3027 117.586 38.2075 117.341 37.8811ZM117.957 37.1331L118.266 36.9019C118.148 36.7568 118.043 36.7387 117.966 36.7931C117.889 36.8475 117.907 36.9835 117.957 37.1331ZM117.826 37.8493C117.907 37.7859 117.885 37.6589 117.826 37.5048L117.522 37.736C117.649 37.8856 117.749 37.9083 117.826 37.8493Z" fill="#E0E0E0"/>
<path d="M131.576 84.7189L131.335 84.7597C131.335 84.6872 131.335 84.6147 131.335 84.5467L131.576 84.5059C131.566 84.2759 131.612 84.0471 131.712 83.8395L131.938 83.9211C131.852 84.0894 131.807 84.2759 131.807 84.4651L132.238 84.3971C132.274 84.0979 132.333 83.776 132.632 83.7262C132.85 83.6899 133.049 83.8531 133.108 84.2565L133.348 84.2203V84.4333L133.113 84.4696C133.119 84.6581 133.088 84.8461 133.022 85.0227L132.795 84.9501C132.85 84.8052 132.879 84.6518 132.881 84.4968L132.451 84.5693C132.41 84.8685 132.365 85.1949 132.065 85.2448C131.843 85.2856 131.639 85.1224 131.576 84.7189ZM132.482 84.3563L132.863 84.2928C132.827 84.1115 132.745 84.048 132.65 84.0616C132.555 84.0752 132.505 84.1976 132.478 84.3563H132.482ZM132.029 84.9229C132.133 84.9229 132.174 84.7824 132.201 84.6192L131.821 84.6781C131.848 84.8731 131.925 84.9365 132.015 84.9229H132.029Z" fill="#E0E0E0"/>
<path d="M114 169.446C162.543 169.446 201.896 167.148 201.896 164.314C201.896 161.48 162.543 159.183 114 159.183C65.4563 159.183 26.104 161.48 26.104 164.314C26.104 167.148 65.4563 169.446 114 169.446Z" fill="#F5F5F5"/>
<path d="M78.6041 32.0195C74.2657 29.5897 70.2946 24.3492 66.8765 23.2204C67.957 20.9775 69.2232 18.8288 70.6618 16.7968C74.0798 20.1106 78.051 25.9359 82.3894 25.5914C81.306 27.8343 80.04 29.9842 78.6041 32.0195Z" fill="#9BA0A7"/>
<path opacity="0.5" d="M78.6041 32.0195C74.2657 29.5897 70.2946 24.3492 66.8765 23.2204C67.957 20.9775 69.2232 18.8288 70.6618 16.7968C74.0798 20.1106 78.051 25.9359 82.3894 25.5914C81.306 27.8343 80.04 29.9842 78.6041 32.0195Z" fill="white"/>
<path opacity="0.2" d="M81.3606 26.9785C80.9073 26.9241 80.7577 26.4255 81.0387 25.9268C77.539 25.1743 74.2932 20.9402 71.41 18.0344C71.3394 18.1231 71.2504 18.1954 71.1491 18.2464C71.0478 18.2974 70.9367 18.3258 70.8233 18.3297C70.71 18.3335 70.5972 18.3128 70.4926 18.2689C70.3881 18.2249 70.2943 18.1588 70.2178 18.0752C69.3645 19.3289 68.5762 20.6256 67.856 21.9602C68.0448 22.1208 68.1664 22.3465 68.1966 22.5925C68.2268 22.8385 68.1635 23.0869 68.0192 23.2884C70.9069 24.8298 74.1482 28.7284 77.6524 31.0721C77.8209 30.8878 78.0456 30.7643 78.2915 30.7209C78.5375 30.6774 78.7909 30.7164 79.0124 30.8318C79.8633 29.5868 80.6501 28.2992 81.3697 26.974L81.3606 26.9785ZM73.2279 25.9404C72.3666 25.138 72.1671 23.9004 72.7474 23.1751C73.3276 22.4498 74.4745 22.5948 75.3359 23.4244C76.1972 24.254 76.442 25.4372 75.8617 26.1444C75.2815 26.8516 74.1073 26.7519 73.2279 25.9404Z" fill="black"/>
<g opacity="0.2">
<path opacity="0.2" d="M73.8852 25.4871L73.7311 25.6729L73.5588 25.5143C73.6132 25.4508 73.6631 25.3873 73.7175 25.3284C73.5401 25.1535 73.4065 24.9391 73.3276 24.7028L73.5634 24.6212C73.6237 24.8172 73.7275 24.9969 73.8671 25.1471L74.1436 24.8116C73.9532 24.5487 73.7583 24.2495 73.9532 24.0183C74.1482 23.7871 74.3748 23.8506 74.7148 24.1362C74.7692 24.0772 74.8191 24.0138 74.8735 23.9503L75.0412 24.1135L74.8871 24.2994C75.0297 24.4426 75.1436 24.6119 75.2226 24.798L74.9959 24.8887C74.9325 24.7382 74.8452 24.5989 74.7375 24.4762L74.4564 24.8116C74.6468 25.0745 74.8508 25.3737 74.6559 25.6049C74.461 25.8361 74.2343 25.7863 73.8852 25.4871ZM74.3386 24.6122L74.5834 24.3175C74.4247 24.1951 74.3114 24.1951 74.2524 24.2676C74.1935 24.3402 74.2207 24.4852 74.3159 24.6303L74.3386 24.6122ZM74.402 25.3647C74.47 25.2831 74.402 25.1607 74.3068 25.0111L74.062 25.3057C74.2071 25.4508 74.3159 25.4553 74.3794 25.3828L74.402 25.3647Z" fill="black"/>
</g>
<path d="M115.813 51.2044C111.824 53.3532 105.786 53.6252 103.265 55.7603C102 53.6133 100.9 51.3735 99.9741 49.0601C104.231 48.1535 110.736 48.2124 112.522 44.4997C113.786 46.6486 114.886 48.8899 115.813 51.2044Z" fill="#9BA0A7"/>
<path opacity="0.5" d="M115.813 51.2044C111.824 53.3532 105.786 53.6252 103.265 55.7603C102 53.6133 100.9 51.3735 99.9741 49.0601C104.231 48.1535 110.736 48.2124 112.522 44.4997C113.786 46.6486 114.886 48.8899 115.813 51.2044Z" fill="white"/>
<path opacity="0.2" d="M113.125 46.1452C112.862 46.4898 112.4 46.322 112.141 45.8143C109.875 48.226 104.997 48.4889 101.307 49.178C101.347 49.2779 101.365 49.3853 101.358 49.4927C101.352 49.6001 101.323 49.7049 101.272 49.7996C101.221 49.8943 101.149 49.9766 101.063 50.0408C100.977 50.1049 100.877 50.1493 100.772 50.1708C101.316 51.4582 101.951 52.8092 102.73 54.2507C103.084 54.0739 103.596 54.3505 103.864 54.8718C106.457 53.3985 111.076 52.9542 114.612 51.4446C114.545 51.2177 114.553 50.9752 114.635 50.7531C114.716 50.5311 114.867 50.3412 115.065 50.2116C114.526 48.9287 113.896 47.5823 113.125 46.1316V46.1452ZM108.447 52.1428C107.97 52.2744 107.462 52.2283 107.017 52.0132C106.571 51.798 106.219 51.4284 106.026 50.9732C105.722 50.0937 106.384 49.2505 107.454 49.0193C108.524 48.7881 109.576 49.2551 109.861 50.1255C110.147 50.9959 109.499 51.9025 108.447 52.1428Z" fill="black"/>
<g opacity="0.2">
<path opacity="0.2" d="M108.415 51.363C108.442 51.4401 108.465 51.5172 108.488 51.5942L108.279 51.6441C108.279 51.567 108.229 51.49 108.207 51.4129C107.98 51.4558 107.747 51.4434 107.527 51.3766C107.527 51.295 107.558 51.218 107.576 51.1409C107.755 51.2028 107.947 51.2184 108.134 51.1863C108.093 51.0503 108.048 50.9143 108.003 50.7737C107.703 50.7737 107.372 50.7737 107.282 50.4791C107.214 50.2705 107.345 50.0484 107.735 49.9305C107.708 49.8535 107.685 49.7764 107.658 49.6993L107.871 49.654C107.871 49.7311 107.916 49.8081 107.944 49.8852C108.127 49.8467 108.317 49.8467 108.501 49.8852L108.46 50.1164C108.31 50.091 108.157 50.091 108.007 50.1164C108.052 50.2524 108.098 50.3929 108.139 50.5335C108.442 50.5335 108.773 50.5335 108.864 50.8145C108.941 51.014 108.805 51.2406 108.415 51.363ZM107.925 50.5244C107.885 50.402 107.848 50.2796 107.808 50.1572C107.635 50.2207 107.581 50.3113 107.608 50.402C107.635 50.4927 107.767 50.5199 107.925 50.5244ZM108.551 50.8961C108.519 50.7964 108.392 50.7737 108.229 50.7737C108.265 50.8961 108.306 51.0185 108.343 51.1364C108.524 51.0729 108.56 50.9868 108.56 50.8961H108.551Z" fill="black"/>
</g>
<path d="M148.421 22.6402C143.716 24.2268 139.087 26.1897 135.583 29.2497C134.341 27.4092 133.063 25.5369 131.897 23.574C135.819 20.5775 140.393 18.6872 144.736 16.9645C145.978 18.805 147.256 20.6773 148.421 22.6402Z" fill="#9BA0A7"/>
<path opacity="0.5" d="M148.421 22.6402C143.716 24.2268 139.087 26.1897 135.583 29.2497C134.341 27.4092 133.063 25.5369 131.897 23.574C135.819 20.5775 140.393 18.6872 144.736 16.9645C145.978 18.805 147.256 20.6773 148.421 22.6402Z" fill="white"/>
<path opacity="0.2" d="M145.098 18.1386C144.858 18.2272 144.595 18.2348 144.349 18.1604C144.104 18.0859 143.889 17.9335 143.738 17.7261C140.139 19.1813 136.44 20.7906 133.14 23.098C133.263 23.3214 133.301 23.5815 133.249 23.831C133.197 24.0806 133.056 24.303 132.854 24.458C133.597 25.6593 134.373 26.8289 135.148 27.9849C135.236 27.9092 135.34 27.8534 135.452 27.8215C135.563 27.7895 135.681 27.7821 135.796 27.7998C135.911 27.8174 136.02 27.8597 136.118 27.9237C136.215 27.9878 136.297 28.0721 136.358 28.1708C139.414 25.8135 143.158 24.1543 146.966 22.7807C146.904 22.6829 146.865 22.5718 146.854 22.4564C146.842 22.341 146.858 22.2245 146.9 22.1163C146.942 22.0082 147.009 21.9115 147.095 21.8339C147.181 21.7564 147.285 21.7003 147.397 21.6701C146.653 20.4733 145.874 19.3037 145.103 18.1477L145.098 18.1386ZM140.674 24.0999C140.226 24.3386 139.705 24.4039 139.212 24.2835C138.719 24.1631 138.287 23.8654 137.999 23.4471C137.874 23.2385 137.795 23.0057 137.766 22.7641C137.737 22.5226 137.76 22.2777 137.833 22.0455C137.906 21.8134 138.027 21.5994 138.188 21.4174C138.35 21.2355 138.548 21.0899 138.77 20.9901C139.235 20.761 139.767 20.7087 140.267 20.843C140.768 20.9773 141.202 21.289 141.49 21.7199C141.612 21.9258 141.687 22.1556 141.711 22.3935C141.736 22.6314 141.708 22.8717 141.63 23.0979C141.553 23.3241 141.427 23.5308 141.262 23.7038C141.097 23.8768 140.896 24.0119 140.674 24.0999Z" fill="black"/>
<g opacity="0.2">
<path opacity="0.2" d="M140.412 23.2839L140.552 23.5151L140.362 23.6058L140.221 23.3791C140.013 23.476 139.783 23.5151 139.555 23.4924C139.555 23.4063 139.555 23.3156 139.532 23.2295C139.72 23.2536 139.91 23.2286 140.085 23.157C140.004 23.0164 139.917 22.8804 139.831 22.7444C139.541 22.817 139.224 22.8804 139.052 22.5948C138.92 22.3863 138.979 22.1143 139.319 21.9058L139.174 21.6701L139.364 21.5794L139.505 21.806C139.676 21.7323 139.862 21.6983 140.049 21.7063C140.049 21.7879 140.072 21.874 140.085 21.9602C139.931 21.9544 139.777 21.9775 139.632 22.0282L139.886 22.4452C140.176 22.3772 140.502 22.3138 140.679 22.5994C140.815 22.8079 140.747 23.0708 140.412 23.2839ZM139.682 22.4951L139.455 22.1279C139.305 22.2322 139.283 22.341 139.337 22.4316C139.392 22.5223 139.523 22.5268 139.682 22.4951ZM140.402 22.758C140.339 22.6583 140.208 22.6628 140.049 22.6946L140.271 23.0572C140.425 22.953 140.457 22.8487 140.402 22.7671V22.758Z" fill="black"/>
</g>
<path d="M65.5756 70.9695C62.1485 67.3973 56.5771 67.7327 53.1499 64.1696C54.2288 62.1991 55.3093 60.2271 56.3912 58.2536C59.8184 61.8259 65.3898 61.4949 68.8169 65.0536C67.738 67.027 66.6576 68.999 65.5756 70.9695Z" fill="#9BA0A7"/>
<path opacity="0.5" d="M65.5756 70.9695C62.1485 67.3973 56.5771 67.7327 53.1499 64.1696C54.2288 62.1991 55.3093 60.2271 56.3912 58.2536C59.8184 61.8259 65.3898 61.4949 68.8169 65.0536C67.738 67.027 66.6576 68.999 65.5756 70.9695Z" fill="white"/>
<path opacity="0.2" d="M67.9422 65.9058C67.7516 65.7292 67.6224 65.4962 67.5735 65.241C67.5245 64.9857 67.5584 64.7215 67.6702 64.4869C64.5695 62.0843 60.29 61.8349 57.1893 59.4278C57.1407 59.5319 57.0674 59.6227 56.9759 59.6922C56.8843 59.7617 56.7772 59.8078 56.6637 59.8265C56.5503 59.8453 56.4341 59.8361 56.325 59.7998C56.2159 59.7635 56.1174 59.7011 56.0378 59.6182L54.0205 63.3082C54.2094 63.4851 54.3371 63.7175 54.3852 63.9718C54.4333 64.226 54.3992 64.489 54.288 64.7226C57.3887 67.1298 61.6681 67.3791 64.7689 69.7863C64.8171 69.6818 64.89 69.5906 64.9813 69.5207C65.0727 69.4507 65.1797 69.4041 65.2932 69.3849C65.4066 69.3657 65.5231 69.3745 65.6324 69.4105C65.7417 69.4464 65.8405 69.5085 65.9204 69.5914L67.9377 65.9058H67.9422ZM60.0543 66.1325C59.8284 66.0595 59.6218 65.9366 59.4498 65.7729C59.2778 65.6093 59.1449 65.409 59.0608 65.1869C58.9768 64.9648 58.9438 64.7267 58.9643 64.4902C58.9849 64.2537 59.0584 64.0248 59.1794 63.8205C59.4466 63.3731 59.8599 63.0315 60.3495 62.8532C60.8391 62.6748 61.3753 62.6706 61.8676 62.8413C62.0937 62.9126 62.3007 63.0342 62.4732 63.1967C62.6457 63.3593 62.7792 63.5588 62.8638 63.7803C62.9484 64.0017 62.9818 64.2394 62.9616 64.4756C62.9414 64.7118 62.868 64.9404 62.7471 65.1442C62.481 65.5942 62.0676 65.9384 61.5769 66.1185C61.0862 66.2986 60.5483 66.3035 60.0543 66.1325Z" fill="black"/>
<g opacity="0.2">
<path opacity="0.2" d="M60.6662 65.4298C60.6254 65.5114 60.58 65.593 60.5347 65.6746L60.3398 65.6021L60.4712 65.3618C60.2731 65.2872 60.1045 65.1504 59.9907 64.972L60.2174 64.7906C60.3089 64.9388 60.4433 65.0558 60.6027 65.1261C60.6798 64.981 60.7614 64.836 60.843 64.6728C60.6118 64.5186 60.3897 64.3373 60.5393 64.0336C60.6211 63.9066 60.7447 63.8123 60.8887 63.7667C61.0327 63.7212 61.1881 63.7274 61.328 63.7842L61.464 63.5349L61.659 63.6074L61.523 63.8477C61.6851 63.9103 61.8265 64.0171 61.931 64.156L61.7134 64.3373C61.6272 64.2307 61.5189 64.1441 61.396 64.0834L61.1558 64.5368C61.387 64.6909 61.6091 64.8722 61.464 65.176C61.3807 65.3038 61.2557 65.3988 61.1104 65.4451C60.965 65.4913 60.8081 65.486 60.6662 65.4298ZM60.9835 64.428L61.1966 64.0381C61.0152 64.0018 60.9019 64.0381 60.852 64.1514C60.8022 64.2648 60.8702 64.3373 60.9835 64.428ZM61.1512 65.0898C61.2102 64.981 61.1512 64.8949 61.0107 64.8042L60.7976 65.1896C60.9835 65.2304 61.0968 65.1805 61.1512 65.0898Z" fill="black"/>
</g>
<path d="M177.706 52.7956C174.47 56.7033 168.894 54.6089 165.657 57.7323C164.474 55.5881 163.291 53.5254 162.107 51.6124C165.344 47.7047 170.92 49.7991 174.157 46.6756C175.34 48.8199 176.523 50.8735 177.706 52.7956Z" fill="#9BA0A7"/>
<path opacity="0.5" d="M177.706 52.7956C174.47 56.7033 168.894 54.6089 165.657 57.7323C164.474 55.5881 163.291 53.5254 162.107 51.6124C165.344 47.7047 170.92 49.7991 174.157 46.6756C175.34 48.8199 176.523 50.8735 177.706 52.7956Z" fill="white"/>
<path opacity="0.2" d="M174.574 48.1127C174.216 48.4346 173.667 48.2396 173.413 47.7455C170.444 49.6585 166.183 48.6204 163.218 51.0321C163.341 51.2584 163.389 51.5183 163.354 51.7737C163.319 52.029 163.203 52.2664 163.023 52.451C163.757 53.6886 164.496 54.9761 165.235 56.2998C165.593 55.9779 166.142 56.1729 166.396 56.6625C169.36 54.7494 173.622 55.7875 176.591 53.3804C176.467 53.1551 176.418 52.8957 176.453 52.6408C176.489 52.3858 176.605 52.1491 176.786 51.966C176.047 50.7329 175.308 49.4409 174.574 48.1172V48.1127ZM170.761 53.9788C169.791 54.1102 168.581 53.4076 168.041 52.3876C167.502 51.3676 167.824 50.3748 168.789 50.2388C169.755 50.1028 170.974 50.8145 171.509 51.8345C172.044 52.8545 171.731 53.8428 170.761 53.9788Z" fill="black"/>
<g opacity="0.2">
<path opacity="0.2" d="M170.485 53.0766L170.63 53.3532L170.444 53.3804L170.294 53.1038C170.062 53.1231 169.829 53.0809 169.619 52.9814L169.591 52.714C169.766 52.8009 169.959 52.843 170.154 52.8364L169.895 52.3422C169.737 52.3473 169.579 52.3106 169.439 52.2358C169.299 52.161 169.181 52.0508 169.097 51.9161C169.058 51.8637 169.034 51.8017 169.027 51.7368C169.02 51.6718 169.03 51.6062 169.057 51.5466C169.084 51.487 169.126 51.4356 169.179 51.3977C169.233 51.3599 169.295 51.337 169.36 51.3313L169.211 51.0502L169.401 51.023L169.546 51.2996C169.734 51.2862 169.923 51.3141 170.099 51.3812C170.099 51.4718 170.122 51.558 170.135 51.6441C169.991 51.5898 169.837 51.5636 169.682 51.567L169.95 52.0657C170.108 52.0602 170.265 52.0962 170.405 52.1702C170.545 52.2442 170.663 52.3535 170.747 52.4873C170.786 52.5402 170.81 52.6023 170.817 52.6674C170.824 52.7326 170.814 52.7984 170.787 52.8582C170.76 52.918 170.718 52.9697 170.665 53.0081C170.612 53.0464 170.55 53.0701 170.485 53.0766ZM169.759 52.043L169.523 51.5897C169.374 51.6441 169.351 51.7438 169.41 51.8526C169.448 51.9106 169.5 51.9584 169.561 51.9916C169.622 52.0248 169.69 52.0425 169.759 52.043ZM170.494 52.5508C170.452 52.4942 170.398 52.448 170.336 52.4158C170.274 52.3835 170.205 52.3661 170.135 52.3649L170.367 52.8182C170.498 52.7548 170.525 52.6596 170.471 52.5508H170.494Z" fill="black"/>
</g>
<path d="M157.973 83.2955C145.031 108.253 127.866 130.781 107.236 149.88L75.5439 125.727C96.1878 106.632 113.366 84.1036 126.317 59.1422L157.973 83.2955Z" fill="#9BA0A7"/>
<path opacity="0.2" d="M157.973 83.2955C156.909 85.3536 155.812 87.3936 154.681 89.4154C142.17 111.957 126.155 132.367 107.236 149.88L75.5439 125.727C96.1878 106.632 113.366 84.1036 126.317 59.1422L157.973 83.2955Z" fill="white"/>
<path opacity="0.2" d="M131.271 65.593C130.969 66.2035 130.534 66.7381 129.997 67.1571C129.46 67.5761 128.836 67.8688 128.17 68.0134C127.505 68.158 126.815 68.1508 126.153 67.9924C125.491 67.8339 124.873 67.5282 124.345 67.0981C113.108 87.2033 99.0751 105.612 82.6655 121.774C83.2236 122.166 83.6854 122.679 84.0162 123.276C84.347 123.872 84.5381 124.536 84.5752 125.216C84.6123 125.897 84.4944 126.578 84.2303 127.206C83.9663 127.835 83.563 128.396 83.0509 128.846L102.802 143.901C103.913 142.889 105.336 142.288 106.835 142.197C108.334 142.107 109.82 142.532 111.044 143.402C127.455 127.242 141.488 108.833 152.723 88.7264C150.343 86.9131 149.613 83.3136 151.023 80.6481L151.046 80.6073L131.29 65.5522L131.271 65.593ZM127.645 113.433C123.914 118.315 116.729 119.099 111.864 115.391C107 111.683 106.275 104.874 110.01 99.978C113.746 95.082 120.514 93.994 125.387 97.7113C130.26 101.429 131.403 108.55 127.663 113.433H127.645Z" fill="black"/>
<g opacity="0.2">
<path opacity="0.2" d="M124.254 109.353L125.564 110.35L124.83 111.311L123.52 110.309C122.572 111.406 121.335 112.222 120.346 112.422L119.576 111.003C120.615 110.722 121.551 110.147 122.273 109.348L119.934 107.567C118.628 108.627 117.119 109.688 115.496 108.446C114.303 107.539 113.945 105.894 115.169 103.936L113.85 102.929C114.095 102.612 114.34 102.29 114.58 101.968L115.876 102.956C116.549 102.143 117.409 101.507 118.383 101.102L119.204 102.489C118.425 102.817 117.722 103.303 117.141 103.917L119.499 105.731C120.804 104.665 122.273 103.541 123.896 104.779C125.084 105.672 125.464 107.349 124.254 109.353ZM118.533 106.492L116.452 104.906C115.944 105.835 116.09 106.506 116.606 106.896C117.123 107.286 117.803 107.018 118.533 106.492ZM122.885 106.361C122.314 105.907 121.656 106.238 120.922 106.814L122.989 108.392C123.52 107.413 123.379 106.746 122.876 106.361H122.885Z" fill="black"/>
</g>
<path opacity="0.2" d="M154.695 89.4064C142.181 111.952 126.161 132.365 107.236 149.88C107.236 149.88 93.8087 129.394 88.2373 125.586C88.2373 125.586 131.494 109.534 154.695 89.4064Z" fill="black"/>
<path d="M188.237 116.638C167.154 135.24 143.01 150.052 116.874 160.416L96.0205 126.452C122.156 116.09 146.299 101.278 167.379 82.6744C174.336 93.9986 181.289 105.32 188.237 116.638Z" fill="#9BA0A7"/>
<path opacity="0.3" d="M188.236 116.638C167.154 135.24 143.01 150.052 116.874 160.416L107.866 145.737C103.937 139.315 99.9946 132.888 96.0386 126.457C122.174 116.094 146.317 101.283 167.397 82.679C174.342 94.0001 181.288 105.32 188.236 116.638Z" fill="white"/>
<path opacity="0.2" d="M169.709 90.4853C169.211 90.9506 168.614 91.2968 167.962 91.4977C167.31 91.6986 166.622 91.749 165.948 91.6451C165.274 91.5412 164.632 91.2858 164.072 90.898C163.511 90.5102 163.045 90.0002 162.71 89.4064C144.973 104.1 125.241 116.204 104.104 125.355C104.483 125.922 104.729 126.567 104.822 127.243C104.916 127.918 104.854 128.606 104.643 129.255C104.432 129.903 104.076 130.495 103.602 130.986C103.129 131.476 102.55 131.853 101.91 132.087L114.907 153.24C116.307 152.697 117.851 152.651 119.282 153.107C120.713 153.564 121.945 154.497 122.772 155.751C143.911 146.603 163.643 134.499 181.378 119.802C179.81 117.254 180.431 113.632 182.706 111.642L182.743 111.61L169.759 90.4535L169.709 90.4853ZM149.083 133.796C143.838 137.006 136.843 135.156 133.67 129.929C130.497 124.702 132.255 118.102 137.5 114.897C142.745 111.692 149.455 113.084 152.66 118.329C155.865 123.574 154.346 130.596 149.083 133.796Z" fill="black"/>
<g opacity="0.2">
<path opacity="0.2" d="M147.378 128.751L148.24 130.156L147.206 130.786C146.925 130.333 146.639 129.879 146.354 129.399C145.075 130.074 143.634 130.392 142.623 130.219C142.555 129.685 142.487 129.15 142.414 128.615C143.484 128.727 144.564 128.529 145.524 128.044C145.013 127.209 144.503 126.375 143.992 125.541C142.387 126.058 140.601 126.498 139.531 124.757C138.747 123.479 139.005 121.815 140.855 120.432L139.989 119.018L141.018 118.383L141.87 119.775C142.79 119.26 143.822 118.977 144.876 118.95C144.967 119.48 145.053 120.011 145.143 120.536C144.297 120.565 143.466 120.766 142.7 121.126L144.25 123.655C145.855 123.134 147.628 122.617 148.693 124.353C149.477 125.632 149.223 127.332 147.378 128.751ZM143.063 124.027C142.606 123.284 142.153 122.54 141.703 121.797C140.891 122.481 140.796 123.157 141.127 123.71C141.458 124.263 142.201 124.258 143.063 124.027ZM147.165 125.478C146.789 124.861 146.064 124.92 145.18 125.169L146.54 127.386C147.374 126.684 147.496 126.013 147.165 125.478Z" fill="black"/>
</g>
<path opacity="0.2" d="M188.237 116.638C167.155 135.24 143.011 150.052 116.874 160.416L107.867 145.737L106.293 122.993C106.293 122.993 156.296 126.602 188.237 116.638Z" fill="black"/>
<path d="M194.284 160.656C166.918 167.104 138.642 168.765 110.709 165.565C109.935 152.307 109.158 139.047 108.378 125.786C136.317 128.992 164.601 127.331 191.972 120.876C192.737 134.138 193.507 147.398 194.284 160.656Z" fill="#9BA0A7"/>
<path opacity="0.4" d="M194.284 160.656C166.918 167.104 138.642 168.765 110.709 165.565C109.935 152.307 109.158 139.047 108.378 125.786C136.317 128.992 164.601 127.331 191.972 120.876C192.737 134.138 193.507 147.398 194.284 160.656Z" fill="white"/>
<path opacity="0.2" d="M190.304 128.846C189.644 129.014 188.955 129.032 188.287 128.897C187.62 128.763 186.991 128.48 186.448 128.069C185.905 127.659 185.461 127.131 185.15 126.525C184.839 125.92 184.668 125.252 184.651 124.571C162.078 129.15 138.969 130.501 116.017 128.583C116.083 129.262 115.995 129.947 115.758 130.586C115.521 131.226 115.142 131.803 114.65 132.275C114.158 132.747 113.565 133.101 112.916 133.31C112.267 133.519 111.579 133.579 110.903 133.483C111.39 141.749 111.873 150.015 112.354 158.28C113.845 158.462 115.229 159.149 116.275 160.227C117.321 161.305 117.966 162.709 118.102 164.205C141.055 166.123 164.163 164.772 186.736 160.194C186.559 157.206 188.817 154.3 191.759 153.638H191.804L190.349 128.846H190.304ZM151.671 157.292C145.533 157.641 140.256 152.705 139.885 146.598C139.513 140.492 144.223 135.505 150.361 135.156C156.499 134.807 161.744 139.236 162.102 145.343C162.46 151.449 157.805 156.952 151.671 157.292Z" fill="black"/>
<g opacity="0.2">
<path opacity="0.2" d="M152.533 152.038L152.628 153.679L151.422 153.752L151.327 152.124C150.023 152.161 148.738 151.799 147.646 151.086C147.841 150.583 148.031 150.08 148.221 149.577C149.113 150.178 150.157 150.513 151.232 150.542C151.177 149.563 151.12 148.585 151.059 147.609C149.405 147.305 147.619 146.852 147.501 144.812C147.415 143.316 148.43 141.974 150.71 141.639L150.615 139.984L151.821 139.912L151.916 141.539C152.97 141.514 154.014 141.753 154.953 142.233L154.437 143.756C153.679 143.38 152.852 143.164 152.007 143.121L152.184 146.086C153.838 146.381 155.647 146.761 155.769 148.806C155.874 150.279 154.849 151.662 152.533 152.038ZM150.96 145.832C150.905 144.965 150.854 144.096 150.805 143.225C149.767 143.443 149.359 143.992 149.396 144.64C149.432 145.288 150.107 145.619 150.978 145.832H150.96ZM153.893 149.051C153.852 148.334 153.185 148.04 152.288 147.845L152.437 150.442C153.521 150.211 153.947 149.699 153.893 149.051Z" fill="black"/>
</g>
<path d="M129.159 160.697C129.277 162.054 129.418 163.433 129.581 164.836H34.2461C37.229 139.635 34.2461 128.71 34.2461 128.71C66.106 126.312 129.581 128.71 129.581 128.71C129.581 128.71 127.663 140.85 128.955 158.235C129.016 159.042 129.084 159.863 129.159 160.697Z" fill="#9BA0A7"/>
<path opacity="0.2" d="M129.581 128.71C125.406 130.659 104.983 130.936 93.2331 130.206C81.4829 129.476 66.106 131.702 66.106 131.702C57.2026 128.628 34.2461 128.71 34.2461 128.71C66.106 126.312 129.581 128.71 129.581 128.71Z" fill="white"/>
<path opacity="0.2" d="M34.2461 164.836C37.229 139.635 34.2461 128.71 34.2461 128.71C34.2461 128.71 53.1453 128.297 66.106 131.702C66.106 131.702 66.5593 135.546 66.106 137.523C66.106 137.523 81.696 134.993 95.5723 135.328C95.5723 135.328 74.0936 137.799 66.106 139.635C66.106 139.635 53.2587 137.631 45.1305 137.523C45.1305 137.523 62.0306 139.721 66.106 141.036C66.106 141.036 70.9385 140.156 73.468 140.156C73.468 140.156 67.4161 141.258 66.106 142.242V149.205C66.106 149.205 52.615 149.472 45.8468 148.507C49.0609 149.01 62.1666 151.027 66.106 151.027C66.106 151.027 80.9933 150.479 89.6383 151.027C89.6383 151.027 69.9412 152.161 66.106 153.076H49.1969L66.106 154.495V155.905H73.3592L66.106 157.156C66.106 157.156 45.1305 155.823 39.0967 157.156C39.0967 157.156 63.853 158.28 66.0788 159.155L66.106 161.241C66.106 161.241 93.8678 157.573 118.42 160.728C118.42 160.728 82.5663 159.305 66.106 163.294C66.106 163.294 117.609 162.175 129.572 164.836H34.2461Z" fill="black"/>
<path d="M34.8036 131.702L32.2876 132.581C32.2876 132.581 47.4424 133.103 57.2206 134.599C57.2116 134.599 42.1475 131.919 34.8036 131.702Z" fill="#9BA0A7"/>
<path opacity="0.2" d="M68.3135 134.599L72.1486 135.328C72.1486 135.328 90.0052 133.388 111.112 133.153C111.112 133.153 80.6259 131.675 68.3135 134.599Z" fill="white"/>
<path opacity="0.2" d="M80.4131 138.701C80.4131 138.701 91.1207 135.782 100.509 135.927C109.898 136.072 127.768 134.599 127.768 134.599L128.47 135.927C128.47 135.927 114.458 136.747 102.894 136.652C95.3541 136.667 87.8309 137.352 80.4131 138.701Z" fill="white"/>
<path opacity="0.2" d="M69.7871 143.067C69.7871 143.067 82.5528 140.347 95.0692 140.596C107.586 140.846 123.348 141.825 123.348 141.825C123.348 141.825 89.1397 141.825 80.4131 143.638L69.7871 143.067Z" fill="white"/>
<path d="M91.8682 139.114C91.8682 139.114 102.861 138.207 112.35 138.701C121.838 139.195 131.802 139.64 131.802 139.64L128.47 140.583C128.47 140.583 105.627 138.293 91.8682 139.114Z" fill="#9BA0A7"/>
<path opacity="0.2" d="M91.8682 139.114C91.8682 139.114 102.861 138.207 112.35 138.701C121.838 139.195 131.802 139.64 131.802 139.64L128.47 140.583C128.47 140.583 105.627 138.293 91.8682 139.114Z" fill="black"/>
<path opacity="0.2" d="M70.1992 145.374C70.1992 145.374 89.239 145.139 98.4098 144.681C107.581 144.223 119.879 146.766 119.879 146.766C119.879 146.766 104.707 146.444 100.01 147.188L70.1992 145.374Z" fill="black"/>
<path opacity="0.2" d="M68.3135 148.257L80.4128 147.188L106.189 148.257L80.0819 149.327L68.3135 148.257Z" fill="white"/>
<path opacity="0.2" d="M77.3618 153.938C77.3618 153.938 94.9555 152.297 101.81 152.21C108.664 152.124 127.11 150.891 127.11 150.891L125.061 153.611C125.061 153.611 90.3769 152.872 77.3618 153.938Z" fill="white"/>
<path d="M121.974 144.681L128.47 145.293L130.238 144.681C127.49 144.424 124.723 144.424 121.974 144.681Z" fill="#9BA0A7"/>
<path d="M129.291 130.967L131.802 131.371L129.105 132.781L113.238 132.445C113.238 132.445 125.134 132.287 129.291 130.967Z" fill="#9BA0A7"/>
<path opacity="0.2" d="M121.974 144.681L128.47 145.293L130.238 144.681C127.49 144.424 124.723 144.424 121.974 144.681Z" fill="white"/>
<path opacity="0.2" d="M129.291 130.967L131.802 131.371L129.105 132.781L113.238 132.445C113.238 132.445 125.134 132.287 129.291 130.967Z" fill="black"/>
<path opacity="0.2" d="M129.159 160.697C124.898 160.42 95.0371 156.667 95.0371 156.667C97.0272 156.435 123.094 157.977 128.955 158.235C129.016 159.042 129.084 159.863 129.159 160.697Z" fill="black"/>
<path d="M84.1982 156.154C84.1982 156.154 112.119 156.082 120.106 156.658C128.094 157.233 128.81 156.154 128.81 156.154L132.79 158.072C132.79 158.072 132.994 159.976 122.518 158.648C112.042 157.319 84.1982 156.154 84.1982 156.154Z" fill="#9BA0A7"/>
<path d="M61.387 142.115C61.387 142.115 45.0354 139.522 35.502 140.184C36.9348 140.509 38.2696 141.171 39.396 142.115H61.387Z" fill="#9BA0A7"/>
<path d="M35.4835 149.205C35.8552 149.164 47.7233 150.728 52.2566 150.891L33.8062 151.635L35.4835 149.205Z" fill="#9BA0A7"/>
<path d="M34.8126 159.459L52.7372 160.094L32.2876 161.608L34.8126 159.459Z" fill="#9BA0A7"/>
<path d="M67.4705 127.486C67.4705 127.486 92.9294 131.838 107.694 114.416L135.511 121.556C135.511 121.556 130.392 132.173 91.9502 130.763C53.508 129.354 67.4705 127.486 67.4705 127.486Z" fill="#9BA0A7"/>
<path opacity="0.5" d="M67.4705 127.486C67.4705 127.486 92.9294 131.838 107.694 114.416L135.511 121.556C135.511 121.556 130.392 132.173 91.9502 130.763C53.508 129.354 67.4705 127.486 67.4705 127.486Z" fill="white"/>
<path opacity="0.2" d="M82.0083 128.424C82.0083 128.424 97.5711 127.604 106.37 117.649C107.178 117.899 108.042 117.9 108.85 117.653C109.659 117.405 110.374 116.921 110.903 116.262L131.208 121.643C131.208 121.643 129.023 122.409 129.789 124.938C129.771 124.938 103.12 135.736 82.0083 128.424Z" fill="black"/>
<path d="M105.236 77.9326L105.712 75.4076C105.712 75.4076 104.729 74.4737 104.842 73.5943C104.955 72.7148 109.335 71.3276 110.11 71.2506C110.885 71.1735 110.59 74.3468 110.355 74.9225C110.119 75.4983 107.49 76.1918 107.49 76.1918L107.159 78.8529L105.236 77.9326Z" fill="#9BA0A7"/>
<path d="M54.7495 90.3448L53.0132 88.4498C53.0132 88.4498 53.3532 87.1397 52.8002 86.4688C52.2471 85.7979 47.7818 86.8995 47.0928 87.2576C46.4037 87.6157 48.3168 90.1408 48.8245 90.5034C49.3322 90.8661 51.9253 90.0501 51.9253 90.0501L53.6116 92.1399L54.7495 90.3448Z" fill="#9BA0A7"/>
<path d="M89.2793 86.2739C94.1616 86.0019 98.5861 87.0219 100.857 86.2739C103.128 85.5259 105.332 76.0785 105.332 76.0785L107.721 76.8854C107.721 76.8854 106.814 86.7181 102.888 89.352C98.9624 91.9858 89.8641 91.9631 89.8641 91.9631L89.2793 86.2739Z" fill="#9BA0A7"/>
<path opacity="0.7" d="M107.721 76.8854C107.721 76.8854 106.814 86.7181 102.888 89.352C100.622 90.848 96.7365 91.4871 93.7854 91.7637C91.5505 91.9677 89.8641 91.9631 89.8641 91.9631L89.5921 89.3066L89.2793 86.2739C94.1616 86.0019 98.5861 87.0219 100.857 86.2739C103.128 85.5259 105.332 76.0785 105.332 76.0785L107.721 76.8854Z" fill="white"/>
<path opacity="0.2" d="M93.7856 91.7637C91.5507 91.9677 89.8643 91.9631 89.8643 91.9631L89.5923 89.3066C91.1119 89.8972 92.5275 90.7267 93.7856 91.7637Z" fill="black"/>
<path d="M120.491 162.642L123.651 161.776L123.084 154.06L119.929 154.93L120.491 162.642Z" fill="#9BA0A7"/>
<path d="M123.846 161.354L120.174 161.608C120.112 161.61 120.054 161.637 120.012 161.682C119.969 161.727 119.946 161.786 119.947 161.848L119.97 164.763C119.98 164.915 120.051 165.058 120.165 165.159C120.28 165.26 120.429 165.311 120.582 165.303C121.86 165.194 122.468 165.076 124.082 164.953C125.522 164.904 126.956 164.753 128.375 164.5C129.735 164.187 129.372 162.873 128.774 162.886C127.228 162.803 125.73 162.32 124.426 161.486C124.252 161.38 124.049 161.333 123.846 161.354Z" fill="#263238"/>
<path d="M125.043 161.83C124.748 161.844 124.454 161.826 124.163 161.776C124.149 161.774 124.135 161.767 124.123 161.758C124.112 161.748 124.104 161.735 124.1 161.721C124.098 161.707 124.099 161.692 124.102 161.678C124.106 161.664 124.113 161.651 124.122 161.64C124.222 161.558 125.106 160.864 125.519 160.991C125.565 161.006 125.607 161.033 125.64 161.069C125.674 161.104 125.697 161.148 125.709 161.195C125.741 161.266 125.752 161.344 125.74 161.42C125.729 161.496 125.696 161.568 125.646 161.626C125.476 161.765 125.262 161.837 125.043 161.83ZM125.473 161.15C125.256 161.082 124.73 161.395 124.367 161.662C124.961 161.735 125.387 161.69 125.532 161.526C125.561 161.487 125.58 161.441 125.586 161.393C125.593 161.344 125.587 161.295 125.569 161.25C125.561 161.227 125.549 161.206 125.532 161.189C125.516 161.172 125.496 161.158 125.473 161.15Z" fill="#263238"/>
<path d="M124.177 161.776C124.172 161.778 124.167 161.779 124.161 161.779C124.156 161.779 124.15 161.778 124.145 161.776C124.134 161.77 124.125 161.762 124.117 161.753C124.109 161.744 124.103 161.733 124.1 161.721C124.1 161.69 123.959 160.747 124.263 160.402C124.303 160.359 124.353 160.325 124.408 160.303C124.462 160.281 124.521 160.272 124.58 160.275C124.645 160.273 124.71 160.292 124.763 160.33C124.816 160.368 124.855 160.422 124.875 160.484C124.97 160.837 124.53 161.554 124.222 161.767C124.216 161.771 124.208 161.775 124.201 161.776C124.193 161.778 124.185 161.778 124.177 161.776ZM124.54 160.443C124.509 160.444 124.479 160.452 124.451 160.466C124.424 160.48 124.4 160.5 124.381 160.524C124.222 160.849 124.172 161.217 124.24 161.572C124.523 161.3 124.696 160.934 124.725 160.543C124.725 160.497 124.685 160.447 124.576 160.443H124.54Z" fill="#263238"/>
<path opacity="0.2" d="M119.929 154.93L123.089 154.065L123.411 158.475L120.233 159.183L119.929 154.93Z" fill="black"/>
<path d="M116.357 162.528L113.369 163.893L112.612 160.683L111.592 156.367L114.566 155.003L115.591 159.314L116.357 162.528Z" fill="#9BA0A7"/>
<path opacity="0.2" d="M115.591 159.314L112.612 160.683L111.592 156.367L114.566 155.003L115.591 159.314Z" fill="black"/>
<path d="M116.479 162.084L112.898 162.923C112.838 162.934 112.785 162.968 112.75 163.018C112.715 163.068 112.701 163.13 112.712 163.19L113.202 166.069C113.216 166.144 113.246 166.215 113.288 166.279C113.33 166.342 113.385 166.397 113.449 166.439C113.513 166.481 113.584 166.51 113.659 166.524C113.734 166.539 113.811 166.538 113.886 166.522C115.133 166.209 115.699 165.996 117.286 165.615C118.701 165.347 120.095 164.977 121.457 164.509C122.731 163.988 122.182 162.746 121.597 162.855C120.21 163.104 118.134 162.651 117.064 162.156C116.883 162.068 116.677 162.042 116.479 162.084Z" fill="#263238"/>
<path d="M117.74 162.365C117.45 162.424 117.155 162.451 116.86 162.447C116.845 162.449 116.83 162.446 116.817 162.439C116.804 162.431 116.793 162.42 116.788 162.406C116.781 162.393 116.777 162.379 116.777 162.365C116.777 162.351 116.781 162.337 116.788 162.324C116.874 162.229 117.631 161.418 118.061 161.458C118.109 161.467 118.154 161.487 118.192 161.517C118.23 161.547 118.26 161.586 118.279 161.631C118.324 161.698 118.348 161.777 118.348 161.857C118.348 161.938 118.324 162.017 118.279 162.084C118.137 162.237 117.946 162.336 117.74 162.365ZM118.057 161.626C117.826 161.59 117.359 161.984 117.041 162.306C117.64 162.283 118.057 162.17 118.17 161.989C118.196 161.946 118.209 161.898 118.209 161.848C118.209 161.799 118.196 161.75 118.17 161.708C118.162 161.686 118.148 161.667 118.13 161.652C118.111 161.638 118.089 161.629 118.066 161.626H118.057Z" fill="#263238"/>
<path d="M116.873 162.447C116.869 162.449 116.864 162.45 116.86 162.45C116.855 162.45 116.85 162.449 116.846 162.447C116.834 162.443 116.823 162.436 116.813 162.428C116.804 162.419 116.796 162.409 116.792 162.397C116.792 162.37 116.492 161.454 116.742 161.068C116.774 161.019 116.817 160.978 116.867 160.948C116.917 160.917 116.974 160.898 117.032 160.892C117.097 160.878 117.164 160.887 117.223 160.917C117.283 160.946 117.33 160.995 117.358 161.055C117.508 161.386 117.191 162.166 116.905 162.415C116.903 162.423 116.9 162.43 116.894 162.435C116.888 162.441 116.881 162.445 116.873 162.447ZM117.018 161.087C116.959 161.102 116.907 161.139 116.873 161.191C116.77 161.538 116.779 161.91 116.9 162.252C117.137 161.939 117.251 161.55 117.222 161.159C117.222 161.114 117.163 161.068 117.055 161.082L117.018 161.087Z" fill="#263238"/>
<path d="M94.2211 118.714L93.2555 108.052L75.4533 108.469C75.4533 108.469 73.3453 123.324 74.8776 126.053C77.5975 130.927 95.5584 128.161 99.7562 128.574C101.47 129.481 110.636 159.885 110.636 159.885L115.772 157.814C115.772 157.814 110.251 132.16 108.972 127.327C107.245 120.609 100.119 120.727 94.2211 118.714Z" fill="#263238"/>
<path d="M123.723 157.288L119.19 157.705C119.19 157.705 113.637 129.422 113.206 129.299C112.435 129.077 110.182 128.823 108.972 128.506C100.567 126.321 79.8682 122.3 79.8682 122.3L87.5022 114.947C87.5022 114.947 122.109 119.099 122.862 127.223C123.247 131.113 123.723 157.288 123.723 157.288Z" fill="#263238"/>
<path opacity="0.2" d="M111.987 129.322C111.212 129.1 110.173 128.828 108.972 128.51C109.308 128.687 108.337 124.285 107.367 123.148C105.441 120.881 97.7069 119.648 94.9371 119.204C92.616 118.832 84.8369 118.147 84.8369 118.147C84.8369 118.147 98.5728 116.96 108.922 119.802C114.04 121.207 113.129 126.203 111.987 129.322Z" fill="black"/>
<path d="M73.0776 88.8624C73.0776 88.8624 79.6464 85.3763 89.2796 86.2739C89.2796 86.2739 92.6206 94.7692 93.2553 108.034L75.3443 109.276C75.3443 109.276 75.6661 97.9063 73.0776 88.8624Z" fill="#9BA0A7"/>
<path opacity="0.7" d="M75.3443 109.294C75.3901 106.198 75.2751 103.102 74.9998 100.019C74.8411 98.2055 74.6144 96.297 74.288 94.3522C73.9881 92.5009 73.584 90.6681 73.0776 88.8624C73.0776 88.8624 79.6464 85.3763 89.2796 86.2739C89.2796 86.2739 92.6206 94.7692 93.2553 108.034L75.3443 109.294Z" fill="white"/>
<path opacity="0.2" d="M75.013 100.019C74.8543 98.2055 74.6277 96.297 74.3013 94.3522C74.6193 94.0289 75.0026 93.777 75.4255 93.6132L75.4482 93.4138C75.4346 93.6314 76.373 96.9815 75.013 100.019Z" fill="black"/>
<path d="M78.0415 87.6293C79.6826 89.1208 83.699 88.5677 83.699 88.5677C83.699 88.5677 86.2059 87.8832 85.6801 87.0989C84.2022 86.8541 83.4905 86.1651 83.1913 85.2856C83.0325 84.737 82.9818 84.1627 83.0417 83.5947C83.0417 83.2864 83.1143 82.9691 83.1687 82.6563L78.1866 78.9798C78.853 81.4051 79.6508 85.8704 78.0415 87.6293Z" fill="#9BA0A7"/>
<path opacity="0.2" d="M79.3472 81.3145C79.5466 84.2928 81.9946 85.1179 83.1914 85.2856C83.0326 84.737 82.9818 84.1627 83.0418 83.5947L79.3472 81.3145Z" fill="black"/>
<path d="M82.4978 68.7618C84.3428 69.2605 85.8796 73.5172 84.497 76.3324C83.1143 79.1475 78.9482 71.2732 78.9482 71.2732C78.9482 71.2732 81.3055 68.4445 82.4978 68.7618Z" fill="#263238"/>
<path d="M86.3463 78.5265C86.3553 78.6986 86.3553 78.8711 86.3463 79.0433C86.3145 80.2718 85.8189 81.4428 84.9591 82.3208C84.1906 83.1213 83.1512 83.6062 82.0442 83.6808C81.2566 83.7198 80.4732 83.5444 79.7775 83.1731C77.5744 82.0534 76.9805 80.1131 75.6976 76.9126C75.3781 76.1679 75.2563 75.3533 75.3441 74.5477C75.4319 73.7421 75.7262 72.9728 76.1986 72.3143C76.671 71.6559 77.3055 71.1306 78.0405 70.7894C78.7755 70.4481 79.5862 70.3025 80.3941 70.3666C84.0207 70.634 86.0652 75.3532 86.3463 78.5265Z" fill="#9BA0A7"/>
<path d="M80.9609 76.1646C81.0289 76.4321 81.2555 76.618 81.4142 76.5409C81.5729 76.4638 81.659 76.2191 81.5729 75.9561C81.4867 75.6932 81.2691 75.5028 81.1195 75.5799C80.9699 75.6569 80.8747 75.8927 80.9609 76.1646Z" fill="#263238"/>
<path d="M83.9664 75.1764C84.0344 75.4439 84.2656 75.6071 84.4198 75.5527C84.5739 75.4983 84.6646 75.2308 84.5784 74.9633C84.4923 74.6959 84.2792 74.5327 84.1251 74.5871C83.971 74.6415 83.8848 74.9225 83.9664 75.1764Z" fill="#263238"/>
<path d="M83.0552 75.6207C83.6398 76.3293 84.3185 76.9546 85.0725 77.4793C84.9327 77.6702 84.7526 77.8281 84.545 77.9417C84.3374 78.0553 84.1073 78.1218 83.8712 78.1366L83.0552 75.6207Z" fill="#9BA0A7"/>
<path d="M84.6603 73.5399C84.6383 73.561 84.6117 73.5765 84.5825 73.5852C84.5533 73.5939 84.5224 73.5955 84.4925 73.5897C84.2941 73.5355 84.0858 73.5286 83.8842 73.5695C83.6827 73.6105 83.4935 73.6981 83.332 73.8255C83.3008 73.8555 83.2588 73.8719 83.2155 73.8711C83.1721 73.8702 83.1309 73.8522 83.1008 73.8209C83.0708 73.7897 83.0544 73.7478 83.0552 73.7044C83.0561 73.661 83.0741 73.6198 83.1054 73.5897C83.3067 73.4244 83.5445 73.3094 83.7991 73.2542C84.0538 73.199 84.3179 73.2053 84.5696 73.2724C84.5908 73.2767 84.611 73.2852 84.6289 73.2974C84.6468 73.3095 84.6621 73.3252 84.6739 73.3433C84.6857 73.3614 84.6938 73.3818 84.6977 73.4031C84.7016 73.4243 84.7012 73.4462 84.6965 73.4673C84.6872 73.4928 84.675 73.5171 84.6603 73.5399Z" fill="#263238"/>
<path d="M79.9683 75.1583C79.9376 75.1697 79.9038 75.1697 79.8731 75.1583C79.836 75.1365 79.809 75.1009 79.7979 75.0593C79.7869 75.0177 79.7927 74.9734 79.8142 74.9361C79.9464 74.7104 80.1305 74.5195 80.3513 74.3792C80.572 74.2388 80.823 74.1531 81.0835 74.1292C81.105 74.1286 81.1263 74.1322 81.1463 74.1399C81.1664 74.1475 81.1847 74.159 81.2003 74.1738C81.2158 74.1885 81.2284 74.2062 81.2371 74.2258C81.2459 74.2453 81.2507 74.2664 81.2512 74.2879C81.2513 74.3308 81.2349 74.3722 81.2054 74.4034C81.1759 74.4346 81.1355 74.4533 81.0926 74.4556C80.8874 74.4804 80.6908 74.5527 80.5184 74.6668C80.3461 74.7809 80.2027 74.9337 80.0998 75.1129C80.0822 75.1292 80.0615 75.1416 80.0388 75.1495C80.0162 75.1573 79.9922 75.1603 79.9683 75.1583Z" fill="#263238"/>
<path d="M76.7585 72.0167L77.4702 73.3767C77.2774 73.5852 77.1704 73.8588 77.1704 74.1428C77.1704 74.4268 77.2774 74.7004 77.4702 74.9089C78.3768 75.9244 78.4131 78.0278 77.7784 79.1158C77.7784 79.1158 77.5563 78.6126 77.1664 78.8982C76.7766 79.1838 77.928 81.8267 79.2654 82.7832C79.2654 82.7832 77.5382 82.1168 75.7339 79.5737C74.0657 77.2254 73.15 75.0812 73.2996 73.8663L76.7585 72.0167Z" fill="#263238"/>
<path d="M75.1584 80.027C75.7618 80.6475 76.5869 81.003 77.4523 81.0153C78.6037 81.0153 78.8757 79.9227 78.3045 78.9934C77.7923 78.1729 76.5728 77.1529 75.5438 77.6017C74.5147 78.0505 74.4241 79.2563 75.1584 80.027Z" fill="#9BA0A7"/>
<path d="M84.2251 79.2745C84.0162 79.7312 83.8405 80.2024 83.6992 80.6843L83.4363 80.6526C82.2486 80.4939 81.7454 80.027 81.555 79.5555C81.4665 79.3247 81.4339 79.0761 81.4598 78.8302C81.469 78.6889 81.4996 78.5498 81.5505 78.4177C82.2398 78.8437 83.0129 79.1158 83.8171 79.2156C84.08 79.2609 84.2251 79.2745 84.2251 79.2745Z" fill="#263238"/>
<path d="M83.8213 79.2156L83.6536 79.6281C82.5339 79.4739 81.7632 79.2155 81.4595 78.8302C81.4687 78.6889 81.4992 78.5498 81.5501 78.4177C82.2408 78.8443 83.0156 79.1164 83.8213 79.2156Z" fill="white"/>
<path d="M83.436 80.6526C82.2483 80.4939 81.7451 80.027 81.5547 79.5555C82.0069 79.6308 82.4426 79.7842 82.8421 80.0089C83.1019 80.1569 83.3093 80.3818 83.436 80.6526Z" fill="#9BA0A7"/>
<path d="M79.7911 72.2524C79.7911 72.2524 79.4737 70.0855 80.8428 70.5071C82.2118 70.9287 82.307 70.1037 81.8991 68.4309C81.4911 66.7581 77.5652 66.1642 75.3439 68.9069C73.1226 71.6495 72.3474 73.9479 73.4218 75.1628C74.4962 76.3777 78.5898 72.7919 78.5898 72.7919C78.7014 72.1794 78.9613 71.6035 79.3468 71.1146C79.372 71.5311 79.5274 71.9291 79.7911 72.2524Z" fill="#263238"/>
<path d="M81.9082 88.3954L84.0796 90.313C84.0796 90.313 85.2719 98.3823 88.2004 101.909H90.0137L90.3718 100.658C87.6477 97.6166 85.6921 93.9666 84.669 90.0138V87.4435L81.9082 88.3954Z" fill="#263238"/>
<path d="M78.5947 85.884L83.0554 87.5568L83.4362 85.2856L85.7527 86.1243L86.3466 88.9938L83.1914 88.2141L81.6274 90.3085L77.0806 87.3664L78.5947 85.884Z" fill="#9BA0A7"/>
<path opacity="0.5" d="M78.5947 85.884L83.0554 87.5568L83.4362 85.2856L85.7527 86.1243L86.3466 88.9938L83.1914 88.2141L81.6274 90.3085L77.0806 87.3664L78.5947 85.884Z" fill="white"/>
<path d="M75.0903 108.995L93.4637 107.249L93.5045 109.48L75.0994 110.985L75.0903 108.995Z" fill="black"/>
<path d="M89.5739 107.707C89.491 107.632 89.3932 107.576 89.2869 107.542C89.1807 107.507 89.0684 107.496 88.9574 107.508L87.3299 107.675C87.1288 107.696 86.9426 107.791 86.8083 107.942C86.674 108.093 86.6013 108.289 86.6046 108.491V109.534C86.6094 109.749 86.6988 109.952 86.8534 110.101C87.008 110.25 87.2152 110.331 87.4297 110.327H87.4977L89.1251 110.155C89.3258 110.135 89.5115 110.039 89.6451 109.888C89.7786 109.737 89.8504 109.541 89.8459 109.339V108.301C89.8453 108.188 89.8207 108.077 89.7739 107.975C89.727 107.872 89.6588 107.781 89.5739 107.707ZM89.0979 109.738L87.475 109.91C87.4194 109.918 87.3627 109.914 87.3088 109.898C87.2549 109.882 87.2049 109.856 87.1621 109.819C87.1193 109.783 87.0847 109.738 87.0605 109.687C87.0363 109.636 87.023 109.581 87.0217 109.525V108.487C87.02 108.388 87.0554 108.293 87.1209 108.219C87.1863 108.145 87.2771 108.098 87.3753 108.088L88.9982 107.92H89.0344C89.1375 107.92 89.2365 107.961 89.3102 108.033C89.3839 108.105 89.4265 108.203 89.4288 108.306V108.446H89.3654L88.912 108.487C88.8757 108.49 88.8404 108.501 88.8081 108.518C88.7758 108.534 88.7472 108.558 88.7238 108.586C88.7004 108.614 88.6828 108.646 88.6719 108.681C88.6611 108.715 88.6572 108.752 88.6604 108.788C88.6637 108.825 88.6741 108.86 88.691 108.892C88.708 108.925 88.7311 108.953 88.7591 108.977C88.7871 109 88.8194 109.018 88.8542 109.028C88.889 109.039 88.9256 109.043 88.9619 109.04L89.4152 108.995H89.4379V109.353C89.4376 109.447 89.4029 109.539 89.3404 109.609C89.2778 109.68 89.1917 109.726 89.0979 109.738Z" fill="white"/>
<path d="M73.0776 88.8624C70.0131 90.6757 65.5886 96.646 64.0337 96.5236C62.4788 96.4012 54.0922 88.953 54.0922 88.953L52.1792 91.0248C52.1792 91.0248 59.9266 100.277 63.5351 100.975C67.1436 101.673 75.0904 94.9823 75.0904 94.9823C75.5398 93.8293 75.5398 92.5495 75.0904 91.3965C74.6829 90.3725 73.9828 89.4911 73.0776 88.8624Z" fill="#9BA0A7"/>
<path opacity="0.7" d="M73.0776 88.8624C70.0131 90.6757 65.5886 96.646 64.0337 96.5236C62.4788 96.4012 54.0922 88.953 54.0922 88.953L52.1792 91.0248C52.1792 91.0248 59.9266 100.277 63.5351 100.975C67.1436 101.673 75.0904 94.9823 75.0904 94.9823C75.5398 93.8293 75.5398 92.5495 75.0904 91.3965C74.6829 90.3725 73.9828 89.4911 73.0776 88.8624Z" fill="white"/>
<path d="M101.13 131.004C101.13 131.004 40.2889 131.425 36.5127 122.88L63.6081 120.913C68.9854 123.168 74.489 125.11 80.0911 126.729C86.3471 128.556 93.7635 130.287 101.13 131.004Z" fill="#9BA0A7"/>
<path opacity="0.2" d="M101.13 131.004C101.13 131.004 99.2216 131.004 96.0483 131.004C83.0333 130.097 67.8377 123.633 67.8377 123.633C62.3525 124.838 58.5808 122.676 58.5808 122.676L43.7932 123.524C43.8728 123.888 43.8694 124.265 43.783 124.628C43.6967 124.991 43.5297 125.329 43.2946 125.618C50.9603 127.772 59.2245 129.082 65.961 129.875C51.731 128.81 38.2263 126.779 36.4946 122.894L63.5901 120.926C63.5901 120.926 82.5165 129.19 101.13 131.004Z" fill="white"/>
<path opacity="0.2" d="M101.13 131.004C101.13 131.004 40.2889 131.425 36.5127 122.88C36.5127 122.88 57.0711 131.761 80.0911 126.729C86.3471 128.556 93.7635 130.287 101.13 131.004Z" fill="black"/>
</svg>
