<svg width="221" height="221" viewBox="0 0 221 221" fill="none" xmlns="http://www.w3.org/2000/svg">
<circle cx="110.464" cy="110.464" r="110.464" fill="#F3F6F9"/>
<path d="M181.561 77.3157V152.097C181.566 154.039 180.961 155.935 179.833 157.516L179.773 157.475L162.077 140.813H161.961V91.1689L181.352 77.3157L181.405 77.2251L181.561 77.3157Z" fill="#9BA0A7"/>
<path d="M116.377 38.6061C114.445 37.4586 112.24 36.853 109.994 36.853C107.747 36.853 105.542 37.4586 103.611 38.6061L38.5859 77.228L38.6359 77.3155L86.7484 110.841L86.7891 110.781L161.958 91.1687L181.348 77.3155L181.402 77.2249L116.377 38.6061Z" fill="#BDBDBD"/>
<path d="M179.773 157.475L179.833 157.516C178.969 158.74 177.823 159.738 176.492 160.426C175.161 161.115 173.684 161.474 172.186 161.472H161.961V140.812H162.077L179.773 157.475Z" fill="#828282"/>
<path d="M107.395 125.228V161.472H47.8141C46.283 161.473 44.7751 161.099 43.4223 160.382C42.0695 159.665 40.9132 158.627 40.0547 157.359L89.3422 112.862L89.4422 112.719L107.395 125.228Z" fill="#828282"/>
<path d="M38.6375 77.3155L38.5859 77.228L38.4375 77.3155V152.097C38.4356 153.974 38.9991 155.807 40.0547 157.359L89.3438 112.862L89.4444 112.719L38.6375 77.3155Z" fill="#9BA0A7"/>
<path d="M153.644 77.5H97.1875V77.5187C102.812 77.6 107.5 82.1813 107.5 87.8188V183.147L114.27 178.628L121.067 183.147L127.872 178.628L134.688 183.147L141.503 178.628L148.323 183.147L155.099 178.628L161.875 183.147V85.8281C161.885 84.7399 161.679 83.6606 161.27 82.6522C160.861 81.6437 160.256 80.7261 159.491 79.9521C158.726 79.1782 157.816 78.5631 156.812 78.1422C155.809 77.7214 154.732 77.5031 153.644 77.5Z" fill="#ECECF7"/>
<path d="M97.3016 77.5187C97.2484 77.5156 97.1728 77.5156 97.1197 77.5156C95.7699 77.5172 94.4336 77.7852 93.1875 78.3042C91.9415 78.8233 90.8101 79.5832 89.8584 80.5404C88.9066 81.4975 88.1532 82.6332 87.6412 83.8822C87.1292 85.1312 86.8689 86.4689 86.875 87.8188V110.781L86.8438 110.841L107.5 125.228V87.8188C107.489 85.108 106.414 82.51 104.507 80.5837C102.599 78.6574 100.012 77.5568 97.3016 77.5187Z" fill="#B0B6CC"/>
<path d="M149.737 101.562H119.966L117.578 130.312H151.856L149.737 101.562Z" fill="#6FCF97"/>
<path d="M151.856 130.347L149.947 136.338H119.756L117.578 130.347H151.856Z" fill="#27AE60"/>
<path d="M126.93 117.331H142.773V123.166H126.93V117.331Z" fill="#27AE60"/>
<path d="M38.6375 77.3155L38.5859 77.228L38.4375 77.3155V152.097C38.4356 153.974 38.9991 155.807 40.0547 157.359L47.8125 150.356V83.709L38.6375 77.3155Z" fill="#7B858F"/>
<path d="M106.562 77.5187V77.5H97.1875V77.5187C102.812 77.6 107.5 82.1813 107.5 87.8188V183.147L114.27 178.628L116.875 180.36V87.8188C116.875 82.1813 112.188 77.6 106.562 77.5187Z" fill="#CFCFE2"/>
<path d="M120.08 153.75H116.395C115.897 153.75 115.42 153.948 115.069 154.299C114.717 154.651 114.52 155.128 114.52 155.625C114.52 156.122 114.717 156.599 115.069 156.951C115.42 157.302 115.897 157.5 116.395 157.5H120.08C120.577 157.5 121.054 157.302 121.405 156.951C121.757 156.599 121.955 156.122 121.955 155.625C121.955 155.128 121.757 154.651 121.405 154.299C121.054 153.948 120.577 153.75 120.08 153.75Z" fill="#284268"/>
<path d="M153.629 153.75H127.215C126.718 153.75 126.241 153.948 125.889 154.299C125.537 154.651 125.34 155.128 125.34 155.625C125.34 156.122 125.537 156.599 125.889 156.951C126.241 157.302 126.718 157.5 127.215 157.5H153.629C154.126 157.5 154.603 157.302 154.955 156.951C155.307 156.599 155.504 156.122 155.504 155.625C155.504 155.128 155.307 154.651 154.955 154.299C154.603 153.948 154.126 153.75 153.629 153.75Z" fill="#284268"/>
<path d="M120.08 144.375H116.395C115.897 144.375 115.42 144.573 115.069 144.924C114.717 145.276 114.52 145.753 114.52 146.25C114.52 146.747 114.717 147.224 115.069 147.576C115.42 147.927 115.897 148.125 116.395 148.125H120.08C120.577 148.125 121.054 147.927 121.405 147.576C121.757 147.224 121.955 146.747 121.955 146.25C121.955 145.753 121.757 145.276 121.405 144.924C121.054 144.573 120.577 144.375 120.08 144.375Z" fill="#284268"/>
<path d="M153.629 144.375H127.215C126.718 144.375 126.241 144.573 125.889 144.924C125.537 145.276 125.34 145.753 125.34 146.25C125.34 146.747 125.537 147.224 125.889 147.576C126.241 147.927 126.718 148.125 127.215 148.125H153.629C154.126 148.125 154.603 147.927 154.955 147.576C155.307 147.224 155.504 146.747 155.504 146.25C155.504 145.753 155.307 145.276 154.955 144.924C154.603 144.573 154.126 144.375 153.629 144.375Z" fill="#284268"/>
<path d="M120.08 162.812H116.395C115.897 162.812 115.42 163.01 115.069 163.362C114.717 163.713 114.52 164.19 114.52 164.688C114.52 165.185 114.717 165.662 115.069 166.013C115.42 166.365 115.897 166.562 116.395 166.562H120.08C120.577 166.562 121.054 166.365 121.405 166.013C121.757 165.662 121.955 165.185 121.955 164.688C121.955 164.19 121.757 163.713 121.405 163.362C121.054 163.01 120.577 162.812 120.08 162.812Z" fill="#284268"/>
<path d="M153.629 162.812H127.215C126.718 162.812 126.241 163.01 125.889 163.362C125.537 163.713 125.34 164.19 125.34 164.688C125.34 165.185 125.537 165.662 125.889 166.013C126.241 166.365 126.718 166.562 127.215 166.562H153.629C154.126 166.562 154.603 166.365 154.955 166.013C155.307 165.662 155.504 165.185 155.504 164.688C155.504 164.19 155.307 163.713 154.955 163.362C154.603 163.01 154.126 162.812 153.629 162.812Z" fill="#284268"/>
<path d="M117.996 136.935C118.129 137.292 118.371 137.598 118.687 137.811C119.003 138.024 119.377 138.134 119.758 138.125H149.947C150.341 138.134 150.727 138.016 151.049 137.789C151.37 137.562 151.611 137.237 151.734 136.863L153.643 130.894C153.716 130.67 153.744 130.434 153.726 130.199L151.608 101.379C151.571 100.912 151.357 100.476 151.009 100.162C150.661 99.847 150.206 99.6773 149.737 99.6873H143.438V98.6023C143.438 96.3231 142.533 94.1372 140.921 92.5256C139.309 90.914 137.123 90.0085 134.844 90.0085C132.565 90.0085 130.379 90.914 128.768 92.5256C127.156 94.1372 126.251 96.3231 126.251 98.6023V99.6873H119.967C119.501 99.6785 119.049 99.8471 118.702 100.159C118.355 100.471 118.139 100.903 118.099 101.368L115.71 130.212C115.687 130.471 115.723 130.732 115.816 130.975L117.996 136.935ZM148.577 134.375H121.071L120.256 132.187H149.291L148.577 134.375ZM130.001 98.6023C130.001 97.3177 130.511 96.0856 131.419 95.1772C132.328 94.2689 133.56 93.7585 134.844 93.7585C136.129 93.7585 137.361 94.2689 138.269 95.1772C139.178 96.0856 139.688 97.3177 139.688 98.6023V99.6873H130.001V98.6023ZM121.693 103.437H126.251V109.268C126.251 109.765 126.448 110.242 126.8 110.593C127.151 110.945 127.628 111.143 128.126 111.143C128.623 111.143 129.1 110.945 129.451 110.593C129.803 110.242 130.001 109.765 130.001 109.268V103.437H139.688V109.268C139.688 109.765 139.886 110.242 140.237 110.593C140.589 110.945 141.066 111.143 141.563 111.143C142.06 111.143 142.537 110.945 142.889 110.593C143.241 110.242 143.438 109.765 143.438 109.268V103.437H147.995L149.839 128.437H119.615L121.693 103.437Z" fill="#284268"/>
<path d="M142.812 115.312H126.875C126.378 115.312 125.901 115.51 125.549 115.862C125.198 116.213 125 116.69 125 117.188V123.125C125 123.622 125.198 124.099 125.549 124.451C125.901 124.802 126.378 125 126.875 125H142.812C143.31 125 143.787 124.802 144.138 124.451C144.49 124.099 144.688 123.622 144.688 123.125V117.188C144.688 116.69 144.49 116.213 144.138 115.862C143.787 115.51 143.31 115.312 142.812 115.312ZM140.938 121.25H128.75V119.062H140.938V121.25Z" fill="#284268"/>
<path d="M182.519 75.7033L117.336 36.994C115.115 35.674 112.579 34.9773 109.995 34.9773C107.412 34.9773 104.876 35.674 102.655 36.994L37.4809 75.7033C37.2011 75.8693 36.9693 76.1052 36.8083 76.3879C36.6473 76.6705 36.5626 76.9902 36.5625 77.3155V152.097C36.5625 158.299 41.6109 163.437 47.8144 163.437H105.625V183.146C105.619 183.485 105.705 183.819 105.875 184.113C106.044 184.406 106.291 184.648 106.588 184.811C106.88 184.965 107.208 185.036 107.538 185.018C107.867 185 108.185 184.893 108.459 184.709L114.232 180.876L120.012 184.709C120.318 184.912 120.677 185.021 121.045 185.021C121.412 185.021 121.771 184.912 122.077 184.709L127.862 180.877L133.646 184.709C133.953 184.912 134.313 185.021 134.681 185.021C135.049 185.021 135.41 184.912 135.717 184.709L141.501 180.877L147.285 184.709C147.592 184.912 147.952 185.021 148.321 185.021C148.689 185.021 149.049 184.912 149.356 184.709L155.14 180.877L160.923 184.709C161.193 184.893 161.508 185 161.835 185.018C162.161 185.036 162.487 184.965 162.776 184.813C163.075 184.65 163.324 184.409 163.495 184.115C163.667 183.821 163.755 183.486 163.75 183.146V163.437H172.186C178.389 163.437 183.438 158.299 183.438 152.096V77.3155C183.437 76.9902 183.353 76.6705 183.192 76.3879C183.031 76.1052 182.799 75.8693 182.519 75.7033ZM40.3125 152.096V80.7683L86.4703 112.931L40.6444 154.301C40.4241 153.587 40.3122 152.843 40.3125 152.096ZM160 179.654L156.134 177.065C155.831 176.861 155.474 176.753 155.108 176.753C154.743 176.753 154.386 176.861 154.083 177.065L148.31 180.897L142.531 177.064C142.225 176.861 141.865 176.752 141.497 176.752C141.129 176.752 140.769 176.861 140.463 177.064L134.681 180.897L128.897 177.064C128.59 176.861 128.23 176.753 127.862 176.753C127.494 176.753 127.134 176.861 126.827 177.064L121.041 180.897L115.255 177.064C114.948 176.861 114.588 176.752 114.22 176.752C113.867 176.752 113.523 176.861 113.235 177.064L109.375 179.656V144.375C109.375 143.878 109.177 143.401 108.826 143.049C108.474 142.697 107.997 142.5 107.5 142.5C107.003 142.5 106.526 142.697 106.174 143.049C105.823 143.401 105.625 143.878 105.625 144.375V159.687H47.8144C45.8892 159.672 44.0434 158.918 42.6581 157.581L89.6294 115.154L105.625 126.277V131.875C105.625 132.372 105.823 132.849 106.174 133.201C106.526 133.552 107.003 133.75 107.5 133.75C107.997 133.75 108.474 133.552 108.826 133.201C109.177 132.849 109.375 132.372 109.375 131.875V87.8187C109.341 84.6585 108.088 81.6335 105.878 79.3749H153.645C155.33 79.3749 156.947 80.0445 158.139 81.2363C159.33 82.4282 160 84.0447 160 85.7302V179.654ZM88.75 109.947V88.0077C88.75 83.4215 92.3347 79.539 96.9188 79.3943C98.0478 79.3594 99.1724 79.5514 100.226 79.9589C101.279 80.3663 102.241 80.981 103.052 81.7665C103.864 82.552 104.51 83.4923 104.952 84.5319C105.394 85.5714 105.623 86.6891 105.625 87.8187V121.706L88.75 109.947ZM153.645 75.6249H97.1875V75.6412C97.1875 75.6412 97.1562 75.6412 97.105 75.6412C95.5102 75.6444 93.9316 75.9621 92.4597 76.5761C90.9878 77.1901 89.6514 78.0884 88.527 79.2195C87.4027 80.3506 86.5124 81.6923 85.9072 83.1678C85.302 84.6434 84.9937 86.2238 85 87.8187V107.334L42.0072 77.3771L104.569 40.2187C106.211 39.2431 108.085 38.7282 109.995 38.7282C111.905 38.7282 113.779 39.2431 115.421 40.2187L178.018 77.3924L163.75 87.5843V85.7302C163.742 83.0526 162.675 80.4868 160.781 78.5934C158.888 76.7 156.322 75.6328 153.645 75.6249ZM172.186 159.687H163.75V144.966L177.222 157.694C175.849 158.962 174.054 159.673 172.186 159.687ZM179.688 152.096C179.687 152.899 179.558 153.696 179.303 154.457L163.75 139.816V92.1927L179.688 80.8093V152.096Z" fill="#284268"/>
<path d="M45.9375 91.5938C45.4402 91.5937 44.9633 91.7913 44.6117 92.1429C44.26 92.4946 44.0625 92.9715 44.0625 93.4688V95.4375C44.0625 95.9348 44.26 96.4117 44.6117 96.7633C44.9633 97.115 45.4402 97.3125 45.9375 97.3125C46.4348 97.3125 46.9117 97.115 47.2633 96.7633C47.615 96.4117 47.8125 95.9348 47.8125 95.4375V93.4688C47.8125 92.9715 47.615 92.4946 47.2633 92.1429C46.9117 91.7913 46.4348 91.5938 45.9375 91.5938Z" fill="#284268"/>
<path d="M45.9375 99.4971C45.4402 99.4971 44.9633 99.6946 44.6117 100.046C44.26 100.398 44.0625 100.875 44.0625 101.372V128.247C44.0625 128.744 44.26 129.221 44.6117 129.573C44.9633 129.925 45.4402 130.122 45.9375 130.122C46.4348 130.122 46.9117 129.925 47.2633 129.573C47.615 129.221 47.8125 128.744 47.8125 128.247V101.372C47.8125 100.875 47.615 100.398 47.2633 100.046C46.9117 99.6946 46.4348 99.4971 45.9375 99.4971Z" fill="#284268"/>
</svg>
