<svg width="221" height="221" viewBox="0 0 221 221" fill="none" xmlns="http://www.w3.org/2000/svg">
<circle cx="110.464" cy="110.464" r="110.464" fill="#F3F6F9"/>
<g clip-path="url(#clip0)">
<path d="M133 57.75C120.85 57.75 111 67.5997 111 79.7499C111 91.9001 120.85 101.75 133 101.75C145.144 101.736 154.986 91.8947 155 79.7502C155 67.5997 145.15 57.75 133 57.75ZM133 96.2502C123.887 96.2502 116.5 88.8628 116.5 79.7502C116.5 70.6375 123.887 63.2502 133 63.2502C142.109 63.2592 149.491 70.6411 149.5 79.7502C149.5 88.8628 142.113 96.2502 133 96.2502Z" fill="#5E646D"/>
<path d="M139.305 72.3057L130.249 81.3613L126.693 77.8056L122.805 81.6942L128.305 87.1941C128.82 87.71 129.52 87.9997 130.249 87.9997C130.978 87.9995 131.677 87.7097 132.193 87.1941L143.193 76.194L139.305 72.3057Z" fill="#27AE60"/>
<path d="M127.5 115.5H89V121H127.5V115.5Z" fill="#1034A6"/>
<path d="M94.5003 77H64.2501C53.6236 77.0121 45.0121 85.6236 45 96.2501H50.5002C50.5092 88.6598 56.6601 82.5092 64.2501 82.5002H94.5C97.5376 82.5002 99.9999 84.9625 99.9999 88.0001C99.9999 91.0376 97.5376 93.5 94.5 93.5H64.2501V98.9999H94.5C100.575 98.9999 105.5 94.0752 105.5 87.9998C105.5 81.9245 100.575 77 94.5003 77Z" fill="#5E646D"/>
<path d="M36.7501 88C35.2313 88 34 89.2311 34 90.7498V93.4999H47.7499V88H36.7501Z" fill="#5E646D"/>
<path d="M160.5 123.75V162.25C160.5 166.806 156.806 170.5 152.25 170.5H86.2499C81.6936 170.5 77.9999 166.806 77.9999 162.25V96.2498H72.5V162.25C72.509 169.84 78.6599 175.991 86.2499 176H152.25C159.84 175.991 165.991 169.84 166 162.25V123.75H160.5Z" fill="#5E646D"/>
<path d="M152.249 44H97.2488C96.5194 44.0003 95.8202 44.29 95.3046 44.8057L73.3047 66.8056L77.1933 70.6942L98.3875 49.4999H152.249C156.805 49.4999 160.499 53.1936 160.499 57.7499V96.2498H165.999V57.7499C165.99 50.1599 159.839 44.009 152.249 44Z" fill="#5E646D"/>
<path d="M99.1947 44.8064C98.1209 43.7324 96.3796 43.7321 95.3056 44.8059L73.3057 66.8058C72.7898 67.3215 72.5 68.0209 72.5 68.75V79.7501H77.9999V69.8885L94.4999 53.3885V63.2501C94.4999 64.7689 93.2686 66.0002 91.7498 66.0002H86.2499V71.5001H91.7498C96.3061 71.5001 99.9998 67.8064 99.9998 63.2501V46.7501C99.9996 46.021 99.71 45.3218 99.1947 44.8064Z" fill="#5E646D"/>
<path d="M50.4999 118.25H45C45.0121 128.877 53.6236 137.488 64.2501 137.5V132C56.6598 131.991 50.5089 125.84 50.4999 118.25Z" fill="#5E646D"/>
<path d="M75.2501 132H64.25V137.5H75.2501V132Z" fill="#5E646D"/>
<path d="M34 121V123.75C34 125.269 35.2313 126.5 36.7501 126.5H47.7502V121H34Z" fill="#5E646D"/>
<path d="M163.614 104.137C160.39 101.061 155.318 101.061 152.094 104.137L113.938 142.293C112.864 143.367 112.864 145.108 113.938 146.182L121.569 153.813C122.085 154.329 122.784 154.619 123.513 154.619C124.243 154.618 124.942 154.329 125.458 153.813L163.614 115.657C163.615 115.656 163.617 115.654 163.618 115.653C166.797 112.471 166.795 107.316 163.614 104.137ZM159.726 111.768L123.514 147.98L119.771 144.237L155.983 108.025C157.03 107.025 158.679 107.025 159.726 108.025C159.726 108.026 159.727 108.026 159.727 108.027C160.76 109.06 160.759 110.735 159.726 111.768Z" fill="#111519"/>
<path d="M122.276 149.41L114.4 153.346L118.344 145.461L113.424 143L105.79 158.271C105.599 158.653 105.5 159.074 105.5 159.501C105.501 161.02 106.733 162.251 108.251 162.25C108.677 162.254 109.097 162.16 109.481 161.975L124.751 154.33L122.276 149.41Z" fill="#111519"/>
<path d="M146.448 113.683L142.559 117.572L150.188 125.203L154.077 121.314L146.448 113.683Z" fill="#111519"/>
<path d="M108.25 156.75H89V162.25H108.25V156.75Z" fill="#5E646D"/>
<path d="M105.5 143H89V148.5H105.5V143Z" fill="#5E646D"/>
<path d="M113.75 129.25H89V134.75H113.75V129.25Z" fill="#507FDF"/>
<path d="M149.5 156.75H124.75V162.25H149.5V156.75Z" fill="#5E646D"/>
<path d="M149.5 143H138.5V148.5H149.5V143Z" fill="#507FDF"/>
</g>
<defs>
<clipPath id="clip0">
<rect width="132" height="132" fill="white" transform="translate(34 44)"/>
</clipPath>
</defs>
</svg>
