<svg width="36" height="36" viewBox="0 0 36 36" fill="none" xmlns="http://www.w3.org/2000/svg">
<path fill-rule="evenodd" clip-rule="evenodd" d="M18 0C27.9411 0 36 8.05887 36 18C36 27.9411 27.9411 36 18 36C8.05887 36 0 27.9411 0 18C0 8.05887 8.05887 0 18 0ZM3.38019 16.2118C3.85707 16.8224 5.18364 17.6038 7.21376 18.2414C8.01293 18.4923 8.88816 18.7129 9.82727 18.9003C9.82123 18.6019 9.81818 18.3018 9.81818 18C9.81818 12.5548 10.8091 7.6374 12.5256 4.32377C7.63229 6.28428 4.03586 10.7949 3.38019 16.2118ZM10.0295 22.2722C7.40178 21.8154 5.14868 21.1241 3.44119 20.2348C4.23544 25.4522 7.76739 29.7698 12.5256 31.6762C11.2724 29.2569 10.4059 25.9826 10.0295 22.2722ZM13.3837 22.7083C14.8517 22.8406 16.398 22.9091 18.0003 22.9091C19.5765 22.9091 21.1295 22.8197 22.6232 22.6541C21.8851 28.541 19.8442 32.7273 18 32.7273C16.1615 32.7273 14.1275 28.5667 13.3837 22.7083ZM22.8867 19.3165C21.3329 19.5177 19.6824 19.6363 18.0003 19.6363C16.2914 19.6363 14.6511 19.5517 13.116 19.3912C13.0994 18.9336 13.0909 18.4696 13.0909 18C13.0909 9.79199 15.6986 3.27273 18 3.27273C20.3014 3.27273 22.9091 9.79199 22.9091 18C22.9091 18.444 22.9015 18.8831 22.8867 19.3165ZM25.9842 22.1349C25.6154 25.9019 24.7431 29.2271 23.4744 31.6762C28.3165 29.7362 31.8887 25.2992 32.5983 19.9579C30.8634 20.8602 28.5786 21.6147 25.9842 22.1349ZM32.6103 16.135C31.84 16.9993 29.4113 18.0259 26.1756 18.7432C26.1797 18.4966 26.1818 18.2489 26.1818 18C26.1818 12.5548 25.1909 7.63741 23.4744 4.32377C28.3446 6.27501 31.9301 10.7523 32.6103 16.135Z" fill="#1034A6"/>
</svg>
