<svg width="221" height="221" viewBox="0 0 221 221" fill="none" xmlns="http://www.w3.org/2000/svg">
<circle cx="110.464" cy="110.464" r="110.464" fill="#F3F6F9"/>
<g clip-path="url(#clip0)">
<path d="M72.6719 181.109L82.6156 171.166L92.5594 181.109L102.503 171.166L112.447 181.109L122.391 171.166L132.334 181.109L142.278 171.166L152.222 181.109L162.166 171.166L172.109 181.109V38.8906H72.6719V181.109Z" fill="#E0E0E0"/>
<path d="M85.3906 54.5H123.547V67.2188H85.3906V54.5Z" fill="#56CCF2"/>
<path d="M68.625 159.213C90.0174 159.213 107.359 141.871 107.359 120.479C107.359 99.0866 90.0174 81.7446 68.625 81.7446C47.2326 81.7446 29.8906 99.0866 29.8906 120.479C29.8906 141.871 47.2326 159.213 68.625 159.213Z" fill="#6FCF97"/>
<path d="M172.109 36H136.555C134.958 36 133.664 37.2941 133.664 38.8906C133.664 40.4871 134.958 41.7812 136.555 41.7812H169.219V174.131L164.21 169.122C163.667 168.58 162.932 168.275 162.166 168.275C161.399 168.275 160.664 168.58 160.122 169.122L152.222 177.021L144.322 169.122C143.78 168.58 143.045 168.275 142.278 168.275C141.512 168.275 140.776 168.58 140.234 169.122L132.335 177.021L124.435 169.122C123.306 167.993 121.476 167.993 120.347 169.122L112.447 177.021L104.547 169.122C104.005 168.58 103.27 168.275 102.503 168.275C101.737 168.275 101.002 168.58 100.459 169.122L92.5594 177.021L84.6599 169.122C84.1176 168.58 83.3825 168.275 82.6159 168.275C81.8493 168.275 81.1142 168.58 80.572 169.122L75.5625 174.131V161.523C95.224 158.21 110.25 141.068 110.25 120.479C110.25 99.8903 95.224 82.7481 75.5625 79.4354V41.7812H110.539C112.135 41.7812 113.43 40.4871 113.43 38.8906C113.43 37.2941 112.135 36 110.539 36H72.6719C71.0757 36 69.7812 37.2941 69.7812 38.8906V78.8709C69.3971 78.8605 69.0118 78.8541 68.625 78.8541C45.6729 78.8541 27 97.527 27 120.479C27 143.431 45.6729 162.104 68.625 162.104C69.0118 162.104 69.3971 162.098 69.7812 162.087V181.109C69.7812 182.278 70.4857 183.333 71.5656 183.78C72.6456 184.227 73.8891 183.98 74.7158 183.154L82.6156 175.254L90.5151 183.154C91.0571 183.696 91.7925 184 92.5591 184C93.3257 184 94.0608 183.696 94.603 183.154L102.503 175.254L110.402 183.154C110.945 183.696 111.68 184 112.446 184C113.213 184 113.948 183.696 114.49 183.154L122.391 175.254L130.29 183.153C130.833 183.695 131.568 184 132.334 184C133.101 184 133.836 183.695 134.378 183.153L142.278 175.254L150.178 183.153C150.72 183.695 151.455 184 152.222 184C152.988 184 153.724 183.695 154.266 183.153L162.165 175.254L170.065 183.153C170.618 183.706 171.357 184 172.109 184C172.482 184 172.857 183.928 173.215 183.78C174.295 183.332 174.999 182.278 174.999 181.109V38.8906C175 37.2941 173.706 36 172.109 36ZM32.7812 120.479C32.7812 100.715 48.8606 84.6353 68.625 84.6353C88.3894 84.6353 104.469 100.715 104.469 120.479C104.469 140.243 88.3894 156.323 68.625 156.323C48.8606 156.323 32.7812 140.243 32.7812 120.479Z" fill="#070707"/>
<path d="M78.0514 101.455C76.6159 100.759 74.8859 101.357 74.1887 102.793L58.2833 135.545C57.5858 136.981 58.1847 138.711 59.6208 139.408C60.0275 139.606 60.4576 139.699 60.8814 139.699C61.9535 139.699 62.9837 139.1 63.4835 138.071L79.3889 105.318C80.0864 103.882 79.4875 102.153 78.0514 101.455Z" fill="#070707"/>
<path d="M64.0266 106.374C64.0266 101.272 59.8765 97.1221 54.7752 97.1221C49.6738 97.1221 45.5234 101.272 45.5234 106.374C45.5234 111.475 49.6735 115.625 54.7752 115.625C59.8763 115.625 64.0266 111.475 64.0266 106.374ZM54.7752 109.844C52.8616 109.844 51.3047 108.287 51.3047 106.374C51.3047 104.46 52.8616 102.903 54.7752 102.903C56.6885 102.903 58.2454 104.46 58.2454 106.374C58.2454 108.287 56.6885 109.844 54.7752 109.844Z" fill="#070707"/>
<path d="M82.9861 125.333C77.8847 125.333 73.7344 129.483 73.7344 134.584C73.7344 139.686 77.8844 143.836 82.9861 143.836C88.0872 143.836 92.2376 139.686 92.2376 134.584C92.2376 129.483 88.0872 125.333 82.9861 125.333ZM82.9861 138.055C81.0725 138.055 79.5156 136.498 79.5156 134.584C79.5156 132.671 81.0725 131.114 82.9861 131.114C84.8994 131.114 86.4563 132.671 86.4563 134.584C86.4563 136.498 84.8994 138.055 82.9861 138.055Z" fill="#070707"/>
<path d="M126.438 67.2188V54.5C126.438 52.9035 125.143 51.6094 123.547 51.6094H85.3906C83.7944 51.6094 82.5 52.9035 82.5 54.5V67.2188C82.5 68.8152 83.7944 70.1094 85.3906 70.1094H123.547C125.143 70.1094 126.438 68.8152 126.438 67.2188ZM120.656 64.3281H88.2812V57.3906H120.656V64.3281Z" fill="#070707"/>
<path d="M101.578 82.8281H123.547C125.143 82.8281 126.438 81.534 126.438 79.9375C126.438 78.341 125.143 77.0469 123.547 77.0469H101.578C99.9819 77.0469 98.6875 78.341 98.6875 79.9375C98.6875 81.534 99.9819 82.8281 101.578 82.8281Z" fill="#F2994A"/>
<path d="M156.5 122.719H122.391C120.794 122.719 119.5 124.013 119.5 125.609C119.5 127.206 120.794 128.5 122.391 128.5H156.5C158.096 128.5 159.391 127.206 159.391 125.609C159.391 124.013 158.096 122.719 156.5 122.719Z" fill="#070707"/>
<path d="M156.5 101H122.391C120.794 101 119.5 102.294 119.5 103.891C119.5 105.487 120.794 106.781 122.391 106.781H156.5C158.096 106.781 159.391 105.487 159.391 103.891C159.391 102.294 158.096 101 156.5 101Z" fill="#27AE60"/>
<path d="M156.5 138.906H122.391C120.794 138.906 119.5 140.2 119.5 141.797C119.5 143.393 120.794 144.688 122.391 144.688H156.5C158.096 144.688 159.391 143.393 159.391 141.797C159.391 140.2 158.096 138.906 156.5 138.906Z" fill="#070707"/>
<path d="M156.5 155.094H122.391C120.794 155.094 119.5 156.388 119.5 157.984C119.5 159.581 120.794 160.875 122.391 160.875H156.5C158.096 160.875 159.391 159.581 159.391 157.984C159.391 156.388 158.096 155.094 156.5 155.094Z" fill="#070707"/>
<path d="M123.547 41.7812C124.307 41.7812 125.053 41.472 125.59 40.9343C126.128 40.3966 126.438 39.6509 126.438 38.8906C126.438 38.1304 126.128 37.3846 125.59 36.847C125.053 36.3093 124.307 36 123.547 36C122.787 36 122.041 36.3093 121.503 36.847C120.966 37.3846 120.656 38.1304 120.656 38.8906C120.656 39.6509 120.965 40.3966 121.503 40.9343C122.041 41.472 122.787 41.7812 123.547 41.7812Z" fill="#070707"/>
<path d="M138.788 81V70.873H136.41V67.839H138.788V64.887H136.41V61.853H138.788V51.726H145.225L148.423 61.853H152.154V51.726H156.705V61.853H159.042V64.887H156.705V67.839H159.042V70.873H156.705V81H150.227L146.947 70.873H143.339V81H138.788ZM143.175 61.853H144.323L143.134 57.917H142.97L143.175 61.853ZM143.339 67.839H146.045L145.143 64.887H143.257L143.339 67.839ZM150.35 67.839H152.236L152.154 64.887H149.407L150.35 67.839ZM152.277 74.604H152.482L152.318 70.873H151.211L152.277 74.604Z" fill="#070707"/>
</g>
<defs>
<clipPath id="clip0">
<rect width="148" height="148" fill="white" transform="translate(27 36)"/>
</clipPath>
</defs>
</svg>
