<svg width="106" height="55" viewBox="0 0 106 55" fill="none"
    xmlns="http://www.w3.org/2000/svg">
    <mask id="mask0" mask-type="alpha" maskUnits="userSpaceOnUse" x="0" y="0" width="106" height="55">
        <rect x="1.25" y="0.5" width="104" height="53.7826" fill="#C4C4C4" stroke="#27AE60"/>
    </mask>
    <g mask="url(#mask0)">
        <path opacity="0.2" d="M17.9296 27.6988C9.43358 27.4281 1.35444 40.1428 -0.832031 45.4446V55.0938H111.935L108.052 13.2287C99.4214 15.5632 90.2159 10.8942 87.5843 10.778C81.6496 10.778 72.7996 24.0889 68.8431 31.0827C65.5947 37.3095 61.4508 38.6406 59.7849 38.5278C52.0386 38.7985 46.1455 24.8785 44.1673 17.8847C42.4181 10.0334 40.4488 8.40918 39.482 8.40919C37.8598 8.40413 35.4214 10.7104 32.9225 18.5616C30.4237 26.4127 26.4672 28.6011 24.8014 28.7139C22.4713 28.8717 19.6996 27.6988 17.9296 27.6988Z" fill="url(#paint0_linear)"/>
        <path d="M17.9296 27.6988L17.8977 28.6983C17.9084 28.6987 17.919 28.6988 17.9296 28.6988L17.9296 27.6988ZM24.8013 28.7139L24.7338 27.7162L24.8013 28.7139ZM39.4819 8.40919L39.4788 9.40919H39.482L39.4819 8.40919ZM44.1672 17.8847L43.1912 18.1022C43.1953 18.1206 43.1999 18.1388 43.205 18.1569L44.1672 17.8847ZM59.7849 38.5278L59.8525 37.5301C59.8183 37.5278 59.7841 37.5272 59.75 37.5284L59.7849 38.5278ZM68.8431 31.0827L67.9728 30.5903C67.9672 30.6002 67.9618 30.6101 67.9565 30.6202L68.8431 31.0827ZM87.5843 10.778L87.6285 9.77896C87.6138 9.77831 87.599 9.77798 87.5843 9.77798V10.778ZM0.0924391 45.8259C1.14459 43.2746 3.65292 38.8656 6.93298 35.1432C10.2579 31.3698 14.1315 28.5783 17.8977 28.6983L17.9614 26.6993C13.2317 26.5486 8.81767 29.9791 5.43242 33.8209C2.0023 37.7136 -0.622184 42.3129 -1.7565 45.0634L0.0924391 45.8259ZM17.9296 28.6988C18.6701 28.6988 19.6524 28.9499 20.9342 29.2407C22.1319 29.5125 23.5398 29.8016 24.8689 29.7116L24.7338 27.7162C23.7328 27.784 22.5898 27.5656 21.3767 27.2903C20.2476 27.0341 18.9591 26.6988 17.9296 26.6988L17.9296 28.6988ZM24.8689 29.7116C27.1345 29.5582 31.3221 26.8871 33.8754 18.8648L31.9696 18.2583C29.5253 25.9383 25.8 27.644 24.7338 27.7162L24.8689 29.7116ZM33.8754 18.8648C35.1095 14.9873 36.3048 12.5604 37.3417 11.1248C38.4032 9.6549 39.1568 9.40818 39.4788 9.40918L39.4851 7.40919C38.1849 7.40514 36.9082 8.30902 35.7203 9.9538C34.5077 11.6328 33.2343 14.2846 31.9696 18.2583L33.8754 18.8648ZM39.482 9.40919C39.4116 9.40919 39.8857 9.40271 40.6735 10.7169C41.4266 11.973 42.3272 14.224 43.1912 18.1022L45.1433 17.6673C44.2581 13.6942 43.2995 11.2074 42.3889 9.68853C41.5131 8.22778 40.5192 7.40918 39.4819 7.40919L39.482 9.40919ZM43.205 18.1569C44.2112 21.7143 46.2115 27.0362 48.964 31.4589C50.34 33.6697 51.9318 35.7015 53.7195 37.1723C55.5101 38.6455 57.5618 39.6061 59.8198 39.5272L59.75 37.5284C58.1348 37.5848 56.545 36.907 54.9902 35.6278C53.4324 34.3462 51.9749 32.5116 50.662 30.4021C48.0369 26.184 46.1015 21.049 45.1295 17.6126L43.205 18.1569ZM59.7173 39.5255C61.8923 39.6728 66.3564 38.0113 69.7297 31.5453L67.9565 30.6202C64.8329 36.6077 61.0093 37.6084 59.8525 37.5301L59.7173 39.5255ZM69.7135 31.5751C71.6748 28.1082 74.8446 23.0847 78.2449 18.9421C79.9465 16.8689 81.6806 15.0475 83.3268 13.7532C85.0026 12.4355 86.4448 11.778 87.5843 11.778V9.77798C85.7565 9.77798 83.8669 10.7843 82.0906 12.181C80.2846 13.601 78.4461 15.5445 76.6989 17.6732C73.2013 21.9345 69.968 27.0634 67.9728 30.5903L69.7135 31.5751ZM87.5402 11.777C87.7594 11.7867 88.1069 11.8495 88.6156 11.9807C89.1118 12.1087 89.7009 12.2853 90.3869 12.4947C91.7466 12.9097 93.445 13.4413 95.3352 13.8948C99.106 14.7996 103.759 15.4259 108.313 14.194L107.79 12.2634C103.714 13.3661 99.4491 12.8251 95.8018 11.95C93.9828 11.5135 92.3471 11.0019 90.9709 10.5818C90.289 10.3736 89.6598 10.1846 89.1151 10.0441C88.583 9.90686 88.0671 9.79834 87.6285 9.77896L87.5402 11.777Z" fill="#F15846"/>
        <mask id="path-5-inside-1" fill="white">
            <ellipse cx="79.2841" cy="16.1857" rx="1.43835" ry="1.55632"/>
        </mask>
        <ellipse cx="79.2841" cy="16.1857" rx="1.43835" ry="1.55632" fill="white"/>
        <path d="M78.7224 16.1857C78.7224 16.1134 78.7504 16.0174 78.8323 15.9288C78.9168 15.8374 79.0755 15.742 79.2841 15.742V19.742C81.3285 19.742 82.7224 17.9985 82.7224 16.1857H78.7224ZM79.2841 15.742C79.4926 15.742 79.6513 15.8374 79.7358 15.9288C79.8177 16.0174 79.8457 16.1134 79.8457 16.1857H75.8457C75.8457 17.9985 77.2396 19.742 79.2841 19.742V15.742ZM79.8457 16.1857C79.8457 16.2581 79.8177 16.354 79.7358 16.4427C79.6513 16.534 79.4926 16.6294 79.2841 16.6294V12.6294C77.2396 12.6294 75.8457 14.373 75.8457 16.1857H79.8457ZM79.2841 16.6294C79.0755 16.6294 78.9168 16.534 78.8323 16.4427C78.7504 16.354 78.7224 16.2581 78.7224 16.1857H82.7224C82.7224 14.373 81.3285 12.6294 79.2841 12.6294V16.6294Z" fill="#F15846" mask="url(#path-5-inside-1)"/>
    </g>
    <defs>
        <linearGradient id="paint0_linear" x1="55.5515" y1="8.40918" x2="55.3832" y2="55.0937" gradientUnits="userSpaceOnUse">
            <stop stop-color="#F15846"/>
            <stop offset="1" stop-color="#F15846" stop-opacity="0"/>
        </linearGradient>
    </defs>
</svg>