<svg width="18" height="18" class="cursor-pointer" viewBox="0 0 18 18" alt="refresh button" fill="none"
    xmlns="http://www.w3.org/2000/svg">
    <path fill-rule="evenodd" clip-rule="evenodd" d="M9 1.8C11.1543 1.8 13.0018 2.77083 14.2262 4.5H10.8V6.3H17.1V0H15.3V2.94331C13.7474 1.06426 11.5238 0 9 0C4.02944 0 0 4.02944 0 9H1.8C1.8 5.02355 5.02355 1.8 9 1.8ZM9 16.2C6.84574 16.2 4.99818 15.2292 3.77375 13.5H7.2V11.7H0.899997V18H2.7V15.0567C4.25259 16.9357 6.47619 18 9 18C13.9706 18 18 13.9706 18 9H16.2C16.2 12.9764 12.9764 16.2 9 16.2Z" fill="#070707" />
</svg>