<svg width="221" height="221" viewBox="0 0 221 221" fill="none" xmlns="http://www.w3.org/2000/svg">
<circle cx="110.464" cy="110.464" r="110.464" fill="#F3F6F9"/>
<path opacity="0.5" d="M170.176 77.2891V189H110V31H123.887L170.176 77.2891Z" fill="#7B858F"/>
<path d="M123.887 105.062H151.66V114.32H123.887V105.062Z" fill="#2D9CDB"/>
<path d="M170.176 70.7157V77.2891H123.887V31H130.46L170.176 70.7157Z" fill="#2D9CDB"/>
<path d="M68.3398 123.578H151.66V132.836H68.3398V123.578Z" fill="#2F80ED"/>
<path d="M68.3398 142.094H151.66V151.352H68.3398V142.094Z" fill="#2F80ED"/>
<path d="M68.3398 160.609H151.66V169.867H68.3398V160.609Z" fill="#2F80ED"/>
<path d="M105.371 105.062H114.629V114.32H105.371V105.062Z" fill="#2F80ED"/>
<path d="M110 105.062H114.629V114.32H110V105.062Z" fill="#2D9CDB"/>
<path d="M110 123.578H151.66V132.836H110V123.578Z" fill="#2D9CDB"/>
<path d="M110 142.094H151.66V151.352H110V142.094Z" fill="#2D9CDB"/>
<path d="M110 160.609H151.66V169.867H110V160.609Z" fill="#2D9CDB"/>
</svg>
