
<svg width="18" height="12" viewBox="0 0 18 12" fill="none" xmlns="http://www.w3.org/2000/svg">
<path fill-rule="evenodd" clip-rule="evenodd" d="M14.0845 1.57766C15.5275 2.50953 16.8149 3.81302 17.8071 5.34751C17.9324 5.54165 17.9993 5.76766 18 5.9987C18.0007 6.22975 17.935 6.45614 17.8109 6.651C16.8224 8.19824 15.5376 9.5066 14.0954 10.4355C12.5058 11.4588 10.7395 12 8.98794 12C7.19695 12 5.47571 11.475 3.87635 10.4388C2.45586 9.51973 1.18124 8.21436 0.190872 6.6645C0.0622912 6.465 -0.00407925 6.23178 0.000194111 5.99448C0.00446747 5.75717 0.0791917 5.5265 0.214871 5.33176C1.41674 3.60865 2.80048 2.27028 4.32784 1.35416C5.82558 0.455668 7.39345 4.57764e-05 8.98794 4.57764e-05C10.7257 4.57764e-05 12.4882 0.545667 14.0845 1.57766ZM7.00065 8.99327C7.59266 9.38884 8.28868 9.59998 9.00068 9.59998C9.95512 9.59889 10.8702 9.21925 11.545 8.54436C12.2199 7.86947 12.5996 6.95444 12.6007 6C12.6007 5.288 12.3895 4.59198 11.994 3.99996C11.5984 3.40795 11.0361 2.94653 10.3783 2.67406C9.72053 2.40159 8.99669 2.3303 8.29836 2.4692C7.60004 2.60811 6.95858 2.95097 6.45512 3.45444C5.95165 3.9579 5.60879 4.59936 5.46988 5.29768C5.33098 5.99601 5.40227 6.71984 5.67474 7.37765C5.94722 8.03546 6.40863 8.5977 7.00065 8.99327ZM11.4007 6.00007C11.4007 7.32555 10.3262 8.40006 9.00068 8.40006C7.67521 8.40006 6.6007 7.32555 6.6007 6.00007C6.6007 4.6746 7.67521 3.60009 9.00068 3.60009C10.3262 3.60009 11.4007 4.6746 11.4007 6.00007Z" fill="#F7B538"/>
</svg>
