<svg width="52" height="52" viewBox="0 0 52 52" fill="none" xmlns="http://www.w3.org/2000/svg">
<path d="M32.4262 23.4973L31.8019 22.8729L31.1191 23.5557L32.0849 24.5214C32.1754 24.6119 32.2982 24.6628 32.4262 24.6628C32.5543 24.6628 32.6771 24.6119 32.7676 24.5214L34.699 22.59L34.0163 21.9072L32.4262 23.4973Z" fill="#4ECDC4"/>
<path d="M32.4262 27.3601L31.8019 26.7358L31.1191 27.4186L32.0849 28.3843C32.1754 28.4748 32.2982 28.5256 32.4262 28.5256C32.5543 28.5256 32.6771 28.4748 32.7676 28.3843L34.699 26.4528L34.0163 25.7701L32.4262 27.3601Z" fill="#4ECDC4"/>
<path d="M32.4262 31.7058L31.8019 31.0815L31.1191 31.7643L32.0849 32.73C32.1754 32.8205 32.2982 32.8713 32.4262 32.8713C32.5543 32.8713 32.6771 32.8205 32.7676 32.73L34.699 30.7985L34.0163 30.1158L32.4262 31.7058Z" fill="#4ECDC4"/>
<path d="M38.2203 20.3171H34.8403V15.4885C34.8392 15.1047 34.6862 14.7369 34.4148 14.4655C34.1434 14.1941 33.7756 14.0411 33.3918 14.04H28.5632V13.5571C28.562 13.1733 28.4091 12.8055 28.1376 12.5341C27.8662 12.2627 27.4985 12.1097 27.1146 12.1085H26.1489V11.6257C26.1489 11.4976 26.098 11.3748 26.0075 11.2842C25.9169 11.1937 25.7941 11.1428 25.666 11.1428H21.8032C21.6751 11.1428 21.5523 11.1937 21.4618 11.2842C21.3712 11.3748 21.3203 11.4976 21.3203 11.6257V12.1085H20.3546C19.9708 12.1097 19.603 12.2627 19.3316 12.5341C19.0602 12.8055 18.9072 13.1733 18.906 13.5571V14.04H14.0775C13.6936 14.0411 13.3259 14.1941 13.0544 14.4655C12.783 14.7369 12.6301 15.1047 12.6289 15.4885V38.6657C12.6301 39.0495 12.783 39.4173 13.0544 39.6887C13.3259 39.9601 13.6936 40.1131 14.0775 40.1143H33.3918C33.7756 40.1131 34.1434 39.9601 34.4148 39.6887C34.6862 39.4173 34.8392 39.0495 34.8403 38.6657V34.8028H38.2203C38.6042 34.8017 38.972 34.6487 39.2434 34.3773C39.5148 34.1059 39.6678 33.7381 39.6689 33.3542V21.7657C39.6678 21.3818 39.5148 21.0141 39.2434 20.7427C38.972 20.4712 38.6042 20.3183 38.2203 20.3171ZM26.1489 13.0743H27.1146C27.2427 13.0743 27.3655 13.1251 27.4561 13.2157C27.5466 13.3062 27.5975 13.429 27.5975 13.5571V14.04H26.1489V13.0743ZM26.1489 15.0057H33.3918C33.5198 15.0057 33.6426 15.0566 33.7332 15.1471C33.8237 15.2377 33.8746 15.3605 33.8746 15.4885V20.3171H33.3918V15.9714C33.3918 15.8433 33.3409 15.7205 33.2503 15.63C33.1598 15.5394 33.037 15.4885 32.9089 15.4885H26.1489V15.0057ZM22.286 12.1085H25.1832V15.9714C25.1832 16.0995 25.1323 16.2223 25.0418 16.3128C24.9512 16.4034 24.8284 16.4543 24.7003 16.4543H22.7689C22.6408 16.4543 22.518 16.4034 22.4275 16.3128C22.3369 16.2223 22.286 16.0995 22.286 15.9714V12.1085ZM21.4072 16.4543C21.5075 16.7356 21.692 16.9793 21.9356 17.1521C22.1792 17.3249 22.4702 17.4184 22.7689 17.42H24.7003C24.999 17.4184 25.29 17.3249 25.5336 17.1521C25.7773 16.9793 25.9618 16.7356 26.062 16.4543H32.4261V20.3171H30.4946C30.1108 20.3183 29.743 20.4712 29.4716 20.7427C29.2002 21.0141 29.0472 21.3818 29.046 21.7657V33.3542C29.0472 33.7381 29.2002 34.1059 29.4716 34.3773C29.743 34.6487 30.1108 34.8017 30.4946 34.8028H32.4261V37.7H15.0432V16.4543H21.4072ZM19.8718 13.5571C19.8718 13.429 19.9226 13.3062 20.0132 13.2157C20.1037 13.1251 20.2266 13.0743 20.3546 13.0743H21.3203V14.04H19.8718V13.5571ZM33.8746 38.6657C33.8746 38.7937 33.8237 38.9166 33.7332 39.0071C33.6426 39.0977 33.5198 39.1485 33.3918 39.1485H14.0775C13.9494 39.1485 13.8266 39.0977 13.736 39.0071C13.6455 38.9166 13.5946 38.7937 13.5946 38.6657V15.4885C13.5946 15.3605 13.6455 15.2377 13.736 15.1471C13.8266 15.0566 13.9494 15.0057 14.0775 15.0057H21.3203V15.4885H14.5603C14.4323 15.4885 14.3095 15.5394 14.2189 15.63C14.1284 15.7205 14.0775 15.8433 14.0775 15.9714V38.1828C14.0775 38.3109 14.1284 38.4337 14.2189 38.5243C14.3095 38.6148 14.4323 38.6657 14.5603 38.6657H32.9089C33.037 38.6657 33.1598 38.6148 33.2503 38.5243C33.3409 38.4337 33.3918 38.3109 33.3918 38.1828V34.8028H33.8746V38.6657ZM38.7032 33.3542C38.7032 33.4823 38.6523 33.6051 38.5618 33.6957C38.4712 33.7862 38.3484 33.8371 38.2203 33.8371H30.4946C30.3666 33.8371 30.2437 33.7862 30.1532 33.6957C30.0626 33.6051 30.0118 33.4823 30.0118 33.3542V21.7657C30.0118 21.6376 30.0626 21.5148 30.1532 21.4242C30.2437 21.3337 30.3666 21.2828 30.4946 21.2828H38.2203C38.3484 21.2828 38.4712 21.3337 38.5618 21.4242C38.6523 21.5148 38.7032 21.6376 38.7032 21.7657V33.3542Z" fill="#4ECDC4"/>
<path d="M34.8398 23.2144H37.737V24.1801H34.8398V23.2144Z" fill="#4ECDC4"/>
<path d="M34.8398 27.0771H37.737V28.0429H34.8398V27.0771Z" fill="#4ECDC4"/>
<path d="M34.8398 31.4229H37.737V32.3886H34.8398V31.4229Z" fill="#4ECDC4"/>
<path d="M23.2516 21.2829H26.1488C26.2769 21.2829 26.3997 21.232 26.4902 21.1415C26.5808 21.0509 26.6316 20.9281 26.6316 20.8V20.3172H28.0802V19.3515H26.6316V18.8686C26.6316 18.7405 26.5808 18.6177 26.4902 18.5272C26.3997 18.4366 26.2769 18.3857 26.1488 18.3857H23.2516C23.1236 18.3857 23.0008 18.4366 22.9102 18.5272C22.8197 18.6177 22.7688 18.7405 22.7688 18.8686V19.3515H19.8716V18.8686C19.8716 18.7405 19.8208 18.6177 19.7302 18.5272C19.6397 18.4366 19.5169 18.3857 19.3888 18.3857H16.4916C16.3636 18.3857 16.2408 18.4366 16.1502 18.5272C16.0597 18.6177 16.0088 18.7405 16.0088 18.8686V20.8C16.0088 20.9281 16.0597 21.0509 16.1502 21.1415C16.2408 21.232 16.3636 21.2829 16.4916 21.2829H17.4574V23.2143H16.4916C16.3636 23.2143 16.2408 23.2652 16.1502 23.3557C16.0597 23.4463 16.0088 23.5691 16.0088 23.6972V25.6286C16.0088 25.7567 16.0597 25.8795 16.1502 25.97C16.2408 26.0606 16.3636 26.1115 16.4916 26.1115H17.4574V28.0429H16.4916C16.3636 28.0429 16.2408 28.0938 16.1502 28.1843C16.0597 28.2749 16.0088 28.3977 16.0088 28.5257V30.4572C16.0088 30.5852 16.0597 30.708 16.1502 30.7986C16.2408 30.8892 16.3636 30.94 16.4916 30.94H17.4574V32.8715H16.4916C16.3636 32.8715 16.2408 32.9223 16.1502 33.0129C16.0597 33.1034 16.0088 33.2263 16.0088 33.3543V35.2857C16.0088 35.4138 16.0597 35.5366 16.1502 35.6272C16.2408 35.7177 16.3636 35.7686 16.4916 35.7686H19.3888C19.5169 35.7686 19.6397 35.7177 19.7302 35.6272C19.8208 35.5366 19.8716 35.4138 19.8716 35.2857V34.8029H22.7688V35.2857C22.7688 35.4138 22.8197 35.5366 22.9102 35.6272C23.0008 35.7177 23.1236 35.7686 23.2516 35.7686H26.1488C26.2769 35.7686 26.3997 35.7177 26.4902 35.6272C26.5808 35.5366 26.6316 35.4138 26.6316 35.2857V34.8029H28.0802V33.8372H26.6316V33.3543C26.6316 33.2263 26.5808 33.1034 26.4902 33.0129C26.3997 32.9223 26.2769 32.8715 26.1488 32.8715H23.2516C23.1236 32.8715 23.0008 32.9223 22.9102 33.0129C22.8197 33.1034 22.7688 33.2263 22.7688 33.3543V33.8372H19.8716V33.3543C19.8716 33.2263 19.8208 33.1034 19.7302 33.0129C19.6397 32.9223 19.5169 32.8715 19.3888 32.8715H18.4231V30.94H19.3888C19.5169 30.94 19.6397 30.8892 19.7302 30.7986C19.8208 30.708 19.8716 30.5852 19.8716 30.4572V28.5257C19.8716 28.3977 19.8208 28.2749 19.7302 28.1843C19.6397 28.0938 19.5169 28.0429 19.3888 28.0429H18.4231V26.1115H19.3888C19.5169 26.1115 19.6397 26.0606 19.7302 25.97C19.8208 25.8795 19.8716 25.7567 19.8716 25.6286V25.1457H22.7688V25.6286C22.7688 25.7567 22.8197 25.8795 22.9102 25.97C23.0008 26.0606 23.1236 26.1115 23.2516 26.1115H24.2174V28.0429H23.2516C23.1236 28.0429 23.0008 28.0938 22.9102 28.1843C22.8197 28.2749 22.7688 28.3977 22.7688 28.5257V30.4572C22.7688 30.5852 22.8197 30.708 22.9102 30.7986C23.0008 30.8892 23.1236 30.94 23.2516 30.94H26.1488C26.2769 30.94 26.3997 30.8892 26.4902 30.7986C26.5808 30.708 26.6316 30.5852 26.6316 30.4572V29.9743H28.0802V29.0086H26.6316V28.5257C26.6316 28.3977 26.5808 28.2749 26.4902 28.1843C26.3997 28.0938 26.2769 28.0429 26.1488 28.0429H25.1831V26.1115H26.1488C26.2769 26.1115 26.3997 26.0606 26.4902 25.97C26.5808 25.8795 26.6316 25.7567 26.6316 25.6286V25.1457H28.0802V24.18H26.6316V23.6972C26.6316 23.5691 26.5808 23.4463 26.4902 23.3557C26.3997 23.2652 26.2769 23.2143 26.1488 23.2143H23.2516C23.1236 23.2143 23.0008 23.2652 22.9102 23.3557C22.8197 23.4463 22.7688 23.5691 22.7688 23.6972V24.18H19.8716V23.6972C19.8716 23.5691 19.8208 23.4463 19.7302 23.3557C19.6397 23.2652 19.5169 23.2143 19.3888 23.2143H18.4231V21.2829H19.3888C19.5169 21.2829 19.6397 21.232 19.7302 21.1415C19.8208 21.0509 19.8716 20.9281 19.8716 20.8V20.3172H22.7688V20.8C22.7688 20.9281 22.8197 21.0509 22.9102 21.1415C23.0008 21.232 23.1236 21.2829 23.2516 21.2829ZM23.7345 19.3515H25.6659V20.3172H23.7345V19.3515ZM23.7345 33.8372H25.6659V34.8029H23.7345V33.8372ZM25.6659 29.0086V29.9743H23.7345V29.0086H25.6659ZM23.7345 24.18H25.6659V25.1457H23.7345V24.18ZM18.9059 33.8372V34.8029H16.9745V33.8372H18.9059ZM18.9059 29.0086V29.9743H16.9745V29.0086H18.9059ZM18.9059 24.18V25.1457H16.9745V24.18H18.9059ZM18.9059 20.3172H16.9745V19.3515H18.9059V20.3172Z" fill="#4ECDC4"/>
</svg>
