<svg width="18" height="19" viewBox="0 0 18 19" fill="none"
    xmlns="http://www.w3.org/2000/svg">
    <path fill-rule="evenodd" clip-rule="evenodd" d="M14.4456 16.7801L16.2598 14.966L15.6209 12.6448L15.8992 11.98L17.9999 10.7947V8.22927L15.9052 7.03899L15.6315 6.37537L16.2784 4.053L14.463 2.24022L12.1416 2.87896L11.4783 2.60084L10.2929 0.5H7.72746L6.53718 2.59468L5.87371 2.86831L3.55172 2.22056L1.73913 4.03314L2.37798 6.35491L2.09986 7.01822L-0.000976562 8.20365V10.7683L2.09181 11.9613L2.36574 12.6255L1.7189 14.9474L3.53217 16.7607L5.85394 16.1219L6.51732 16.4L7.70278 18.5H10.2675L11.4596 16.4072L12.1237 16.1333L14.4456 16.7801ZM14.6057 10.8305L13.8923 12.5342L14.4286 14.4822L13.9635 14.9473L12.0196 14.4058L10.3152 15.1087L9.31562 16.8636H8.65742L7.66614 15.1076L5.96437 14.394L4.0153 14.9303L3.55101 14.466L4.09253 12.5221L3.38965 10.8179L1.63471 9.81752V9.15925L3.39151 8.16795L4.10508 6.46609L3.56878 4.51702L4.03211 4.0537L5.97599 4.59597L7.68098 3.89279L8.67901 2.13644H9.33655L10.3279 3.89324L12.0297 4.60681L13.9792 4.07041L14.4446 4.53518L13.9032 6.4787L14.6063 8.18354L16.3627 9.18157V9.8391L14.6057 10.8305ZM8.99867 12.7733C7.19111 12.7733 5.72579 11.308 5.72579 9.50041C5.72579 7.69285 7.19111 6.22753 8.99867 6.22753C10.8062 6.22753 12.2715 7.69285 12.2715 9.50041C12.2715 11.308 10.8062 12.7733 8.99867 12.7733ZM10.6362 9.50041C10.6362 10.4042 9.90355 11.1368 8.99977 11.1368C8.09599 11.1368 7.36333 10.4042 7.36333 9.50041C7.36333 8.59663 8.09599 7.86397 8.99977 7.86397C9.90355 7.86397 10.6362 8.59663 10.6362 9.50041Z" fill="#1034A6"/>
</svg>