<svg width="204" height="204" viewBox="0 0 204 204" fill="none" xmlns="http://www.w3.org/2000/svg">
<path d="M102 0.5C45.9484 0.5 0.5 45.9484 0.5 102C0.5 158.052 45.9484 203.5 102 203.5C158.052 203.5 203.5 158.052 203.5 102C203.5 45.9484 158.052 0.5 102 0.5ZM102 186.281C55.4641 186.281 17.7188 148.536 17.7188 102C17.7188 81.8359 24.8102 63.3031 36.6367 48.8031L155.197 167.363C140.697 179.19 122.164 186.281 102 186.281ZM167.363 155.197L48.8031 36.6367C63.3031 24.8102 81.8359 17.7188 102 17.7188C148.536 17.7188 186.281 55.4641 186.281 102C186.281 122.164 179.19 140.697 167.363 155.197Z" fill="#5E646D"/>
</svg>
