<svg width="28" height="34" viewBox="0 0 28 34" fill="none" xmlns="http://www.w3.org/2000/svg">
<path d="M27.1342 11.771L20.3279 9.13471C20.6839 8.1232 20.7922 7.0411 20.6437 5.97912C20.4952 4.91713 20.0943 3.90622 19.4746 3.03113C18.8548 2.15604 18.0343 1.44228 17.0819 0.949683C16.1294 0.457086 15.0727 0.200012 14.0004 0.200012C12.9281 0.200012 11.8714 0.457086 10.9189 0.949683C9.96644 1.44228 9.14594 2.15604 8.52621 3.03113C7.90647 3.90622 7.50555 4.91713 7.35707 5.97912C7.20859 7.0411 7.31687 8.1232 7.67283 9.13471L0.866556 11.771C0.729166 11.8246 0.61116 11.9184 0.527983 12.0402C0.444806 12.162 0.400335 12.3061 0.400391 12.4535V28.2412C0.400349 28.3889 0.444965 28.5332 0.528383 28.6551C0.611801 28.7769 0.730121 28.8708 0.867812 28.9242L13.7355 33.9122C13.82 33.9449 13.9098 33.9616 14.0004 33.9616C14.09 33.9598 14.1786 33.9413 14.2615 33.9072L14.2653 33.9122L27.1342 28.9242C27.2717 28.8706 27.3897 28.7767 27.4729 28.6548C27.5561 28.5329 27.6005 28.3888 27.6004 28.2412V12.4535C27.6004 12.3061 27.556 12.162 27.4728 12.0402C27.3896 11.9184 27.2716 11.8246 27.1342 11.771ZM24.8432 12.4535L22.4675 13.3741L18.5307 11.8593C18.9792 11.4466 19.3697 10.9751 19.6915 10.4575L24.8432 12.4535ZM17.0903 12.8745L20.438 14.1621L18.5478 14.8944L15.0804 13.5399C15.7816 13.4266 16.4601 13.202 17.0903 12.8745ZM19.3688 16.1465L21.8281 15.1932V18.2442L21.4168 17.976C21.2729 17.8823 21.1007 17.8421 20.9302 17.8625C20.7598 17.8828 20.6018 17.9624 20.484 18.0873L19.3688 19.2707V16.1465ZM14.0004 1.68317C15.0374 1.68317 16.0512 1.99068 16.9134 2.56683C17.7757 3.14297 18.4477 3.96186 18.8446 4.91996C19.2414 5.87805 19.3453 6.93231 19.143 7.94941C18.9407 8.96652 18.4413 9.90079 17.708 10.6341C16.9747 11.3674 16.0404 11.8667 15.0233 12.0691C14.0062 12.2714 12.952 12.1675 11.9939 11.7707C11.0358 11.3738 10.2169 10.7018 9.64073 9.83952C9.06458 8.97726 8.75707 7.96352 8.75707 6.92649C8.75862 5.53635 9.31154 4.20359 10.2945 3.22061C11.2775 2.23764 12.6103 1.68472 14.0004 1.68317ZM8.72778 11.0567L7.74774 10.6738L8.3089 10.4562C8.43747 10.6643 8.57731 10.8651 8.72778 11.058V11.0567ZM5.72782 11.4568L16.5258 15.6778L14.0004 16.6566L3.15763 12.4535L5.72782 11.4568ZM1.86501 27.7395V13.5231L13.2681 17.9437V32.1601L1.86501 27.7395ZM14.7327 32.1601V17.9437L17.9042 16.7135V21.1161C17.9043 21.2628 17.9484 21.4061 18.0308 21.5274C18.1133 21.6487 18.2303 21.7425 18.3666 21.7965C18.4525 21.8309 18.5441 21.8485 18.6365 21.8484C18.7364 21.8484 18.8352 21.828 18.9269 21.7885C19.0186 21.7489 19.1012 21.691 19.1696 21.6183L21.1301 19.5372L22.1608 20.2068C22.2713 20.2782 22.3989 20.3185 22.5304 20.3235C22.6618 20.3286 22.7922 20.2981 22.9078 20.2353C23.0234 20.1726 23.1199 20.0798 23.1873 19.9669C23.2547 19.8539 23.2904 19.7249 23.2907 19.5933V14.6253L26.1358 13.5231V27.7395L14.7327 32.1601Z" fill="#1034A6"/>
<path d="M12.6969 9.08163C12.8319 9.19594 13.0038 9.25748 13.1808 9.25486C13.3577 9.25225 13.5277 9.18566 13.6593 9.0674L17.2108 5.87538C17.2861 5.81218 17.3478 5.73447 17.3924 5.64689C17.437 5.55931 17.4636 5.46365 17.4704 5.3656C17.4773 5.26756 17.4643 5.16914 17.4323 5.07622C17.4003 4.98329 17.3499 4.89775 17.2842 4.82469C17.2184 4.75164 17.1387 4.69257 17.0496 4.651C16.9606 4.60943 16.864 4.58622 16.7658 4.58274C16.6676 4.57925 16.5697 4.59558 16.4779 4.63073C16.3861 4.66589 16.3024 4.71917 16.2316 4.78738L13.1551 7.55299L11.7541 6.36875C11.6057 6.24333 11.4137 6.18198 11.2201 6.19819C11.0265 6.21439 10.8474 6.30683 10.7219 6.45516C10.5965 6.60349 10.5352 6.79556 10.5514 6.98912C10.5676 7.18268 10.66 7.36188 10.8084 7.48729L12.6969 9.08163Z" fill="#1034A6"/>
</svg>
