<svg width="18" height="20" viewBox="0 0 18 20" fill="none" xmlns="http://www.w3.org/2000/svg">
<path fill-rule="evenodd" clip-rule="evenodd" d="M14 3.5V2.5C14 1.39543 13.1046 0.5 12 0.5H6C4.89543 0.5 4 1.39543 4 2.5V3.5H1C0.447716 3.5 0 3.94772 0 4.5C0 5.05228 0.447716 5.5 1 5.5H2V16.5C2 18.1569 3.34315 19.5 5 19.5H13C14.6569 19.5 16 18.1569 16 16.5V5.5H17C17.5523 5.5 18 5.05228 18 4.5C18 3.94772 17.5523 3.5 17 3.5H14ZM12 2.5H6V3.5H12V2.5ZM14 5.5H4V16.5C4 17.0523 4.44772 17.5 5 17.5H13C13.5523 17.5 14 17.0523 14 16.5V5.5Z" fill="#F15846"/>
<path d="M6 7.5H8V15.5H6V7.5Z" fill="#F15846"/>
<path d="M10 7.5H12V15.5H10V7.5Z" fill="#F15846"/>
</svg>
