<svg width="19" height="19" viewBox="0 0 19 19" fill="none" xmlns="http://www.w3.org/2000/svg">
<path fill-rule="evenodd" clip-rule="evenodd" d="M15.2485 17.1838L17.1633 15.269L16.489 12.8189L16.7828 12.1172L19 10.8661V8.1583L16.7891 6.90195L16.5002 6.20149L17.183 3.75021L15.2668 1.83681L12.8166 2.511L12.1165 2.21745L10.8653 0H8.15742L6.90108 2.21095L6.20078 2.49976L3.74989 1.81606L1.8367 3.72926L2.511 6.1799L2.21745 6.88002L0 8.13126V10.8383L2.20895 12.0975L2.49809 12.7985L1.81534 15.2494L3.72926 17.1633L6.1799 16.489L6.88011 16.7826L8.13137 18.9991H10.8385L12.0967 16.7901L12.7976 16.501L15.2485 17.1838ZM15.4181 10.9039L14.6652 12.7022L15.2312 14.7583L14.7403 15.2492L12.6885 14.6776L10.8895 15.4196L9.83444 17.2719H9.13971L8.09341 15.4184L6.29717 14.6652L4.23992 15.2313L3.74986 14.7412L4.32143 12.6895L3.57954 10.8906L1.7272 9.83471V9.1399L3.58151 8.09357L4.33468 6.29725L3.76862 4.24L4.25766 3.75096L6.30944 4.32333L8.10908 3.58112L9.1625 1.72728H9.85654L10.9029 3.58159L12.6992 4.33476L14.7568 3.76859L15.2481 4.25916L14.6767 6.31056L15.4188 8.11003L17.2726 9.16346V9.85749L15.4181 10.9039ZM9.49989 12.9545C7.592 12.9545 6.04535 11.4079 6.04535 9.49998C6.04535 7.59208 7.592 6.04543 9.49989 6.04543C11.4078 6.04543 12.9544 7.59208 12.9544 9.49998C12.9544 11.4079 11.4078 12.9545 9.49989 12.9545ZM11.2275 9.49996C11.2275 10.4539 10.4542 11.2272 9.50022 11.2272C8.54628 11.2272 7.77295 10.4539 7.77295 9.49996C7.77295 8.54602 8.54628 7.77269 9.50022 7.77269C10.4542 7.77269 11.2275 8.54602 11.2275 9.49996Z" fill="#070707"/>
</svg>
