<svg width="38" height="38" viewBox="0 0 38 38" fill="none" xmlns="http://www.w3.org/2000/svg">
<rect width="38" height="38" rx="19" fill="#507FDF" fill-opacity="0.15"/>
<path d="M19 18.6484V32.6963L18.0625 33.165L5.875 27.0859V11.8516L18.0625 5.75781L30.25 11.8516V22.75H28.375V13.9609L19 18.6484ZM18.0625 7.86719L14.5322 9.625L23.6289 14.2246L27.2178 12.4375L18.0625 7.86719ZM17.125 30.6016V18.6484L7.75 13.9609V25.9141L17.125 30.6016ZM8.90723 12.4375L18.0625 17.0078L21.5488 15.2793L12.4375 10.6797L8.90723 12.4375ZM24.625 30.25V28.375H34V30.25H24.625ZM24.625 24.625H34V26.5H24.625V24.625ZM20.875 34V32.125H22.75V34H20.875ZM20.875 26.5V24.625H22.75V26.5H20.875ZM20.875 30.25V28.375H22.75V30.25H20.875ZM19 30.6016H19.0146H19ZM24.625 34V32.125H34V34H24.625Z" fill="#1034A6"/>
</svg>
