<svg width="38" height="38" viewBox="0 0 38 38" fill="none" xmlns="http://www.w3.org/2000/svg">
<rect width="38" height="38" rx="19" fill="#4ECDC4" fill-opacity="0.1"/>
<g clip-path="url(#clip0_15512_109835)">
<path d="M23.6875 4.0293L34 9.18555V20.6846L32.125 19.7471V11.2803L24.625 15.0303V18.8096L22.75 19.7471V15.0303L15.25 11.2803V14.6055L13.375 13.668V9.18555L23.6875 4.0293ZM23.6875 13.4043L26.2803 12.1006L19.498 8.21875L16.4072 9.77148L23.6875 13.4043ZM28.3018 11.1045L30.9678 9.77148L23.6875 6.12402L21.5049 7.22266L28.3018 11.1045ZM20.875 20.6846L19 21.6221V21.6074L13.375 24.4199V31.085L19 28.2578V30.3672L12.4375 33.6484L4 29.415V19.5127L12.4375 15.2939L20.875 19.5127V20.6846ZM11.5 31.085V24.4199L5.875 21.6074V28.2578L11.5 31.085ZM12.4375 22.7939L17.8428 20.0986L12.4375 17.3887L7.03223 20.0986L12.4375 22.7939ZM20.875 22.7793L27.4375 19.498L34 22.7793V30.499L27.4375 33.7803L20.875 30.499V22.7793ZM26.5 31.2168V26.749L22.75 24.874V29.3418L26.5 31.2168ZM32.125 29.3418V24.874L28.375 26.749V31.2168L32.125 29.3418ZM27.4375 25.123L30.9678 23.3506L27.4375 21.5928L23.9072 23.3506L27.4375 25.123Z" fill="#4ECDC4"/>
</g>
<defs>
<clipPath id="clip0_15512_109835">
<rect width="30" height="30" fill="white" transform="translate(4 4)"/>
</clipPath>
</defs>
</svg>
