<svg width="39" height="38" viewBox="0 0 39 38" fill="none" xmlns="http://www.w3.org/2000/svg">
<rect x="0.5" width="38" height="38" rx="19" fill="#F15846" fill-opacity="0.1"/>
<path d="M10.75 29C11.4404 29 12 28.4404 12 27.75C12 27.0596 11.4404 26.5 10.75 26.5C10.0596 26.5 9.5 27.0596 9.5 27.75C9.5 28.4404 10.0596 29 10.75 29Z" fill="#F15846"/>
<path d="M9.5 9H12V20.25H9.5V9Z" fill="#F15846"/>
<path d="M13.25 6.5H8.25C7.91848 6.5 7.60054 6.6317 7.36612 6.86612C7.1317 7.10054 7 7.41848 7 7.75V30.25C7 30.5815 7.1317 30.8995 7.36612 31.1339C7.60054 31.3683 7.91848 31.5 8.25 31.5H13.25C13.5815 31.5 13.8995 31.3683 14.1339 31.1339C14.3683 30.8995 14.5 30.5815 14.5 30.25V7.75C14.5 7.41848 14.3683 7.10054 14.1339 6.86612C13.8995 6.6317 13.5815 6.5 13.25 6.5ZM13.25 30.25H8.25V7.75H13.25V30.25Z" fill="#F15846"/>
<path d="M19.5 29C20.1904 29 20.75 28.4404 20.75 27.75C20.75 27.0596 20.1904 26.5 19.5 26.5C18.8096 26.5 18.25 27.0596 18.25 27.75C18.25 28.4404 18.8096 29 19.5 29Z" fill="#F15846"/>
<path d="M18.25 9H20.75V20.25H18.25V9Z" fill="#F15846"/>
<path d="M22 6.5H17C16.6685 6.5 16.3505 6.6317 16.1161 6.86612C15.8817 7.10054 15.75 7.41848 15.75 7.75V30.25C15.75 30.5815 15.8817 30.8995 16.1161 31.1339C16.3505 31.3683 16.6685 31.5 17 31.5H22C22.3315 31.5 22.6495 31.3683 22.8839 31.1339C23.1183 30.8995 23.25 30.5815 23.25 30.25V7.75C23.25 7.41848 23.1183 7.10054 22.8839 6.86612C22.6495 6.6317 22.3315 6.5 22 6.5ZM22 30.25H17V7.75H22V30.25Z" fill="#F15846"/>
<path d="M28.25 29C28.9404 29 29.5 28.4404 29.5 27.75C29.5 27.0596 28.9404 26.5 28.25 26.5C27.5596 26.5 27 27.0596 27 27.75C27 28.4404 27.5596 29 28.25 29Z" fill="#F15846"/>
<path d="M27 9H29.5V20.25H27V9Z" fill="#F15846"/>
<path d="M30.75 6.5H25.75C25.4185 6.5 25.1005 6.6317 24.8661 6.86612C24.6317 7.10054 24.5 7.41848 24.5 7.75V30.25C24.5 30.5815 24.6317 30.8995 24.8661 31.1339C25.1005 31.3683 25.4185 31.5 25.75 31.5H30.75C31.0815 31.5 31.3995 31.3683 31.6339 31.1339C31.8683 30.8995 32 30.5815 32 30.25V7.75C32 7.41848 31.8683 7.10054 31.6339 6.86612C31.3995 6.6317 31.0815 6.5 30.75 6.5ZM30.75 30.25H25.75V7.75H30.75V30.25Z" fill="#F15846"/>
</svg>
