<svg width="39" height="38" viewBox="0 0 39 38" fill="none" xmlns="http://www.w3.org/2000/svg">
<rect x="0.5" width="38" height="38" rx="19" fill="#507FDF" fill-opacity="0.1"/>
<g clip-path="url(#clip0_15512_109838)">
<path d="M13.875 15.25H8.25V9.625H13.875V15.25ZM21.375 15.25H15.75V9.625H21.375V15.25ZM19.5 11.5H17.625V13.375H19.5V11.5ZM28.875 15.25H23.25V9.625H28.875V15.25ZM27 11.5H25.125V13.375H27V11.5ZM25.125 22.75C25.125 22.4863 25.1738 22.2422 25.2715 22.0176C25.3691 21.793 25.501 21.5977 25.667 21.4316C25.833 21.2656 26.0332 21.1289 26.2676 21.0215C26.502 20.9141 26.7461 20.8652 27 20.875C27.2637 20.875 27.5078 20.9238 27.7324 21.0215C27.957 21.1191 28.1523 21.251 28.3184 21.417C28.4844 21.583 28.6211 21.7832 28.7285 22.0176C28.8359 22.252 28.8848 22.4961 28.875 22.75C28.875 23.0137 28.8262 23.2578 28.7285 23.4824C28.6309 23.707 28.499 23.9023 28.333 24.0684C28.167 24.2344 27.9668 24.3711 27.7324 24.4785C27.498 24.5859 27.2539 24.6348 27 24.625C26.7363 24.625 26.4922 24.5762 26.2676 24.4785C26.043 24.3809 25.8477 24.249 25.6816 24.083C25.5156 23.917 25.3789 23.7168 25.2715 23.4824C25.1641 23.248 25.1152 23.0039 25.125 22.75ZM8.25 22.75C8.25 22.4863 8.29883 22.2422 8.39648 22.0176C8.49414 21.793 8.62598 21.5977 8.79199 21.4316C8.95801 21.2656 9.1582 21.1289 9.39258 21.0215C9.62695 20.9141 9.87109 20.8652 10.125 20.875C10.3887 20.875 10.6328 20.9238 10.8574 21.0215C11.082 21.1191 11.2773 21.251 11.4434 21.417C11.6094 21.583 11.7461 21.7832 11.8535 22.0176C11.9609 22.252 12.0098 22.4961 12 22.75C12 23.0137 11.9512 23.2578 11.8535 23.4824C11.7559 23.707 11.624 23.9023 11.458 24.0684C11.292 24.2344 11.0918 24.3711 10.8574 24.4785C10.623 24.5859 10.3789 24.6348 10.125 24.625C9.86133 24.625 9.61719 24.5762 9.39258 24.4785C9.16797 24.3809 8.97266 24.249 8.80664 24.083C8.64062 23.917 8.50391 23.7168 8.39648 23.4824C8.28906 23.248 8.24023 23.0039 8.25 22.75ZM13.875 22.75C13.875 22.4863 13.9238 22.2422 14.0215 22.0176C14.1191 21.793 14.251 21.5977 14.417 21.4316C14.583 21.2656 14.7832 21.1289 15.0176 21.0215C15.252 20.9141 15.4961 20.8652 15.75 20.875C16.0137 20.875 16.2578 20.9238 16.4824 21.0215C16.707 21.1191 16.9023 21.251 17.0684 21.417C17.2344 21.583 17.3711 21.7832 17.4785 22.0176C17.5859 22.252 17.6348 22.4961 17.625 22.75C17.625 23.0137 17.5762 23.2578 17.4785 23.4824C17.3809 23.707 17.249 23.9023 17.083 24.0684C16.917 24.2344 16.7168 24.3711 16.4824 24.4785C16.248 24.5859 16.0039 24.6348 15.75 24.625C15.4863 24.625 15.2422 24.5762 15.0176 24.4785C14.793 24.3809 14.5977 24.249 14.4316 24.083C14.2656 23.917 14.1289 23.7168 14.0215 23.4824C13.9141 23.248 13.8652 23.0039 13.875 22.75ZM23.25 22.75C23.25 23.0137 23.2012 23.2578 23.1035 23.4824C23.0059 23.707 22.874 23.9023 22.708 24.0684C22.542 24.2344 22.3418 24.3711 22.1074 24.4785C21.873 24.5859 21.6289 24.6348 21.375 24.625C21.1113 24.625 20.8672 24.5762 20.6426 24.4785C20.418 24.3809 20.2227 24.249 20.0566 24.083C19.8906 23.917 19.7539 23.7168 19.6465 23.4824C19.5391 23.248 19.4902 23.0039 19.5 22.75C19.5 22.4863 19.5488 22.2422 19.6465 22.0176C19.7441 21.793 19.876 21.5977 20.042 21.4316C20.208 21.2656 20.4082 21.1289 20.6426 21.0215C20.877 20.9141 21.1211 20.8652 21.375 20.875C21.6387 20.875 21.8828 20.9238 22.1074 21.0215C22.332 21.1191 22.5273 21.251 22.6934 21.417C22.8594 21.583 22.9961 21.7832 23.1035 22.0176C23.2109 22.252 23.2598 22.4961 23.25 22.75ZM6.375 22.75C6.375 23.2676 6.47266 23.751 6.66797 24.2002C6.86328 24.6494 7.13184 25.0498 7.47363 25.4014C7.81543 25.7529 8.21094 26.0215 8.66016 26.207C9.10938 26.3926 9.59766 26.4902 10.125 26.5H19.5V28.375H10.125C9.35352 28.375 8.62598 28.2285 7.94238 27.9355C7.25879 27.6426 6.66309 27.2373 6.15527 26.7197C5.64746 26.2021 5.24707 25.6064 4.9541 24.9326C4.66113 24.2588 4.50977 23.5312 4.5 22.75C4.5 21.9785 4.64648 21.251 4.93945 20.5674C5.23242 19.8838 5.6377 19.2881 6.15527 18.7803C6.67285 18.2725 7.26855 17.8721 7.94238 17.5791C8.61621 17.2861 9.34375 17.1348 10.125 17.125H27C27.6934 17.125 28.3525 17.2471 28.9775 17.4912C29.6025 17.7354 30.1592 18.0674 30.6475 18.4873C31.1357 18.9072 31.5459 19.4102 31.8779 19.9961C32.21 20.582 32.4297 21.2168 32.5371 21.9004L30.5596 23.8779C30.6182 23.6924 30.6621 23.5068 30.6914 23.3213C30.7207 23.1357 30.7402 22.9453 30.75 22.75C30.75 22.2324 30.6523 21.749 30.457 21.2998C30.2617 20.8506 29.9932 20.4502 29.6514 20.0986C29.3096 19.7471 28.9141 19.4785 28.4648 19.293C28.0156 19.1074 27.5273 19.0098 27 19H10.125C9.60742 19 9.12402 19.0977 8.6748 19.293C8.22559 19.4883 7.8252 19.7568 7.47363 20.0986C7.12207 20.4404 6.85352 20.8359 6.66797 21.2852C6.48242 21.7344 6.38477 22.2227 6.375 22.75ZM34.2217 25.2842L26.0625 33.458L22.1221 29.5029L23.4404 28.1846L26.0625 30.792L32.9033 23.9658L34.2217 25.2842Z" fill="#507FDF"/>
</g>
<defs>
<clipPath id="clip0_15512_109838">
<rect width="30" height="30" fill="white" transform="translate(4.5 4)"/>
</clipPath>
</defs>
</svg>
