<svg width="38" height="38" viewBox="0 0 38 38" fill="none" xmlns="http://www.w3.org/2000/svg">
<rect width="38" height="38" rx="19" fill="#507FDF" fill-opacity="0.1"/>
<path d="M31.5 7.75H6.5V15.25H7.75V29C7.75 29.663 8.01339 30.2989 8.48223 30.7678C8.95107 31.2366 9.58696 31.5 10.25 31.5H27.75C28.413 31.5 29.0489 31.2366 29.5178 30.7678C29.9866 30.2989 30.25 29.663 30.25 29V15.25H31.5V7.75ZM9 10.25H29V12.75H9V10.25ZM27.75 29H10.25V15.25H27.75V29ZM15.25 17.75H22.75C22.75 18.413 22.4866 19.0489 22.0178 19.5178C21.5489 19.9866 20.913 20.25 20.25 20.25H17.75C17.087 20.25 16.4511 19.9866 15.9822 19.5178C15.5134 19.0489 15.25 18.413 15.25 17.75Z" fill="#507FDF"/>
</svg>
