<svg width="39" height="38" viewBox="0 0 39 38" fill="none" xmlns="http://www.w3.org/2000/svg">
<rect x="0.5" width="38" height="38" rx="19" fill="#4ECDC4" fill-opacity="0.1"/>
<g clip-path="url(#clip0_15512_109872)">
<path d="M24.1875 4.0293L34.5 9.18555V20.6846L32.625 19.7471V11.2803L25.125 15.0303V18.8096L23.25 19.7471V15.0303L15.75 11.2803V14.6055L13.875 13.668V9.18555L24.1875 4.0293ZM24.1875 13.4043L26.7803 12.1006L19.998 8.21875L16.9072 9.77148L24.1875 13.4043ZM28.8018 11.1045L31.4678 9.77148L24.1875 6.12402L22.0049 7.22266L28.8018 11.1045ZM21.375 20.6846L19.5 21.6221V21.6074L13.875 24.4199V31.085L19.5 28.2578V30.3672L12.9375 33.6484L4.5 29.415V19.5127L12.9375 15.2939L21.375 19.5127V20.6846ZM12 31.085V24.4199L6.375 21.6074V28.2578L12 31.085ZM12.9375 22.7939L18.3428 20.0986L12.9375 17.3887L7.53223 20.0986L12.9375 22.7939ZM21.375 22.7793L27.9375 19.498L34.5 22.7793V30.499L27.9375 33.7803L21.375 30.499V22.7793ZM27 31.2168V26.749L23.25 24.874V29.3418L27 31.2168ZM32.625 29.3418V24.874L28.875 26.749V31.2168L32.625 29.3418ZM27.9375 25.123L31.4678 23.3506L27.9375 21.5928L24.4072 23.3506L27.9375 25.123Z" fill="#4ECDC4"/>
</g>
<defs>
<clipPath id="clip0_15512_109872">
<rect width="30" height="30" fill="white" transform="translate(4.5 4)"/>
</clipPath>
</defs>
</svg>
