<svg width="39" height="38" viewBox="0 0 39 38" fill="none" xmlns="http://www.w3.org/2000/svg">
<rect x="0.5" width="38" height="38" rx="19" fill="#507FDF" fill-opacity="0.15"/>
<path d="M23.25 10.25H15.75M23.25 27.75H15.75V14.75C15.75 14.5511 15.829 14.3603 15.9697 14.2197C16.1103 14.079 16.3011 14 16.5 14H22.5C22.6989 14 22.8897 14.079 23.0303 14.2197C23.171 14.3603 23.25 14.5511 23.25 14.75V27.75V27.75ZM30 27.75H23.25V22.875C23.25 22.6761 23.329 22.4853 23.4697 22.3447C23.6103 22.204 23.8011 22.125 24 22.125H30C30.1989 22.125 30.3897 22.204 30.5303 22.3447C30.671 22.4853 30.75 22.6761 30.75 22.875V27C30.75 27.1989 30.671 27.3897 30.5303 27.5303C30.3897 27.671 30.1989 27.75 30 27.75V27.75ZM15.75 27.75V20.375C15.75 20.1761 15.671 19.9853 15.5303 19.8447C15.3897 19.704 15.1989 19.625 15 19.625H9C8.80109 19.625 8.61032 19.704 8.46967 19.8447C8.32902 19.9853 8.25 20.1761 8.25 20.375V27C8.25 27.1989 8.32902 27.3897 8.46967 27.5303C8.61032 27.671 8.80109 27.75 9 27.75H15.75Z" stroke="#1034A6" stroke-width="2" stroke-linecap="round" stroke-linejoin="round"/>
</svg>
