<svg xmlns="http://www.w3.org/2000/svg" viewBox="0 0 466.14 466.13"><defs><style>.cls-1{fill:#1a32cc;}.cls-2{fill:#3d49a0;}.cls-3{fill:#1d34ab;}</style></defs><title>Optima Logo New</title><g id="Layer_2" data-name="Layer 2"><g id="Layer_1-2" data-name="Layer 1"><path class="cls-1" d="M232.66,0c128-.74,233,103.68,233.48,231.9.53,128.45-103.1,234-232.81,234.23C104.61,466.38.18,362.08,0,233.35A232.73,232.73,0,0,1,232.66,0ZM218.18,144.19l29.63.06c21,3.09,38.19,13.2,52.14,28.91,2.31,2.6,3.79,3.23,7,1.49,8.75-4.82,17.73-9.21,26.6-13.81,11.5-6,23-12,35.16-18.28-36.48-50.07-84.8-75.63-146.41-71.87C167.42,74,125,100.42,94.06,146.47l66.27,31.95c1.29-1.55,2.21-2.73,3.2-3.84C178.2,158.06,196.09,147.35,218.18,144.19Zm7.21,252.86-7.29.35c0,.18,0,.37,0,.55H244l0-.51-5.28-.38a35.29,35.29,0,0,1,3.91-.62,156.12,156.12,0,0,0,43.89-8.86c74.65-25.74,120.21-102.24,107.24-180-1.82-11-4.25-21.85-8.83-32.17a12.77,12.77,0,0,0-1.62.51c-20.25,10.48-40.47,21-60.77,31.39-2.5,1.28-2.77,2.76-2.14,5.19a84.65,84.65,0,0,1,2.42,29.72c-6.71,67.91-82.59,104.34-139.81,67.2-1.74-1.12-3.28-2.71-6-3.19v4.7c0,23.82.1,47.64-.1,71.46,0,3.92,1.34,5.37,4.92,6.51C196.06,393.38,210.62,395.71,225.39,397.05ZM78.45,179.27c-13.23,39.11-12.36,77.37,2.73,115.18,12.54,31.42,33.08,56.41,61.82,75.65.17-2.06.35-3.18.35-4.3,0-39.82-.18-79.64-.11-119.46,0-10.8-1-21.67.85-32.41.5-3-1.13-3.69-3.18-4.67-10.67-5.08-21.3-10.25-31.95-15.37C98.93,189.07,88.88,184.27,78.45,179.27Zm154-.18a54.45,54.45,0,1,0,54.65,54.47A54.22,54.22,0,0,0,232.42,179.09Z"/><path class="cls-2" d="M218.18,144.19a70.63,70.63,0,0,1,29.63.06Z"/><path class="cls-3" d="M225.39,397.05h13.33l5.28.38,0,.51H218.12c0-.18,0-.37,0-.55Z"/></g></g></svg>