<svg width="1051" height="229" viewBox="0 0 1051 229" fill="none" xmlns="http://www.w3.org/2000/svg">
<g clip-path="url(#clip0)">
<path d="M36.0223 169.834C36.0223 168.229 36.2836 166.978 36.8063 166.082C37.329 165.177 38.2436 164.724 39.5503 164.724C40.8476 164.724 41.7576 165.177 42.2803 166.082C42.803 166.978 43.0643 168.229 43.0643 169.834C43.0643 171.467 42.803 172.737 42.2803 173.642C41.7576 174.547 40.8476 175 39.5503 175C38.2436 175 37.329 174.547 36.8063 173.642C36.2836 172.737 36.0223 171.467 36.0223 169.834ZM41.8043 169.834C41.8043 169.022 41.7483 168.336 41.6363 167.776C41.5336 167.207 41.3143 166.749 40.9783 166.404C40.6516 166.059 40.1756 165.886 39.5503 165.886C38.9156 165.886 38.4303 166.059 38.0943 166.404C37.7676 166.749 37.5483 167.207 37.4363 167.776C37.3336 168.336 37.2823 169.022 37.2823 169.834C37.2823 170.674 37.3336 171.379 37.4363 171.948C37.5483 172.517 37.7676 172.975 38.0943 173.32C38.4303 173.665 38.9156 173.838 39.5503 173.838C40.1756 173.838 40.6516 173.665 40.9783 173.32C41.3143 172.975 41.5336 172.517 41.6363 171.948C41.7483 171.379 41.8043 170.674 41.8043 169.834Z" fill="#5E646D"/>
<path d="M36.5242 127.04V125.878H39.1562V136H37.8682V127.04H36.5242ZM41.3446 130.834C41.3446 129.229 41.6059 127.978 42.1286 127.082C42.6512 126.177 43.5659 125.724 44.8726 125.724C46.1699 125.724 47.0799 126.177 47.6026 127.082C48.1252 127.978 48.3866 129.229 48.3866 130.834C48.3866 132.467 48.1252 133.737 47.6026 134.642C47.0799 135.547 46.1699 136 44.8726 136C43.5659 136 42.6512 135.547 42.1286 134.642C41.6059 133.737 41.3446 132.467 41.3446 130.834ZM47.1266 130.834C47.1266 130.022 47.0706 129.336 46.9586 128.776C46.8559 128.207 46.6366 127.749 46.3006 127.404C45.9739 127.059 45.4979 126.886 44.8726 126.886C44.2379 126.886 43.7526 127.059 43.4166 127.404C43.0899 127.749 42.8706 128.207 42.7586 128.776C42.6559 129.336 42.6046 130.022 42.6046 130.834C42.6046 131.674 42.6559 132.379 42.7586 132.948C42.8706 133.517 43.0899 133.975 43.4166 134.32C43.7526 134.665 44.2379 134.838 44.8726 134.838C45.4979 134.838 45.9739 134.665 46.3006 134.32C46.6366 133.975 46.8559 133.517 46.9586 132.948C47.0706 132.379 47.1266 131.674 47.1266 130.834ZM55.6376 136L51.6196 131.548V136H50.3456V126.242H51.6196V130.764L55.6516 126.242H57.2616L52.8376 131.128L57.3036 136H55.6376Z" fill="#5E646D"/>
<path d="M34.3166 47.426C34.3819 46.5673 34.7132 45.8953 35.3106 45.41C35.9079 44.9247 36.6826 44.682 37.6346 44.682C38.2692 44.682 38.8152 44.7987 39.2726 45.032C39.7392 45.256 40.0892 45.564 40.3226 45.956C40.5652 46.348 40.6866 46.7913 40.6866 47.286C40.6866 47.8647 40.5186 48.364 40.1826 48.784C39.8559 49.204 39.4266 49.4747 38.8946 49.596V49.666C39.5012 49.8153 39.9819 50.1093 40.3366 50.548C40.6912 50.9867 40.8686 51.5607 40.8686 52.27C40.8686 52.802 40.7472 53.2827 40.5046 53.712C40.2619 54.132 39.8979 54.4633 39.4126 54.706C38.9272 54.9487 38.3439 55.07 37.6626 55.07C36.6732 55.07 35.8612 54.8133 35.2266 54.3C34.5919 53.7773 34.2372 53.04 34.1626 52.088H35.3946C35.4599 52.648 35.6886 53.1053 36.0806 53.46C36.4726 53.8147 36.9952 53.992 37.6486 53.992C38.3019 53.992 38.7966 53.824 39.1326 53.488C39.4779 53.1427 39.6506 52.6993 39.6506 52.158C39.6506 51.458 39.4172 50.954 38.9506 50.646C38.4839 50.338 37.7792 50.184 36.8366 50.184H36.5146V49.12H36.8506C37.7092 49.1107 38.3579 48.9707 38.7966 48.7C39.2352 48.42 39.4546 47.9907 39.4546 47.412C39.4546 46.9173 39.2912 46.5207 38.9646 46.222C38.6472 45.9233 38.1899 45.774 37.5926 45.774C37.0139 45.774 36.5472 45.9233 36.1926 46.222C35.8379 46.5207 35.6279 46.922 35.5626 47.426H34.3166ZM42.5887 49.834C42.5887 48.2287 42.85 46.978 43.3727 46.082C43.8954 45.1767 44.81 44.724 46.1167 44.724C47.414 44.724 48.324 45.1767 48.8467 46.082C49.3694 46.978 49.6307 48.2287 49.6307 49.834C49.6307 51.4673 49.3694 52.7367 48.8467 53.642C48.324 54.5473 47.414 55 46.1167 55C44.81 55 43.8954 54.5473 43.3727 53.642C42.85 52.7367 42.5887 51.4673 42.5887 49.834ZM48.3707 49.834C48.3707 49.022 48.3147 48.336 48.2027 47.776C48.1 47.2067 47.8807 46.7493 47.5447 46.404C47.218 46.0587 46.742 45.886 46.1167 45.886C45.482 45.886 44.9967 46.0587 44.6607 46.404C44.334 46.7493 44.1147 47.2067 44.0027 47.776C43.9 48.336 43.8487 49.022 43.8487 49.834C43.8487 50.674 43.9 51.3787 44.0027 51.948C44.1147 52.5173 44.334 52.9747 44.6607 53.32C44.9967 53.6653 45.482 53.838 46.1167 53.838C46.742 53.838 47.218 53.6653 47.5447 53.32C47.8807 52.9747 48.1 52.5173 48.2027 51.948C48.3147 51.3787 48.3707 50.674 48.3707 49.834ZM56.8817 55L52.8637 50.548V55H51.5897V45.242H52.8637V49.764L56.8957 45.242H58.5057L54.0817 50.128L58.5477 55H56.8817Z" fill="#5E646D"/>
<path d="M34.1906 93.978C35.3759 93.026 36.3046 92.2467 36.9766 91.64C37.6486 91.024 38.2132 90.3847 38.6706 89.722C39.1372 89.05 39.3706 88.392 39.3706 87.748C39.3706 87.1413 39.2212 86.6653 38.9226 86.32C38.6332 85.9653 38.1619 85.788 37.5086 85.788C36.8739 85.788 36.3792 85.9887 36.0246 86.39C35.6792 86.782 35.4926 87.3093 35.4646 87.972H34.2326C34.2699 86.9267 34.5872 86.1193 35.1846 85.55C35.7819 84.9807 36.5519 84.696 37.4946 84.696C38.4559 84.696 39.2166 84.962 39.7766 85.494C40.3459 86.026 40.6306 86.7587 40.6306 87.692C40.6306 88.4667 40.3972 89.2227 39.9306 89.96C39.4732 90.688 38.9506 91.332 38.3626 91.892C37.7746 92.4427 37.0232 93.0867 36.1086 93.824H40.9246V94.888H34.1906V93.978ZM42.3973 89.834C42.3973 88.2287 42.6586 86.978 43.1813 86.082C43.704 85.1767 44.6186 84.724 45.9253 84.724C47.2226 84.724 48.1326 85.1767 48.6553 86.082C49.178 86.978 49.4393 88.2287 49.4393 89.834C49.4393 91.4673 49.178 92.7367 48.6553 93.642C48.1326 94.5473 47.2226 95 45.9253 95C44.6186 95 43.704 94.5473 43.1813 93.642C42.6586 92.7367 42.3973 91.4673 42.3973 89.834ZM48.1793 89.834C48.1793 89.022 48.1233 88.336 48.0113 87.776C47.9086 87.2067 47.6893 86.7493 47.3533 86.404C47.0266 86.0587 46.5506 85.886 45.9253 85.886C45.2906 85.886 44.8053 86.0587 44.4693 86.404C44.1426 86.7493 43.9233 87.2067 43.8113 87.776C43.7086 88.336 43.6573 89.022 43.6573 89.834C43.6573 90.674 43.7086 91.3787 43.8113 91.948C43.9233 92.5173 44.1426 92.9747 44.4693 93.32C44.8053 93.6653 45.2906 93.838 45.9253 93.838C46.5506 93.838 47.0266 93.6653 47.3533 93.32C47.6893 92.9747 47.9086 92.5173 48.0113 91.948C48.1233 91.3787 48.1793 90.674 48.1793 89.834ZM56.6903 95L52.6723 90.548V95H51.3983V85.242H52.6723V89.764L56.7043 85.242H58.3143L53.8903 90.128L58.3563 95H56.6903Z" fill="#5E646D"/>
<path d="M33.1987 12.746V11.78L38.1127 4.976H39.6387V11.64H41.0387V12.746H39.6387V15H38.3787V12.746H33.1987ZM38.4347 6.306L34.6687 11.64H38.4347V6.306ZM42.3114 9.834C42.3114 8.22867 42.5727 6.978 43.0954 6.082C43.618 5.17667 44.5327 4.724 45.8394 4.724C47.1367 4.724 48.0467 5.17667 48.5694 6.082C49.092 6.978 49.3534 8.22867 49.3534 9.834C49.3534 11.4673 49.092 12.7367 48.5694 13.642C48.0467 14.5473 47.1367 15 45.8394 15C44.5327 15 43.618 14.5473 43.0954 13.642C42.5727 12.7367 42.3114 11.4673 42.3114 9.834ZM48.0934 9.834C48.0934 9.022 48.0374 8.336 47.9254 7.776C47.8227 7.20667 47.6034 6.74933 47.2674 6.404C46.9407 6.05867 46.4647 5.886 45.8394 5.886C45.2047 5.886 44.7194 6.05867 44.3834 6.404C44.0567 6.74933 43.8374 7.20667 43.7254 7.776C43.6227 8.336 43.5714 9.022 43.5714 9.834C43.5714 10.674 43.6227 11.3787 43.7254 11.948C43.8374 12.5173 44.0567 12.9747 44.3834 13.32C44.7194 13.6653 45.2047 13.838 45.8394 13.838C46.4647 13.838 46.9407 13.6653 47.2674 13.32C47.6034 12.9747 47.8227 12.5173 47.9254 11.948C48.0374 11.3787 48.0934 10.674 48.0934 9.834ZM56.6044 15L52.5864 10.548V15H51.3124V5.242H52.5864V9.764L56.6184 5.242H58.2284L53.8044 10.128L58.2704 15H56.6044Z" fill="#5E646D"/>
<path d="M374.846 187.83H370.59L369.806 190H368.462L371.99 180.298H373.46L376.974 190H375.63L374.846 187.83ZM374.482 186.794L372.718 181.866L370.954 186.794H374.482ZM379.786 183.742C380.038 183.303 380.411 182.939 380.906 182.65C381.41 182.351 381.993 182.202 382.656 182.202C383.337 182.202 383.953 182.365 384.504 182.692C385.064 183.019 385.502 183.481 385.82 184.078C386.137 184.666 386.296 185.352 386.296 186.136C386.296 186.911 386.137 187.601 385.82 188.208C385.502 188.815 385.064 189.286 384.504 189.622C383.953 189.958 383.337 190.126 382.656 190.126C382.002 190.126 381.424 189.981 380.92 189.692C380.425 189.393 380.047 189.025 379.786 188.586V193.64H378.512V182.328H379.786V183.742ZM384.994 186.136C384.994 185.557 384.877 185.053 384.644 184.624C384.41 184.195 384.093 183.868 383.692 183.644C383.3 183.42 382.866 183.308 382.39 183.308C381.923 183.308 381.489 183.425 381.088 183.658C380.696 183.882 380.378 184.213 380.136 184.652C379.902 185.081 379.786 185.581 379.786 186.15C379.786 186.729 379.902 187.237 380.136 187.676C380.378 188.105 380.696 188.437 381.088 188.67C381.489 188.894 381.923 189.006 382.39 189.006C382.866 189.006 383.3 188.894 383.692 188.67C384.093 188.437 384.41 188.105 384.644 187.676C384.877 187.237 384.994 186.724 384.994 186.136ZM389.247 183.574C389.471 183.135 389.788 182.795 390.199 182.552C390.619 182.309 391.127 182.188 391.725 182.188V183.504H391.389C389.961 183.504 389.247 184.279 389.247 185.828V190H387.973V182.328H389.247V183.574Z" fill="#5E646D"/>
<path d="M707.846 187.83H703.59L702.806 190H701.462L704.99 180.298H706.46L709.974 190H708.63L707.846 187.83ZM707.482 186.794L705.718 181.866L703.954 186.794H707.482ZM718.316 182.328V190H717.042V188.866C716.799 189.258 716.458 189.566 716.02 189.79C715.59 190.005 715.114 190.112 714.592 190.112C713.994 190.112 713.458 189.991 712.982 189.748C712.506 189.496 712.128 189.123 711.848 188.628C711.577 188.133 711.442 187.531 711.442 186.822V182.328H712.702V186.654C712.702 187.41 712.893 187.993 713.276 188.404C713.658 188.805 714.181 189.006 714.844 189.006C715.525 189.006 716.062 188.796 716.454 188.376C716.846 187.956 717.042 187.345 717.042 186.542V182.328H718.316ZM723.631 182.202C724.293 182.202 724.872 182.347 725.367 182.636C725.871 182.925 726.244 183.289 726.487 183.728V182.328H727.775V190.168C727.775 190.868 727.625 191.489 727.327 192.03C727.028 192.581 726.599 193.01 726.039 193.318C725.488 193.626 724.844 193.78 724.107 193.78C723.099 193.78 722.259 193.542 721.587 193.066C720.915 192.59 720.518 191.941 720.397 191.12H721.657C721.797 191.587 722.086 191.96 722.525 192.24C722.963 192.529 723.491 192.674 724.107 192.674C724.807 192.674 725.376 192.455 725.815 192.016C726.263 191.577 726.487 190.961 726.487 190.168V188.558C726.235 189.006 725.861 189.379 725.367 189.678C724.872 189.977 724.293 190.126 723.631 190.126C722.949 190.126 722.329 189.958 721.769 189.622C721.218 189.286 720.784 188.815 720.467 188.208C720.149 187.601 719.991 186.911 719.991 186.136C719.991 185.352 720.149 184.666 720.467 184.078C720.784 183.481 721.218 183.019 721.769 182.692C722.329 182.365 722.949 182.202 723.631 182.202ZM726.487 186.15C726.487 185.571 726.37 185.067 726.137 184.638C725.903 184.209 725.586 183.882 725.185 183.658C724.793 183.425 724.359 183.308 723.883 183.308C723.407 183.308 722.973 183.42 722.581 183.644C722.189 183.868 721.876 184.195 721.643 184.624C721.409 185.053 721.293 185.557 721.293 186.136C721.293 186.724 721.409 187.237 721.643 187.676C721.876 188.105 722.189 188.437 722.581 188.67C722.973 188.894 723.407 189.006 723.883 189.006C724.359 189.006 724.793 188.894 725.185 188.67C725.586 188.437 725.903 188.105 726.137 187.676C726.37 187.237 726.487 186.729 726.487 186.15Z" fill="#5E646D"/>
<path d="M1040.12 180.242C1041.18 180.242 1042.1 180.443 1042.87 180.844C1043.66 181.236 1044.26 181.801 1044.67 182.538C1045.09 183.275 1045.3 184.143 1045.3 185.142C1045.3 186.141 1045.09 187.009 1044.67 187.746C1044.26 188.474 1043.66 189.034 1042.87 189.426C1042.1 189.809 1041.18 190 1040.12 190H1037.08V180.242H1040.12ZM1040.12 188.95C1041.38 188.95 1042.34 188.619 1043 187.956C1043.66 187.284 1043.99 186.346 1043.99 185.142C1043.99 183.929 1043.66 182.981 1042.99 182.3C1042.32 181.619 1041.37 181.278 1040.12 181.278H1038.35V188.95H1040.12ZM1053.98 185.87C1053.98 186.113 1053.96 186.369 1053.93 186.64H1047.8C1047.85 187.396 1048.11 187.989 1048.57 188.418C1049.05 188.838 1049.62 189.048 1050.29 189.048C1050.85 189.048 1051.3 188.922 1051.67 188.67C1052.04 188.409 1052.3 188.063 1052.45 187.634H1053.82C1053.62 188.371 1053.21 188.973 1052.59 189.44C1051.97 189.897 1051.21 190.126 1050.29 190.126C1049.57 190.126 1048.91 189.963 1048.33 189.636C1047.77 189.309 1047.32 188.847 1046.99 188.25C1046.66 187.643 1046.5 186.943 1046.5 186.15C1046.5 185.357 1046.66 184.661 1046.98 184.064C1047.29 183.467 1047.74 183.009 1048.31 182.692C1048.89 182.365 1049.55 182.202 1050.29 182.202C1051.02 182.202 1051.67 182.361 1052.23 182.678C1052.79 182.995 1053.22 183.434 1053.51 183.994C1053.82 184.545 1053.98 185.17 1053.98 185.87ZM1052.66 185.604C1052.66 185.119 1052.55 184.703 1052.34 184.358C1052.12 184.003 1051.83 183.737 1051.46 183.56C1051.09 183.373 1050.69 183.28 1050.24 183.28C1049.59 183.28 1049.04 183.485 1048.59 183.896C1048.14 184.307 1047.88 184.876 1047.82 185.604H1052.66ZM1055.18 186.15C1055.18 185.357 1055.34 184.666 1055.66 184.078C1055.98 183.481 1056.41 183.019 1056.97 182.692C1057.54 182.365 1058.19 182.202 1058.92 182.202C1059.86 182.202 1060.64 182.431 1061.24 182.888C1061.86 183.345 1062.27 183.98 1062.46 184.792H1061.09C1060.96 184.325 1060.7 183.957 1060.32 183.686C1059.95 183.415 1059.48 183.28 1058.92 183.28C1058.19 183.28 1057.6 183.532 1057.16 184.036C1056.71 184.531 1056.48 185.235 1056.48 186.15C1056.48 187.074 1056.71 187.788 1057.16 188.292C1057.6 188.796 1058.19 189.048 1058.92 189.048C1059.48 189.048 1059.95 188.917 1060.32 188.656C1060.69 188.395 1060.95 188.021 1061.09 187.536H1062.46C1062.26 188.32 1061.85 188.95 1061.23 189.426C1060.61 189.893 1059.84 190.126 1058.92 190.126C1058.19 190.126 1057.54 189.963 1056.97 189.636C1056.41 189.309 1055.98 188.847 1055.66 188.25C1055.34 187.653 1055.18 186.953 1055.18 186.15Z" fill="#5E646D"/>
<path d="M122.992 180.242V187.452C122.992 188.255 122.745 188.899 122.25 189.384C121.755 189.86 121.102 190.098 120.29 190.098C119.469 190.098 118.811 189.855 118.316 189.37C117.821 188.875 117.574 188.203 117.574 187.354H118.848C118.857 187.83 118.979 188.217 119.212 188.516C119.455 188.815 119.814 188.964 120.29 188.964C120.766 188.964 121.121 188.824 121.354 188.544C121.587 188.255 121.704 187.891 121.704 187.452V180.242H122.992ZM125.026 186.136C125.026 185.352 125.184 184.666 125.502 184.078C125.819 183.481 126.253 183.019 126.804 182.692C127.364 182.365 127.984 182.202 128.666 182.202C129.338 182.202 129.921 182.347 130.416 182.636C130.91 182.925 131.279 183.289 131.522 183.728V182.328H132.81V190H131.522V188.572C131.27 189.02 130.892 189.393 130.388 189.692C129.893 189.981 129.314 190.126 128.652 190.126C127.97 190.126 127.354 189.958 126.804 189.622C126.253 189.286 125.819 188.815 125.502 188.208C125.184 187.601 125.026 186.911 125.026 186.136ZM131.522 186.15C131.522 185.571 131.405 185.067 131.172 184.638C130.938 184.209 130.621 183.882 130.22 183.658C129.828 183.425 129.394 183.308 128.918 183.308C128.442 183.308 128.008 183.42 127.616 183.644C127.224 183.868 126.911 184.195 126.678 184.624C126.444 185.053 126.328 185.557 126.328 186.136C126.328 186.724 126.444 187.237 126.678 187.676C126.911 188.105 127.224 188.437 127.616 188.67C128.008 188.894 128.442 189.006 128.918 189.006C129.394 189.006 129.828 188.894 130.22 188.67C130.621 188.437 130.938 188.105 131.172 187.676C131.405 187.237 131.522 186.729 131.522 186.15ZM138.701 182.188C139.634 182.188 140.39 182.473 140.969 183.042C141.547 183.602 141.837 184.414 141.837 185.478V190H140.577V185.66C140.577 184.895 140.385 184.311 140.003 183.91C139.62 183.499 139.097 183.294 138.435 183.294C137.763 183.294 137.226 183.504 136.825 183.924C136.433 184.344 136.237 184.955 136.237 185.758V190H134.963V182.328H136.237V183.42C136.489 183.028 136.829 182.725 137.259 182.51C137.697 182.295 138.178 182.188 138.701 182.188Z" fill="#5E646D"/>
<path d="M787.172 190.098C786.528 190.098 785.949 189.986 785.436 189.762C784.932 189.529 784.535 189.211 784.246 188.81C783.957 188.399 783.807 187.928 783.798 187.396H785.156C785.203 187.853 785.389 188.241 785.716 188.558C786.052 188.866 786.537 189.02 787.172 189.02C787.779 189.02 788.255 188.871 788.6 188.572C788.955 188.264 789.132 187.872 789.132 187.396C789.132 187.023 789.029 186.719 788.824 186.486C788.619 186.253 788.362 186.075 788.054 185.954C787.746 185.833 787.331 185.702 786.808 185.562C786.164 185.394 785.646 185.226 785.254 185.058C784.871 184.89 784.54 184.629 784.26 184.274C783.989 183.91 783.854 183.425 783.854 182.818C783.854 182.286 783.989 181.815 784.26 181.404C784.531 180.993 784.909 180.676 785.394 180.452C785.889 180.228 786.453 180.116 787.088 180.116C788.003 180.116 788.749 180.345 789.328 180.802C789.916 181.259 790.247 181.866 790.322 182.622H788.922C788.875 182.249 788.679 181.922 788.334 181.642C787.989 181.353 787.531 181.208 786.962 181.208C786.43 181.208 785.996 181.348 785.66 181.628C785.324 181.899 785.156 182.281 785.156 182.776C785.156 183.131 785.254 183.42 785.45 183.644C785.655 183.868 785.903 184.041 786.192 184.162C786.491 184.274 786.906 184.405 787.438 184.554C788.082 184.731 788.6 184.909 788.992 185.086C789.384 185.254 789.72 185.52 790 185.884C790.28 186.239 790.42 186.724 790.42 187.34C790.42 187.816 790.294 188.264 790.042 188.684C789.79 189.104 789.417 189.445 788.922 189.706C788.427 189.967 787.844 190.098 787.172 190.098ZM799.295 185.87C799.295 186.113 799.281 186.369 799.253 186.64H793.121C793.167 187.396 793.424 187.989 793.891 188.418C794.367 188.838 794.941 189.048 795.613 189.048C796.163 189.048 796.621 188.922 796.985 188.67C797.358 188.409 797.619 188.063 797.769 187.634H799.141C798.935 188.371 798.525 188.973 797.909 189.44C797.293 189.897 796.527 190.126 795.613 190.126C794.885 190.126 794.231 189.963 793.653 189.636C793.083 189.309 792.635 188.847 792.309 188.25C791.982 187.643 791.819 186.943 791.819 186.15C791.819 185.357 791.977 184.661 792.295 184.064C792.612 183.467 793.055 183.009 793.625 182.692C794.203 182.365 794.866 182.202 795.613 182.202C796.341 182.202 796.985 182.361 797.545 182.678C798.105 182.995 798.534 183.434 798.833 183.994C799.141 184.545 799.295 185.17 799.295 185.87ZM797.979 185.604C797.979 185.119 797.871 184.703 797.657 184.358C797.442 184.003 797.148 183.737 796.775 183.56C796.411 183.373 796.005 183.28 795.557 183.28C794.913 183.28 794.362 183.485 793.905 183.896C793.457 184.307 793.2 184.876 793.135 185.604H797.979ZM802.25 183.742C802.502 183.303 802.876 182.939 803.37 182.65C803.874 182.351 804.458 182.202 805.12 182.202C805.802 182.202 806.418 182.365 806.968 182.692C807.528 183.019 807.967 183.481 808.284 184.078C808.602 184.666 808.76 185.352 808.76 186.136C808.76 186.911 808.602 187.601 808.284 188.208C807.967 188.815 807.528 189.286 806.968 189.622C806.418 189.958 805.802 190.126 805.12 190.126C804.467 190.126 803.888 189.981 803.384 189.692C802.89 189.393 802.512 189.025 802.25 188.586V193.64H800.976V182.328H802.25V183.742ZM807.458 186.136C807.458 185.557 807.342 185.053 807.108 184.624C806.875 184.195 806.558 183.868 806.156 183.644C805.764 183.42 805.33 183.308 804.854 183.308C804.388 183.308 803.954 183.425 803.552 183.658C803.16 183.882 802.843 184.213 802.6 184.652C802.367 185.081 802.25 185.581 802.25 186.15C802.25 186.729 802.367 187.237 802.6 187.676C802.843 188.105 803.16 188.437 803.552 188.67C803.954 188.894 804.388 189.006 804.854 189.006C805.33 189.006 805.764 188.894 806.156 188.67C806.558 188.437 806.875 188.105 807.108 187.676C807.342 187.237 807.458 186.724 807.458 186.136ZM811.991 183.378V187.9C811.991 188.273 812.071 188.539 812.229 188.698C812.388 188.847 812.663 188.922 813.055 188.922H813.993V190H812.845C812.136 190 811.604 189.837 811.249 189.51C810.895 189.183 810.717 188.647 810.717 187.9V183.378H809.723V182.328H810.717V180.396H811.991V182.328H813.993V183.378H811.991Z" fill="#5E646D"/>
<path d="M207.594 180.242V181.278H203.352V184.568H206.796V185.604H203.352V190H202.078V180.242H207.594ZM216.133 185.87C216.133 186.113 216.119 186.369 216.091 186.64H209.959C210.005 187.396 210.262 187.989 210.729 188.418C211.205 188.838 211.779 189.048 212.451 189.048C213.001 189.048 213.459 188.922 213.823 188.67C214.196 188.409 214.457 188.063 214.607 187.634H215.979C215.773 188.371 215.363 188.973 214.747 189.44C214.131 189.897 213.365 190.126 212.451 190.126C211.723 190.126 211.069 189.963 210.491 189.636C209.921 189.309 209.473 188.847 209.147 188.25C208.82 187.643 208.657 186.943 208.657 186.15C208.657 185.357 208.815 184.661 209.133 184.064C209.45 183.467 209.893 183.009 210.463 182.692C211.041 182.365 211.704 182.202 212.451 182.202C213.179 182.202 213.823 182.361 214.383 182.678C214.943 182.995 215.372 183.434 215.671 183.994C215.979 184.545 216.133 185.17 216.133 185.87ZM214.817 185.604C214.817 185.119 214.709 184.703 214.495 184.358C214.28 184.003 213.986 183.737 213.613 183.56C213.249 183.373 212.843 183.28 212.395 183.28C211.751 183.28 211.2 183.485 210.743 183.896C210.295 184.307 210.038 184.876 209.973 185.604H214.817ZM219.088 183.756C219.35 183.299 219.732 182.925 220.236 182.636C220.74 182.347 221.314 182.202 221.958 182.202C222.649 182.202 223.27 182.365 223.82 182.692C224.371 183.019 224.805 183.481 225.122 184.078C225.44 184.666 225.598 185.352 225.598 186.136C225.598 186.911 225.44 187.601 225.122 188.208C224.805 188.815 224.366 189.286 223.806 189.622C223.256 189.958 222.64 190.126 221.958 190.126C221.296 190.126 220.712 189.981 220.208 189.692C219.714 189.403 219.34 189.034 219.088 188.586V190H217.814V179.64H219.088V183.756ZM224.296 186.136C224.296 185.557 224.18 185.053 223.946 184.624C223.713 184.195 223.396 183.868 222.994 183.644C222.602 183.42 222.168 183.308 221.692 183.308C221.226 183.308 220.792 183.425 220.39 183.658C219.998 183.882 219.681 184.213 219.438 184.652C219.205 185.081 219.088 185.581 219.088 186.15C219.088 186.729 219.205 187.237 219.438 187.676C219.681 188.105 219.998 188.437 220.39 188.67C220.792 188.894 221.226 189.006 221.692 189.006C222.168 189.006 222.602 188.894 222.994 188.67C223.396 188.437 223.713 188.105 223.946 187.676C224.18 187.237 224.296 186.724 224.296 186.136Z" fill="#5E646D"/>
<path d="M460.976 180.312V190H459.702V182.776L456.482 190H455.586L452.352 182.762V190H451.078V180.312H452.45L456.034 188.32L459.618 180.312H460.976ZM462.661 186.136C462.661 185.352 462.819 184.666 463.137 184.078C463.454 183.481 463.888 183.019 464.439 182.692C464.999 182.365 465.619 182.202 466.301 182.202C466.973 182.202 467.556 182.347 468.051 182.636C468.545 182.925 468.914 183.289 469.157 183.728V182.328H470.445V190H469.157V188.572C468.905 189.02 468.527 189.393 468.023 189.692C467.528 189.981 466.949 190.126 466.287 190.126C465.605 190.126 464.989 189.958 464.439 189.622C463.888 189.286 463.454 188.815 463.137 188.208C462.819 187.601 462.661 186.911 462.661 186.136ZM469.157 186.15C469.157 185.571 469.04 185.067 468.807 184.638C468.573 184.209 468.256 183.882 467.855 183.658C467.463 183.425 467.029 183.308 466.553 183.308C466.077 183.308 465.643 183.42 465.251 183.644C464.859 183.868 464.546 184.195 464.313 184.624C464.079 185.053 463.963 185.557 463.963 186.136C463.963 186.724 464.079 187.237 464.313 187.676C464.546 188.105 464.859 188.437 465.251 188.67C465.643 188.894 466.077 189.006 466.553 189.006C467.029 189.006 467.463 188.894 467.855 188.67C468.256 188.437 468.573 188.105 468.807 187.676C469.04 187.237 469.157 186.729 469.157 186.15ZM479.206 182.328L474.586 193.612H473.27L474.782 189.916L471.688 182.328H473.102L475.51 188.544L477.89 182.328H479.206Z" fill="#5E646D"/>
<path d="M539.992 180.242V187.452C539.992 188.255 539.745 188.899 539.25 189.384C538.755 189.86 538.102 190.098 537.29 190.098C536.469 190.098 535.811 189.855 535.316 189.37C534.821 188.875 534.574 188.203 534.574 187.354H535.848C535.857 187.83 535.979 188.217 536.212 188.516C536.455 188.815 536.814 188.964 537.29 188.964C537.766 188.964 538.121 188.824 538.354 188.544C538.587 188.255 538.704 187.891 538.704 187.452V180.242H539.992ZM549.306 182.328V190H548.032V188.866C547.789 189.258 547.448 189.566 547.01 189.79C546.58 190.005 546.104 190.112 545.582 190.112C544.984 190.112 544.448 189.991 543.972 189.748C543.496 189.496 543.118 189.123 542.838 188.628C542.567 188.133 542.432 187.531 542.432 186.822V182.328H543.692V186.654C543.692 187.41 543.883 187.993 544.266 188.404C544.648 188.805 545.171 189.006 545.834 189.006C546.515 189.006 547.052 188.796 547.444 188.376C547.836 187.956 548.032 187.345 548.032 186.542V182.328H549.306ZM555.195 182.188C556.128 182.188 556.884 182.473 557.463 183.042C558.042 183.602 558.331 184.414 558.331 185.478V190H557.071V185.66C557.071 184.895 556.88 184.311 556.497 183.91C556.114 183.499 555.592 183.294 554.929 183.294C554.257 183.294 553.72 183.504 553.319 183.924C552.927 184.344 552.731 184.955 552.731 185.758V190H551.457V182.328H552.731V183.42C552.983 183.028 553.324 182.725 553.753 182.51C554.192 182.295 554.672 182.188 555.195 182.188Z" fill="#5E646D"/>
<path d="M874.502 190.098C873.597 190.098 872.771 189.888 872.024 189.468C871.277 189.039 870.685 188.446 870.246 187.69C869.817 186.925 869.602 186.066 869.602 185.114C869.602 184.162 869.817 183.308 870.246 182.552C870.685 181.787 871.277 181.194 872.024 180.774C872.771 180.345 873.597 180.13 874.502 180.13C875.417 180.13 876.247 180.345 876.994 180.774C877.741 181.194 878.329 181.782 878.758 182.538C879.187 183.294 879.402 184.153 879.402 185.114C879.402 186.075 879.187 186.934 878.758 187.69C878.329 188.446 877.741 189.039 876.994 189.468C876.247 189.888 875.417 190.098 874.502 190.098ZM874.502 188.992C875.183 188.992 875.795 188.833 876.336 188.516C876.887 188.199 877.316 187.746 877.624 187.158C877.941 186.57 878.1 185.889 878.1 185.114C878.1 184.33 877.941 183.649 877.624 183.07C877.316 182.482 876.891 182.029 876.35 181.712C875.809 181.395 875.193 181.236 874.502 181.236C873.811 181.236 873.195 181.395 872.654 181.712C872.113 182.029 871.683 182.482 871.366 183.07C871.058 183.649 870.904 184.33 870.904 185.114C870.904 185.889 871.058 186.57 871.366 187.158C871.683 187.746 872.113 188.199 872.654 188.516C873.205 188.833 873.821 188.992 874.502 188.992ZM880.608 186.15C880.608 185.357 880.767 184.666 881.084 184.078C881.401 183.481 881.84 183.019 882.4 182.692C882.969 182.365 883.618 182.202 884.346 182.202C885.289 182.202 886.063 182.431 886.67 182.888C887.286 183.345 887.692 183.98 887.888 184.792H886.516C886.385 184.325 886.129 183.957 885.746 183.686C885.373 183.415 884.906 183.28 884.346 183.28C883.618 183.28 883.03 183.532 882.582 184.036C882.134 184.531 881.91 185.235 881.91 186.15C881.91 187.074 882.134 187.788 882.582 188.292C883.03 188.796 883.618 189.048 884.346 189.048C884.906 189.048 885.373 188.917 885.746 188.656C886.119 188.395 886.376 188.021 886.516 187.536H887.888C887.683 188.32 887.272 188.95 886.656 189.426C886.04 189.893 885.27 190.126 884.346 190.126C883.618 190.126 882.969 189.963 882.4 189.636C881.84 189.309 881.401 188.847 881.084 188.25C880.767 187.653 880.608 186.953 880.608 186.15ZM891.142 183.378V187.9C891.142 188.273 891.221 188.539 891.38 188.698C891.538 188.847 891.814 188.922 892.206 188.922H893.144V190H891.996C891.286 190 890.754 189.837 890.4 189.51C890.045 189.183 889.868 188.647 889.868 187.9V183.378H888.874V182.328H889.868V180.396H891.142V182.328H893.144V183.378H891.142Z" fill="#5E646D"/>
<path d="M294.976 180.312V190H293.702V182.776L290.482 190H289.586L286.352 182.762V190H285.078V180.312H286.45L290.034 188.32L293.618 180.312H294.976ZM296.661 186.136C296.661 185.352 296.819 184.666 297.137 184.078C297.454 183.481 297.888 183.019 298.439 182.692C298.999 182.365 299.619 182.202 300.301 182.202C300.973 182.202 301.556 182.347 302.051 182.636C302.545 182.925 302.914 183.289 303.157 183.728V182.328H304.445V190H303.157V188.572C302.905 189.02 302.527 189.393 302.023 189.692C301.528 189.981 300.949 190.126 300.287 190.126C299.605 190.126 298.989 189.958 298.439 189.622C297.888 189.286 297.454 188.815 297.137 188.208C296.819 187.601 296.661 186.911 296.661 186.136ZM303.157 186.15C303.157 185.571 303.04 185.067 302.807 184.638C302.573 184.209 302.256 183.882 301.855 183.658C301.463 183.425 301.029 183.308 300.553 183.308C300.077 183.308 299.643 183.42 299.251 183.644C298.859 183.868 298.546 184.195 298.313 184.624C298.079 185.053 297.963 185.557 297.963 186.136C297.963 186.724 298.079 187.237 298.313 187.676C298.546 188.105 298.859 188.437 299.251 188.67C299.643 188.894 300.077 189.006 300.553 189.006C301.029 189.006 301.463 188.894 301.855 188.67C302.256 188.437 302.573 188.105 302.807 187.676C303.04 187.237 303.157 186.729 303.157 186.15ZM307.872 183.574C308.096 183.135 308.413 182.795 308.824 182.552C309.244 182.309 309.752 182.188 310.35 182.188V183.504H310.014C308.586 183.504 307.872 184.279 307.872 185.828V190H306.598V182.328H307.872V183.574Z" fill="#5E646D"/>
<path d="M625.992 180.242V187.452C625.992 188.255 625.745 188.899 625.25 189.384C624.755 189.86 624.102 190.098 623.29 190.098C622.469 190.098 621.811 189.855 621.316 189.37C620.821 188.875 620.574 188.203 620.574 187.354H621.848C621.857 187.83 621.979 188.217 622.212 188.516C622.455 188.815 622.814 188.964 623.29 188.964C623.766 188.964 624.121 188.824 624.354 188.544C624.587 188.255 624.704 187.891 624.704 187.452V180.242H625.992ZM635.306 182.328V190H634.032V188.866C633.789 189.258 633.448 189.566 633.01 189.79C632.58 190.005 632.104 190.112 631.582 190.112C630.984 190.112 630.448 189.991 629.972 189.748C629.496 189.496 629.118 189.123 628.838 188.628C628.567 188.133 628.432 187.531 628.432 186.822V182.328H629.692V186.654C629.692 187.41 629.883 187.993 630.266 188.404C630.648 188.805 631.171 189.006 631.834 189.006C632.515 189.006 633.052 188.796 633.444 188.376C633.836 187.956 634.032 187.345 634.032 186.542V182.328H635.306ZM638.731 179.64V190H637.457V179.64H638.731Z" fill="#5E646D"/>
<path d="M961.75 190H960.476L955.352 182.23V190H954.078V180.228H955.352L960.476 187.984V180.228H961.75V190ZM967.268 190.126C966.549 190.126 965.896 189.963 965.308 189.636C964.729 189.309 964.272 188.847 963.936 188.25C963.609 187.643 963.446 186.943 963.446 186.15C963.446 185.366 963.614 184.675 963.95 184.078C964.295 183.471 964.762 183.009 965.35 182.692C965.938 182.365 966.596 182.202 967.324 182.202C968.052 182.202 968.71 182.365 969.298 182.692C969.886 183.009 970.348 183.467 970.684 184.064C971.029 184.661 971.202 185.357 971.202 186.15C971.202 186.943 971.024 187.643 970.67 188.25C970.324 188.847 969.853 189.309 969.256 189.636C968.658 189.963 967.996 190.126 967.268 190.126ZM967.268 189.006C967.725 189.006 968.154 188.899 968.556 188.684C968.957 188.469 969.279 188.147 969.522 187.718C969.774 187.289 969.9 186.766 969.9 186.15C969.9 185.534 969.778 185.011 969.536 184.582C969.293 184.153 968.976 183.835 968.584 183.63C968.192 183.415 967.767 183.308 967.31 183.308C966.843 183.308 966.414 183.415 966.022 183.63C965.639 183.835 965.331 184.153 965.098 184.582C964.864 185.011 964.748 185.534 964.748 186.15C964.748 186.775 964.86 187.303 965.084 187.732C965.317 188.161 965.625 188.483 966.008 188.698C966.39 188.903 966.81 189.006 967.268 189.006ZM975.733 188.824L978.113 182.328H979.471L976.461 190H974.977L971.967 182.328H973.339L975.733 188.824Z" fill="#5E646D"/>
<path d="M68.4082 169H569.805" stroke="#9BA0A7" stroke-width="0.5"/>
<path d="M68.4082 129H1093" stroke="#9BA0A7" stroke-width="0.5"/>
<path d="M68.4082 89H1093" stroke="#9BA0A7" stroke-width="0.5"/>
<path d="M68.4082 49H1093" stroke="#9BA0A7" stroke-width="0.5"/>
<path d="M68.4082 9H1093" stroke="#9BA0A7" stroke-width="0.5"/>
<path d="M89.2988 9V169" stroke="#9BA0A7" stroke-width="0.5"/>
<path d="M131.082 9V169" stroke="#9BA0A7" stroke-width="0.5"/>
<path d="M172.865 9V169" stroke="#9BA0A7" stroke-width="0.5"/>
<path d="M214.648 9V169" stroke="#9BA0A7" stroke-width="0.5"/>
<path d="M256.432 9V169" stroke="#9BA0A7" stroke-width="0.5"/>
<path d="M298.215 9V169" stroke="#9BA0A7" stroke-width="0.5"/>
<path d="M632.688 9V169" stroke="#9BA0A7" stroke-width="0.5"/>
<path d="M339.996 9V169" stroke="#9BA0A7" stroke-width="0.5"/>
<path d="M674.471 9V169" stroke="#9BA0A7" stroke-width="0.5"/>
<path d="M967.232 9V169" stroke="#9BA0A7" stroke-width="0.5"/>
<path d="M381.779 9V169" stroke="#9BA0A7" stroke-width="0.5"/>
<path d="M716.254 9V169" stroke="#9BA0A7" stroke-width="0.5"/>
<path d="M1009.02 9V169" stroke="#9BA0A7" stroke-width="0.5"/>
<path d="M423.564 9V169" stroke="#9BA0A7" stroke-width="0.5"/>
<path d="M758.037 9V169" stroke="#9BA0A7" stroke-width="0.5"/>
<path d="M1050.8 9V169" stroke="#9BA0A7" stroke-width="0.5"/>
<path d="M465.346 9V169" stroke="#9BA0A7" stroke-width="0.5"/>
<path d="M799.818 9V169" stroke="#9BA0A7" stroke-width="0.5"/>
<path d="M507.129 9V169" stroke="#9BA0A7" stroke-width="0.5"/>
<path d="M841.602 9V169" stroke="#9BA0A7" stroke-width="0.5"/>
<path d="M548.912 9V169" stroke="#9BA0A7" stroke-width="0.5"/>
<path d="M883.387 9V169" stroke="#9BA0A7" stroke-width="0.5"/>
<path d="M68.4082 9V169" stroke="#9BA0A7" stroke-width="0.5"/>
<path d="M590.623 9V169" stroke="#9BA0A7" stroke-width="0.5"/>
<path d="M925.096 9V169" stroke="#9BA0A7" stroke-width="0.5"/>
<path d="M68.4082 169H1093" stroke="#070707"/>
<path d="M130.943 175V169" stroke="#9BA0A7"/>
<path d="M214.299 175V169" stroke="#9BA0A7"/>
<path d="M381.922 175V169" stroke="#9BA0A7"/>
<path d="M298.145 175V169" stroke="#9BA0A7"/>
<path d="M548.842 175V169" stroke="#9BA0A7"/>
<path d="M716.533 175V169" stroke="#9BA0A7"/>
<path d="M883.387 175V169" stroke="#9BA0A7"/>
<path d="M1051.08 175V169" stroke="#9BA0A7"/>
<path d="M464.996 175V169" stroke="#9BA0A7"/>
<path d="M632.688 175V169" stroke="#9BA0A7"/>
<path d="M799.541 175V169" stroke="#9BA0A7"/>
<path d="M967.232 175V169" stroke="#9BA0A7"/>
<path d="M68 9V169" stroke="#070707"/>
<path d="M63.377 169H68.4077" stroke="#9BA0A7"/>
<path d="M63.377 129H68.4077" stroke="#9BA0A7"/>
<path d="M63.377 89H68.4077" stroke="#9BA0A7"/>
<path d="M63.377 49H68.4077" stroke="#9BA0A7"/>
<path d="M63.377 9H68.4077" stroke="#9BA0A7"/>
<path d="M68.5 169L130.5 89.2401L213.5 108L297.5 49.5L381.163 89.2401H466.5L548.5 129.5L632.5 89.2401L717 49L800 158L883 106.5L967 119L1051 77.5" stroke="#1034A6"/>
<path d="M130.938 92C132.594 92 133.938 90.6569 133.938 89C133.938 87.3431 132.594 86 130.938 86C129.281 86 127.938 87.3431 127.938 89C127.938 90.6569 129.281 92 130.938 92Z" fill="#F3F6F9" stroke="#1034A6"/>
<path d="M298 52C299.657 52 301 50.6569 301 49C301 47.3431 299.657 46 298 46C296.343 46 295 47.3431 295 49C295 50.6569 296.343 52 298 52Z" fill="#F3F6F9" stroke="#1034A6"/>
<path d="M215 111C216.657 111 218 109.657 218 108C218 106.343 216.657 105 215 105C213.343 105 212 106.343 212 108C212 109.657 213.343 111 215 111Z" fill="#F3F6F9" stroke="#1034A6"/>
<path d="M381.475 92C383.131 92 384.475 90.6569 384.475 89C384.475 87.3431 383.131 86 381.475 86C379.818 86 378.475 87.3431 378.475 89C378.475 90.6569 379.818 92 381.475 92Z" fill="#F3F6F9" stroke="#1034A6"/>
<path d="M465 92C466.657 92 468 90.6569 468 89C468 87.3431 466.657 86 465 86C463.343 86 462 87.3431 462 89C462 90.6569 463.343 92 465 92Z" fill="#F3F6F9" stroke="#1034A6"/>
<path d="M549 132C550.657 132 552 130.657 552 129C552 127.343 550.657 126 549 126C547.343 126 546 127.343 546 129C546 130.657 547.343 132 549 132Z" fill="#F3F6F9" stroke="#1034A6"/>
<path d="M633 92C634.657 92 636 90.6569 636 89C636 87.3431 634.657 86 633 86C631.343 86 630 87.3431 630 89C630 90.6569 631.343 92 633 92Z" fill="#F3F6F9" stroke="#1034A6"/>
<path d="M717 52C718.657 52 720 50.6569 720 49C720 47.3431 718.657 46 717 46C715.343 46 714 47.3431 714 49C714 50.6569 715.343 52 717 52Z" fill="#F3F6F9" stroke="#1034A6"/>
<path d="M800 161C801.657 161 803 159.657 803 158C803 156.343 801.657 155 800 155C798.343 155 797 156.343 797 158C797 159.657 798.343 161 800 161Z" fill="#F3F6F9" stroke="#1034A6"/>
<path d="M883 110C884.657 110 886 108.657 886 107C886 105.343 884.657 104 883 104C881.343 104 880 105.343 880 107C880 108.657 881.343 110 883 110Z" fill="#F3F6F9" stroke="#1034A6"/>
<path d="M968 122C969.657 122 971 120.657 971 119C971 117.343 969.657 116 968 116C966.343 116 965 117.343 965 119C965 120.657 966.343 122 968 122Z" fill="#F3F6F9" stroke="#1034A6"/>
<path d="M1051 81C1052.66 81 1054 79.6569 1054 78C1054 76.3431 1052.66 75 1051 75C1049.34 75 1048 76.3431 1048 78C1048 79.6569 1049.34 81 1051 81Z" fill="#F3F6F9" stroke="#1034A6"/>
<path d="M489.976 213.312V223H488.702V215.776L485.482 223H484.586L481.352 215.762V223H480.078V213.312H481.45L485.034 221.32L488.618 213.312H489.976ZM495.483 223.126C494.764 223.126 494.111 222.963 493.523 222.636C492.944 222.309 492.487 221.847 492.151 221.25C491.824 220.643 491.661 219.943 491.661 219.15C491.661 218.366 491.829 217.675 492.165 217.078C492.51 216.471 492.977 216.009 493.565 215.692C494.153 215.365 494.811 215.202 495.539 215.202C496.267 215.202 496.925 215.365 497.513 215.692C498.101 216.009 498.563 216.467 498.899 217.064C499.244 217.661 499.417 218.357 499.417 219.15C499.417 219.943 499.239 220.643 498.885 221.25C498.539 221.847 498.068 222.309 497.471 222.636C496.873 222.963 496.211 223.126 495.483 223.126ZM495.483 222.006C495.94 222.006 496.369 221.899 496.771 221.684C497.172 221.469 497.494 221.147 497.737 220.718C497.989 220.289 498.115 219.766 498.115 219.15C498.115 218.534 497.993 218.011 497.751 217.582C497.508 217.153 497.191 216.835 496.799 216.63C496.407 216.415 495.982 216.308 495.525 216.308C495.058 216.308 494.629 216.415 494.237 216.63C493.854 216.835 493.546 217.153 493.313 217.582C493.079 218.011 492.963 218.534 492.963 219.15C492.963 219.775 493.075 220.303 493.299 220.732C493.532 221.161 493.84 221.483 494.223 221.698C494.605 221.903 495.025 222.006 495.483 222.006ZM504.83 215.188C505.763 215.188 506.519 215.473 507.098 216.042C507.676 216.602 507.966 217.414 507.966 218.478V223H506.706V218.66C506.706 217.895 506.514 217.311 506.132 216.91C505.749 216.499 505.226 216.294 504.564 216.294C503.892 216.294 503.355 216.504 502.954 216.924C502.562 217.344 502.366 217.955 502.366 218.758V223H501.092V215.328H502.366V216.42C502.618 216.028 502.958 215.725 503.388 215.51C503.826 215.295 504.307 215.188 504.83 215.188ZM511.601 216.378V220.9C511.601 221.273 511.68 221.539 511.839 221.698C511.997 221.847 512.273 221.922 512.665 221.922H513.603V223H512.455C511.745 223 511.213 222.837 510.859 222.51C510.504 222.183 510.327 221.647 510.327 220.9V216.378H509.333V215.328H510.327V213.396H511.601V215.328H513.603V216.378H511.601ZM518.954 215.188C519.533 215.188 520.056 215.314 520.522 215.566C520.989 215.809 521.353 216.177 521.614 216.672C521.885 217.167 522.02 217.769 522.02 218.478V223H520.76V218.66C520.76 217.895 520.569 217.311 520.186 216.91C519.804 216.499 519.281 216.294 518.618 216.294C517.946 216.294 517.41 216.504 517.008 216.924C516.616 217.344 516.42 217.955 516.42 218.758V223H515.146V212.64H516.42V216.42C516.672 216.028 517.018 215.725 517.456 215.51C517.904 215.295 518.404 215.188 518.954 215.188ZM525.375 212.64V223H524.101V212.64H525.375ZM534.155 215.328L529.535 226.612H528.219L529.731 222.916L526.637 215.328H528.051L530.459 221.544L532.839 215.328H534.155ZM536.751 221.236L535.183 225.002H534.329L535.351 221.236H536.751ZM541.579 221.978C542.765 221.026 543.693 220.247 544.365 219.64C545.037 219.024 545.602 218.385 546.059 217.722C546.526 217.05 546.759 216.392 546.759 215.748C546.759 215.141 546.61 214.665 546.311 214.32C546.022 213.965 545.551 213.788 544.897 213.788C544.263 213.788 543.768 213.989 543.413 214.39C543.068 214.782 542.881 215.309 542.853 215.972H541.621C541.659 214.927 541.976 214.119 542.573 213.55C543.171 212.981 543.941 212.696 544.883 212.696C545.845 212.696 546.605 212.962 547.165 213.494C547.735 214.026 548.019 214.759 548.019 215.692C548.019 216.467 547.786 217.223 547.319 217.96C546.862 218.688 546.339 219.332 545.751 219.892C545.163 220.443 544.412 221.087 543.497 221.824H548.313V222.888H541.579V221.978ZM549.786 217.834C549.786 216.229 550.047 214.978 550.57 214.082C551.093 213.177 552.007 212.724 553.314 212.724C554.611 212.724 555.521 213.177 556.044 214.082C556.567 214.978 556.828 216.229 556.828 217.834C556.828 219.467 556.567 220.737 556.044 221.642C555.521 222.547 554.611 223 553.314 223C552.007 223 551.093 222.547 550.57 221.642C550.047 220.737 549.786 219.467 549.786 217.834ZM555.568 217.834C555.568 217.022 555.512 216.336 555.4 215.776C555.297 215.207 555.078 214.749 554.742 214.404C554.415 214.059 553.939 213.886 553.314 213.886C552.679 213.886 552.194 214.059 551.858 214.404C551.531 214.749 551.312 215.207 551.2 215.776C551.097 216.336 551.046 217.022 551.046 217.834C551.046 218.674 551.097 219.379 551.2 219.948C551.312 220.517 551.531 220.975 551.858 221.32C552.194 221.665 552.679 221.838 553.314 221.838C553.939 221.838 554.415 221.665 554.742 221.32C555.078 220.975 555.297 220.517 555.4 219.948C555.512 219.379 555.568 218.674 555.568 217.834ZM558.241 214.04V212.878H560.873V223H559.585V214.04H558.241ZM564.699 220.284C564.793 220.816 565.007 221.227 565.343 221.516C565.689 221.805 566.151 221.95 566.729 221.95C567.504 221.95 568.073 221.647 568.437 221.04C568.811 220.433 568.988 219.411 568.969 217.974C568.773 218.394 568.447 218.725 567.989 218.968C567.532 219.201 567.023 219.318 566.463 219.318C565.838 219.318 565.278 219.192 564.783 218.94C564.298 218.679 563.915 218.301 563.635 217.806C563.355 217.311 563.215 216.714 563.215 216.014C563.215 215.015 563.505 214.213 564.083 213.606C564.662 212.99 565.483 212.682 566.547 212.682C567.854 212.682 568.769 213.107 569.291 213.956C569.823 214.805 570.089 216.07 570.089 217.75C570.089 218.926 569.982 219.897 569.767 220.662C569.562 221.427 569.207 222.011 568.703 222.412C568.209 222.813 567.527 223.014 566.659 223.014C565.707 223.014 564.965 222.757 564.433 222.244C563.901 221.731 563.598 221.077 563.523 220.284H564.699ZM566.673 218.24C567.299 218.24 567.812 218.049 568.213 217.666C568.615 217.274 568.815 216.747 568.815 216.084C568.815 215.384 568.619 214.819 568.227 214.39C567.835 213.961 567.285 213.746 566.575 213.746C565.922 213.746 565.399 213.951 565.007 214.362C564.625 214.773 564.433 215.314 564.433 215.986C564.433 216.667 564.625 217.213 565.007 217.624C565.39 218.035 565.945 218.24 566.673 218.24Z" fill="#111519"/>
<path d="M8.098 138.398C8.91 138.398 9.58667 138.678 10.128 139.238C10.66 139.789 10.926 140.633 10.926 141.772V143.648H15V144.922H5.242V141.772C5.242 140.671 5.508 139.835 6.04 139.266C6.572 138.687 7.258 138.398 8.098 138.398ZM9.876 141.772C9.876 141.063 9.722 140.54 9.414 140.204C9.106 139.868 8.66733 139.7 8.098 139.7C6.894 139.7 6.292 140.391 6.292 141.772V143.648H9.876V141.772ZM8.574 135.541C8.13533 135.317 7.79467 134.999 7.552 134.589C7.30933 134.169 7.188 133.66 7.188 133.063H8.504V133.399C8.504 134.827 9.27867 135.541 10.828 135.541H15V136.815H7.328V135.541H8.574ZM15.126 128.246C15.126 128.965 14.9627 129.618 14.636 130.206C14.3093 130.785 13.8473 131.242 13.25 131.578C12.6433 131.905 11.9433 132.068 11.15 132.068C10.366 132.068 9.67533 131.9 9.078 131.564C8.47133 131.219 8.00933 130.752 7.692 130.164C7.36533 129.576 7.202 128.918 7.202 128.19C7.202 127.462 7.36533 126.804 7.692 126.216C8.00933 125.628 8.46667 125.166 9.064 124.83C9.66133 124.485 10.3567 124.312 11.15 124.312C11.9433 124.312 12.6433 124.489 13.25 124.844C13.8473 125.189 14.3093 125.661 14.636 126.258C14.9627 126.855 15.126 127.518 15.126 128.246ZM14.006 128.246C14.006 127.789 13.8987 127.359 13.684 126.958C13.4693 126.557 13.1473 126.235 12.718 125.992C12.2887 125.74 11.766 125.614 11.15 125.614C10.534 125.614 10.0113 125.735 9.582 125.978C9.15267 126.221 8.83533 126.538 8.63 126.93C8.41533 127.322 8.308 127.747 8.308 128.204C8.308 128.671 8.41533 129.1 8.63 129.492C8.83533 129.875 9.15267 130.183 9.582 130.416C10.0113 130.649 10.534 130.766 11.15 130.766C11.7753 130.766 12.3027 130.654 12.732 130.43C13.1613 130.197 13.4833 129.889 13.698 129.506C13.9033 129.123 14.006 128.703 14.006 128.246ZM11.136 123.113C10.352 123.113 9.666 122.954 9.078 122.637C8.48067 122.32 8.01867 121.886 7.692 121.335C7.36533 120.775 7.202 120.15 7.202 119.459C7.202 118.862 7.342 118.306 7.622 117.793C7.89267 117.28 8.252 116.888 8.7 116.617H4.64V115.329H15V116.617H13.558C14.0153 116.869 14.3933 117.242 14.692 117.737C14.9813 118.232 15.126 118.81 15.126 119.473C15.126 120.154 14.958 120.775 14.622 121.335C14.286 121.886 13.8147 122.32 13.208 122.637C12.6013 122.954 11.9107 123.113 11.136 123.113ZM11.15 116.617C10.5713 116.617 10.0673 116.734 9.638 116.967C9.20867 117.2 8.882 117.518 8.658 117.919C8.42467 118.311 8.308 118.745 8.308 119.221C8.308 119.697 8.42 120.131 8.644 120.523C8.868 120.915 9.19467 121.228 9.624 121.461C10.0533 121.694 10.5573 121.811 11.136 121.811C11.724 121.811 12.2373 121.694 12.676 121.461C13.1053 121.228 13.4367 120.915 13.67 120.523C13.894 120.131 14.006 119.697 14.006 119.221C14.006 118.745 13.894 118.311 13.67 117.919C13.4367 117.518 13.1053 117.2 12.676 116.967C12.2373 116.734 11.7287 116.617 11.15 116.617ZM7.328 106.372H15V107.646H13.866C14.258 107.889 14.566 108.229 14.79 108.668C15.0047 109.097 15.112 109.573 15.112 110.096C15.112 110.693 14.9907 111.23 14.748 111.706C14.496 112.182 14.1227 112.56 13.628 112.84C13.1333 113.111 12.5313 113.246 11.822 113.246H7.328V111.986H11.654C12.41 111.986 12.9933 111.795 13.404 111.412C13.8053 111.029 14.006 110.507 14.006 109.844C14.006 109.163 13.796 108.626 13.376 108.234C12.956 107.842 12.3447 107.646 11.542 107.646H7.328V106.372ZM11.15 104.697C10.3567 104.697 9.666 104.538 9.078 104.221C8.48067 103.903 8.01867 103.465 7.692 102.905C7.36533 102.335 7.202 101.687 7.202 100.959C7.202 100.016 7.43067 99.2415 7.888 98.6348C8.34533 98.0188 8.98 97.6128 9.792 97.4168V98.7888C9.32533 98.9195 8.95667 99.1762 8.686 99.5588C8.41533 99.9322 8.28 100.399 8.28 100.959C8.28 101.687 8.532 102.275 9.036 102.723C9.53067 103.171 10.2353 103.395 11.15 103.395C12.074 103.395 12.788 103.171 13.292 102.723C13.796 102.275 14.048 101.687 14.048 100.959C14.048 100.399 13.9173 99.9322 13.656 99.5588C13.3947 99.1855 13.0213 98.9288 12.536 98.7888V97.4168C13.32 97.6222 13.95 98.0328 14.426 98.6488C14.8927 99.2648 15.126 100.035 15.126 100.959C15.126 101.687 14.9627 102.335 14.636 102.905C14.3093 103.465 13.8473 103.903 13.25 104.221C12.6527 104.538 11.9527 104.697 11.15 104.697ZM8.378 94.1629H12.9C13.2733 94.1629 13.5393 94.0836 13.698 93.9249C13.8473 93.7663 13.922 93.4909 13.922 93.0989V92.1609H15V93.3089C15 94.0183 14.8367 94.5503 14.51 94.9049C14.1833 95.2596 13.6467 95.4369 12.9 95.4369H8.378V96.4309H7.328V95.4369H5.396L5.396 94.1629H7.328V92.1609H8.378V94.1629ZM10.114 87.3609C9.162 87.3609 8.308 87.1462 7.552 86.7169C6.78667 86.2876 6.18933 85.7042 5.76 84.9669C5.33067 84.2202 5.116 83.3942 5.116 82.4889C5.116 81.4249 5.37267 80.4962 5.886 79.7029C6.39933 78.9096 7.12733 78.3309 8.07 77.9669V79.4929C7.482 79.7636 7.02933 80.1556 6.712 80.6689C6.39467 81.1729 6.236 81.7796 6.236 82.4889C6.236 83.1702 6.39467 83.7816 6.712 84.3229C7.02933 84.8642 7.482 85.2889 8.07 85.5969C8.64867 85.9049 9.33 86.0589 10.114 86.0589C10.8887 86.0589 11.57 85.9049 12.158 85.5969C12.7367 85.2889 13.1847 84.8642 13.502 84.3229C13.8193 83.7816 13.978 83.1702 13.978 82.4889C13.978 81.7796 13.824 81.1729 13.516 80.6689C13.1987 80.1556 12.746 79.7636 12.158 79.4929V77.9669C13.0913 78.3309 13.8147 78.9096 14.328 79.7029C14.832 80.4962 15.084 81.4249 15.084 82.4889C15.084 83.3942 14.874 84.2202 14.454 84.9669C14.0247 85.7042 13.432 86.2876 12.676 86.7169C11.92 87.1462 11.066 87.3609 10.114 87.3609ZM15.126 72.7244C15.126 73.4431 14.9627 74.0964 14.636 74.6844C14.3093 75.2631 13.8473 75.7204 13.25 76.0564C12.6433 76.3831 11.9433 76.5464 11.15 76.5464C10.366 76.5464 9.67533 76.3784 9.078 76.0424C8.47133 75.6971 8.00933 75.2304 7.692 74.6424C7.36533 74.0544 7.202 73.3964 7.202 72.6684C7.202 71.9404 7.36533 71.2824 7.692 70.6944C8.00933 70.1064 8.46667 69.6444 9.064 69.3084C9.66133 68.9631 10.3567 68.7904 11.15 68.7904C11.9433 68.7904 12.6433 68.9678 13.25 69.3224C13.8473 69.6678 14.3093 70.1391 14.636 70.7364C14.9627 71.3338 15.126 71.9964 15.126 72.7244ZM14.006 72.7244C14.006 72.2671 13.8987 71.8378 13.684 71.4364C13.4693 71.0351 13.1473 70.7131 12.718 70.4704C12.2887 70.2184 11.766 70.0924 11.15 70.0924C10.534 70.0924 10.0113 70.2138 9.582 70.4564C9.15267 70.6991 8.83533 71.0164 8.63 71.4084C8.41533 71.8004 8.308 72.2251 8.308 72.6824C8.308 73.1491 8.41533 73.5784 8.63 73.9704C8.83533 74.3531 9.15267 74.6611 9.582 74.8944C10.0113 75.1278 10.534 75.2444 11.15 75.2444C11.7753 75.2444 12.3027 75.1324 12.732 74.9084C13.1613 74.6751 13.4833 74.3671 13.698 73.9844C13.9033 73.6018 14.006 73.1818 14.006 72.7244ZM15.126 64.3994C15.126 64.9874 15.028 65.5147 14.832 65.9814C14.6267 66.448 14.3467 66.8167 13.992 67.0874C13.628 67.358 13.2127 67.5074 12.746 67.5354V66.2194C13.1287 66.182 13.4413 66.0047 13.684 65.6874C13.9267 65.3607 14.048 64.936 14.048 64.4134C14.048 63.928 13.9407 63.5454 13.726 63.2654C13.5113 62.9854 13.2407 62.8454 12.914 62.8454C12.578 62.8454 12.3307 62.9947 12.172 63.2934C12.004 63.592 11.8407 64.054 11.682 64.6794C11.5327 65.2487 11.3833 65.7154 11.234 66.0794C11.0753 66.434 10.8467 66.742 10.548 67.0034C10.24 67.2554 9.83867 67.3814 9.344 67.3814C8.952 67.3814 8.59267 67.2647 8.266 67.0314C7.93933 66.798 7.68267 66.4667 7.496 66.0374C7.3 65.608 7.202 65.118 7.202 64.5674C7.202 63.718 7.41667 63.032 7.846 62.5094C8.27533 61.9867 8.86333 61.7067 9.61 61.6694V62.9434C9.20867 62.9714 8.88667 63.1347 8.644 63.4334C8.40133 63.7227 8.28 64.1147 8.28 64.6094C8.28 65.0667 8.378 65.4307 8.574 65.7014C8.77 65.972 9.02667 66.1074 9.344 66.1074C9.596 66.1074 9.806 66.028 9.974 65.8694C10.1327 65.7014 10.2633 65.496 10.366 65.2534C10.4593 65.0014 10.5667 64.656 10.688 64.2174C10.8373 63.6667 10.9867 63.2187 11.136 62.8734C11.276 62.528 11.4907 62.234 11.78 61.9914C12.0693 61.7394 12.4473 61.6087 12.914 61.5994C13.334 61.5994 13.712 61.716 14.048 61.9494C14.384 62.1827 14.65 62.514 14.846 62.9434C15.0327 63.3634 15.126 63.8487 15.126 64.3994ZM8.378 58.2469H12.9C13.2733 58.2469 13.5393 58.1676 13.698 58.0089C13.8473 57.8502 13.922 57.5749 13.922 57.1829V56.2449H15V57.3929C15 58.1022 14.8367 58.6342 14.51 58.9889C14.1833 59.3436 13.6467 59.5209 12.9 59.5209H8.378V60.5149H7.328V59.5209H5.396V58.2469H7.328V56.2449H8.378V58.2469Z" fill="#111519"/>
<path d="M1044 209.75L1036.5 217.328V202.172L1044 209.75Z" fill="#5E646D"/>
<path d="M69 209.75L76.5 217.328V202.172L69 209.75Z" fill="#5E646D"/>
</g>
<defs>
<clipPath id="clip0">
<rect width="1051" height="229" fill="white"/>
</clipPath>
</defs>
</svg>
