<svg width="65" height="65" viewBox="0 0 65 65" fill="none" xmlns="http://www.w3.org/2000/svg">
<path fill-rule="evenodd" clip-rule="evenodd" d="M35.4545 17.7273V6.07138C48.7499 7.5411 59.0909 18.8129 59.0909 32.5C59.0909 47.1858 47.1858 59.0909 32.5 59.0909C17.8142 59.0909 5.90909 47.1858 5.90909 32.5C5.90909 25.3316 8.7548 18.6215 13.7327 13.6621L9.56215 9.47599C3.48235 15.5332 0 23.7444 0 32.5C0 50.4493 14.5507 65 32.5 65C50.4493 65 65 50.4493 65 32.5C65 14.5507 50.4493 0 32.5 0H29.5455V17.7273H35.4545ZM32.5002 26.5908C31.9709 26.5908 31.4578 26.6604 30.9696 26.7909L19.8167 15.6379L15.6383 19.8163L26.7913 30.9693C26.6607 31.4574 26.5911 31.9705 26.5911 32.4998C26.5911 35.7633 29.2367 38.4089 32.5002 38.4089C35.7637 38.4089 38.4093 35.7633 38.4093 32.4998C38.4093 29.2363 35.7637 26.5908 32.5002 26.5908Z" fill="#507FDF"/>
</svg>
