<svg width="60" height="60" viewBox="0 0 60 60" fill="none" xmlns="http://www.w3.org/2000/svg">
<path fill-rule="evenodd" clip-rule="evenodd" d="M5.45455 0H54.5455C57.5579 0 60 2.98477 60 6.66667V27.0003V33.0003V53.3333C60 57.0152 57.5579 60 54.5455 60H5.45455C2.44208 60 0 57.0152 0 53.3333V6.66667C0 2.98477 2.44208 0 5.45455 0ZM54 27.0003V6H6V27.0003H16.2426L22.9881 33.7457L32.2866 12.0491L43.5 27.0003H54ZM6 33.0003H13.7574L25.0119 44.2548L33.7134 23.9515L40.5 33.0003H54V54H6V33.0003Z" fill="#507FDF"/>
</svg>
